G04 (created by PCBNEW (2013-jul-07)-stable) date Fri 01 Aug 2014 03:38:15 PM EDT*
%MOIN*%
G04 Gerber Fmt 3.4, Leading zero omitted, Abs format*
%FSLAX34Y34*%
G01*
G70*
G90*
G04 APERTURE LIST*
%ADD10C,0.00590551*%
%ADD11C,0.009*%
%ADD12C,0.155*%
%ADD13O,0.06X0.1*%
%ADD14C,0.06*%
%ADD15C,0.16*%
%ADD16C,0.076*%
%ADD17C,0.14*%
%ADD18R,0.05X0.1*%
%ADD19R,0.05X0.015*%
%ADD20C,0.035*%
%ADD21C,0.036*%
%ADD22C,0.008*%
%ADD23C,0.024*%
%ADD24C,0.016*%
G04 APERTURE END LIST*
G54D10*
G54D11*
X110000Y-29000D02*
X7500Y-29000D01*
X110000Y-50000D02*
X110000Y-29000D01*
X7500Y-50000D02*
X110000Y-50000D01*
X7500Y-29000D02*
X7500Y-50000D01*
G54D12*
X14500Y-49000D03*
X15000Y-30000D03*
X47000Y-49000D03*
X44500Y-30000D03*
G54D13*
X20000Y-49000D03*
X21000Y-49000D03*
X22000Y-49000D03*
X23000Y-49000D03*
X24000Y-49000D03*
X25000Y-49000D03*
X26000Y-49000D03*
X27000Y-49000D03*
X29000Y-49000D03*
X30000Y-49000D03*
X31000Y-49000D03*
X32000Y-49000D03*
X33000Y-49000D03*
X34000Y-49000D03*
X35000Y-49000D03*
X36000Y-49000D03*
X38000Y-49000D03*
X39000Y-49000D03*
X40000Y-49000D03*
X41000Y-49000D03*
X42000Y-49000D03*
X43000Y-49000D03*
X44000Y-49000D03*
X45000Y-49000D03*
X16400Y-30000D03*
X17400Y-30000D03*
X18400Y-30000D03*
X19400Y-30000D03*
X20400Y-30000D03*
X21400Y-30000D03*
X22400Y-30000D03*
X23400Y-30000D03*
X24400Y-30000D03*
X25400Y-30000D03*
X27000Y-30000D03*
X34000Y-30000D03*
X33000Y-30000D03*
X32000Y-30000D03*
X31000Y-30000D03*
X30000Y-30000D03*
X29000Y-30000D03*
X28000Y-30000D03*
X36000Y-30000D03*
X37000Y-30000D03*
X38000Y-30000D03*
X39000Y-30000D03*
X40000Y-30000D03*
X41000Y-30000D03*
X42000Y-30000D03*
X43000Y-30000D03*
G54D14*
X46000Y-30000D03*
X47000Y-30000D03*
X46000Y-31000D03*
X47000Y-31000D03*
X46000Y-32000D03*
X47000Y-32000D03*
X46000Y-33000D03*
X47000Y-33000D03*
X46000Y-34000D03*
X47000Y-34000D03*
X46000Y-35000D03*
X47000Y-35000D03*
X46000Y-36000D03*
X47000Y-36000D03*
X46000Y-37000D03*
X47000Y-37000D03*
X46000Y-38000D03*
X47000Y-38000D03*
X46000Y-39000D03*
X47000Y-39000D03*
X46000Y-40000D03*
X47000Y-40000D03*
X46000Y-41000D03*
X47000Y-41000D03*
X46000Y-42000D03*
X47000Y-42000D03*
X46000Y-43000D03*
X47000Y-43000D03*
X46000Y-44000D03*
X47000Y-44000D03*
X46000Y-45000D03*
X47000Y-45000D03*
X46000Y-46000D03*
X47000Y-46000D03*
X46000Y-47000D03*
X47000Y-47000D03*
G54D15*
X89000Y-36500D03*
X92000Y-36500D03*
X97000Y-36500D03*
X100000Y-36500D03*
X105000Y-36500D03*
X108000Y-36500D03*
X73000Y-36500D03*
X76000Y-36500D03*
X65000Y-36500D03*
X68000Y-36500D03*
X49000Y-36500D03*
X52000Y-36500D03*
X57000Y-36500D03*
X60000Y-36500D03*
X81000Y-36500D03*
X84000Y-36500D03*
X25000Y-36500D03*
X28000Y-36500D03*
X17000Y-36500D03*
X20000Y-36500D03*
X33000Y-36500D03*
X36000Y-36500D03*
X41000Y-36500D03*
X44000Y-36500D03*
G54D16*
X8680Y-39500D03*
G54D17*
X9860Y-39500D03*
G54D15*
X12220Y-39500D03*
G54D17*
X9470Y-41270D03*
X9470Y-37730D03*
G54D18*
X39100Y-46500D03*
X37900Y-46500D03*
X55100Y-46500D03*
X53900Y-46500D03*
X13100Y-36500D03*
X11900Y-36500D03*
G54D19*
X40500Y-41250D03*
X40500Y-40750D03*
X40500Y-40250D03*
X40500Y-39750D03*
X40500Y-39250D03*
X40500Y-38750D03*
X40500Y-41750D03*
X40500Y-42250D03*
X40500Y-42750D03*
X40500Y-43250D03*
X40500Y-43750D03*
X40500Y-44250D03*
X36500Y-44250D03*
X36500Y-43750D03*
X36500Y-43250D03*
X36500Y-42750D03*
X36500Y-42250D03*
X36500Y-41750D03*
X36500Y-41250D03*
X36500Y-40750D03*
X36500Y-40250D03*
X36500Y-39750D03*
X36500Y-39250D03*
X36500Y-38750D03*
X56500Y-41250D03*
X56500Y-40750D03*
X56500Y-40250D03*
X56500Y-39750D03*
X56500Y-39250D03*
X56500Y-38750D03*
X56500Y-41750D03*
X56500Y-42250D03*
X56500Y-42750D03*
X56500Y-43250D03*
X56500Y-43750D03*
X56500Y-44250D03*
X52500Y-44250D03*
X52500Y-43750D03*
X52500Y-43250D03*
X52500Y-42750D03*
X52500Y-42250D03*
X52500Y-41750D03*
X52500Y-41250D03*
X52500Y-40750D03*
X52500Y-40250D03*
X52500Y-39750D03*
X52500Y-39250D03*
X52500Y-38750D03*
G54D12*
X78500Y-49000D03*
X78500Y-30000D03*
X102500Y-49000D03*
X102500Y-30000D03*
G54D20*
X53922Y-42028D03*
X54239Y-41152D03*
X97676Y-47029D03*
X90085Y-46946D03*
X82085Y-46961D03*
X73711Y-46614D03*
X53632Y-44748D03*
X53401Y-43811D03*
X37075Y-39923D03*
X35855Y-39961D03*
X52974Y-38509D03*
X35960Y-38733D03*
X40160Y-46637D03*
X37026Y-43799D03*
X51878Y-40726D03*
X55124Y-40726D03*
X41656Y-40500D03*
G54D21*
X52500Y-39250D02*
X53030Y-39250D01*
X56500Y-43750D02*
X55969Y-43750D01*
X55000Y-43750D02*
X55100Y-43750D01*
X53030Y-41779D02*
X55000Y-43750D01*
X53030Y-39250D02*
X53030Y-41779D01*
X55100Y-43750D02*
X55969Y-43750D01*
X55100Y-43750D02*
X55100Y-46500D01*
X55100Y-46500D02*
X54569Y-46500D01*
X39100Y-46500D02*
X38569Y-46500D01*
X24000Y-49000D02*
X24000Y-48219D01*
X27055Y-45164D02*
X24000Y-48219D01*
X35386Y-45164D02*
X27055Y-45164D01*
X35386Y-39761D02*
X35386Y-45164D01*
X35897Y-39250D02*
X35386Y-39761D01*
X36500Y-39250D02*
X35897Y-39250D01*
X38569Y-46996D02*
X38569Y-46500D01*
X38275Y-47291D02*
X38569Y-46996D01*
X37513Y-47291D02*
X38275Y-47291D01*
X35386Y-45164D02*
X37513Y-47291D01*
X39100Y-46500D02*
X39630Y-46500D01*
X41837Y-47587D02*
X40190Y-45940D01*
X53958Y-47587D02*
X41837Y-47587D01*
X54569Y-46976D02*
X53958Y-47587D01*
X54569Y-46500D02*
X54569Y-46976D01*
X40190Y-45940D02*
X39630Y-46500D01*
X39969Y-45719D02*
X39969Y-43750D01*
X40190Y-45940D02*
X39969Y-45719D01*
X40500Y-43750D02*
X39969Y-43750D01*
G54D22*
X41127Y-38750D02*
X40500Y-38750D01*
X45937Y-43559D02*
X41127Y-38750D01*
X46559Y-43559D02*
X45937Y-43559D01*
X47000Y-44000D02*
X46559Y-43559D01*
X53922Y-40937D02*
X53922Y-42028D01*
X56109Y-38750D02*
X53922Y-40937D01*
X56500Y-38750D02*
X56109Y-38750D01*
X56500Y-39250D02*
X56109Y-39250D01*
X41250Y-39250D02*
X40500Y-39250D01*
X46000Y-44000D02*
X41250Y-39250D01*
X56109Y-39282D02*
X54239Y-41152D01*
X56109Y-39250D02*
X56109Y-39282D01*
X45250Y-44250D02*
X46000Y-45000D01*
X40500Y-44250D02*
X45250Y-44250D01*
X48250Y-43750D02*
X47000Y-45000D01*
X52500Y-43750D02*
X48250Y-43750D01*
G54D23*
X52500Y-40250D02*
X52029Y-40250D01*
X51688Y-39908D02*
X52029Y-40250D01*
X51688Y-38407D02*
X51688Y-39908D01*
X52416Y-37680D02*
X51688Y-38407D01*
X57263Y-37680D02*
X52416Y-37680D01*
X60859Y-34084D02*
X57263Y-37680D01*
X96028Y-34084D02*
X60859Y-34084D01*
X99465Y-37521D02*
X96028Y-34084D01*
X103978Y-37521D02*
X99465Y-37521D01*
X105000Y-36500D02*
X103978Y-37521D01*
X97000Y-46352D02*
X97676Y-47029D01*
X97000Y-36500D02*
X97000Y-46352D01*
X52500Y-39750D02*
X52029Y-39750D01*
X52029Y-38577D02*
X52029Y-39750D01*
X52587Y-38020D02*
X52029Y-38577D01*
X59949Y-38020D02*
X52587Y-38020D01*
X63544Y-34424D02*
X59949Y-38020D01*
X94924Y-34424D02*
X63544Y-34424D01*
X97000Y-36500D02*
X94924Y-34424D01*
X26051Y-37551D02*
X25000Y-36500D01*
X37831Y-37551D02*
X26051Y-37551D01*
X40029Y-39750D02*
X37831Y-37551D01*
X40500Y-39750D02*
X40029Y-39750D01*
X18391Y-37891D02*
X17000Y-36500D01*
X37170Y-37891D02*
X18391Y-37891D01*
X39528Y-40250D02*
X37170Y-37891D01*
X40500Y-40250D02*
X39528Y-40250D01*
X89000Y-45861D02*
X89000Y-36500D01*
X90085Y-46946D02*
X89000Y-45861D01*
X58882Y-39750D02*
X56500Y-39750D01*
X63867Y-34764D02*
X58882Y-39750D01*
X87264Y-34764D02*
X63867Y-34764D01*
X89000Y-36500D02*
X87264Y-34764D01*
X81000Y-45876D02*
X81000Y-36500D01*
X82085Y-46961D02*
X81000Y-45876D01*
X79605Y-35105D02*
X81000Y-36500D01*
X64008Y-35105D02*
X79605Y-35105D01*
X58863Y-40250D02*
X64008Y-35105D01*
X56500Y-40250D02*
X58863Y-40250D01*
X73000Y-45903D02*
X73711Y-46614D01*
X73000Y-36500D02*
X73000Y-45903D01*
X71963Y-35463D02*
X73000Y-36500D01*
X64256Y-35463D02*
X71963Y-35463D01*
X56970Y-42750D02*
X64256Y-35463D01*
X56500Y-42750D02*
X56970Y-42750D01*
X58250Y-43250D02*
X65000Y-36500D01*
X56500Y-43250D02*
X58250Y-43250D01*
X52264Y-43250D02*
X52029Y-43250D01*
X52264Y-43250D02*
X52500Y-43250D01*
X52970Y-44086D02*
X53632Y-44748D01*
X52970Y-43250D02*
X52970Y-44086D01*
X52500Y-43250D02*
X52970Y-43250D01*
X47978Y-39198D02*
X52029Y-43250D01*
X47978Y-36051D02*
X47978Y-39198D01*
X48556Y-35472D02*
X47978Y-36051D01*
X55972Y-35472D02*
X48556Y-35472D01*
X57000Y-36500D02*
X55972Y-35472D01*
X52975Y-42750D02*
X52500Y-42750D01*
X53401Y-43176D02*
X52975Y-42750D01*
X53401Y-43811D02*
X53401Y-43176D01*
X49000Y-39720D02*
X49000Y-36500D01*
X52029Y-42750D02*
X49000Y-39720D01*
X52500Y-42750D02*
X52029Y-42750D01*
X36970Y-40028D02*
X37075Y-39923D01*
X36970Y-40250D02*
X36970Y-40028D01*
X36500Y-40250D02*
X36970Y-40250D01*
X36029Y-39786D02*
X35855Y-39961D01*
X36029Y-39750D02*
X36029Y-39786D01*
X36500Y-39750D02*
X36029Y-39750D01*
G54D22*
X52890Y-38593D02*
X52974Y-38509D01*
X52890Y-38750D02*
X52890Y-38593D01*
X52500Y-38750D02*
X52890Y-38750D01*
X36500Y-38750D02*
X36109Y-38750D01*
X36093Y-38733D02*
X36109Y-38750D01*
X35960Y-38733D02*
X36093Y-38733D01*
X52500Y-44250D02*
X52109Y-44250D01*
X50919Y-45440D02*
X46500Y-45440D01*
X52109Y-44250D02*
X50919Y-45440D01*
X46500Y-45500D02*
X46500Y-45440D01*
X46000Y-46000D02*
X46500Y-45500D01*
X46500Y-44867D02*
X46500Y-45440D01*
X46132Y-44500D02*
X46500Y-44867D01*
X45754Y-44500D02*
X46132Y-44500D01*
X44289Y-43034D02*
X45754Y-44500D01*
X38604Y-43034D02*
X44289Y-43034D01*
X37389Y-44250D02*
X38604Y-43034D01*
X36500Y-44250D02*
X37389Y-44250D01*
X36500Y-43750D02*
X36890Y-43750D01*
X56500Y-44250D02*
X56109Y-44250D01*
X36939Y-43799D02*
X36890Y-43750D01*
X37026Y-43799D02*
X36939Y-43799D01*
X41430Y-47907D02*
X40160Y-46637D01*
X54658Y-47907D02*
X41430Y-47907D01*
X56109Y-46456D02*
X54658Y-47907D01*
X56109Y-44250D02*
X56109Y-46456D01*
G54D24*
X52500Y-42250D02*
X52930Y-42250D01*
X52500Y-41750D02*
X52284Y-41750D01*
X52069Y-41965D02*
X52069Y-42250D01*
X52284Y-41750D02*
X52069Y-41965D01*
X52500Y-42250D02*
X52069Y-42250D01*
X52284Y-41250D02*
X52284Y-41750D01*
X52500Y-41250D02*
X52284Y-41250D01*
X56500Y-41250D02*
X56284Y-41250D01*
X56500Y-40750D02*
X56284Y-40750D01*
X36069Y-40750D02*
X36069Y-41250D01*
X53989Y-43309D02*
X52930Y-42250D01*
X53989Y-45730D02*
X53989Y-43309D01*
X53900Y-45819D02*
X53989Y-45730D01*
X53900Y-46500D02*
X53900Y-45819D01*
X52500Y-40750D02*
X52069Y-40750D01*
X52069Y-41034D02*
X52284Y-41250D01*
X52069Y-40750D02*
X52069Y-41034D01*
X56284Y-40750D02*
X56284Y-41250D01*
X55147Y-40750D02*
X55124Y-40726D01*
X56284Y-40750D02*
X55147Y-40750D01*
X51901Y-40750D02*
X51878Y-40726D01*
X52069Y-40750D02*
X51901Y-40750D01*
X56069Y-42250D02*
X56069Y-41750D01*
X56500Y-42250D02*
X56069Y-42250D01*
X56284Y-41750D02*
X56284Y-41250D01*
X56500Y-41750D02*
X56284Y-41750D01*
X56284Y-41750D02*
X56069Y-41750D01*
X36069Y-41250D02*
X36069Y-41750D01*
X36069Y-41750D02*
X36069Y-42250D01*
X40500Y-41250D02*
X40930Y-41250D01*
X40500Y-42250D02*
X40500Y-41750D01*
X40500Y-41750D02*
X40500Y-41250D01*
X36500Y-42250D02*
X36069Y-42250D01*
X36500Y-41750D02*
X36069Y-41750D01*
X37900Y-46500D02*
X37469Y-46500D01*
X36069Y-45100D02*
X37469Y-46500D01*
X36069Y-42250D02*
X36069Y-45100D01*
X25000Y-49000D02*
X25000Y-49680D01*
X23784Y-49680D02*
X25000Y-49680D01*
X23500Y-49395D02*
X23784Y-49680D01*
X23500Y-48184D02*
X23500Y-49395D01*
X19506Y-48184D02*
X23500Y-48184D01*
X10340Y-39019D02*
X19506Y-48184D01*
X11900Y-37460D02*
X10340Y-39019D01*
X11900Y-36500D02*
X11900Y-37460D01*
X10340Y-39019D02*
X9860Y-39500D01*
X36500Y-41250D02*
X36069Y-41250D01*
X36500Y-40750D02*
X36069Y-40750D01*
X40500Y-40750D02*
X40069Y-40750D01*
X40069Y-40750D02*
X37443Y-40750D01*
X37443Y-40750D02*
X36500Y-40750D01*
X37443Y-39110D02*
X37443Y-40750D01*
X36710Y-38377D02*
X37443Y-39110D01*
X33307Y-38377D02*
X36710Y-38377D01*
X23500Y-48184D02*
X33307Y-38377D01*
X40930Y-41250D02*
X40930Y-40750D01*
X40500Y-40750D02*
X40930Y-40750D01*
X41406Y-40750D02*
X40930Y-40750D01*
X41656Y-40500D02*
X41406Y-40750D01*
G54D21*
X101085Y-35414D02*
X100000Y-36500D01*
X106914Y-35414D02*
X101085Y-35414D01*
X108000Y-36500D02*
X106914Y-35414D01*
X26918Y-35418D02*
X28000Y-36500D01*
X21081Y-35418D02*
X26918Y-35418D01*
X20000Y-36500D02*
X21081Y-35418D01*
X29081Y-35418D02*
X28000Y-36500D01*
X34918Y-35418D02*
X29081Y-35418D01*
X36000Y-36500D02*
X34918Y-35418D01*
X13100Y-38620D02*
X13100Y-36500D01*
X12220Y-39500D02*
X13100Y-38620D01*
X18919Y-35419D02*
X20000Y-36500D01*
X14710Y-35419D02*
X18919Y-35419D01*
X13630Y-36500D02*
X14710Y-35419D01*
X13100Y-36500D02*
X13630Y-36500D01*
G54D10*
G36*
X56764Y-37420D02*
X52416Y-37420D01*
X52316Y-37439D01*
X52232Y-37496D01*
X51504Y-38224D01*
X51448Y-38308D01*
X51428Y-38407D01*
X51428Y-39908D01*
X51448Y-40008D01*
X51504Y-40092D01*
X51846Y-40433D01*
X51930Y-40490D01*
X52029Y-40510D01*
X52075Y-40510D01*
X52046Y-40539D01*
X52009Y-40627D01*
X52010Y-40652D01*
X52070Y-40712D01*
X52440Y-40712D01*
X52440Y-40682D01*
X52560Y-40682D01*
X52560Y-40712D01*
X52567Y-40712D01*
X52567Y-40787D01*
X52560Y-40787D01*
X52560Y-40995D01*
X52560Y-41005D01*
X52560Y-41212D01*
X52567Y-41212D01*
X52567Y-41287D01*
X52560Y-41287D01*
X52560Y-41495D01*
X52560Y-41505D01*
X52560Y-41712D01*
X52567Y-41712D01*
X52567Y-41787D01*
X52560Y-41787D01*
X52560Y-41995D01*
X52560Y-42005D01*
X52560Y-42212D01*
X52930Y-42212D01*
X52970Y-42172D01*
X54774Y-43976D01*
X54774Y-43976D01*
X54780Y-43980D01*
X54780Y-45877D01*
X54770Y-45881D01*
X54731Y-45920D01*
X54710Y-45972D01*
X54709Y-46027D01*
X54709Y-46180D01*
X54569Y-46180D01*
X54447Y-46204D01*
X54390Y-46242D01*
X54390Y-46047D01*
X54389Y-45952D01*
X54353Y-45863D01*
X54285Y-45796D01*
X54197Y-45759D01*
X54020Y-45760D01*
X53960Y-45820D01*
X53960Y-46440D01*
X53967Y-46440D01*
X53967Y-46560D01*
X53960Y-46560D01*
X53960Y-46567D01*
X53840Y-46567D01*
X53840Y-46560D01*
X53840Y-46440D01*
X53840Y-45820D01*
X53780Y-45760D01*
X53602Y-45759D01*
X53514Y-45796D01*
X53446Y-45863D01*
X53410Y-45952D01*
X53409Y-46047D01*
X53410Y-46380D01*
X53470Y-46440D01*
X53840Y-46440D01*
X53840Y-46560D01*
X53470Y-46560D01*
X53410Y-46620D01*
X53409Y-46952D01*
X53410Y-47047D01*
X53446Y-47136D01*
X53514Y-47203D01*
X53602Y-47240D01*
X53780Y-47240D01*
X53839Y-47180D01*
X53839Y-47240D01*
X53840Y-47240D01*
X53853Y-47240D01*
X53840Y-47253D01*
X53826Y-47267D01*
X47354Y-47267D01*
X47372Y-47249D01*
X47439Y-47087D01*
X47440Y-46912D01*
X47373Y-46751D01*
X47249Y-46627D01*
X47087Y-46560D01*
X46912Y-46559D01*
X46751Y-46626D01*
X46627Y-46750D01*
X46560Y-46912D01*
X46559Y-47087D01*
X46626Y-47248D01*
X46645Y-47267D01*
X46354Y-47267D01*
X46372Y-47249D01*
X46439Y-47087D01*
X46440Y-46912D01*
X46373Y-46751D01*
X46249Y-46627D01*
X46087Y-46560D01*
X45912Y-46559D01*
X45751Y-46626D01*
X45627Y-46750D01*
X45560Y-46912D01*
X45559Y-47087D01*
X45626Y-47248D01*
X45645Y-47267D01*
X41970Y-47267D01*
X40416Y-45713D01*
X40416Y-45713D01*
X40416Y-45713D01*
X40289Y-45587D01*
X40289Y-44465D01*
X40777Y-44465D01*
X40829Y-44443D01*
X40842Y-44430D01*
X45175Y-44430D01*
X45588Y-44843D01*
X45560Y-44912D01*
X45559Y-45087D01*
X45626Y-45248D01*
X45750Y-45372D01*
X45912Y-45439D01*
X46087Y-45440D01*
X46248Y-45373D01*
X46320Y-45302D01*
X46320Y-45425D01*
X46156Y-45588D01*
X46087Y-45560D01*
X45912Y-45559D01*
X45751Y-45626D01*
X45627Y-45750D01*
X45560Y-45912D01*
X45559Y-46087D01*
X45626Y-46248D01*
X45750Y-46372D01*
X45912Y-46439D01*
X46087Y-46440D01*
X46248Y-46373D01*
X46372Y-46249D01*
X46439Y-46087D01*
X46440Y-45912D01*
X46411Y-45843D01*
X46627Y-45627D01*
X46631Y-45620D01*
X46765Y-45620D01*
X46751Y-45626D01*
X46627Y-45750D01*
X46560Y-45912D01*
X46559Y-46087D01*
X46626Y-46248D01*
X46750Y-46372D01*
X46912Y-46439D01*
X47087Y-46440D01*
X47248Y-46373D01*
X47372Y-46249D01*
X47439Y-46087D01*
X47440Y-45912D01*
X47373Y-45751D01*
X47249Y-45627D01*
X47234Y-45620D01*
X50919Y-45620D01*
X50988Y-45607D01*
X51046Y-45568D01*
X52170Y-44443D01*
X52222Y-44464D01*
X52277Y-44465D01*
X52777Y-44465D01*
X52829Y-44443D01*
X52868Y-44404D01*
X52883Y-44367D01*
X53317Y-44801D01*
X53317Y-44810D01*
X53365Y-44926D01*
X53453Y-45015D01*
X53569Y-45063D01*
X53694Y-45063D01*
X53810Y-45015D01*
X53899Y-44927D01*
X53947Y-44811D01*
X53947Y-44686D01*
X53899Y-44570D01*
X53811Y-44481D01*
X53695Y-44433D01*
X53685Y-44433D01*
X53377Y-44126D01*
X53463Y-44126D01*
X53579Y-44078D01*
X53668Y-43989D01*
X53716Y-43873D01*
X53716Y-43748D01*
X53668Y-43632D01*
X53661Y-43625D01*
X53661Y-43176D01*
X53641Y-43076D01*
X53585Y-42992D01*
X53585Y-42992D01*
X53158Y-42566D01*
X53074Y-42509D01*
X52975Y-42490D01*
X52924Y-42490D01*
X52953Y-42460D01*
X52990Y-42372D01*
X52990Y-42347D01*
X52930Y-42287D01*
X52560Y-42287D01*
X52560Y-42317D01*
X52440Y-42317D01*
X52440Y-42287D01*
X52440Y-42212D01*
X52440Y-42005D01*
X52440Y-41995D01*
X52440Y-41787D01*
X52440Y-41712D01*
X52440Y-41505D01*
X52440Y-41495D01*
X52440Y-41287D01*
X52440Y-41212D01*
X52440Y-41005D01*
X52440Y-40995D01*
X52440Y-40787D01*
X52070Y-40787D01*
X52010Y-40847D01*
X52009Y-40872D01*
X52046Y-40960D01*
X52085Y-41000D01*
X52046Y-41039D01*
X52009Y-41127D01*
X52010Y-41152D01*
X52070Y-41212D01*
X52440Y-41212D01*
X52440Y-41287D01*
X52070Y-41287D01*
X52010Y-41347D01*
X52009Y-41372D01*
X52046Y-41460D01*
X52085Y-41500D01*
X52046Y-41539D01*
X52009Y-41627D01*
X52010Y-41652D01*
X52070Y-41712D01*
X52440Y-41712D01*
X52440Y-41787D01*
X52070Y-41787D01*
X52010Y-41847D01*
X52009Y-41872D01*
X52046Y-41960D01*
X52085Y-42000D01*
X52046Y-42039D01*
X52009Y-42127D01*
X52010Y-42152D01*
X52070Y-42212D01*
X52440Y-42212D01*
X52440Y-42287D01*
X52070Y-42287D01*
X52010Y-42347D01*
X52009Y-42362D01*
X49260Y-39612D01*
X49260Y-37409D01*
X49531Y-37297D01*
X49796Y-37033D01*
X49939Y-36687D01*
X49940Y-36313D01*
X49797Y-35968D01*
X49562Y-35732D01*
X51437Y-35732D01*
X51203Y-35966D01*
X51060Y-36312D01*
X51059Y-36686D01*
X51202Y-37031D01*
X51466Y-37296D01*
X51812Y-37439D01*
X52186Y-37440D01*
X52531Y-37297D01*
X52796Y-37033D01*
X52939Y-36687D01*
X52940Y-36313D01*
X52797Y-35968D01*
X52562Y-35732D01*
X55865Y-35732D01*
X56172Y-36040D01*
X56060Y-36312D01*
X56059Y-36686D01*
X56202Y-37031D01*
X56466Y-37296D01*
X56764Y-37420D01*
X56764Y-37420D01*
G37*
G54D22*
X56764Y-37420D02*
X52416Y-37420D01*
X52316Y-37439D01*
X52232Y-37496D01*
X51504Y-38224D01*
X51448Y-38308D01*
X51428Y-38407D01*
X51428Y-39908D01*
X51448Y-40008D01*
X51504Y-40092D01*
X51846Y-40433D01*
X51930Y-40490D01*
X52029Y-40510D01*
X52075Y-40510D01*
X52046Y-40539D01*
X52009Y-40627D01*
X52010Y-40652D01*
X52070Y-40712D01*
X52440Y-40712D01*
X52440Y-40682D01*
X52560Y-40682D01*
X52560Y-40712D01*
X52567Y-40712D01*
X52567Y-40787D01*
X52560Y-40787D01*
X52560Y-40995D01*
X52560Y-41005D01*
X52560Y-41212D01*
X52567Y-41212D01*
X52567Y-41287D01*
X52560Y-41287D01*
X52560Y-41495D01*
X52560Y-41505D01*
X52560Y-41712D01*
X52567Y-41712D01*
X52567Y-41787D01*
X52560Y-41787D01*
X52560Y-41995D01*
X52560Y-42005D01*
X52560Y-42212D01*
X52930Y-42212D01*
X52970Y-42172D01*
X54774Y-43976D01*
X54774Y-43976D01*
X54780Y-43980D01*
X54780Y-45877D01*
X54770Y-45881D01*
X54731Y-45920D01*
X54710Y-45972D01*
X54709Y-46027D01*
X54709Y-46180D01*
X54569Y-46180D01*
X54447Y-46204D01*
X54390Y-46242D01*
X54390Y-46047D01*
X54389Y-45952D01*
X54353Y-45863D01*
X54285Y-45796D01*
X54197Y-45759D01*
X54020Y-45760D01*
X53960Y-45820D01*
X53960Y-46440D01*
X53967Y-46440D01*
X53967Y-46560D01*
X53960Y-46560D01*
X53960Y-46567D01*
X53840Y-46567D01*
X53840Y-46560D01*
X53840Y-46440D01*
X53840Y-45820D01*
X53780Y-45760D01*
X53602Y-45759D01*
X53514Y-45796D01*
X53446Y-45863D01*
X53410Y-45952D01*
X53409Y-46047D01*
X53410Y-46380D01*
X53470Y-46440D01*
X53840Y-46440D01*
X53840Y-46560D01*
X53470Y-46560D01*
X53410Y-46620D01*
X53409Y-46952D01*
X53410Y-47047D01*
X53446Y-47136D01*
X53514Y-47203D01*
X53602Y-47240D01*
X53780Y-47240D01*
X53839Y-47180D01*
X53839Y-47240D01*
X53840Y-47240D01*
X53853Y-47240D01*
X53840Y-47253D01*
X53826Y-47267D01*
X47354Y-47267D01*
X47372Y-47249D01*
X47439Y-47087D01*
X47440Y-46912D01*
X47373Y-46751D01*
X47249Y-46627D01*
X47087Y-46560D01*
X46912Y-46559D01*
X46751Y-46626D01*
X46627Y-46750D01*
X46560Y-46912D01*
X46559Y-47087D01*
X46626Y-47248D01*
X46645Y-47267D01*
X46354Y-47267D01*
X46372Y-47249D01*
X46439Y-47087D01*
X46440Y-46912D01*
X46373Y-46751D01*
X46249Y-46627D01*
X46087Y-46560D01*
X45912Y-46559D01*
X45751Y-46626D01*
X45627Y-46750D01*
X45560Y-46912D01*
X45559Y-47087D01*
X45626Y-47248D01*
X45645Y-47267D01*
X41970Y-47267D01*
X40416Y-45713D01*
X40416Y-45713D01*
X40416Y-45713D01*
X40289Y-45587D01*
X40289Y-44465D01*
X40777Y-44465D01*
X40829Y-44443D01*
X40842Y-44430D01*
X45175Y-44430D01*
X45588Y-44843D01*
X45560Y-44912D01*
X45559Y-45087D01*
X45626Y-45248D01*
X45750Y-45372D01*
X45912Y-45439D01*
X46087Y-45440D01*
X46248Y-45373D01*
X46320Y-45302D01*
X46320Y-45425D01*
X46156Y-45588D01*
X46087Y-45560D01*
X45912Y-45559D01*
X45751Y-45626D01*
X45627Y-45750D01*
X45560Y-45912D01*
X45559Y-46087D01*
X45626Y-46248D01*
X45750Y-46372D01*
X45912Y-46439D01*
X46087Y-46440D01*
X46248Y-46373D01*
X46372Y-46249D01*
X46439Y-46087D01*
X46440Y-45912D01*
X46411Y-45843D01*
X46627Y-45627D01*
X46631Y-45620D01*
X46765Y-45620D01*
X46751Y-45626D01*
X46627Y-45750D01*
X46560Y-45912D01*
X46559Y-46087D01*
X46626Y-46248D01*
X46750Y-46372D01*
X46912Y-46439D01*
X47087Y-46440D01*
X47248Y-46373D01*
X47372Y-46249D01*
X47439Y-46087D01*
X47440Y-45912D01*
X47373Y-45751D01*
X47249Y-45627D01*
X47234Y-45620D01*
X50919Y-45620D01*
X50988Y-45607D01*
X51046Y-45568D01*
X52170Y-44443D01*
X52222Y-44464D01*
X52277Y-44465D01*
X52777Y-44465D01*
X52829Y-44443D01*
X52868Y-44404D01*
X52883Y-44367D01*
X53317Y-44801D01*
X53317Y-44810D01*
X53365Y-44926D01*
X53453Y-45015D01*
X53569Y-45063D01*
X53694Y-45063D01*
X53810Y-45015D01*
X53899Y-44927D01*
X53947Y-44811D01*
X53947Y-44686D01*
X53899Y-44570D01*
X53811Y-44481D01*
X53695Y-44433D01*
X53685Y-44433D01*
X53377Y-44126D01*
X53463Y-44126D01*
X53579Y-44078D01*
X53668Y-43989D01*
X53716Y-43873D01*
X53716Y-43748D01*
X53668Y-43632D01*
X53661Y-43625D01*
X53661Y-43176D01*
X53641Y-43076D01*
X53585Y-42992D01*
X53585Y-42992D01*
X53158Y-42566D01*
X53074Y-42509D01*
X52975Y-42490D01*
X52924Y-42490D01*
X52953Y-42460D01*
X52990Y-42372D01*
X52990Y-42347D01*
X52930Y-42287D01*
X52560Y-42287D01*
X52560Y-42317D01*
X52440Y-42317D01*
X52440Y-42287D01*
X52440Y-42212D01*
X52440Y-42005D01*
X52440Y-41995D01*
X52440Y-41787D01*
X52440Y-41712D01*
X52440Y-41505D01*
X52440Y-41495D01*
X52440Y-41287D01*
X52440Y-41212D01*
X52440Y-41005D01*
X52440Y-40995D01*
X52440Y-40787D01*
X52070Y-40787D01*
X52010Y-40847D01*
X52009Y-40872D01*
X52046Y-40960D01*
X52085Y-41000D01*
X52046Y-41039D01*
X52009Y-41127D01*
X52010Y-41152D01*
X52070Y-41212D01*
X52440Y-41212D01*
X52440Y-41287D01*
X52070Y-41287D01*
X52010Y-41347D01*
X52009Y-41372D01*
X52046Y-41460D01*
X52085Y-41500D01*
X52046Y-41539D01*
X52009Y-41627D01*
X52010Y-41652D01*
X52070Y-41712D01*
X52440Y-41712D01*
X52440Y-41787D01*
X52070Y-41787D01*
X52010Y-41847D01*
X52009Y-41872D01*
X52046Y-41960D01*
X52085Y-42000D01*
X52046Y-42039D01*
X52009Y-42127D01*
X52010Y-42152D01*
X52070Y-42212D01*
X52440Y-42212D01*
X52440Y-42287D01*
X52070Y-42287D01*
X52010Y-42347D01*
X52009Y-42362D01*
X49260Y-39612D01*
X49260Y-37409D01*
X49531Y-37297D01*
X49796Y-37033D01*
X49939Y-36687D01*
X49940Y-36313D01*
X49797Y-35968D01*
X49562Y-35732D01*
X51437Y-35732D01*
X51203Y-35966D01*
X51060Y-36312D01*
X51059Y-36686D01*
X51202Y-37031D01*
X51466Y-37296D01*
X51812Y-37439D01*
X52186Y-37440D01*
X52531Y-37297D01*
X52796Y-37033D01*
X52939Y-36687D01*
X52940Y-36313D01*
X52797Y-35968D01*
X52562Y-35732D01*
X55865Y-35732D01*
X56172Y-36040D01*
X56060Y-36312D01*
X56059Y-36686D01*
X56202Y-37031D01*
X56466Y-37296D01*
X56764Y-37420D01*
G54D10*
G36*
X59993Y-38271D02*
X58774Y-39490D01*
X56500Y-39490D01*
X56400Y-39509D01*
X56362Y-39534D01*
X56222Y-39534D01*
X56170Y-39556D01*
X56131Y-39595D01*
X56110Y-39647D01*
X56109Y-39702D01*
X56109Y-39852D01*
X56131Y-39904D01*
X56170Y-39943D01*
X56222Y-39964D01*
X56277Y-39965D01*
X56362Y-39965D01*
X56400Y-39990D01*
X56449Y-40000D01*
X56400Y-40009D01*
X56362Y-40034D01*
X56222Y-40034D01*
X56170Y-40056D01*
X56131Y-40095D01*
X56110Y-40147D01*
X56109Y-40202D01*
X56109Y-40352D01*
X56131Y-40404D01*
X56170Y-40443D01*
X56175Y-40445D01*
X56113Y-40471D01*
X56046Y-40539D01*
X56009Y-40627D01*
X56010Y-40652D01*
X56070Y-40712D01*
X56440Y-40712D01*
X56440Y-40682D01*
X56560Y-40682D01*
X56560Y-40712D01*
X56930Y-40712D01*
X56990Y-40652D01*
X56990Y-40627D01*
X56953Y-40539D01*
X56924Y-40510D01*
X58842Y-40510D01*
X56990Y-42362D01*
X56990Y-42127D01*
X56953Y-42039D01*
X56914Y-42000D01*
X56953Y-41960D01*
X56990Y-41872D01*
X56990Y-41627D01*
X56953Y-41539D01*
X56914Y-41500D01*
X56953Y-41460D01*
X56990Y-41372D01*
X56990Y-41127D01*
X56953Y-41039D01*
X56914Y-41000D01*
X56953Y-40960D01*
X56990Y-40872D01*
X56990Y-40847D01*
X56930Y-40787D01*
X56560Y-40787D01*
X56560Y-40995D01*
X56560Y-41005D01*
X56560Y-41212D01*
X56930Y-41212D01*
X56990Y-41152D01*
X56990Y-41127D01*
X56990Y-41372D01*
X56990Y-41347D01*
X56930Y-41287D01*
X56560Y-41287D01*
X56560Y-41495D01*
X56560Y-41505D01*
X56560Y-41712D01*
X56930Y-41712D01*
X56990Y-41652D01*
X56990Y-41627D01*
X56990Y-41872D01*
X56990Y-41847D01*
X56930Y-41787D01*
X56560Y-41787D01*
X56560Y-41995D01*
X56560Y-42005D01*
X56560Y-42212D01*
X56930Y-42212D01*
X56990Y-42152D01*
X56990Y-42127D01*
X56990Y-42362D01*
X56990Y-42362D01*
X56990Y-42347D01*
X56930Y-42287D01*
X56560Y-42287D01*
X56560Y-42317D01*
X56440Y-42317D01*
X56440Y-42287D01*
X56440Y-42212D01*
X56440Y-42005D01*
X56440Y-41995D01*
X56440Y-41787D01*
X56440Y-41712D01*
X56440Y-41505D01*
X56440Y-41495D01*
X56440Y-41287D01*
X56440Y-41212D01*
X56440Y-41005D01*
X56440Y-40995D01*
X56440Y-40787D01*
X56070Y-40787D01*
X56010Y-40847D01*
X56009Y-40872D01*
X56046Y-40960D01*
X56085Y-41000D01*
X56046Y-41039D01*
X56009Y-41127D01*
X56010Y-41152D01*
X56070Y-41212D01*
X56440Y-41212D01*
X56440Y-41287D01*
X56070Y-41287D01*
X56010Y-41347D01*
X56009Y-41372D01*
X56046Y-41460D01*
X56085Y-41500D01*
X56046Y-41539D01*
X56009Y-41627D01*
X56010Y-41652D01*
X56070Y-41712D01*
X56440Y-41712D01*
X56440Y-41787D01*
X56070Y-41787D01*
X56010Y-41847D01*
X56009Y-41872D01*
X56046Y-41960D01*
X56085Y-42000D01*
X56046Y-42039D01*
X56009Y-42127D01*
X56010Y-42152D01*
X56070Y-42212D01*
X56440Y-42212D01*
X56440Y-42287D01*
X56070Y-42287D01*
X56010Y-42347D01*
X56009Y-42372D01*
X56046Y-42460D01*
X56113Y-42528D01*
X56175Y-42554D01*
X56170Y-42556D01*
X56131Y-42595D01*
X56110Y-42647D01*
X56109Y-42702D01*
X56109Y-42852D01*
X56131Y-42904D01*
X56170Y-42943D01*
X56222Y-42964D01*
X56277Y-42965D01*
X56362Y-42965D01*
X56400Y-42990D01*
X56449Y-43000D01*
X56400Y-43009D01*
X56362Y-43034D01*
X56222Y-43034D01*
X56170Y-43056D01*
X56131Y-43095D01*
X56110Y-43147D01*
X56109Y-43202D01*
X56109Y-43352D01*
X56131Y-43404D01*
X56156Y-43430D01*
X55969Y-43430D01*
X55132Y-43430D01*
X54028Y-42325D01*
X54100Y-42295D01*
X54189Y-42207D01*
X54237Y-42091D01*
X54237Y-41966D01*
X54189Y-41850D01*
X54102Y-41762D01*
X54102Y-41437D01*
X54176Y-41467D01*
X54301Y-41468D01*
X54417Y-41420D01*
X54506Y-41331D01*
X54554Y-41215D01*
X54554Y-41092D01*
X56193Y-39453D01*
X56222Y-39464D01*
X56277Y-39465D01*
X56777Y-39465D01*
X56829Y-39443D01*
X56868Y-39404D01*
X56889Y-39352D01*
X56890Y-39297D01*
X56890Y-39147D01*
X56868Y-39095D01*
X56829Y-39056D01*
X56777Y-39035D01*
X56722Y-39034D01*
X56222Y-39034D01*
X56170Y-39056D01*
X56157Y-39070D01*
X56109Y-39070D01*
X56040Y-39083D01*
X56010Y-39104D01*
X56170Y-38943D01*
X56222Y-38964D01*
X56277Y-38965D01*
X56777Y-38965D01*
X56829Y-38943D01*
X56868Y-38904D01*
X56889Y-38852D01*
X56890Y-38797D01*
X56890Y-38647D01*
X56868Y-38595D01*
X56829Y-38556D01*
X56777Y-38535D01*
X56722Y-38534D01*
X56222Y-38534D01*
X56170Y-38556D01*
X56157Y-38570D01*
X56109Y-38570D01*
X56040Y-38583D01*
X55982Y-38622D01*
X53795Y-40810D01*
X53756Y-40868D01*
X53742Y-40937D01*
X53742Y-41763D01*
X53655Y-41849D01*
X53625Y-41922D01*
X53350Y-41647D01*
X53350Y-39250D01*
X53325Y-39127D01*
X53256Y-39023D01*
X53152Y-38954D01*
X53030Y-38930D01*
X52890Y-38930D01*
X52959Y-38916D01*
X53017Y-38877D01*
X53056Y-38818D01*
X53056Y-38816D01*
X53152Y-38776D01*
X53241Y-38688D01*
X53289Y-38572D01*
X53289Y-38447D01*
X53241Y-38331D01*
X53190Y-38280D01*
X59949Y-38280D01*
X59993Y-38271D01*
X59993Y-38271D01*
G37*
G54D22*
X59993Y-38271D02*
X58774Y-39490D01*
X56500Y-39490D01*
X56400Y-39509D01*
X56362Y-39534D01*
X56222Y-39534D01*
X56170Y-39556D01*
X56131Y-39595D01*
X56110Y-39647D01*
X56109Y-39702D01*
X56109Y-39852D01*
X56131Y-39904D01*
X56170Y-39943D01*
X56222Y-39964D01*
X56277Y-39965D01*
X56362Y-39965D01*
X56400Y-39990D01*
X56449Y-40000D01*
X56400Y-40009D01*
X56362Y-40034D01*
X56222Y-40034D01*
X56170Y-40056D01*
X56131Y-40095D01*
X56110Y-40147D01*
X56109Y-40202D01*
X56109Y-40352D01*
X56131Y-40404D01*
X56170Y-40443D01*
X56175Y-40445D01*
X56113Y-40471D01*
X56046Y-40539D01*
X56009Y-40627D01*
X56010Y-40652D01*
X56070Y-40712D01*
X56440Y-40712D01*
X56440Y-40682D01*
X56560Y-40682D01*
X56560Y-40712D01*
X56930Y-40712D01*
X56990Y-40652D01*
X56990Y-40627D01*
X56953Y-40539D01*
X56924Y-40510D01*
X58842Y-40510D01*
X56990Y-42362D01*
X56990Y-42127D01*
X56953Y-42039D01*
X56914Y-42000D01*
X56953Y-41960D01*
X56990Y-41872D01*
X56990Y-41627D01*
X56953Y-41539D01*
X56914Y-41500D01*
X56953Y-41460D01*
X56990Y-41372D01*
X56990Y-41127D01*
X56953Y-41039D01*
X56914Y-41000D01*
X56953Y-40960D01*
X56990Y-40872D01*
X56990Y-40847D01*
X56930Y-40787D01*
X56560Y-40787D01*
X56560Y-40995D01*
X56560Y-41005D01*
X56560Y-41212D01*
X56930Y-41212D01*
X56990Y-41152D01*
X56990Y-41127D01*
X56990Y-41372D01*
X56990Y-41347D01*
X56930Y-41287D01*
X56560Y-41287D01*
X56560Y-41495D01*
X56560Y-41505D01*
X56560Y-41712D01*
X56930Y-41712D01*
X56990Y-41652D01*
X56990Y-41627D01*
X56990Y-41872D01*
X56990Y-41847D01*
X56930Y-41787D01*
X56560Y-41787D01*
X56560Y-41995D01*
X56560Y-42005D01*
X56560Y-42212D01*
X56930Y-42212D01*
X56990Y-42152D01*
X56990Y-42127D01*
X56990Y-42362D01*
X56990Y-42362D01*
X56990Y-42347D01*
X56930Y-42287D01*
X56560Y-42287D01*
X56560Y-42317D01*
X56440Y-42317D01*
X56440Y-42287D01*
X56440Y-42212D01*
X56440Y-42005D01*
X56440Y-41995D01*
X56440Y-41787D01*
X56440Y-41712D01*
X56440Y-41505D01*
X56440Y-41495D01*
X56440Y-41287D01*
X56440Y-41212D01*
X56440Y-41005D01*
X56440Y-40995D01*
X56440Y-40787D01*
X56070Y-40787D01*
X56010Y-40847D01*
X56009Y-40872D01*
X56046Y-40960D01*
X56085Y-41000D01*
X56046Y-41039D01*
X56009Y-41127D01*
X56010Y-41152D01*
X56070Y-41212D01*
X56440Y-41212D01*
X56440Y-41287D01*
X56070Y-41287D01*
X56010Y-41347D01*
X56009Y-41372D01*
X56046Y-41460D01*
X56085Y-41500D01*
X56046Y-41539D01*
X56009Y-41627D01*
X56010Y-41652D01*
X56070Y-41712D01*
X56440Y-41712D01*
X56440Y-41787D01*
X56070Y-41787D01*
X56010Y-41847D01*
X56009Y-41872D01*
X56046Y-41960D01*
X56085Y-42000D01*
X56046Y-42039D01*
X56009Y-42127D01*
X56010Y-42152D01*
X56070Y-42212D01*
X56440Y-42212D01*
X56440Y-42287D01*
X56070Y-42287D01*
X56010Y-42347D01*
X56009Y-42372D01*
X56046Y-42460D01*
X56113Y-42528D01*
X56175Y-42554D01*
X56170Y-42556D01*
X56131Y-42595D01*
X56110Y-42647D01*
X56109Y-42702D01*
X56109Y-42852D01*
X56131Y-42904D01*
X56170Y-42943D01*
X56222Y-42964D01*
X56277Y-42965D01*
X56362Y-42965D01*
X56400Y-42990D01*
X56449Y-43000D01*
X56400Y-43009D01*
X56362Y-43034D01*
X56222Y-43034D01*
X56170Y-43056D01*
X56131Y-43095D01*
X56110Y-43147D01*
X56109Y-43202D01*
X56109Y-43352D01*
X56131Y-43404D01*
X56156Y-43430D01*
X55969Y-43430D01*
X55132Y-43430D01*
X54028Y-42325D01*
X54100Y-42295D01*
X54189Y-42207D01*
X54237Y-42091D01*
X54237Y-41966D01*
X54189Y-41850D01*
X54102Y-41762D01*
X54102Y-41437D01*
X54176Y-41467D01*
X54301Y-41468D01*
X54417Y-41420D01*
X54506Y-41331D01*
X54554Y-41215D01*
X54554Y-41092D01*
X56193Y-39453D01*
X56222Y-39464D01*
X56277Y-39465D01*
X56777Y-39465D01*
X56829Y-39443D01*
X56868Y-39404D01*
X56889Y-39352D01*
X56890Y-39297D01*
X56890Y-39147D01*
X56868Y-39095D01*
X56829Y-39056D01*
X56777Y-39035D01*
X56722Y-39034D01*
X56222Y-39034D01*
X56170Y-39056D01*
X56157Y-39070D01*
X56109Y-39070D01*
X56040Y-39083D01*
X56010Y-39104D01*
X56170Y-38943D01*
X56222Y-38964D01*
X56277Y-38965D01*
X56777Y-38965D01*
X56829Y-38943D01*
X56868Y-38904D01*
X56889Y-38852D01*
X56890Y-38797D01*
X56890Y-38647D01*
X56868Y-38595D01*
X56829Y-38556D01*
X56777Y-38535D01*
X56722Y-38534D01*
X56222Y-38534D01*
X56170Y-38556D01*
X56157Y-38570D01*
X56109Y-38570D01*
X56040Y-38583D01*
X55982Y-38622D01*
X53795Y-40810D01*
X53756Y-40868D01*
X53742Y-40937D01*
X53742Y-41763D01*
X53655Y-41849D01*
X53625Y-41922D01*
X53350Y-41647D01*
X53350Y-39250D01*
X53325Y-39127D01*
X53256Y-39023D01*
X53152Y-38954D01*
X53030Y-38930D01*
X52890Y-38930D01*
X52959Y-38916D01*
X53017Y-38877D01*
X53056Y-38818D01*
X53056Y-38816D01*
X53152Y-38776D01*
X53241Y-38688D01*
X53289Y-38572D01*
X53289Y-38447D01*
X53241Y-38331D01*
X53190Y-38280D01*
X59949Y-38280D01*
X59993Y-38271D01*
G54D10*
G36*
X109835Y-49835D02*
X102875Y-49835D01*
X103017Y-49776D01*
X103275Y-49518D01*
X103414Y-49182D01*
X103415Y-48818D01*
X103276Y-48482D01*
X103018Y-48224D01*
X102682Y-48085D01*
X102318Y-48084D01*
X101982Y-48223D01*
X101724Y-48481D01*
X101585Y-48817D01*
X101584Y-49181D01*
X101723Y-49517D01*
X101981Y-49775D01*
X102124Y-49835D01*
X92940Y-49835D01*
X92940Y-36313D01*
X92797Y-35968D01*
X92533Y-35703D01*
X92187Y-35560D01*
X91813Y-35559D01*
X91468Y-35702D01*
X91203Y-35966D01*
X91060Y-36312D01*
X91059Y-36686D01*
X91202Y-37031D01*
X91466Y-37296D01*
X91812Y-37439D01*
X92186Y-37440D01*
X92531Y-37297D01*
X92796Y-37033D01*
X92939Y-36687D01*
X92940Y-36313D01*
X92940Y-49835D01*
X84940Y-49835D01*
X84940Y-36313D01*
X84797Y-35968D01*
X84533Y-35703D01*
X84187Y-35560D01*
X83813Y-35559D01*
X83468Y-35702D01*
X83203Y-35966D01*
X83060Y-36312D01*
X83059Y-36686D01*
X83202Y-37031D01*
X83466Y-37296D01*
X83812Y-37439D01*
X84186Y-37440D01*
X84531Y-37297D01*
X84796Y-37033D01*
X84939Y-36687D01*
X84940Y-36313D01*
X84940Y-49835D01*
X78875Y-49835D01*
X79017Y-49776D01*
X79275Y-49518D01*
X79414Y-49182D01*
X79415Y-48818D01*
X79276Y-48482D01*
X79018Y-48224D01*
X78682Y-48085D01*
X78318Y-48084D01*
X77982Y-48223D01*
X77724Y-48481D01*
X77585Y-48817D01*
X77584Y-49181D01*
X77723Y-49517D01*
X77981Y-49775D01*
X78124Y-49835D01*
X76940Y-49835D01*
X76940Y-36313D01*
X76797Y-35968D01*
X76533Y-35703D01*
X76187Y-35560D01*
X75813Y-35559D01*
X75468Y-35702D01*
X75203Y-35966D01*
X75060Y-36312D01*
X75059Y-36686D01*
X75202Y-37031D01*
X75466Y-37296D01*
X75812Y-37439D01*
X76186Y-37440D01*
X76531Y-37297D01*
X76796Y-37033D01*
X76939Y-36687D01*
X76940Y-36313D01*
X76940Y-49835D01*
X47375Y-49835D01*
X47517Y-49776D01*
X47775Y-49518D01*
X47914Y-49182D01*
X47915Y-48818D01*
X47776Y-48482D01*
X47518Y-48224D01*
X47188Y-48087D01*
X54658Y-48087D01*
X54727Y-48073D01*
X54785Y-48034D01*
X56237Y-46583D01*
X56237Y-46583D01*
X56276Y-46524D01*
X56289Y-46456D01*
X56289Y-46456D01*
X56289Y-44465D01*
X56777Y-44465D01*
X56829Y-44443D01*
X56868Y-44404D01*
X56889Y-44352D01*
X56890Y-44297D01*
X56890Y-44147D01*
X56868Y-44095D01*
X56829Y-44056D01*
X56777Y-44035D01*
X56722Y-44034D01*
X56638Y-44034D01*
X56726Y-43976D01*
X56733Y-43965D01*
X56777Y-43965D01*
X56829Y-43943D01*
X56868Y-43904D01*
X56889Y-43852D01*
X56890Y-43797D01*
X56890Y-43647D01*
X56868Y-43595D01*
X56829Y-43556D01*
X56777Y-43535D01*
X56733Y-43534D01*
X56726Y-43523D01*
X56705Y-43510D01*
X58250Y-43510D01*
X58349Y-43490D01*
X58433Y-43433D01*
X64540Y-37327D01*
X64812Y-37439D01*
X65186Y-37440D01*
X65531Y-37297D01*
X65796Y-37033D01*
X65939Y-36687D01*
X65940Y-36313D01*
X65797Y-35968D01*
X65553Y-35723D01*
X67447Y-35723D01*
X67203Y-35966D01*
X67060Y-36312D01*
X67059Y-36686D01*
X67202Y-37031D01*
X67466Y-37296D01*
X67812Y-37439D01*
X68186Y-37440D01*
X68531Y-37297D01*
X68796Y-37033D01*
X68939Y-36687D01*
X68940Y-36313D01*
X68797Y-35968D01*
X68553Y-35723D01*
X71855Y-35723D01*
X72172Y-36040D01*
X72060Y-36312D01*
X72059Y-36686D01*
X72202Y-37031D01*
X72466Y-37296D01*
X72740Y-37409D01*
X72740Y-45903D01*
X72759Y-46002D01*
X72816Y-46087D01*
X73396Y-46667D01*
X73396Y-46677D01*
X73444Y-46793D01*
X73532Y-46881D01*
X73648Y-46929D01*
X73773Y-46929D01*
X73889Y-46882D01*
X73978Y-46793D01*
X74026Y-46677D01*
X74026Y-46552D01*
X73978Y-46436D01*
X73890Y-46347D01*
X73774Y-46299D01*
X73764Y-46299D01*
X73260Y-45795D01*
X73260Y-37409D01*
X73531Y-37297D01*
X73796Y-37033D01*
X73939Y-36687D01*
X73940Y-36313D01*
X73797Y-35968D01*
X73533Y-35703D01*
X73187Y-35560D01*
X72813Y-35559D01*
X72540Y-35672D01*
X72232Y-35365D01*
X79497Y-35365D01*
X80172Y-36040D01*
X80060Y-36312D01*
X80059Y-36686D01*
X80202Y-37031D01*
X80466Y-37296D01*
X80740Y-37409D01*
X80740Y-45876D01*
X80759Y-45976D01*
X80816Y-46060D01*
X81769Y-47014D01*
X81769Y-47024D01*
X81817Y-47139D01*
X81906Y-47228D01*
X82022Y-47276D01*
X82147Y-47276D01*
X82263Y-47228D01*
X82351Y-47140D01*
X82399Y-47024D01*
X82400Y-46899D01*
X82352Y-46783D01*
X82263Y-46694D01*
X82147Y-46646D01*
X82137Y-46646D01*
X81260Y-45768D01*
X81260Y-37409D01*
X81531Y-37297D01*
X81796Y-37033D01*
X81939Y-36687D01*
X81940Y-36313D01*
X81797Y-35968D01*
X81533Y-35703D01*
X81187Y-35560D01*
X80813Y-35559D01*
X80540Y-35672D01*
X79892Y-35024D01*
X87157Y-35024D01*
X88172Y-36040D01*
X88060Y-36312D01*
X88059Y-36686D01*
X88202Y-37031D01*
X88466Y-37296D01*
X88740Y-37409D01*
X88740Y-45861D01*
X88759Y-45960D01*
X88816Y-46045D01*
X89769Y-46999D01*
X89769Y-47008D01*
X89817Y-47124D01*
X89906Y-47213D01*
X90022Y-47261D01*
X90147Y-47261D01*
X90263Y-47213D01*
X90351Y-47125D01*
X90399Y-47009D01*
X90400Y-46883D01*
X90352Y-46768D01*
X90263Y-46679D01*
X90147Y-46631D01*
X90137Y-46631D01*
X89260Y-45753D01*
X89260Y-37409D01*
X89531Y-37297D01*
X89796Y-37033D01*
X89939Y-36687D01*
X89940Y-36313D01*
X89797Y-35968D01*
X89533Y-35703D01*
X89187Y-35560D01*
X88813Y-35559D01*
X88540Y-35672D01*
X87552Y-34684D01*
X94817Y-34684D01*
X96172Y-36040D01*
X96060Y-36312D01*
X96059Y-36686D01*
X96202Y-37031D01*
X96466Y-37296D01*
X96740Y-37409D01*
X96740Y-46352D01*
X96759Y-46452D01*
X96816Y-46536D01*
X97361Y-47081D01*
X97361Y-47091D01*
X97409Y-47207D01*
X97497Y-47296D01*
X97613Y-47344D01*
X97738Y-47344D01*
X97854Y-47296D01*
X97943Y-47207D01*
X97991Y-47092D01*
X97991Y-46966D01*
X97943Y-46850D01*
X97855Y-46762D01*
X97739Y-46714D01*
X97729Y-46714D01*
X97260Y-46244D01*
X97260Y-37409D01*
X97531Y-37297D01*
X97796Y-37033D01*
X97939Y-36687D01*
X97940Y-36363D01*
X99281Y-37705D01*
X99281Y-37705D01*
X99366Y-37761D01*
X99366Y-37761D01*
X99382Y-37765D01*
X99465Y-37781D01*
X103978Y-37781D01*
X104077Y-37761D01*
X104162Y-37705D01*
X104540Y-37327D01*
X104812Y-37439D01*
X105186Y-37440D01*
X105531Y-37297D01*
X105796Y-37033D01*
X105939Y-36687D01*
X105940Y-36313D01*
X105797Y-35968D01*
X105564Y-35734D01*
X106782Y-35734D01*
X107148Y-36100D01*
X107060Y-36312D01*
X107059Y-36686D01*
X107202Y-37031D01*
X107466Y-37296D01*
X107812Y-37439D01*
X108186Y-37440D01*
X108531Y-37297D01*
X108796Y-37033D01*
X108939Y-36687D01*
X108940Y-36313D01*
X108797Y-35968D01*
X108533Y-35703D01*
X108187Y-35560D01*
X107813Y-35559D01*
X107600Y-35647D01*
X107140Y-35188D01*
X107037Y-35119D01*
X106914Y-35094D01*
X101085Y-35094D01*
X100962Y-35119D01*
X100859Y-35188D01*
X100399Y-35648D01*
X100187Y-35560D01*
X99813Y-35559D01*
X99468Y-35702D01*
X99203Y-35966D01*
X99060Y-36312D01*
X99059Y-36686D01*
X99103Y-36792D01*
X96212Y-33900D01*
X96128Y-33844D01*
X96028Y-33824D01*
X60859Y-33824D01*
X60776Y-33841D01*
X60759Y-33844D01*
X60675Y-33900D01*
X57939Y-36636D01*
X57940Y-36313D01*
X57797Y-35968D01*
X57533Y-35703D01*
X57187Y-35560D01*
X56813Y-35559D01*
X56540Y-35672D01*
X56156Y-35289D01*
X56072Y-35232D01*
X55972Y-35212D01*
X48556Y-35212D01*
X48473Y-35229D01*
X48457Y-35232D01*
X48373Y-35289D01*
X47794Y-35867D01*
X47737Y-35952D01*
X47718Y-36051D01*
X47718Y-39198D01*
X47737Y-39297D01*
X47794Y-39382D01*
X51846Y-43433D01*
X51846Y-43433D01*
X51930Y-43490D01*
X51930Y-43490D01*
X51946Y-43493D01*
X52029Y-43510D01*
X52264Y-43510D01*
X52500Y-43510D01*
X52710Y-43510D01*
X52710Y-43534D01*
X52222Y-43534D01*
X52170Y-43556D01*
X52157Y-43570D01*
X48250Y-43570D01*
X48181Y-43583D01*
X48122Y-43622D01*
X47156Y-44588D01*
X47087Y-44560D01*
X46912Y-44559D01*
X46751Y-44626D01*
X46631Y-44746D01*
X46627Y-44740D01*
X46259Y-44372D01*
X46253Y-44368D01*
X46372Y-44249D01*
X46439Y-44087D01*
X46440Y-43912D01*
X46373Y-43751D01*
X46362Y-43739D01*
X46485Y-43739D01*
X46588Y-43843D01*
X46560Y-43912D01*
X46559Y-44087D01*
X46626Y-44248D01*
X46750Y-44372D01*
X46912Y-44439D01*
X47087Y-44440D01*
X47248Y-44373D01*
X47372Y-44249D01*
X47439Y-44087D01*
X47440Y-43912D01*
X47440Y-42912D01*
X47440Y-41912D01*
X47440Y-40912D01*
X47440Y-39912D01*
X47440Y-38912D01*
X47440Y-37912D01*
X47440Y-36912D01*
X47440Y-35912D01*
X47440Y-34912D01*
X47440Y-33912D01*
X47440Y-32912D01*
X47440Y-31912D01*
X47440Y-30912D01*
X47440Y-29912D01*
X47373Y-29751D01*
X47249Y-29627D01*
X47087Y-29560D01*
X46912Y-29559D01*
X46751Y-29626D01*
X46627Y-29750D01*
X46560Y-29912D01*
X46559Y-30087D01*
X46626Y-30248D01*
X46750Y-30372D01*
X46912Y-30439D01*
X47087Y-30440D01*
X47248Y-30373D01*
X47372Y-30249D01*
X47439Y-30087D01*
X47440Y-29912D01*
X47440Y-30912D01*
X47373Y-30751D01*
X47249Y-30627D01*
X47087Y-30560D01*
X46912Y-30559D01*
X46751Y-30626D01*
X46627Y-30750D01*
X46560Y-30912D01*
X46559Y-31087D01*
X46626Y-31248D01*
X46750Y-31372D01*
X46912Y-31439D01*
X47087Y-31440D01*
X47248Y-31373D01*
X47372Y-31249D01*
X47439Y-31087D01*
X47440Y-30912D01*
X47440Y-31912D01*
X47373Y-31751D01*
X47249Y-31627D01*
X47087Y-31560D01*
X46912Y-31559D01*
X46751Y-31626D01*
X46627Y-31750D01*
X46560Y-31912D01*
X46559Y-32087D01*
X46626Y-32248D01*
X46750Y-32372D01*
X46912Y-32439D01*
X47087Y-32440D01*
X47248Y-32373D01*
X47372Y-32249D01*
X47439Y-32087D01*
X47440Y-31912D01*
X47440Y-32912D01*
X47373Y-32751D01*
X47249Y-32627D01*
X47087Y-32560D01*
X46912Y-32559D01*
X46751Y-32626D01*
X46627Y-32750D01*
X46560Y-32912D01*
X46559Y-33087D01*
X46626Y-33248D01*
X46750Y-33372D01*
X46912Y-33439D01*
X47087Y-33440D01*
X47248Y-33373D01*
X47372Y-33249D01*
X47439Y-33087D01*
X47440Y-32912D01*
X47440Y-33912D01*
X47373Y-33751D01*
X47249Y-33627D01*
X47087Y-33560D01*
X46912Y-33559D01*
X46751Y-33626D01*
X46627Y-33750D01*
X46560Y-33912D01*
X46559Y-34087D01*
X46626Y-34248D01*
X46750Y-34372D01*
X46912Y-34439D01*
X47087Y-34440D01*
X47248Y-34373D01*
X47372Y-34249D01*
X47439Y-34087D01*
X47440Y-33912D01*
X47440Y-34912D01*
X47373Y-34751D01*
X47249Y-34627D01*
X47087Y-34560D01*
X46912Y-34559D01*
X46751Y-34626D01*
X46627Y-34750D01*
X46560Y-34912D01*
X46559Y-35087D01*
X46626Y-35248D01*
X46750Y-35372D01*
X46912Y-35439D01*
X47087Y-35440D01*
X47248Y-35373D01*
X47372Y-35249D01*
X47439Y-35087D01*
X47440Y-34912D01*
X47440Y-35912D01*
X47373Y-35751D01*
X47249Y-35627D01*
X47087Y-35560D01*
X46912Y-35559D01*
X46751Y-35626D01*
X46627Y-35750D01*
X46560Y-35912D01*
X46559Y-36087D01*
X46626Y-36248D01*
X46750Y-36372D01*
X46912Y-36439D01*
X47087Y-36440D01*
X47248Y-36373D01*
X47372Y-36249D01*
X47439Y-36087D01*
X47440Y-35912D01*
X47440Y-36912D01*
X47373Y-36751D01*
X47249Y-36627D01*
X47087Y-36560D01*
X46912Y-36559D01*
X46751Y-36626D01*
X46627Y-36750D01*
X46560Y-36912D01*
X46559Y-37087D01*
X46626Y-37248D01*
X46750Y-37372D01*
X46912Y-37439D01*
X47087Y-37440D01*
X47248Y-37373D01*
X47372Y-37249D01*
X47439Y-37087D01*
X47440Y-36912D01*
X47440Y-37912D01*
X47373Y-37751D01*
X47249Y-37627D01*
X47087Y-37560D01*
X46912Y-37559D01*
X46751Y-37626D01*
X46627Y-37750D01*
X46560Y-37912D01*
X46559Y-38087D01*
X46626Y-38248D01*
X46750Y-38372D01*
X46912Y-38439D01*
X47087Y-38440D01*
X47248Y-38373D01*
X47372Y-38249D01*
X47439Y-38087D01*
X47440Y-37912D01*
X47440Y-38912D01*
X47373Y-38751D01*
X47249Y-38627D01*
X47087Y-38560D01*
X46912Y-38559D01*
X46751Y-38626D01*
X46627Y-38750D01*
X46560Y-38912D01*
X46559Y-39087D01*
X46626Y-39248D01*
X46750Y-39372D01*
X46912Y-39439D01*
X47087Y-39440D01*
X47248Y-39373D01*
X47372Y-39249D01*
X47439Y-39087D01*
X47440Y-38912D01*
X47440Y-39912D01*
X47373Y-39751D01*
X47249Y-39627D01*
X47087Y-39560D01*
X46912Y-39559D01*
X46751Y-39626D01*
X46627Y-39750D01*
X46560Y-39912D01*
X46559Y-40087D01*
X46626Y-40248D01*
X46750Y-40372D01*
X46912Y-40439D01*
X47087Y-40440D01*
X47248Y-40373D01*
X47372Y-40249D01*
X47439Y-40087D01*
X47440Y-39912D01*
X47440Y-40912D01*
X47373Y-40751D01*
X47249Y-40627D01*
X47087Y-40560D01*
X46912Y-40559D01*
X46751Y-40626D01*
X46627Y-40750D01*
X46560Y-40912D01*
X46559Y-41087D01*
X46626Y-41248D01*
X46750Y-41372D01*
X46912Y-41439D01*
X47087Y-41440D01*
X47248Y-41373D01*
X47372Y-41249D01*
X47439Y-41087D01*
X47440Y-40912D01*
X47440Y-41912D01*
X47373Y-41751D01*
X47249Y-41627D01*
X47087Y-41560D01*
X46912Y-41559D01*
X46751Y-41626D01*
X46627Y-41750D01*
X46560Y-41912D01*
X46559Y-42087D01*
X46626Y-42248D01*
X46750Y-42372D01*
X46912Y-42439D01*
X47087Y-42440D01*
X47248Y-42373D01*
X47372Y-42249D01*
X47439Y-42087D01*
X47440Y-41912D01*
X47440Y-42912D01*
X47373Y-42751D01*
X47249Y-42627D01*
X47087Y-42560D01*
X46912Y-42559D01*
X46751Y-42626D01*
X46627Y-42750D01*
X46560Y-42912D01*
X46559Y-43087D01*
X46626Y-43248D01*
X46750Y-43372D01*
X46912Y-43439D01*
X47087Y-43440D01*
X47248Y-43373D01*
X47372Y-43249D01*
X47439Y-43087D01*
X47440Y-42912D01*
X47440Y-43912D01*
X47373Y-43751D01*
X47249Y-43627D01*
X47087Y-43560D01*
X46912Y-43559D01*
X46843Y-43588D01*
X46687Y-43432D01*
X46628Y-43393D01*
X46559Y-43379D01*
X46232Y-43379D01*
X46248Y-43373D01*
X46372Y-43249D01*
X46439Y-43087D01*
X46440Y-42912D01*
X46440Y-41912D01*
X46440Y-40912D01*
X46440Y-39912D01*
X46440Y-38912D01*
X46440Y-37912D01*
X46440Y-36912D01*
X46440Y-35912D01*
X46440Y-34912D01*
X46440Y-33912D01*
X46440Y-32912D01*
X46440Y-31912D01*
X46440Y-30912D01*
X46440Y-29912D01*
X46373Y-29751D01*
X46249Y-29627D01*
X46087Y-29560D01*
X45912Y-29559D01*
X45751Y-29626D01*
X45627Y-29750D01*
X45560Y-29912D01*
X45559Y-30087D01*
X45626Y-30248D01*
X45750Y-30372D01*
X45912Y-30439D01*
X46087Y-30440D01*
X46248Y-30373D01*
X46372Y-30249D01*
X46439Y-30087D01*
X46440Y-29912D01*
X46440Y-30912D01*
X46373Y-30751D01*
X46249Y-30627D01*
X46087Y-30560D01*
X45912Y-30559D01*
X45751Y-30626D01*
X45627Y-30750D01*
X45560Y-30912D01*
X45559Y-31087D01*
X45626Y-31248D01*
X45750Y-31372D01*
X45912Y-31439D01*
X46087Y-31440D01*
X46248Y-31373D01*
X46372Y-31249D01*
X46439Y-31087D01*
X46440Y-30912D01*
X46440Y-31912D01*
X46373Y-31751D01*
X46249Y-31627D01*
X46087Y-31560D01*
X45912Y-31559D01*
X45751Y-31626D01*
X45627Y-31750D01*
X45560Y-31912D01*
X45559Y-32087D01*
X45626Y-32248D01*
X45750Y-32372D01*
X45912Y-32439D01*
X46087Y-32440D01*
X46248Y-32373D01*
X46372Y-32249D01*
X46439Y-32087D01*
X46440Y-31912D01*
X46440Y-32912D01*
X46373Y-32751D01*
X46249Y-32627D01*
X46087Y-32560D01*
X45912Y-32559D01*
X45751Y-32626D01*
X45627Y-32750D01*
X45560Y-32912D01*
X45559Y-33087D01*
X45626Y-33248D01*
X45750Y-33372D01*
X45912Y-33439D01*
X46087Y-33440D01*
X46248Y-33373D01*
X46372Y-33249D01*
X46439Y-33087D01*
X46440Y-32912D01*
X46440Y-33912D01*
X46373Y-33751D01*
X46249Y-33627D01*
X46087Y-33560D01*
X45912Y-33559D01*
X45751Y-33626D01*
X45627Y-33750D01*
X45560Y-33912D01*
X45559Y-34087D01*
X45626Y-34248D01*
X45750Y-34372D01*
X45912Y-34439D01*
X46087Y-34440D01*
X46248Y-34373D01*
X46372Y-34249D01*
X46439Y-34087D01*
X46440Y-33912D01*
X46440Y-34912D01*
X46373Y-34751D01*
X46249Y-34627D01*
X46087Y-34560D01*
X45912Y-34559D01*
X45751Y-34626D01*
X45627Y-34750D01*
X45560Y-34912D01*
X45559Y-35087D01*
X45626Y-35248D01*
X45750Y-35372D01*
X45912Y-35439D01*
X46087Y-35440D01*
X46248Y-35373D01*
X46372Y-35249D01*
X46439Y-35087D01*
X46440Y-34912D01*
X46440Y-35912D01*
X46373Y-35751D01*
X46249Y-35627D01*
X46087Y-35560D01*
X45912Y-35559D01*
X45751Y-35626D01*
X45627Y-35750D01*
X45560Y-35912D01*
X45559Y-36087D01*
X45626Y-36248D01*
X45750Y-36372D01*
X45912Y-36439D01*
X46087Y-36440D01*
X46248Y-36373D01*
X46372Y-36249D01*
X46439Y-36087D01*
X46440Y-35912D01*
X46440Y-36912D01*
X46373Y-36751D01*
X46249Y-36627D01*
X46087Y-36560D01*
X45912Y-36559D01*
X45751Y-36626D01*
X45627Y-36750D01*
X45560Y-36912D01*
X45559Y-37087D01*
X45626Y-37248D01*
X45750Y-37372D01*
X45912Y-37439D01*
X46087Y-37440D01*
X46248Y-37373D01*
X46372Y-37249D01*
X46439Y-37087D01*
X46440Y-36912D01*
X46440Y-37912D01*
X46373Y-37751D01*
X46249Y-37627D01*
X46087Y-37560D01*
X45912Y-37559D01*
X45751Y-37626D01*
X45627Y-37750D01*
X45560Y-37912D01*
X45559Y-38087D01*
X45626Y-38248D01*
X45750Y-38372D01*
X45912Y-38439D01*
X46087Y-38440D01*
X46248Y-38373D01*
X46372Y-38249D01*
X46439Y-38087D01*
X46440Y-37912D01*
X46440Y-38912D01*
X46373Y-38751D01*
X46249Y-38627D01*
X46087Y-38560D01*
X45912Y-38559D01*
X45751Y-38626D01*
X45627Y-38750D01*
X45560Y-38912D01*
X45559Y-39087D01*
X45626Y-39248D01*
X45750Y-39372D01*
X45912Y-39439D01*
X46087Y-39440D01*
X46248Y-39373D01*
X46372Y-39249D01*
X46439Y-39087D01*
X46440Y-38912D01*
X46440Y-39912D01*
X46373Y-39751D01*
X46249Y-39627D01*
X46087Y-39560D01*
X45912Y-39559D01*
X45751Y-39626D01*
X45627Y-39750D01*
X45560Y-39912D01*
X45559Y-40087D01*
X45626Y-40248D01*
X45750Y-40372D01*
X45912Y-40439D01*
X46087Y-40440D01*
X46248Y-40373D01*
X46372Y-40249D01*
X46439Y-40087D01*
X46440Y-39912D01*
X46440Y-40912D01*
X46373Y-40751D01*
X46249Y-40627D01*
X46087Y-40560D01*
X45912Y-40559D01*
X45751Y-40626D01*
X45627Y-40750D01*
X45560Y-40912D01*
X45559Y-41087D01*
X45626Y-41248D01*
X45750Y-41372D01*
X45912Y-41439D01*
X46087Y-41440D01*
X46248Y-41373D01*
X46372Y-41249D01*
X46439Y-41087D01*
X46440Y-40912D01*
X46440Y-41912D01*
X46373Y-41751D01*
X46249Y-41627D01*
X46087Y-41560D01*
X45912Y-41559D01*
X45751Y-41626D01*
X45627Y-41750D01*
X45560Y-41912D01*
X45559Y-42087D01*
X45626Y-42248D01*
X45750Y-42372D01*
X45912Y-42439D01*
X46087Y-42440D01*
X46248Y-42373D01*
X46372Y-42249D01*
X46439Y-42087D01*
X46440Y-41912D01*
X46440Y-42912D01*
X46373Y-42751D01*
X46249Y-42627D01*
X46087Y-42560D01*
X45912Y-42559D01*
X45751Y-42626D01*
X45627Y-42750D01*
X45560Y-42912D01*
X45560Y-42928D01*
X44940Y-42308D01*
X44940Y-36313D01*
X44797Y-35968D01*
X44533Y-35703D01*
X44187Y-35560D01*
X43813Y-35559D01*
X43468Y-35702D01*
X43440Y-35730D01*
X43440Y-30212D01*
X43440Y-29787D01*
X43406Y-29619D01*
X43311Y-29476D01*
X43168Y-29380D01*
X43000Y-29347D01*
X42831Y-29380D01*
X42688Y-29476D01*
X42593Y-29619D01*
X42560Y-29787D01*
X42560Y-30212D01*
X42593Y-30380D01*
X42688Y-30523D01*
X42831Y-30619D01*
X43000Y-30652D01*
X43168Y-30619D01*
X43311Y-30523D01*
X43406Y-30380D01*
X43440Y-30212D01*
X43440Y-35730D01*
X43203Y-35966D01*
X43060Y-36312D01*
X43059Y-36686D01*
X43202Y-37031D01*
X43466Y-37296D01*
X43812Y-37439D01*
X44186Y-37440D01*
X44531Y-37297D01*
X44796Y-37033D01*
X44939Y-36687D01*
X44940Y-36313D01*
X44940Y-42308D01*
X42440Y-39808D01*
X42440Y-30212D01*
X42440Y-29787D01*
X42406Y-29619D01*
X42311Y-29476D01*
X42168Y-29380D01*
X42000Y-29347D01*
X41831Y-29380D01*
X41688Y-29476D01*
X41593Y-29619D01*
X41560Y-29787D01*
X41560Y-30212D01*
X41593Y-30380D01*
X41688Y-30523D01*
X41831Y-30619D01*
X42000Y-30652D01*
X42168Y-30619D01*
X42311Y-30523D01*
X42406Y-30380D01*
X42440Y-30212D01*
X42440Y-39808D01*
X41940Y-39308D01*
X41940Y-36313D01*
X41797Y-35968D01*
X41533Y-35703D01*
X41440Y-35664D01*
X41440Y-30212D01*
X41440Y-29787D01*
X41406Y-29619D01*
X41311Y-29476D01*
X41168Y-29380D01*
X41000Y-29347D01*
X40831Y-29380D01*
X40688Y-29476D01*
X40593Y-29619D01*
X40560Y-29787D01*
X40560Y-30212D01*
X40593Y-30380D01*
X40688Y-30523D01*
X40831Y-30619D01*
X41000Y-30652D01*
X41168Y-30619D01*
X41311Y-30523D01*
X41406Y-30380D01*
X41440Y-30212D01*
X41440Y-35664D01*
X41187Y-35560D01*
X40813Y-35559D01*
X40468Y-35702D01*
X40440Y-35730D01*
X40440Y-30212D01*
X40440Y-29787D01*
X40406Y-29619D01*
X40311Y-29476D01*
X40168Y-29380D01*
X40000Y-29347D01*
X39831Y-29380D01*
X39688Y-29476D01*
X39593Y-29619D01*
X39560Y-29787D01*
X39560Y-30212D01*
X39593Y-30380D01*
X39688Y-30523D01*
X39831Y-30619D01*
X40000Y-30652D01*
X40168Y-30619D01*
X40311Y-30523D01*
X40406Y-30380D01*
X40440Y-30212D01*
X40440Y-35730D01*
X40203Y-35966D01*
X40060Y-36312D01*
X40059Y-36686D01*
X40202Y-37031D01*
X40466Y-37296D01*
X40812Y-37439D01*
X41186Y-37440D01*
X41531Y-37297D01*
X41796Y-37033D01*
X41939Y-36687D01*
X41940Y-36313D01*
X41940Y-39308D01*
X41254Y-38622D01*
X41196Y-38583D01*
X41127Y-38570D01*
X40843Y-38570D01*
X40829Y-38556D01*
X40777Y-38535D01*
X40722Y-38534D01*
X40222Y-38534D01*
X40170Y-38556D01*
X40131Y-38595D01*
X40110Y-38647D01*
X40109Y-38702D01*
X40109Y-38852D01*
X40131Y-38904D01*
X40170Y-38943D01*
X40222Y-38964D01*
X40277Y-38965D01*
X40777Y-38965D01*
X40829Y-38943D01*
X40842Y-38930D01*
X41052Y-38930D01*
X41192Y-39070D01*
X40843Y-39070D01*
X40829Y-39056D01*
X40777Y-39035D01*
X40722Y-39034D01*
X40222Y-39034D01*
X40170Y-39056D01*
X40131Y-39095D01*
X40110Y-39147D01*
X40109Y-39202D01*
X40109Y-39352D01*
X40131Y-39404D01*
X40170Y-39443D01*
X40222Y-39464D01*
X40277Y-39465D01*
X40777Y-39465D01*
X40829Y-39443D01*
X40842Y-39430D01*
X41175Y-39430D01*
X45588Y-43843D01*
X45560Y-43912D01*
X45559Y-44050D01*
X44416Y-42907D01*
X44358Y-42868D01*
X44289Y-42854D01*
X40889Y-42854D01*
X40889Y-42852D01*
X40890Y-42797D01*
X40890Y-42647D01*
X40868Y-42595D01*
X40829Y-42556D01*
X40824Y-42554D01*
X40886Y-42528D01*
X40953Y-42460D01*
X40990Y-42372D01*
X40990Y-42127D01*
X40953Y-42039D01*
X40914Y-42000D01*
X40953Y-41960D01*
X40990Y-41872D01*
X40990Y-41627D01*
X40953Y-41539D01*
X40914Y-41500D01*
X40953Y-41460D01*
X40990Y-41372D01*
X40990Y-41127D01*
X40953Y-41039D01*
X40914Y-41000D01*
X40953Y-40960D01*
X40990Y-40872D01*
X40990Y-40627D01*
X40953Y-40539D01*
X40886Y-40471D01*
X40824Y-40445D01*
X40829Y-40443D01*
X40868Y-40404D01*
X40889Y-40352D01*
X40890Y-40297D01*
X40890Y-40147D01*
X40868Y-40095D01*
X40829Y-40056D01*
X40777Y-40035D01*
X40722Y-40034D01*
X40637Y-40034D01*
X40599Y-40009D01*
X40550Y-40000D01*
X40599Y-39990D01*
X40637Y-39965D01*
X40777Y-39965D01*
X40829Y-39943D01*
X40868Y-39904D01*
X40889Y-39852D01*
X40890Y-39797D01*
X40890Y-39647D01*
X40868Y-39595D01*
X40829Y-39556D01*
X40777Y-39535D01*
X40722Y-39534D01*
X40637Y-39534D01*
X40599Y-39509D01*
X40500Y-39490D01*
X40137Y-39490D01*
X39440Y-38792D01*
X39440Y-30212D01*
X39440Y-29787D01*
X39406Y-29619D01*
X39311Y-29476D01*
X39168Y-29380D01*
X39000Y-29347D01*
X38831Y-29380D01*
X38688Y-29476D01*
X38593Y-29619D01*
X38560Y-29787D01*
X38560Y-30212D01*
X38593Y-30380D01*
X38688Y-30523D01*
X38831Y-30619D01*
X39000Y-30652D01*
X39168Y-30619D01*
X39311Y-30523D01*
X39406Y-30380D01*
X39440Y-30212D01*
X39440Y-38792D01*
X38440Y-37792D01*
X38440Y-30212D01*
X38440Y-29787D01*
X38406Y-29619D01*
X38311Y-29476D01*
X38168Y-29380D01*
X38000Y-29347D01*
X37831Y-29380D01*
X37688Y-29476D01*
X37593Y-29619D01*
X37560Y-29787D01*
X37560Y-30212D01*
X37593Y-30380D01*
X37688Y-30523D01*
X37831Y-30619D01*
X38000Y-30652D01*
X38168Y-30619D01*
X38311Y-30523D01*
X38406Y-30380D01*
X38440Y-30212D01*
X38440Y-37792D01*
X38015Y-37367D01*
X37930Y-37311D01*
X37831Y-37291D01*
X37440Y-37291D01*
X37440Y-30212D01*
X37440Y-29787D01*
X37406Y-29619D01*
X37311Y-29476D01*
X37168Y-29380D01*
X37000Y-29347D01*
X36831Y-29380D01*
X36688Y-29476D01*
X36593Y-29619D01*
X36560Y-29787D01*
X36560Y-30212D01*
X36593Y-30380D01*
X36688Y-30523D01*
X36831Y-30619D01*
X37000Y-30652D01*
X37168Y-30619D01*
X37311Y-30523D01*
X37406Y-30380D01*
X37440Y-30212D01*
X37440Y-37291D01*
X36537Y-37291D01*
X36796Y-37033D01*
X36939Y-36687D01*
X36940Y-36313D01*
X36797Y-35968D01*
X36533Y-35703D01*
X36440Y-35664D01*
X36440Y-30212D01*
X36440Y-29787D01*
X36406Y-29619D01*
X36311Y-29476D01*
X36168Y-29380D01*
X36000Y-29347D01*
X35831Y-29380D01*
X35688Y-29476D01*
X35593Y-29619D01*
X35560Y-29787D01*
X35560Y-30212D01*
X35593Y-30380D01*
X35688Y-30523D01*
X35831Y-30619D01*
X36000Y-30652D01*
X36168Y-30619D01*
X36311Y-30523D01*
X36406Y-30380D01*
X36440Y-30212D01*
X36440Y-35664D01*
X36187Y-35560D01*
X35813Y-35559D01*
X35600Y-35647D01*
X35144Y-35192D01*
X35040Y-35122D01*
X34918Y-35098D01*
X34440Y-35098D01*
X34440Y-30212D01*
X34440Y-29787D01*
X34406Y-29619D01*
X34311Y-29476D01*
X34168Y-29380D01*
X34000Y-29347D01*
X33831Y-29380D01*
X33688Y-29476D01*
X33593Y-29619D01*
X33560Y-29787D01*
X33560Y-30212D01*
X33593Y-30380D01*
X33688Y-30523D01*
X33831Y-30619D01*
X34000Y-30652D01*
X34168Y-30619D01*
X34311Y-30523D01*
X34406Y-30380D01*
X34440Y-30212D01*
X34440Y-35098D01*
X33440Y-35098D01*
X33440Y-30212D01*
X33440Y-29787D01*
X33406Y-29619D01*
X33311Y-29476D01*
X33168Y-29380D01*
X33000Y-29347D01*
X32831Y-29380D01*
X32688Y-29476D01*
X32593Y-29619D01*
X32560Y-29787D01*
X32560Y-30212D01*
X32593Y-30380D01*
X32688Y-30523D01*
X32831Y-30619D01*
X33000Y-30652D01*
X33168Y-30619D01*
X33311Y-30523D01*
X33406Y-30380D01*
X33440Y-30212D01*
X33440Y-35098D01*
X32440Y-35098D01*
X32440Y-30212D01*
X32440Y-29787D01*
X32406Y-29619D01*
X32311Y-29476D01*
X32168Y-29380D01*
X32000Y-29347D01*
X31831Y-29380D01*
X31688Y-29476D01*
X31593Y-29619D01*
X31560Y-29787D01*
X31560Y-30212D01*
X31593Y-30380D01*
X31688Y-30523D01*
X31831Y-30619D01*
X32000Y-30652D01*
X32168Y-30619D01*
X32311Y-30523D01*
X32406Y-30380D01*
X32440Y-30212D01*
X32440Y-35098D01*
X31440Y-35098D01*
X31440Y-30212D01*
X31440Y-29787D01*
X31406Y-29619D01*
X31311Y-29476D01*
X31168Y-29380D01*
X31000Y-29347D01*
X30831Y-29380D01*
X30688Y-29476D01*
X30593Y-29619D01*
X30560Y-29787D01*
X30560Y-30212D01*
X30593Y-30380D01*
X30688Y-30523D01*
X30831Y-30619D01*
X31000Y-30652D01*
X31168Y-30619D01*
X31311Y-30523D01*
X31406Y-30380D01*
X31440Y-30212D01*
X31440Y-35098D01*
X30440Y-35098D01*
X30440Y-30212D01*
X30440Y-29787D01*
X30406Y-29619D01*
X30311Y-29476D01*
X30168Y-29380D01*
X30000Y-29347D01*
X29831Y-29380D01*
X29688Y-29476D01*
X29593Y-29619D01*
X29560Y-29787D01*
X29560Y-30212D01*
X29593Y-30380D01*
X29688Y-30523D01*
X29831Y-30619D01*
X30000Y-30652D01*
X30168Y-30619D01*
X30311Y-30523D01*
X30406Y-30380D01*
X30440Y-30212D01*
X30440Y-35098D01*
X29440Y-35098D01*
X29440Y-30212D01*
X29440Y-29787D01*
X29406Y-29619D01*
X29311Y-29476D01*
X29168Y-29380D01*
X29000Y-29347D01*
X28831Y-29380D01*
X28688Y-29476D01*
X28593Y-29619D01*
X28560Y-29787D01*
X28560Y-30212D01*
X28593Y-30380D01*
X28688Y-30523D01*
X28831Y-30619D01*
X29000Y-30652D01*
X29168Y-30619D01*
X29311Y-30523D01*
X29406Y-30380D01*
X29440Y-30212D01*
X29440Y-35098D01*
X29081Y-35098D01*
X28959Y-35122D01*
X28924Y-35145D01*
X28855Y-35192D01*
X28440Y-35607D01*
X28440Y-30212D01*
X28440Y-29787D01*
X28406Y-29619D01*
X28311Y-29476D01*
X28168Y-29380D01*
X28000Y-29347D01*
X27831Y-29380D01*
X27688Y-29476D01*
X27593Y-29619D01*
X27560Y-29787D01*
X27560Y-30212D01*
X27593Y-30380D01*
X27688Y-30523D01*
X27831Y-30619D01*
X28000Y-30652D01*
X28168Y-30619D01*
X28311Y-30523D01*
X28406Y-30380D01*
X28440Y-30212D01*
X28440Y-35607D01*
X28399Y-35648D01*
X28187Y-35560D01*
X27813Y-35559D01*
X27600Y-35647D01*
X27440Y-35487D01*
X27440Y-30212D01*
X27440Y-29787D01*
X27406Y-29619D01*
X27311Y-29476D01*
X27168Y-29380D01*
X27000Y-29347D01*
X26831Y-29380D01*
X26688Y-29476D01*
X26593Y-29619D01*
X26560Y-29787D01*
X26560Y-30212D01*
X26593Y-30380D01*
X26688Y-30523D01*
X26831Y-30619D01*
X27000Y-30652D01*
X27168Y-30619D01*
X27311Y-30523D01*
X27406Y-30380D01*
X27440Y-30212D01*
X27440Y-35487D01*
X27145Y-35192D01*
X27041Y-35123D01*
X26918Y-35098D01*
X25840Y-35098D01*
X25840Y-30212D01*
X25840Y-29787D01*
X25806Y-29619D01*
X25711Y-29476D01*
X25568Y-29380D01*
X25400Y-29347D01*
X25231Y-29380D01*
X25088Y-29476D01*
X24993Y-29619D01*
X24960Y-29787D01*
X24960Y-30212D01*
X24993Y-30380D01*
X25088Y-30523D01*
X25231Y-30619D01*
X25400Y-30652D01*
X25568Y-30619D01*
X25711Y-30523D01*
X25806Y-30380D01*
X25840Y-30212D01*
X25840Y-35098D01*
X24840Y-35098D01*
X24840Y-30212D01*
X24840Y-29787D01*
X24806Y-29619D01*
X24711Y-29476D01*
X24568Y-29380D01*
X24400Y-29347D01*
X24231Y-29380D01*
X24088Y-29476D01*
X23993Y-29619D01*
X23960Y-29787D01*
X23960Y-30212D01*
X23993Y-30380D01*
X24088Y-30523D01*
X24231Y-30619D01*
X24400Y-30652D01*
X24568Y-30619D01*
X24711Y-30523D01*
X24806Y-30380D01*
X24840Y-30212D01*
X24840Y-35098D01*
X23840Y-35098D01*
X23840Y-30212D01*
X23840Y-29787D01*
X23806Y-29619D01*
X23711Y-29476D01*
X23568Y-29380D01*
X23400Y-29347D01*
X23231Y-29380D01*
X23088Y-29476D01*
X22993Y-29619D01*
X22960Y-29787D01*
X22960Y-30212D01*
X22993Y-30380D01*
X23088Y-30523D01*
X23231Y-30619D01*
X23400Y-30652D01*
X23568Y-30619D01*
X23711Y-30523D01*
X23806Y-30380D01*
X23840Y-30212D01*
X23840Y-35098D01*
X22840Y-35098D01*
X22840Y-30212D01*
X22840Y-29787D01*
X22806Y-29619D01*
X22711Y-29476D01*
X22568Y-29380D01*
X22400Y-29347D01*
X22231Y-29380D01*
X22088Y-29476D01*
X21993Y-29619D01*
X21960Y-29787D01*
X21960Y-30212D01*
X21993Y-30380D01*
X22088Y-30523D01*
X22231Y-30619D01*
X22400Y-30652D01*
X22568Y-30619D01*
X22711Y-30523D01*
X22806Y-30380D01*
X22840Y-30212D01*
X22840Y-35098D01*
X21840Y-35098D01*
X21840Y-30212D01*
X21840Y-29787D01*
X21806Y-29619D01*
X21711Y-29476D01*
X21568Y-29380D01*
X21400Y-29347D01*
X21231Y-29380D01*
X21088Y-29476D01*
X20993Y-29619D01*
X20960Y-29787D01*
X20960Y-30212D01*
X20993Y-30380D01*
X21088Y-30523D01*
X21231Y-30619D01*
X21400Y-30652D01*
X21568Y-30619D01*
X21711Y-30523D01*
X21806Y-30380D01*
X21840Y-30212D01*
X21840Y-35098D01*
X21081Y-35098D01*
X20958Y-35123D01*
X20854Y-35192D01*
X20840Y-35207D01*
X20840Y-30212D01*
X20840Y-29787D01*
X20806Y-29619D01*
X20711Y-29476D01*
X20568Y-29380D01*
X20400Y-29347D01*
X20231Y-29380D01*
X20088Y-29476D01*
X19993Y-29619D01*
X19960Y-29787D01*
X19960Y-30212D01*
X19993Y-30380D01*
X20088Y-30523D01*
X20231Y-30619D01*
X20400Y-30652D01*
X20568Y-30619D01*
X20711Y-30523D01*
X20806Y-30380D01*
X20840Y-30212D01*
X20840Y-35207D01*
X20399Y-35648D01*
X20187Y-35560D01*
X19840Y-35559D01*
X19840Y-30212D01*
X19840Y-29787D01*
X19806Y-29619D01*
X19711Y-29476D01*
X19568Y-29380D01*
X19400Y-29347D01*
X19231Y-29380D01*
X19088Y-29476D01*
X18993Y-29619D01*
X18960Y-29787D01*
X18960Y-30212D01*
X18993Y-30380D01*
X19088Y-30523D01*
X19231Y-30619D01*
X19400Y-30652D01*
X19568Y-30619D01*
X19711Y-30523D01*
X19806Y-30380D01*
X19840Y-30212D01*
X19840Y-35559D01*
X19813Y-35559D01*
X19600Y-35647D01*
X19146Y-35193D01*
X19042Y-35124D01*
X18919Y-35099D01*
X18840Y-35099D01*
X18840Y-30212D01*
X18840Y-29787D01*
X18806Y-29619D01*
X18711Y-29476D01*
X18568Y-29380D01*
X18400Y-29347D01*
X18231Y-29380D01*
X18088Y-29476D01*
X17993Y-29619D01*
X17960Y-29787D01*
X17960Y-30212D01*
X17993Y-30380D01*
X18088Y-30523D01*
X18231Y-30619D01*
X18400Y-30652D01*
X18568Y-30619D01*
X18711Y-30523D01*
X18806Y-30380D01*
X18840Y-30212D01*
X18840Y-35099D01*
X17840Y-35099D01*
X17840Y-30212D01*
X17840Y-29787D01*
X17806Y-29619D01*
X17711Y-29476D01*
X17568Y-29380D01*
X17400Y-29347D01*
X17231Y-29380D01*
X17088Y-29476D01*
X16993Y-29619D01*
X16960Y-29787D01*
X16960Y-30212D01*
X16993Y-30380D01*
X17088Y-30523D01*
X17231Y-30619D01*
X17400Y-30652D01*
X17568Y-30619D01*
X17711Y-30523D01*
X17806Y-30380D01*
X17840Y-30212D01*
X17840Y-35099D01*
X16840Y-35099D01*
X16840Y-30212D01*
X16840Y-29787D01*
X16806Y-29619D01*
X16711Y-29476D01*
X16568Y-29380D01*
X16400Y-29347D01*
X16231Y-29380D01*
X16088Y-29476D01*
X15993Y-29619D01*
X15960Y-29787D01*
X15960Y-30212D01*
X15993Y-30380D01*
X16088Y-30523D01*
X16231Y-30619D01*
X16400Y-30652D01*
X16568Y-30619D01*
X16711Y-30523D01*
X16806Y-30380D01*
X16840Y-30212D01*
X16840Y-35099D01*
X14710Y-35099D01*
X14587Y-35124D01*
X14484Y-35193D01*
X13497Y-36180D01*
X13490Y-36180D01*
X13490Y-35972D01*
X13468Y-35920D01*
X13429Y-35881D01*
X13377Y-35860D01*
X13322Y-35859D01*
X12822Y-35859D01*
X12770Y-35881D01*
X12731Y-35920D01*
X12710Y-35972D01*
X12709Y-36027D01*
X12709Y-37027D01*
X12731Y-37079D01*
X12770Y-37118D01*
X12780Y-37122D01*
X12780Y-38487D01*
X12619Y-38648D01*
X12407Y-38560D01*
X12390Y-38560D01*
X12390Y-36952D01*
X12390Y-36047D01*
X12389Y-35952D01*
X12353Y-35863D01*
X12285Y-35796D01*
X12197Y-35759D01*
X12020Y-35760D01*
X11960Y-35820D01*
X11960Y-36440D01*
X12330Y-36440D01*
X12390Y-36380D01*
X12390Y-36047D01*
X12390Y-36952D01*
X12390Y-36620D01*
X12330Y-36560D01*
X11960Y-36560D01*
X11960Y-37180D01*
X12020Y-37240D01*
X12197Y-37240D01*
X12285Y-37203D01*
X12353Y-37136D01*
X12389Y-37047D01*
X12390Y-36952D01*
X12390Y-38560D01*
X12033Y-38559D01*
X11840Y-38639D01*
X11840Y-37180D01*
X11840Y-36560D01*
X11840Y-36440D01*
X11840Y-35820D01*
X11780Y-35760D01*
X11602Y-35759D01*
X11514Y-35796D01*
X11446Y-35863D01*
X11410Y-35952D01*
X11409Y-36047D01*
X11410Y-36380D01*
X11470Y-36440D01*
X11840Y-36440D01*
X11840Y-36560D01*
X11470Y-36560D01*
X11410Y-36620D01*
X11409Y-36952D01*
X11410Y-37047D01*
X11446Y-37136D01*
X11514Y-37203D01*
X11602Y-37240D01*
X11780Y-37240D01*
X11840Y-37180D01*
X11840Y-38639D01*
X11688Y-38702D01*
X11423Y-38966D01*
X11280Y-39312D01*
X11279Y-39686D01*
X11422Y-40031D01*
X11686Y-40296D01*
X12032Y-40439D01*
X12406Y-40440D01*
X12751Y-40297D01*
X13016Y-40033D01*
X13159Y-39687D01*
X13160Y-39313D01*
X13072Y-39100D01*
X13326Y-38846D01*
X13326Y-38846D01*
X13395Y-38742D01*
X13419Y-38620D01*
X13420Y-38620D01*
X13420Y-37122D01*
X13429Y-37118D01*
X13468Y-37079D01*
X13489Y-37027D01*
X13490Y-36972D01*
X13490Y-36820D01*
X13630Y-36820D01*
X13630Y-36819D01*
X13752Y-36795D01*
X13856Y-36726D01*
X14842Y-35739D01*
X16430Y-35739D01*
X16203Y-35966D01*
X16060Y-36312D01*
X16059Y-36686D01*
X16202Y-37031D01*
X16466Y-37296D01*
X16812Y-37439D01*
X17186Y-37440D01*
X17459Y-37327D01*
X18207Y-38075D01*
X18207Y-38075D01*
X18264Y-38113D01*
X18292Y-38131D01*
X18292Y-38131D01*
X18391Y-38151D01*
X18391Y-38151D01*
X37062Y-38151D01*
X39344Y-40433D01*
X39428Y-40490D01*
X39528Y-40510D01*
X40075Y-40510D01*
X40046Y-40539D01*
X40009Y-40627D01*
X40010Y-40652D01*
X40070Y-40712D01*
X40440Y-40712D01*
X40440Y-40682D01*
X40560Y-40682D01*
X40560Y-40712D01*
X40930Y-40712D01*
X40990Y-40652D01*
X40990Y-40627D01*
X40990Y-40872D01*
X40990Y-40847D01*
X40930Y-40787D01*
X40560Y-40787D01*
X40560Y-40995D01*
X40560Y-41005D01*
X40560Y-41212D01*
X40930Y-41212D01*
X40990Y-41152D01*
X40990Y-41127D01*
X40990Y-41372D01*
X40990Y-41347D01*
X40930Y-41287D01*
X40560Y-41287D01*
X40560Y-41495D01*
X40560Y-41505D01*
X40560Y-41712D01*
X40930Y-41712D01*
X40990Y-41652D01*
X40990Y-41627D01*
X40990Y-41872D01*
X40990Y-41847D01*
X40930Y-41787D01*
X40560Y-41787D01*
X40560Y-41995D01*
X40560Y-42005D01*
X40560Y-42212D01*
X40930Y-42212D01*
X40990Y-42152D01*
X40990Y-42127D01*
X40990Y-42372D01*
X40990Y-42347D01*
X40930Y-42287D01*
X40560Y-42287D01*
X40560Y-42317D01*
X40440Y-42317D01*
X40440Y-42287D01*
X40440Y-42212D01*
X40440Y-42005D01*
X40440Y-41995D01*
X40440Y-41787D01*
X40440Y-41712D01*
X40440Y-41505D01*
X40440Y-41495D01*
X40440Y-41287D01*
X40440Y-41212D01*
X40440Y-41005D01*
X40440Y-40995D01*
X40440Y-40787D01*
X40070Y-40787D01*
X40010Y-40847D01*
X40009Y-40872D01*
X40046Y-40960D01*
X40085Y-41000D01*
X40046Y-41039D01*
X40009Y-41127D01*
X40010Y-41152D01*
X40070Y-41212D01*
X40440Y-41212D01*
X40440Y-41287D01*
X40070Y-41287D01*
X40010Y-41347D01*
X40009Y-41372D01*
X40046Y-41460D01*
X40085Y-41500D01*
X40046Y-41539D01*
X40009Y-41627D01*
X40010Y-41652D01*
X40070Y-41712D01*
X40440Y-41712D01*
X40440Y-41787D01*
X40070Y-41787D01*
X40010Y-41847D01*
X40009Y-41872D01*
X40046Y-41960D01*
X40085Y-42000D01*
X40046Y-42039D01*
X40009Y-42127D01*
X40010Y-42152D01*
X40070Y-42212D01*
X40440Y-42212D01*
X40440Y-42287D01*
X40070Y-42287D01*
X40010Y-42347D01*
X40009Y-42372D01*
X40046Y-42460D01*
X40113Y-42528D01*
X40175Y-42554D01*
X40170Y-42556D01*
X40131Y-42595D01*
X40110Y-42647D01*
X40109Y-42702D01*
X40109Y-42852D01*
X40110Y-42854D01*
X38604Y-42854D01*
X38536Y-42868D01*
X38477Y-42907D01*
X37315Y-44070D01*
X37197Y-44070D01*
X37205Y-44066D01*
X37293Y-43978D01*
X37341Y-43862D01*
X37341Y-43737D01*
X37294Y-43621D01*
X37205Y-43532D01*
X37089Y-43484D01*
X36990Y-43484D01*
X36990Y-42372D01*
X36990Y-42127D01*
X36953Y-42039D01*
X36914Y-42000D01*
X36953Y-41960D01*
X36990Y-41872D01*
X36990Y-41627D01*
X36953Y-41539D01*
X36914Y-41500D01*
X36953Y-41460D01*
X36990Y-41372D01*
X36990Y-41127D01*
X36953Y-41039D01*
X36914Y-41000D01*
X36953Y-40960D01*
X36990Y-40872D01*
X36990Y-40847D01*
X36930Y-40787D01*
X36560Y-40787D01*
X36560Y-40995D01*
X36560Y-41005D01*
X36560Y-41212D01*
X36930Y-41212D01*
X36990Y-41152D01*
X36990Y-41127D01*
X36990Y-41372D01*
X36990Y-41347D01*
X36930Y-41287D01*
X36560Y-41287D01*
X36560Y-41495D01*
X36560Y-41505D01*
X36560Y-41712D01*
X36930Y-41712D01*
X36990Y-41652D01*
X36990Y-41627D01*
X36990Y-41872D01*
X36990Y-41847D01*
X36930Y-41787D01*
X36560Y-41787D01*
X36560Y-41995D01*
X36560Y-42005D01*
X36560Y-42212D01*
X36930Y-42212D01*
X36990Y-42152D01*
X36990Y-42127D01*
X36990Y-42372D01*
X36990Y-42347D01*
X36930Y-42287D01*
X36560Y-42287D01*
X36560Y-42317D01*
X36440Y-42317D01*
X36440Y-42287D01*
X36440Y-42212D01*
X36440Y-42005D01*
X36440Y-41995D01*
X36440Y-41787D01*
X36440Y-41712D01*
X36440Y-41505D01*
X36440Y-41495D01*
X36440Y-41287D01*
X36440Y-41212D01*
X36440Y-41005D01*
X36440Y-40995D01*
X36440Y-40787D01*
X36070Y-40787D01*
X36010Y-40847D01*
X36009Y-40872D01*
X36046Y-40960D01*
X36085Y-41000D01*
X36046Y-41039D01*
X36009Y-41127D01*
X36010Y-41152D01*
X36070Y-41212D01*
X36440Y-41212D01*
X36440Y-41287D01*
X36070Y-41287D01*
X36010Y-41347D01*
X36009Y-41372D01*
X36046Y-41460D01*
X36085Y-41500D01*
X36046Y-41539D01*
X36009Y-41627D01*
X36010Y-41652D01*
X36070Y-41712D01*
X36440Y-41712D01*
X36440Y-41787D01*
X36070Y-41787D01*
X36010Y-41847D01*
X36009Y-41872D01*
X36046Y-41960D01*
X36085Y-42000D01*
X36046Y-42039D01*
X36009Y-42127D01*
X36010Y-42152D01*
X36070Y-42212D01*
X36440Y-42212D01*
X36440Y-42287D01*
X36070Y-42287D01*
X36010Y-42347D01*
X36009Y-42372D01*
X36046Y-42460D01*
X36113Y-42528D01*
X36175Y-42554D01*
X36170Y-42556D01*
X36131Y-42595D01*
X36110Y-42647D01*
X36109Y-42702D01*
X36109Y-42852D01*
X36131Y-42904D01*
X36170Y-42943D01*
X36222Y-42964D01*
X36277Y-42965D01*
X36777Y-42965D01*
X36829Y-42943D01*
X36868Y-42904D01*
X36889Y-42852D01*
X36890Y-42797D01*
X36890Y-42647D01*
X36868Y-42595D01*
X36829Y-42556D01*
X36824Y-42554D01*
X36886Y-42528D01*
X36953Y-42460D01*
X36990Y-42372D01*
X36990Y-43484D01*
X36964Y-43484D01*
X36890Y-43515D01*
X36890Y-43297D01*
X36890Y-43147D01*
X36868Y-43095D01*
X36829Y-43056D01*
X36777Y-43035D01*
X36722Y-43034D01*
X36222Y-43034D01*
X36170Y-43056D01*
X36131Y-43095D01*
X36110Y-43147D01*
X36109Y-43202D01*
X36109Y-43352D01*
X36131Y-43404D01*
X36170Y-43443D01*
X36222Y-43464D01*
X36277Y-43465D01*
X36777Y-43465D01*
X36829Y-43443D01*
X36868Y-43404D01*
X36889Y-43352D01*
X36890Y-43297D01*
X36890Y-43515D01*
X36848Y-43532D01*
X36826Y-43555D01*
X36777Y-43535D01*
X36722Y-43534D01*
X36222Y-43534D01*
X36170Y-43556D01*
X36131Y-43595D01*
X36110Y-43647D01*
X36109Y-43702D01*
X36109Y-43852D01*
X36131Y-43904D01*
X36170Y-43943D01*
X36222Y-43964D01*
X36277Y-43965D01*
X36754Y-43965D01*
X36759Y-43977D01*
X36848Y-44066D01*
X36856Y-44070D01*
X36843Y-44070D01*
X36829Y-44056D01*
X36777Y-44035D01*
X36722Y-44034D01*
X36222Y-44034D01*
X36170Y-44056D01*
X36131Y-44095D01*
X36110Y-44147D01*
X36109Y-44202D01*
X36109Y-44352D01*
X36131Y-44404D01*
X36170Y-44443D01*
X36222Y-44464D01*
X36277Y-44465D01*
X36777Y-44465D01*
X36829Y-44443D01*
X36842Y-44430D01*
X37389Y-44430D01*
X37458Y-44416D01*
X37517Y-44377D01*
X38679Y-43214D01*
X40109Y-43214D01*
X40109Y-43352D01*
X40131Y-43404D01*
X40156Y-43430D01*
X39969Y-43430D01*
X39847Y-43454D01*
X39743Y-43523D01*
X39674Y-43627D01*
X39649Y-43750D01*
X39649Y-45719D01*
X39674Y-45842D01*
X39738Y-45938D01*
X39497Y-46180D01*
X39490Y-46180D01*
X39490Y-45972D01*
X39468Y-45920D01*
X39429Y-45881D01*
X39377Y-45860D01*
X39322Y-45859D01*
X38822Y-45859D01*
X38770Y-45881D01*
X38731Y-45920D01*
X38710Y-45972D01*
X38709Y-46027D01*
X38709Y-46180D01*
X38569Y-46180D01*
X38447Y-46204D01*
X38390Y-46242D01*
X38390Y-46047D01*
X38389Y-45952D01*
X38353Y-45863D01*
X38285Y-45796D01*
X38197Y-45759D01*
X38020Y-45760D01*
X37960Y-45820D01*
X37960Y-46440D01*
X37967Y-46440D01*
X37967Y-46560D01*
X37960Y-46560D01*
X37960Y-46567D01*
X37840Y-46567D01*
X37840Y-46560D01*
X37840Y-46440D01*
X37840Y-45820D01*
X37780Y-45760D01*
X37602Y-45759D01*
X37514Y-45796D01*
X37446Y-45863D01*
X37410Y-45952D01*
X37409Y-46047D01*
X37410Y-46380D01*
X37470Y-46440D01*
X37840Y-46440D01*
X37840Y-46560D01*
X37470Y-46560D01*
X37410Y-46620D01*
X37409Y-46735D01*
X35706Y-45032D01*
X35706Y-40240D01*
X35792Y-40276D01*
X35917Y-40276D01*
X36033Y-40228D01*
X36110Y-40152D01*
X36109Y-40202D01*
X36109Y-40352D01*
X36131Y-40404D01*
X36170Y-40443D01*
X36175Y-40445D01*
X36113Y-40471D01*
X36046Y-40539D01*
X36009Y-40627D01*
X36010Y-40652D01*
X36070Y-40712D01*
X36440Y-40712D01*
X36440Y-40682D01*
X36560Y-40682D01*
X36560Y-40712D01*
X36930Y-40712D01*
X36990Y-40652D01*
X36990Y-40627D01*
X36953Y-40539D01*
X36924Y-40510D01*
X36970Y-40510D01*
X37069Y-40490D01*
X37153Y-40433D01*
X37210Y-40349D01*
X37230Y-40250D01*
X37230Y-40200D01*
X37253Y-40190D01*
X37342Y-40102D01*
X37390Y-39986D01*
X37390Y-39861D01*
X37342Y-39745D01*
X37254Y-39656D01*
X37138Y-39608D01*
X37013Y-39608D01*
X36897Y-39656D01*
X36890Y-39663D01*
X36890Y-39647D01*
X36868Y-39595D01*
X36829Y-39556D01*
X36777Y-39535D01*
X36722Y-39534D01*
X36638Y-39534D01*
X36726Y-39476D01*
X36733Y-39465D01*
X36777Y-39465D01*
X36829Y-39443D01*
X36868Y-39404D01*
X36889Y-39352D01*
X36890Y-39297D01*
X36890Y-39147D01*
X36868Y-39095D01*
X36829Y-39056D01*
X36777Y-39035D01*
X36733Y-39034D01*
X36726Y-39023D01*
X36638Y-38965D01*
X36777Y-38965D01*
X36829Y-38943D01*
X36868Y-38904D01*
X36889Y-38852D01*
X36890Y-38797D01*
X36890Y-38647D01*
X36868Y-38595D01*
X36829Y-38556D01*
X36777Y-38535D01*
X36722Y-38534D01*
X36222Y-38534D01*
X36211Y-38539D01*
X36139Y-38466D01*
X36023Y-38418D01*
X35898Y-38418D01*
X35782Y-38466D01*
X35693Y-38555D01*
X35645Y-38670D01*
X35645Y-38796D01*
X35693Y-38911D01*
X35751Y-38970D01*
X35751Y-38970D01*
X35671Y-39023D01*
X35159Y-39535D01*
X35090Y-39639D01*
X35066Y-39761D01*
X35066Y-44844D01*
X27055Y-44844D01*
X26932Y-44869D01*
X26828Y-44938D01*
X23773Y-47993D01*
X23704Y-48097D01*
X23680Y-48219D01*
X23680Y-48489D01*
X23593Y-48619D01*
X23560Y-48787D01*
X23560Y-49212D01*
X23593Y-49380D01*
X23688Y-49523D01*
X23831Y-49619D01*
X24000Y-49652D01*
X24168Y-49619D01*
X24311Y-49523D01*
X24406Y-49380D01*
X24440Y-49212D01*
X24440Y-48787D01*
X24406Y-48619D01*
X24320Y-48489D01*
X24320Y-48352D01*
X27187Y-45484D01*
X35253Y-45484D01*
X37286Y-47517D01*
X37286Y-47517D01*
X37390Y-47587D01*
X37513Y-47611D01*
X38275Y-47611D01*
X38275Y-47611D01*
X38397Y-47587D01*
X38501Y-47517D01*
X38796Y-47223D01*
X38796Y-47223D01*
X38851Y-47140D01*
X38877Y-47140D01*
X39377Y-47140D01*
X39429Y-47118D01*
X39468Y-47079D01*
X39489Y-47027D01*
X39490Y-46972D01*
X39490Y-46820D01*
X39630Y-46820D01*
X39630Y-46819D01*
X39752Y-46795D01*
X39856Y-46726D01*
X39856Y-46726D01*
X39893Y-46816D01*
X39982Y-46904D01*
X40097Y-46952D01*
X40221Y-46952D01*
X41303Y-48034D01*
X41303Y-48034D01*
X41361Y-48073D01*
X41430Y-48087D01*
X46812Y-48087D01*
X46482Y-48223D01*
X46224Y-48481D01*
X46085Y-48817D01*
X46084Y-49181D01*
X46223Y-49517D01*
X46481Y-49775D01*
X46624Y-49835D01*
X45440Y-49835D01*
X45440Y-49212D01*
X45440Y-48787D01*
X45406Y-48619D01*
X45311Y-48476D01*
X45168Y-48380D01*
X45000Y-48347D01*
X44831Y-48380D01*
X44688Y-48476D01*
X44593Y-48619D01*
X44560Y-48787D01*
X44560Y-49212D01*
X44593Y-49380D01*
X44688Y-49523D01*
X44831Y-49619D01*
X45000Y-49652D01*
X45168Y-49619D01*
X45311Y-49523D01*
X45406Y-49380D01*
X45440Y-49212D01*
X45440Y-49835D01*
X44440Y-49835D01*
X44440Y-49212D01*
X44440Y-48787D01*
X44406Y-48619D01*
X44311Y-48476D01*
X44168Y-48380D01*
X44000Y-48347D01*
X43831Y-48380D01*
X43688Y-48476D01*
X43593Y-48619D01*
X43560Y-48787D01*
X43560Y-49212D01*
X43593Y-49380D01*
X43688Y-49523D01*
X43831Y-49619D01*
X44000Y-49652D01*
X44168Y-49619D01*
X44311Y-49523D01*
X44406Y-49380D01*
X44440Y-49212D01*
X44440Y-49835D01*
X43440Y-49835D01*
X43440Y-49212D01*
X43440Y-48787D01*
X43406Y-48619D01*
X43311Y-48476D01*
X43168Y-48380D01*
X43000Y-48347D01*
X42831Y-48380D01*
X42688Y-48476D01*
X42593Y-48619D01*
X42560Y-48787D01*
X42560Y-49212D01*
X42593Y-49380D01*
X42688Y-49523D01*
X42831Y-49619D01*
X43000Y-49652D01*
X43168Y-49619D01*
X43311Y-49523D01*
X43406Y-49380D01*
X43440Y-49212D01*
X43440Y-49835D01*
X42440Y-49835D01*
X42440Y-49212D01*
X42440Y-48787D01*
X42406Y-48619D01*
X42311Y-48476D01*
X42168Y-48380D01*
X42000Y-48347D01*
X41831Y-48380D01*
X41688Y-48476D01*
X41593Y-48619D01*
X41560Y-48787D01*
X41560Y-49212D01*
X41593Y-49380D01*
X41688Y-49523D01*
X41831Y-49619D01*
X42000Y-49652D01*
X42168Y-49619D01*
X42311Y-49523D01*
X42406Y-49380D01*
X42440Y-49212D01*
X42440Y-49835D01*
X41440Y-49835D01*
X41440Y-49212D01*
X41440Y-48787D01*
X41406Y-48619D01*
X41311Y-48476D01*
X41168Y-48380D01*
X41000Y-48347D01*
X40831Y-48380D01*
X40688Y-48476D01*
X40593Y-48619D01*
X40560Y-48787D01*
X40560Y-49212D01*
X40593Y-49380D01*
X40688Y-49523D01*
X40831Y-49619D01*
X41000Y-49652D01*
X41168Y-49619D01*
X41311Y-49523D01*
X41406Y-49380D01*
X41440Y-49212D01*
X41440Y-49835D01*
X40440Y-49835D01*
X40440Y-49212D01*
X40440Y-48787D01*
X40406Y-48619D01*
X40311Y-48476D01*
X40168Y-48380D01*
X40000Y-48347D01*
X39831Y-48380D01*
X39688Y-48476D01*
X39593Y-48619D01*
X39560Y-48787D01*
X39560Y-49212D01*
X39593Y-49380D01*
X39688Y-49523D01*
X39831Y-49619D01*
X40000Y-49652D01*
X40168Y-49619D01*
X40311Y-49523D01*
X40406Y-49380D01*
X40440Y-49212D01*
X40440Y-49835D01*
X39440Y-49835D01*
X39440Y-49212D01*
X39440Y-48787D01*
X39406Y-48619D01*
X39311Y-48476D01*
X39168Y-48380D01*
X39000Y-48347D01*
X38831Y-48380D01*
X38688Y-48476D01*
X38593Y-48619D01*
X38560Y-48787D01*
X38560Y-49212D01*
X38593Y-49380D01*
X38688Y-49523D01*
X38831Y-49619D01*
X39000Y-49652D01*
X39168Y-49619D01*
X39311Y-49523D01*
X39406Y-49380D01*
X39440Y-49212D01*
X39440Y-49835D01*
X38440Y-49835D01*
X38440Y-49212D01*
X38440Y-48787D01*
X38406Y-48619D01*
X38311Y-48476D01*
X38168Y-48380D01*
X38000Y-48347D01*
X37831Y-48380D01*
X37688Y-48476D01*
X37593Y-48619D01*
X37560Y-48787D01*
X37560Y-49212D01*
X37593Y-49380D01*
X37688Y-49523D01*
X37831Y-49619D01*
X38000Y-49652D01*
X38168Y-49619D01*
X38311Y-49523D01*
X38406Y-49380D01*
X38440Y-49212D01*
X38440Y-49835D01*
X36440Y-49835D01*
X36440Y-49212D01*
X36440Y-48787D01*
X36406Y-48619D01*
X36311Y-48476D01*
X36168Y-48380D01*
X36000Y-48347D01*
X35831Y-48380D01*
X35688Y-48476D01*
X35593Y-48619D01*
X35560Y-48787D01*
X35560Y-49212D01*
X35593Y-49380D01*
X35688Y-49523D01*
X35831Y-49619D01*
X36000Y-49652D01*
X36168Y-49619D01*
X36311Y-49523D01*
X36406Y-49380D01*
X36440Y-49212D01*
X36440Y-49835D01*
X35440Y-49835D01*
X35440Y-49212D01*
X35440Y-48787D01*
X35406Y-48619D01*
X35311Y-48476D01*
X35168Y-48380D01*
X35000Y-48347D01*
X34831Y-48380D01*
X34688Y-48476D01*
X34593Y-48619D01*
X34560Y-48787D01*
X34560Y-49212D01*
X34593Y-49380D01*
X34688Y-49523D01*
X34831Y-49619D01*
X35000Y-49652D01*
X35168Y-49619D01*
X35311Y-49523D01*
X35406Y-49380D01*
X35440Y-49212D01*
X35440Y-49835D01*
X34440Y-49835D01*
X34440Y-49212D01*
X34440Y-48787D01*
X34406Y-48619D01*
X34311Y-48476D01*
X34168Y-48380D01*
X34000Y-48347D01*
X33831Y-48380D01*
X33688Y-48476D01*
X33593Y-48619D01*
X33560Y-48787D01*
X33560Y-49212D01*
X33593Y-49380D01*
X33688Y-49523D01*
X33831Y-49619D01*
X34000Y-49652D01*
X34168Y-49619D01*
X34311Y-49523D01*
X34406Y-49380D01*
X34440Y-49212D01*
X34440Y-49835D01*
X33440Y-49835D01*
X33440Y-49212D01*
X33440Y-48787D01*
X33406Y-48619D01*
X33311Y-48476D01*
X33168Y-48380D01*
X33000Y-48347D01*
X32831Y-48380D01*
X32688Y-48476D01*
X32593Y-48619D01*
X32560Y-48787D01*
X32560Y-49212D01*
X32593Y-49380D01*
X32688Y-49523D01*
X32831Y-49619D01*
X33000Y-49652D01*
X33168Y-49619D01*
X33311Y-49523D01*
X33406Y-49380D01*
X33440Y-49212D01*
X33440Y-49835D01*
X32440Y-49835D01*
X32440Y-49212D01*
X32440Y-48787D01*
X32406Y-48619D01*
X32311Y-48476D01*
X32168Y-48380D01*
X32000Y-48347D01*
X31831Y-48380D01*
X31688Y-48476D01*
X31593Y-48619D01*
X31560Y-48787D01*
X31560Y-49212D01*
X31593Y-49380D01*
X31688Y-49523D01*
X31831Y-49619D01*
X32000Y-49652D01*
X32168Y-49619D01*
X32311Y-49523D01*
X32406Y-49380D01*
X32440Y-49212D01*
X32440Y-49835D01*
X31440Y-49835D01*
X31440Y-49212D01*
X31440Y-48787D01*
X31406Y-48619D01*
X31311Y-48476D01*
X31168Y-48380D01*
X31000Y-48347D01*
X30831Y-48380D01*
X30688Y-48476D01*
X30593Y-48619D01*
X30560Y-48787D01*
X30560Y-49212D01*
X30593Y-49380D01*
X30688Y-49523D01*
X30831Y-49619D01*
X31000Y-49652D01*
X31168Y-49619D01*
X31311Y-49523D01*
X31406Y-49380D01*
X31440Y-49212D01*
X31440Y-49835D01*
X30440Y-49835D01*
X30440Y-49212D01*
X30440Y-48787D01*
X30406Y-48619D01*
X30311Y-48476D01*
X30168Y-48380D01*
X30000Y-48347D01*
X29831Y-48380D01*
X29688Y-48476D01*
X29593Y-48619D01*
X29560Y-48787D01*
X29560Y-49212D01*
X29593Y-49380D01*
X29688Y-49523D01*
X29831Y-49619D01*
X30000Y-49652D01*
X30168Y-49619D01*
X30311Y-49523D01*
X30406Y-49380D01*
X30440Y-49212D01*
X30440Y-49835D01*
X29440Y-49835D01*
X29440Y-49212D01*
X29440Y-48787D01*
X29406Y-48619D01*
X29311Y-48476D01*
X29168Y-48380D01*
X29000Y-48347D01*
X28831Y-48380D01*
X28688Y-48476D01*
X28593Y-48619D01*
X28560Y-48787D01*
X28560Y-49212D01*
X28593Y-49380D01*
X28688Y-49523D01*
X28831Y-49619D01*
X29000Y-49652D01*
X29168Y-49619D01*
X29311Y-49523D01*
X29406Y-49380D01*
X29440Y-49212D01*
X29440Y-49835D01*
X27440Y-49835D01*
X27440Y-49212D01*
X27440Y-48787D01*
X27406Y-48619D01*
X27311Y-48476D01*
X27168Y-48380D01*
X27000Y-48347D01*
X26831Y-48380D01*
X26688Y-48476D01*
X26593Y-48619D01*
X26560Y-48787D01*
X26560Y-49212D01*
X26593Y-49380D01*
X26688Y-49523D01*
X26831Y-49619D01*
X27000Y-49652D01*
X27168Y-49619D01*
X27311Y-49523D01*
X27406Y-49380D01*
X27440Y-49212D01*
X27440Y-49835D01*
X26540Y-49835D01*
X26540Y-49260D01*
X26540Y-49060D01*
X26540Y-48940D01*
X26540Y-48740D01*
X26475Y-48537D01*
X26339Y-48375D01*
X26143Y-48279D01*
X26060Y-48323D01*
X26060Y-48940D01*
X26540Y-48940D01*
X26540Y-49060D01*
X26060Y-49060D01*
X26060Y-49676D01*
X26143Y-49720D01*
X26339Y-49624D01*
X26475Y-49462D01*
X26540Y-49260D01*
X26540Y-49835D01*
X25940Y-49835D01*
X25940Y-49676D01*
X25940Y-49060D01*
X25940Y-48940D01*
X25940Y-48323D01*
X25856Y-48279D01*
X25660Y-48375D01*
X25524Y-48537D01*
X25500Y-48613D01*
X25475Y-48537D01*
X25339Y-48375D01*
X25143Y-48279D01*
X25060Y-48323D01*
X25060Y-48940D01*
X25460Y-48940D01*
X25540Y-48940D01*
X25940Y-48940D01*
X25940Y-49060D01*
X25540Y-49060D01*
X25460Y-49060D01*
X25060Y-49060D01*
X25060Y-49676D01*
X25143Y-49720D01*
X25339Y-49624D01*
X25475Y-49462D01*
X25500Y-49386D01*
X25524Y-49462D01*
X25660Y-49624D01*
X25856Y-49720D01*
X25940Y-49676D01*
X25940Y-49835D01*
X24940Y-49835D01*
X24940Y-49676D01*
X24940Y-49060D01*
X24940Y-48940D01*
X24940Y-48323D01*
X24856Y-48279D01*
X24660Y-48375D01*
X24524Y-48537D01*
X24460Y-48740D01*
X24460Y-48940D01*
X24940Y-48940D01*
X24940Y-49060D01*
X24460Y-49060D01*
X24460Y-49260D01*
X24524Y-49462D01*
X24660Y-49624D01*
X24856Y-49720D01*
X24940Y-49676D01*
X24940Y-49835D01*
X23440Y-49835D01*
X23440Y-49212D01*
X23440Y-48787D01*
X23406Y-48619D01*
X23311Y-48476D01*
X23168Y-48380D01*
X23000Y-48347D01*
X22831Y-48380D01*
X22688Y-48476D01*
X22593Y-48619D01*
X22560Y-48787D01*
X22560Y-49212D01*
X22593Y-49380D01*
X22688Y-49523D01*
X22831Y-49619D01*
X23000Y-49652D01*
X23168Y-49619D01*
X23311Y-49523D01*
X23406Y-49380D01*
X23440Y-49212D01*
X23440Y-49835D01*
X22440Y-49835D01*
X22440Y-49212D01*
X22440Y-48787D01*
X22406Y-48619D01*
X22311Y-48476D01*
X22168Y-48380D01*
X22000Y-48347D01*
X21831Y-48380D01*
X21688Y-48476D01*
X21593Y-48619D01*
X21560Y-48787D01*
X21560Y-49212D01*
X21593Y-49380D01*
X21688Y-49523D01*
X21831Y-49619D01*
X22000Y-49652D01*
X22168Y-49619D01*
X22311Y-49523D01*
X22406Y-49380D01*
X22440Y-49212D01*
X22440Y-49835D01*
X21440Y-49835D01*
X21440Y-49212D01*
X21440Y-48787D01*
X21406Y-48619D01*
X21311Y-48476D01*
X21168Y-48380D01*
X21000Y-48347D01*
X20831Y-48380D01*
X20688Y-48476D01*
X20593Y-48619D01*
X20560Y-48787D01*
X20560Y-49212D01*
X20593Y-49380D01*
X20688Y-49523D01*
X20831Y-49619D01*
X21000Y-49652D01*
X21168Y-49619D01*
X21311Y-49523D01*
X21406Y-49380D01*
X21440Y-49212D01*
X21440Y-49835D01*
X20440Y-49835D01*
X20440Y-49212D01*
X20440Y-48787D01*
X20406Y-48619D01*
X20311Y-48476D01*
X20168Y-48380D01*
X20000Y-48347D01*
X19831Y-48380D01*
X19688Y-48476D01*
X19593Y-48619D01*
X19560Y-48787D01*
X19560Y-49212D01*
X19593Y-49380D01*
X19688Y-49523D01*
X19831Y-49619D01*
X20000Y-49652D01*
X20168Y-49619D01*
X20311Y-49523D01*
X20406Y-49380D01*
X20440Y-49212D01*
X20440Y-49835D01*
X14875Y-49835D01*
X15017Y-49776D01*
X15275Y-49518D01*
X15414Y-49182D01*
X15415Y-48818D01*
X15276Y-48482D01*
X15018Y-48224D01*
X14682Y-48085D01*
X14318Y-48084D01*
X13982Y-48223D01*
X13724Y-48481D01*
X13585Y-48817D01*
X13584Y-49181D01*
X13723Y-49517D01*
X13981Y-49775D01*
X14124Y-49835D01*
X10804Y-49835D01*
X10804Y-39664D01*
X10795Y-39291D01*
X10669Y-38986D01*
X10536Y-38908D01*
X10451Y-38993D01*
X10451Y-38823D01*
X10373Y-38690D01*
X10310Y-38666D01*
X10310Y-37563D01*
X10182Y-37254D01*
X9946Y-37018D01*
X9637Y-36890D01*
X9303Y-36889D01*
X8994Y-37017D01*
X8758Y-37253D01*
X8630Y-37562D01*
X8629Y-37896D01*
X8757Y-38205D01*
X8993Y-38441D01*
X9302Y-38569D01*
X9636Y-38570D01*
X9945Y-38442D01*
X10181Y-38206D01*
X10309Y-37897D01*
X10310Y-37563D01*
X10310Y-38666D01*
X10024Y-38555D01*
X9651Y-38564D01*
X9346Y-38690D01*
X9268Y-38823D01*
X9860Y-39415D01*
X10451Y-38823D01*
X10451Y-38993D01*
X9944Y-39500D01*
X10536Y-40091D01*
X10669Y-40013D01*
X10804Y-39664D01*
X10804Y-49835D01*
X10451Y-49835D01*
X10451Y-40176D01*
X9860Y-39584D01*
X9775Y-39669D01*
X9775Y-39500D01*
X9183Y-38908D01*
X9050Y-38986D01*
X9009Y-39093D01*
X8974Y-39059D01*
X8783Y-38980D01*
X8577Y-38979D01*
X8385Y-39058D01*
X8239Y-39205D01*
X8160Y-39396D01*
X8159Y-39602D01*
X8238Y-39794D01*
X8385Y-39940D01*
X8576Y-40019D01*
X8782Y-40020D01*
X8974Y-39941D01*
X9007Y-39908D01*
X9050Y-40013D01*
X9183Y-40091D01*
X9775Y-39500D01*
X9775Y-39669D01*
X9268Y-40176D01*
X9346Y-40309D01*
X9695Y-40444D01*
X10068Y-40435D01*
X10373Y-40309D01*
X10451Y-40176D01*
X10451Y-49835D01*
X10310Y-49835D01*
X10310Y-41103D01*
X10182Y-40794D01*
X9946Y-40558D01*
X9637Y-40430D01*
X9303Y-40429D01*
X8994Y-40557D01*
X8758Y-40793D01*
X8630Y-41102D01*
X8629Y-41436D01*
X8757Y-41745D01*
X8993Y-41981D01*
X9302Y-42109D01*
X9636Y-42110D01*
X9945Y-41982D01*
X10181Y-41746D01*
X10309Y-41437D01*
X10310Y-41103D01*
X10310Y-49835D01*
X7665Y-49835D01*
X7665Y-29165D01*
X14624Y-29165D01*
X14482Y-29223D01*
X14224Y-29481D01*
X14085Y-29817D01*
X14084Y-30181D01*
X14223Y-30517D01*
X14481Y-30775D01*
X14817Y-30914D01*
X15181Y-30915D01*
X15517Y-30776D01*
X15775Y-30518D01*
X15914Y-30182D01*
X15915Y-29818D01*
X15776Y-29482D01*
X15518Y-29224D01*
X15375Y-29165D01*
X44124Y-29165D01*
X43982Y-29223D01*
X43724Y-29481D01*
X43585Y-29817D01*
X43584Y-30181D01*
X43723Y-30517D01*
X43981Y-30775D01*
X44317Y-30914D01*
X44681Y-30915D01*
X45017Y-30776D01*
X45275Y-30518D01*
X45414Y-30182D01*
X45415Y-29818D01*
X45276Y-29482D01*
X45018Y-29224D01*
X44875Y-29165D01*
X78124Y-29165D01*
X77982Y-29223D01*
X77724Y-29481D01*
X77585Y-29817D01*
X77584Y-30181D01*
X77723Y-30517D01*
X77981Y-30775D01*
X78317Y-30914D01*
X78681Y-30915D01*
X79017Y-30776D01*
X79275Y-30518D01*
X79414Y-30182D01*
X79415Y-29818D01*
X79276Y-29482D01*
X79018Y-29224D01*
X78875Y-29165D01*
X102124Y-29165D01*
X101982Y-29223D01*
X101724Y-29481D01*
X101585Y-29817D01*
X101584Y-30181D01*
X101723Y-30517D01*
X101981Y-30775D01*
X102317Y-30914D01*
X102681Y-30915D01*
X103017Y-30776D01*
X103275Y-30518D01*
X103414Y-30182D01*
X103415Y-29818D01*
X103276Y-29482D01*
X103018Y-29224D01*
X102875Y-29165D01*
X109835Y-29165D01*
X109835Y-49835D01*
X109835Y-49835D01*
G37*
G54D22*
X109835Y-49835D02*
X102875Y-49835D01*
X103017Y-49776D01*
X103275Y-49518D01*
X103414Y-49182D01*
X103415Y-48818D01*
X103276Y-48482D01*
X103018Y-48224D01*
X102682Y-48085D01*
X102318Y-48084D01*
X101982Y-48223D01*
X101724Y-48481D01*
X101585Y-48817D01*
X101584Y-49181D01*
X101723Y-49517D01*
X101981Y-49775D01*
X102124Y-49835D01*
X92940Y-49835D01*
X92940Y-36313D01*
X92797Y-35968D01*
X92533Y-35703D01*
X92187Y-35560D01*
X91813Y-35559D01*
X91468Y-35702D01*
X91203Y-35966D01*
X91060Y-36312D01*
X91059Y-36686D01*
X91202Y-37031D01*
X91466Y-37296D01*
X91812Y-37439D01*
X92186Y-37440D01*
X92531Y-37297D01*
X92796Y-37033D01*
X92939Y-36687D01*
X92940Y-36313D01*
X92940Y-49835D01*
X84940Y-49835D01*
X84940Y-36313D01*
X84797Y-35968D01*
X84533Y-35703D01*
X84187Y-35560D01*
X83813Y-35559D01*
X83468Y-35702D01*
X83203Y-35966D01*
X83060Y-36312D01*
X83059Y-36686D01*
X83202Y-37031D01*
X83466Y-37296D01*
X83812Y-37439D01*
X84186Y-37440D01*
X84531Y-37297D01*
X84796Y-37033D01*
X84939Y-36687D01*
X84940Y-36313D01*
X84940Y-49835D01*
X78875Y-49835D01*
X79017Y-49776D01*
X79275Y-49518D01*
X79414Y-49182D01*
X79415Y-48818D01*
X79276Y-48482D01*
X79018Y-48224D01*
X78682Y-48085D01*
X78318Y-48084D01*
X77982Y-48223D01*
X77724Y-48481D01*
X77585Y-48817D01*
X77584Y-49181D01*
X77723Y-49517D01*
X77981Y-49775D01*
X78124Y-49835D01*
X76940Y-49835D01*
X76940Y-36313D01*
X76797Y-35968D01*
X76533Y-35703D01*
X76187Y-35560D01*
X75813Y-35559D01*
X75468Y-35702D01*
X75203Y-35966D01*
X75060Y-36312D01*
X75059Y-36686D01*
X75202Y-37031D01*
X75466Y-37296D01*
X75812Y-37439D01*
X76186Y-37440D01*
X76531Y-37297D01*
X76796Y-37033D01*
X76939Y-36687D01*
X76940Y-36313D01*
X76940Y-49835D01*
X47375Y-49835D01*
X47517Y-49776D01*
X47775Y-49518D01*
X47914Y-49182D01*
X47915Y-48818D01*
X47776Y-48482D01*
X47518Y-48224D01*
X47188Y-48087D01*
X54658Y-48087D01*
X54727Y-48073D01*
X54785Y-48034D01*
X56237Y-46583D01*
X56237Y-46583D01*
X56276Y-46524D01*
X56289Y-46456D01*
X56289Y-46456D01*
X56289Y-44465D01*
X56777Y-44465D01*
X56829Y-44443D01*
X56868Y-44404D01*
X56889Y-44352D01*
X56890Y-44297D01*
X56890Y-44147D01*
X56868Y-44095D01*
X56829Y-44056D01*
X56777Y-44035D01*
X56722Y-44034D01*
X56638Y-44034D01*
X56726Y-43976D01*
X56733Y-43965D01*
X56777Y-43965D01*
X56829Y-43943D01*
X56868Y-43904D01*
X56889Y-43852D01*
X56890Y-43797D01*
X56890Y-43647D01*
X56868Y-43595D01*
X56829Y-43556D01*
X56777Y-43535D01*
X56733Y-43534D01*
X56726Y-43523D01*
X56705Y-43510D01*
X58250Y-43510D01*
X58349Y-43490D01*
X58433Y-43433D01*
X64540Y-37327D01*
X64812Y-37439D01*
X65186Y-37440D01*
X65531Y-37297D01*
X65796Y-37033D01*
X65939Y-36687D01*
X65940Y-36313D01*
X65797Y-35968D01*
X65553Y-35723D01*
X67447Y-35723D01*
X67203Y-35966D01*
X67060Y-36312D01*
X67059Y-36686D01*
X67202Y-37031D01*
X67466Y-37296D01*
X67812Y-37439D01*
X68186Y-37440D01*
X68531Y-37297D01*
X68796Y-37033D01*
X68939Y-36687D01*
X68940Y-36313D01*
X68797Y-35968D01*
X68553Y-35723D01*
X71855Y-35723D01*
X72172Y-36040D01*
X72060Y-36312D01*
X72059Y-36686D01*
X72202Y-37031D01*
X72466Y-37296D01*
X72740Y-37409D01*
X72740Y-45903D01*
X72759Y-46002D01*
X72816Y-46087D01*
X73396Y-46667D01*
X73396Y-46677D01*
X73444Y-46793D01*
X73532Y-46881D01*
X73648Y-46929D01*
X73773Y-46929D01*
X73889Y-46882D01*
X73978Y-46793D01*
X74026Y-46677D01*
X74026Y-46552D01*
X73978Y-46436D01*
X73890Y-46347D01*
X73774Y-46299D01*
X73764Y-46299D01*
X73260Y-45795D01*
X73260Y-37409D01*
X73531Y-37297D01*
X73796Y-37033D01*
X73939Y-36687D01*
X73940Y-36313D01*
X73797Y-35968D01*
X73533Y-35703D01*
X73187Y-35560D01*
X72813Y-35559D01*
X72540Y-35672D01*
X72232Y-35365D01*
X79497Y-35365D01*
X80172Y-36040D01*
X80060Y-36312D01*
X80059Y-36686D01*
X80202Y-37031D01*
X80466Y-37296D01*
X80740Y-37409D01*
X80740Y-45876D01*
X80759Y-45976D01*
X80816Y-46060D01*
X81769Y-47014D01*
X81769Y-47024D01*
X81817Y-47139D01*
X81906Y-47228D01*
X82022Y-47276D01*
X82147Y-47276D01*
X82263Y-47228D01*
X82351Y-47140D01*
X82399Y-47024D01*
X82400Y-46899D01*
X82352Y-46783D01*
X82263Y-46694D01*
X82147Y-46646D01*
X82137Y-46646D01*
X81260Y-45768D01*
X81260Y-37409D01*
X81531Y-37297D01*
X81796Y-37033D01*
X81939Y-36687D01*
X81940Y-36313D01*
X81797Y-35968D01*
X81533Y-35703D01*
X81187Y-35560D01*
X80813Y-35559D01*
X80540Y-35672D01*
X79892Y-35024D01*
X87157Y-35024D01*
X88172Y-36040D01*
X88060Y-36312D01*
X88059Y-36686D01*
X88202Y-37031D01*
X88466Y-37296D01*
X88740Y-37409D01*
X88740Y-45861D01*
X88759Y-45960D01*
X88816Y-46045D01*
X89769Y-46999D01*
X89769Y-47008D01*
X89817Y-47124D01*
X89906Y-47213D01*
X90022Y-47261D01*
X90147Y-47261D01*
X90263Y-47213D01*
X90351Y-47125D01*
X90399Y-47009D01*
X90400Y-46883D01*
X90352Y-46768D01*
X90263Y-46679D01*
X90147Y-46631D01*
X90137Y-46631D01*
X89260Y-45753D01*
X89260Y-37409D01*
X89531Y-37297D01*
X89796Y-37033D01*
X89939Y-36687D01*
X89940Y-36313D01*
X89797Y-35968D01*
X89533Y-35703D01*
X89187Y-35560D01*
X88813Y-35559D01*
X88540Y-35672D01*
X87552Y-34684D01*
X94817Y-34684D01*
X96172Y-36040D01*
X96060Y-36312D01*
X96059Y-36686D01*
X96202Y-37031D01*
X96466Y-37296D01*
X96740Y-37409D01*
X96740Y-46352D01*
X96759Y-46452D01*
X96816Y-46536D01*
X97361Y-47081D01*
X97361Y-47091D01*
X97409Y-47207D01*
X97497Y-47296D01*
X97613Y-47344D01*
X97738Y-47344D01*
X97854Y-47296D01*
X97943Y-47207D01*
X97991Y-47092D01*
X97991Y-46966D01*
X97943Y-46850D01*
X97855Y-46762D01*
X97739Y-46714D01*
X97729Y-46714D01*
X97260Y-46244D01*
X97260Y-37409D01*
X97531Y-37297D01*
X97796Y-37033D01*
X97939Y-36687D01*
X97940Y-36363D01*
X99281Y-37705D01*
X99281Y-37705D01*
X99366Y-37761D01*
X99366Y-37761D01*
X99382Y-37765D01*
X99465Y-37781D01*
X103978Y-37781D01*
X104077Y-37761D01*
X104162Y-37705D01*
X104540Y-37327D01*
X104812Y-37439D01*
X105186Y-37440D01*
X105531Y-37297D01*
X105796Y-37033D01*
X105939Y-36687D01*
X105940Y-36313D01*
X105797Y-35968D01*
X105564Y-35734D01*
X106782Y-35734D01*
X107148Y-36100D01*
X107060Y-36312D01*
X107059Y-36686D01*
X107202Y-37031D01*
X107466Y-37296D01*
X107812Y-37439D01*
X108186Y-37440D01*
X108531Y-37297D01*
X108796Y-37033D01*
X108939Y-36687D01*
X108940Y-36313D01*
X108797Y-35968D01*
X108533Y-35703D01*
X108187Y-35560D01*
X107813Y-35559D01*
X107600Y-35647D01*
X107140Y-35188D01*
X107037Y-35119D01*
X106914Y-35094D01*
X101085Y-35094D01*
X100962Y-35119D01*
X100859Y-35188D01*
X100399Y-35648D01*
X100187Y-35560D01*
X99813Y-35559D01*
X99468Y-35702D01*
X99203Y-35966D01*
X99060Y-36312D01*
X99059Y-36686D01*
X99103Y-36792D01*
X96212Y-33900D01*
X96128Y-33844D01*
X96028Y-33824D01*
X60859Y-33824D01*
X60776Y-33841D01*
X60759Y-33844D01*
X60675Y-33900D01*
X57939Y-36636D01*
X57940Y-36313D01*
X57797Y-35968D01*
X57533Y-35703D01*
X57187Y-35560D01*
X56813Y-35559D01*
X56540Y-35672D01*
X56156Y-35289D01*
X56072Y-35232D01*
X55972Y-35212D01*
X48556Y-35212D01*
X48473Y-35229D01*
X48457Y-35232D01*
X48373Y-35289D01*
X47794Y-35867D01*
X47737Y-35952D01*
X47718Y-36051D01*
X47718Y-39198D01*
X47737Y-39297D01*
X47794Y-39382D01*
X51846Y-43433D01*
X51846Y-43433D01*
X51930Y-43490D01*
X51930Y-43490D01*
X51946Y-43493D01*
X52029Y-43510D01*
X52264Y-43510D01*
X52500Y-43510D01*
X52710Y-43510D01*
X52710Y-43534D01*
X52222Y-43534D01*
X52170Y-43556D01*
X52157Y-43570D01*
X48250Y-43570D01*
X48181Y-43583D01*
X48122Y-43622D01*
X47156Y-44588D01*
X47087Y-44560D01*
X46912Y-44559D01*
X46751Y-44626D01*
X46631Y-44746D01*
X46627Y-44740D01*
X46259Y-44372D01*
X46253Y-44368D01*
X46372Y-44249D01*
X46439Y-44087D01*
X46440Y-43912D01*
X46373Y-43751D01*
X46362Y-43739D01*
X46485Y-43739D01*
X46588Y-43843D01*
X46560Y-43912D01*
X46559Y-44087D01*
X46626Y-44248D01*
X46750Y-44372D01*
X46912Y-44439D01*
X47087Y-44440D01*
X47248Y-44373D01*
X47372Y-44249D01*
X47439Y-44087D01*
X47440Y-43912D01*
X47440Y-42912D01*
X47440Y-41912D01*
X47440Y-40912D01*
X47440Y-39912D01*
X47440Y-38912D01*
X47440Y-37912D01*
X47440Y-36912D01*
X47440Y-35912D01*
X47440Y-34912D01*
X47440Y-33912D01*
X47440Y-32912D01*
X47440Y-31912D01*
X47440Y-30912D01*
X47440Y-29912D01*
X47373Y-29751D01*
X47249Y-29627D01*
X47087Y-29560D01*
X46912Y-29559D01*
X46751Y-29626D01*
X46627Y-29750D01*
X46560Y-29912D01*
X46559Y-30087D01*
X46626Y-30248D01*
X46750Y-30372D01*
X46912Y-30439D01*
X47087Y-30440D01*
X47248Y-30373D01*
X47372Y-30249D01*
X47439Y-30087D01*
X47440Y-29912D01*
X47440Y-30912D01*
X47373Y-30751D01*
X47249Y-30627D01*
X47087Y-30560D01*
X46912Y-30559D01*
X46751Y-30626D01*
X46627Y-30750D01*
X46560Y-30912D01*
X46559Y-31087D01*
X46626Y-31248D01*
X46750Y-31372D01*
X46912Y-31439D01*
X47087Y-31440D01*
X47248Y-31373D01*
X47372Y-31249D01*
X47439Y-31087D01*
X47440Y-30912D01*
X47440Y-31912D01*
X47373Y-31751D01*
X47249Y-31627D01*
X47087Y-31560D01*
X46912Y-31559D01*
X46751Y-31626D01*
X46627Y-31750D01*
X46560Y-31912D01*
X46559Y-32087D01*
X46626Y-32248D01*
X46750Y-32372D01*
X46912Y-32439D01*
X47087Y-32440D01*
X47248Y-32373D01*
X47372Y-32249D01*
X47439Y-32087D01*
X47440Y-31912D01*
X47440Y-32912D01*
X47373Y-32751D01*
X47249Y-32627D01*
X47087Y-32560D01*
X46912Y-32559D01*
X46751Y-32626D01*
X46627Y-32750D01*
X46560Y-32912D01*
X46559Y-33087D01*
X46626Y-33248D01*
X46750Y-33372D01*
X46912Y-33439D01*
X47087Y-33440D01*
X47248Y-33373D01*
X47372Y-33249D01*
X47439Y-33087D01*
X47440Y-32912D01*
X47440Y-33912D01*
X47373Y-33751D01*
X47249Y-33627D01*
X47087Y-33560D01*
X46912Y-33559D01*
X46751Y-33626D01*
X46627Y-33750D01*
X46560Y-33912D01*
X46559Y-34087D01*
X46626Y-34248D01*
X46750Y-34372D01*
X46912Y-34439D01*
X47087Y-34440D01*
X47248Y-34373D01*
X47372Y-34249D01*
X47439Y-34087D01*
X47440Y-33912D01*
X47440Y-34912D01*
X47373Y-34751D01*
X47249Y-34627D01*
X47087Y-34560D01*
X46912Y-34559D01*
X46751Y-34626D01*
X46627Y-34750D01*
X46560Y-34912D01*
X46559Y-35087D01*
X46626Y-35248D01*
X46750Y-35372D01*
X46912Y-35439D01*
X47087Y-35440D01*
X47248Y-35373D01*
X47372Y-35249D01*
X47439Y-35087D01*
X47440Y-34912D01*
X47440Y-35912D01*
X47373Y-35751D01*
X47249Y-35627D01*
X47087Y-35560D01*
X46912Y-35559D01*
X46751Y-35626D01*
X46627Y-35750D01*
X46560Y-35912D01*
X46559Y-36087D01*
X46626Y-36248D01*
X46750Y-36372D01*
X46912Y-36439D01*
X47087Y-36440D01*
X47248Y-36373D01*
X47372Y-36249D01*
X47439Y-36087D01*
X47440Y-35912D01*
X47440Y-36912D01*
X47373Y-36751D01*
X47249Y-36627D01*
X47087Y-36560D01*
X46912Y-36559D01*
X46751Y-36626D01*
X46627Y-36750D01*
X46560Y-36912D01*
X46559Y-37087D01*
X46626Y-37248D01*
X46750Y-37372D01*
X46912Y-37439D01*
X47087Y-37440D01*
X47248Y-37373D01*
X47372Y-37249D01*
X47439Y-37087D01*
X47440Y-36912D01*
X47440Y-37912D01*
X47373Y-37751D01*
X47249Y-37627D01*
X47087Y-37560D01*
X46912Y-37559D01*
X46751Y-37626D01*
X46627Y-37750D01*
X46560Y-37912D01*
X46559Y-38087D01*
X46626Y-38248D01*
X46750Y-38372D01*
X46912Y-38439D01*
X47087Y-38440D01*
X47248Y-38373D01*
X47372Y-38249D01*
X47439Y-38087D01*
X47440Y-37912D01*
X47440Y-38912D01*
X47373Y-38751D01*
X47249Y-38627D01*
X47087Y-38560D01*
X46912Y-38559D01*
X46751Y-38626D01*
X46627Y-38750D01*
X46560Y-38912D01*
X46559Y-39087D01*
X46626Y-39248D01*
X46750Y-39372D01*
X46912Y-39439D01*
X47087Y-39440D01*
X47248Y-39373D01*
X47372Y-39249D01*
X47439Y-39087D01*
X47440Y-38912D01*
X47440Y-39912D01*
X47373Y-39751D01*
X47249Y-39627D01*
X47087Y-39560D01*
X46912Y-39559D01*
X46751Y-39626D01*
X46627Y-39750D01*
X46560Y-39912D01*
X46559Y-40087D01*
X46626Y-40248D01*
X46750Y-40372D01*
X46912Y-40439D01*
X47087Y-40440D01*
X47248Y-40373D01*
X47372Y-40249D01*
X47439Y-40087D01*
X47440Y-39912D01*
X47440Y-40912D01*
X47373Y-40751D01*
X47249Y-40627D01*
X47087Y-40560D01*
X46912Y-40559D01*
X46751Y-40626D01*
X46627Y-40750D01*
X46560Y-40912D01*
X46559Y-41087D01*
X46626Y-41248D01*
X46750Y-41372D01*
X46912Y-41439D01*
X47087Y-41440D01*
X47248Y-41373D01*
X47372Y-41249D01*
X47439Y-41087D01*
X47440Y-40912D01*
X47440Y-41912D01*
X47373Y-41751D01*
X47249Y-41627D01*
X47087Y-41560D01*
X46912Y-41559D01*
X46751Y-41626D01*
X46627Y-41750D01*
X46560Y-41912D01*
X46559Y-42087D01*
X46626Y-42248D01*
X46750Y-42372D01*
X46912Y-42439D01*
X47087Y-42440D01*
X47248Y-42373D01*
X47372Y-42249D01*
X47439Y-42087D01*
X47440Y-41912D01*
X47440Y-42912D01*
X47373Y-42751D01*
X47249Y-42627D01*
X47087Y-42560D01*
X46912Y-42559D01*
X46751Y-42626D01*
X46627Y-42750D01*
X46560Y-42912D01*
X46559Y-43087D01*
X46626Y-43248D01*
X46750Y-43372D01*
X46912Y-43439D01*
X47087Y-43440D01*
X47248Y-43373D01*
X47372Y-43249D01*
X47439Y-43087D01*
X47440Y-42912D01*
X47440Y-43912D01*
X47373Y-43751D01*
X47249Y-43627D01*
X47087Y-43560D01*
X46912Y-43559D01*
X46843Y-43588D01*
X46687Y-43432D01*
X46628Y-43393D01*
X46559Y-43379D01*
X46232Y-43379D01*
X46248Y-43373D01*
X46372Y-43249D01*
X46439Y-43087D01*
X46440Y-42912D01*
X46440Y-41912D01*
X46440Y-40912D01*
X46440Y-39912D01*
X46440Y-38912D01*
X46440Y-37912D01*
X46440Y-36912D01*
X46440Y-35912D01*
X46440Y-34912D01*
X46440Y-33912D01*
X46440Y-32912D01*
X46440Y-31912D01*
X46440Y-30912D01*
X46440Y-29912D01*
X46373Y-29751D01*
X46249Y-29627D01*
X46087Y-29560D01*
X45912Y-29559D01*
X45751Y-29626D01*
X45627Y-29750D01*
X45560Y-29912D01*
X45559Y-30087D01*
X45626Y-30248D01*
X45750Y-30372D01*
X45912Y-30439D01*
X46087Y-30440D01*
X46248Y-30373D01*
X46372Y-30249D01*
X46439Y-30087D01*
X46440Y-29912D01*
X46440Y-30912D01*
X46373Y-30751D01*
X46249Y-30627D01*
X46087Y-30560D01*
X45912Y-30559D01*
X45751Y-30626D01*
X45627Y-30750D01*
X45560Y-30912D01*
X45559Y-31087D01*
X45626Y-31248D01*
X45750Y-31372D01*
X45912Y-31439D01*
X46087Y-31440D01*
X46248Y-31373D01*
X46372Y-31249D01*
X46439Y-31087D01*
X46440Y-30912D01*
X46440Y-31912D01*
X46373Y-31751D01*
X46249Y-31627D01*
X46087Y-31560D01*
X45912Y-31559D01*
X45751Y-31626D01*
X45627Y-31750D01*
X45560Y-31912D01*
X45559Y-32087D01*
X45626Y-32248D01*
X45750Y-32372D01*
X45912Y-32439D01*
X46087Y-32440D01*
X46248Y-32373D01*
X46372Y-32249D01*
X46439Y-32087D01*
X46440Y-31912D01*
X46440Y-32912D01*
X46373Y-32751D01*
X46249Y-32627D01*
X46087Y-32560D01*
X45912Y-32559D01*
X45751Y-32626D01*
X45627Y-32750D01*
X45560Y-32912D01*
X45559Y-33087D01*
X45626Y-33248D01*
X45750Y-33372D01*
X45912Y-33439D01*
X46087Y-33440D01*
X46248Y-33373D01*
X46372Y-33249D01*
X46439Y-33087D01*
X46440Y-32912D01*
X46440Y-33912D01*
X46373Y-33751D01*
X46249Y-33627D01*
X46087Y-33560D01*
X45912Y-33559D01*
X45751Y-33626D01*
X45627Y-33750D01*
X45560Y-33912D01*
X45559Y-34087D01*
X45626Y-34248D01*
X45750Y-34372D01*
X45912Y-34439D01*
X46087Y-34440D01*
X46248Y-34373D01*
X46372Y-34249D01*
X46439Y-34087D01*
X46440Y-33912D01*
X46440Y-34912D01*
X46373Y-34751D01*
X46249Y-34627D01*
X46087Y-34560D01*
X45912Y-34559D01*
X45751Y-34626D01*
X45627Y-34750D01*
X45560Y-34912D01*
X45559Y-35087D01*
X45626Y-35248D01*
X45750Y-35372D01*
X45912Y-35439D01*
X46087Y-35440D01*
X46248Y-35373D01*
X46372Y-35249D01*
X46439Y-35087D01*
X46440Y-34912D01*
X46440Y-35912D01*
X46373Y-35751D01*
X46249Y-35627D01*
X46087Y-35560D01*
X45912Y-35559D01*
X45751Y-35626D01*
X45627Y-35750D01*
X45560Y-35912D01*
X45559Y-36087D01*
X45626Y-36248D01*
X45750Y-36372D01*
X45912Y-36439D01*
X46087Y-36440D01*
X46248Y-36373D01*
X46372Y-36249D01*
X46439Y-36087D01*
X46440Y-35912D01*
X46440Y-36912D01*
X46373Y-36751D01*
X46249Y-36627D01*
X46087Y-36560D01*
X45912Y-36559D01*
X45751Y-36626D01*
X45627Y-36750D01*
X45560Y-36912D01*
X45559Y-37087D01*
X45626Y-37248D01*
X45750Y-37372D01*
X45912Y-37439D01*
X46087Y-37440D01*
X46248Y-37373D01*
X46372Y-37249D01*
X46439Y-37087D01*
X46440Y-36912D01*
X46440Y-37912D01*
X46373Y-37751D01*
X46249Y-37627D01*
X46087Y-37560D01*
X45912Y-37559D01*
X45751Y-37626D01*
X45627Y-37750D01*
X45560Y-37912D01*
X45559Y-38087D01*
X45626Y-38248D01*
X45750Y-38372D01*
X45912Y-38439D01*
X46087Y-38440D01*
X46248Y-38373D01*
X46372Y-38249D01*
X46439Y-38087D01*
X46440Y-37912D01*
X46440Y-38912D01*
X46373Y-38751D01*
X46249Y-38627D01*
X46087Y-38560D01*
X45912Y-38559D01*
X45751Y-38626D01*
X45627Y-38750D01*
X45560Y-38912D01*
X45559Y-39087D01*
X45626Y-39248D01*
X45750Y-39372D01*
X45912Y-39439D01*
X46087Y-39440D01*
X46248Y-39373D01*
X46372Y-39249D01*
X46439Y-39087D01*
X46440Y-38912D01*
X46440Y-39912D01*
X46373Y-39751D01*
X46249Y-39627D01*
X46087Y-39560D01*
X45912Y-39559D01*
X45751Y-39626D01*
X45627Y-39750D01*
X45560Y-39912D01*
X45559Y-40087D01*
X45626Y-40248D01*
X45750Y-40372D01*
X45912Y-40439D01*
X46087Y-40440D01*
X46248Y-40373D01*
X46372Y-40249D01*
X46439Y-40087D01*
X46440Y-39912D01*
X46440Y-40912D01*
X46373Y-40751D01*
X46249Y-40627D01*
X46087Y-40560D01*
X45912Y-40559D01*
X45751Y-40626D01*
X45627Y-40750D01*
X45560Y-40912D01*
X45559Y-41087D01*
X45626Y-41248D01*
X45750Y-41372D01*
X45912Y-41439D01*
X46087Y-41440D01*
X46248Y-41373D01*
X46372Y-41249D01*
X46439Y-41087D01*
X46440Y-40912D01*
X46440Y-41912D01*
X46373Y-41751D01*
X46249Y-41627D01*
X46087Y-41560D01*
X45912Y-41559D01*
X45751Y-41626D01*
X45627Y-41750D01*
X45560Y-41912D01*
X45559Y-42087D01*
X45626Y-42248D01*
X45750Y-42372D01*
X45912Y-42439D01*
X46087Y-42440D01*
X46248Y-42373D01*
X46372Y-42249D01*
X46439Y-42087D01*
X46440Y-41912D01*
X46440Y-42912D01*
X46373Y-42751D01*
X46249Y-42627D01*
X46087Y-42560D01*
X45912Y-42559D01*
X45751Y-42626D01*
X45627Y-42750D01*
X45560Y-42912D01*
X45560Y-42928D01*
X44940Y-42308D01*
X44940Y-36313D01*
X44797Y-35968D01*
X44533Y-35703D01*
X44187Y-35560D01*
X43813Y-35559D01*
X43468Y-35702D01*
X43440Y-35730D01*
X43440Y-30212D01*
X43440Y-29787D01*
X43406Y-29619D01*
X43311Y-29476D01*
X43168Y-29380D01*
X43000Y-29347D01*
X42831Y-29380D01*
X42688Y-29476D01*
X42593Y-29619D01*
X42560Y-29787D01*
X42560Y-30212D01*
X42593Y-30380D01*
X42688Y-30523D01*
X42831Y-30619D01*
X43000Y-30652D01*
X43168Y-30619D01*
X43311Y-30523D01*
X43406Y-30380D01*
X43440Y-30212D01*
X43440Y-35730D01*
X43203Y-35966D01*
X43060Y-36312D01*
X43059Y-36686D01*
X43202Y-37031D01*
X43466Y-37296D01*
X43812Y-37439D01*
X44186Y-37440D01*
X44531Y-37297D01*
X44796Y-37033D01*
X44939Y-36687D01*
X44940Y-36313D01*
X44940Y-42308D01*
X42440Y-39808D01*
X42440Y-30212D01*
X42440Y-29787D01*
X42406Y-29619D01*
X42311Y-29476D01*
X42168Y-29380D01*
X42000Y-29347D01*
X41831Y-29380D01*
X41688Y-29476D01*
X41593Y-29619D01*
X41560Y-29787D01*
X41560Y-30212D01*
X41593Y-30380D01*
X41688Y-30523D01*
X41831Y-30619D01*
X42000Y-30652D01*
X42168Y-30619D01*
X42311Y-30523D01*
X42406Y-30380D01*
X42440Y-30212D01*
X42440Y-39808D01*
X41940Y-39308D01*
X41940Y-36313D01*
X41797Y-35968D01*
X41533Y-35703D01*
X41440Y-35664D01*
X41440Y-30212D01*
X41440Y-29787D01*
X41406Y-29619D01*
X41311Y-29476D01*
X41168Y-29380D01*
X41000Y-29347D01*
X40831Y-29380D01*
X40688Y-29476D01*
X40593Y-29619D01*
X40560Y-29787D01*
X40560Y-30212D01*
X40593Y-30380D01*
X40688Y-30523D01*
X40831Y-30619D01*
X41000Y-30652D01*
X41168Y-30619D01*
X41311Y-30523D01*
X41406Y-30380D01*
X41440Y-30212D01*
X41440Y-35664D01*
X41187Y-35560D01*
X40813Y-35559D01*
X40468Y-35702D01*
X40440Y-35730D01*
X40440Y-30212D01*
X40440Y-29787D01*
X40406Y-29619D01*
X40311Y-29476D01*
X40168Y-29380D01*
X40000Y-29347D01*
X39831Y-29380D01*
X39688Y-29476D01*
X39593Y-29619D01*
X39560Y-29787D01*
X39560Y-30212D01*
X39593Y-30380D01*
X39688Y-30523D01*
X39831Y-30619D01*
X40000Y-30652D01*
X40168Y-30619D01*
X40311Y-30523D01*
X40406Y-30380D01*
X40440Y-30212D01*
X40440Y-35730D01*
X40203Y-35966D01*
X40060Y-36312D01*
X40059Y-36686D01*
X40202Y-37031D01*
X40466Y-37296D01*
X40812Y-37439D01*
X41186Y-37440D01*
X41531Y-37297D01*
X41796Y-37033D01*
X41939Y-36687D01*
X41940Y-36313D01*
X41940Y-39308D01*
X41254Y-38622D01*
X41196Y-38583D01*
X41127Y-38570D01*
X40843Y-38570D01*
X40829Y-38556D01*
X40777Y-38535D01*
X40722Y-38534D01*
X40222Y-38534D01*
X40170Y-38556D01*
X40131Y-38595D01*
X40110Y-38647D01*
X40109Y-38702D01*
X40109Y-38852D01*
X40131Y-38904D01*
X40170Y-38943D01*
X40222Y-38964D01*
X40277Y-38965D01*
X40777Y-38965D01*
X40829Y-38943D01*
X40842Y-38930D01*
X41052Y-38930D01*
X41192Y-39070D01*
X40843Y-39070D01*
X40829Y-39056D01*
X40777Y-39035D01*
X40722Y-39034D01*
X40222Y-39034D01*
X40170Y-39056D01*
X40131Y-39095D01*
X40110Y-39147D01*
X40109Y-39202D01*
X40109Y-39352D01*
X40131Y-39404D01*
X40170Y-39443D01*
X40222Y-39464D01*
X40277Y-39465D01*
X40777Y-39465D01*
X40829Y-39443D01*
X40842Y-39430D01*
X41175Y-39430D01*
X45588Y-43843D01*
X45560Y-43912D01*
X45559Y-44050D01*
X44416Y-42907D01*
X44358Y-42868D01*
X44289Y-42854D01*
X40889Y-42854D01*
X40889Y-42852D01*
X40890Y-42797D01*
X40890Y-42647D01*
X40868Y-42595D01*
X40829Y-42556D01*
X40824Y-42554D01*
X40886Y-42528D01*
X40953Y-42460D01*
X40990Y-42372D01*
X40990Y-42127D01*
X40953Y-42039D01*
X40914Y-42000D01*
X40953Y-41960D01*
X40990Y-41872D01*
X40990Y-41627D01*
X40953Y-41539D01*
X40914Y-41500D01*
X40953Y-41460D01*
X40990Y-41372D01*
X40990Y-41127D01*
X40953Y-41039D01*
X40914Y-41000D01*
X40953Y-40960D01*
X40990Y-40872D01*
X40990Y-40627D01*
X40953Y-40539D01*
X40886Y-40471D01*
X40824Y-40445D01*
X40829Y-40443D01*
X40868Y-40404D01*
X40889Y-40352D01*
X40890Y-40297D01*
X40890Y-40147D01*
X40868Y-40095D01*
X40829Y-40056D01*
X40777Y-40035D01*
X40722Y-40034D01*
X40637Y-40034D01*
X40599Y-40009D01*
X40550Y-40000D01*
X40599Y-39990D01*
X40637Y-39965D01*
X40777Y-39965D01*
X40829Y-39943D01*
X40868Y-39904D01*
X40889Y-39852D01*
X40890Y-39797D01*
X40890Y-39647D01*
X40868Y-39595D01*
X40829Y-39556D01*
X40777Y-39535D01*
X40722Y-39534D01*
X40637Y-39534D01*
X40599Y-39509D01*
X40500Y-39490D01*
X40137Y-39490D01*
X39440Y-38792D01*
X39440Y-30212D01*
X39440Y-29787D01*
X39406Y-29619D01*
X39311Y-29476D01*
X39168Y-29380D01*
X39000Y-29347D01*
X38831Y-29380D01*
X38688Y-29476D01*
X38593Y-29619D01*
X38560Y-29787D01*
X38560Y-30212D01*
X38593Y-30380D01*
X38688Y-30523D01*
X38831Y-30619D01*
X39000Y-30652D01*
X39168Y-30619D01*
X39311Y-30523D01*
X39406Y-30380D01*
X39440Y-30212D01*
X39440Y-38792D01*
X38440Y-37792D01*
X38440Y-30212D01*
X38440Y-29787D01*
X38406Y-29619D01*
X38311Y-29476D01*
X38168Y-29380D01*
X38000Y-29347D01*
X37831Y-29380D01*
X37688Y-29476D01*
X37593Y-29619D01*
X37560Y-29787D01*
X37560Y-30212D01*
X37593Y-30380D01*
X37688Y-30523D01*
X37831Y-30619D01*
X38000Y-30652D01*
X38168Y-30619D01*
X38311Y-30523D01*
X38406Y-30380D01*
X38440Y-30212D01*
X38440Y-37792D01*
X38015Y-37367D01*
X37930Y-37311D01*
X37831Y-37291D01*
X37440Y-37291D01*
X37440Y-30212D01*
X37440Y-29787D01*
X37406Y-29619D01*
X37311Y-29476D01*
X37168Y-29380D01*
X37000Y-29347D01*
X36831Y-29380D01*
X36688Y-29476D01*
X36593Y-29619D01*
X36560Y-29787D01*
X36560Y-30212D01*
X36593Y-30380D01*
X36688Y-30523D01*
X36831Y-30619D01*
X37000Y-30652D01*
X37168Y-30619D01*
X37311Y-30523D01*
X37406Y-30380D01*
X37440Y-30212D01*
X37440Y-37291D01*
X36537Y-37291D01*
X36796Y-37033D01*
X36939Y-36687D01*
X36940Y-36313D01*
X36797Y-35968D01*
X36533Y-35703D01*
X36440Y-35664D01*
X36440Y-30212D01*
X36440Y-29787D01*
X36406Y-29619D01*
X36311Y-29476D01*
X36168Y-29380D01*
X36000Y-29347D01*
X35831Y-29380D01*
X35688Y-29476D01*
X35593Y-29619D01*
X35560Y-29787D01*
X35560Y-30212D01*
X35593Y-30380D01*
X35688Y-30523D01*
X35831Y-30619D01*
X36000Y-30652D01*
X36168Y-30619D01*
X36311Y-30523D01*
X36406Y-30380D01*
X36440Y-30212D01*
X36440Y-35664D01*
X36187Y-35560D01*
X35813Y-35559D01*
X35600Y-35647D01*
X35144Y-35192D01*
X35040Y-35122D01*
X34918Y-35098D01*
X34440Y-35098D01*
X34440Y-30212D01*
X34440Y-29787D01*
X34406Y-29619D01*
X34311Y-29476D01*
X34168Y-29380D01*
X34000Y-29347D01*
X33831Y-29380D01*
X33688Y-29476D01*
X33593Y-29619D01*
X33560Y-29787D01*
X33560Y-30212D01*
X33593Y-30380D01*
X33688Y-30523D01*
X33831Y-30619D01*
X34000Y-30652D01*
X34168Y-30619D01*
X34311Y-30523D01*
X34406Y-30380D01*
X34440Y-30212D01*
X34440Y-35098D01*
X33440Y-35098D01*
X33440Y-30212D01*
X33440Y-29787D01*
X33406Y-29619D01*
X33311Y-29476D01*
X33168Y-29380D01*
X33000Y-29347D01*
X32831Y-29380D01*
X32688Y-29476D01*
X32593Y-29619D01*
X32560Y-29787D01*
X32560Y-30212D01*
X32593Y-30380D01*
X32688Y-30523D01*
X32831Y-30619D01*
X33000Y-30652D01*
X33168Y-30619D01*
X33311Y-30523D01*
X33406Y-30380D01*
X33440Y-30212D01*
X33440Y-35098D01*
X32440Y-35098D01*
X32440Y-30212D01*
X32440Y-29787D01*
X32406Y-29619D01*
X32311Y-29476D01*
X32168Y-29380D01*
X32000Y-29347D01*
X31831Y-29380D01*
X31688Y-29476D01*
X31593Y-29619D01*
X31560Y-29787D01*
X31560Y-30212D01*
X31593Y-30380D01*
X31688Y-30523D01*
X31831Y-30619D01*
X32000Y-30652D01*
X32168Y-30619D01*
X32311Y-30523D01*
X32406Y-30380D01*
X32440Y-30212D01*
X32440Y-35098D01*
X31440Y-35098D01*
X31440Y-30212D01*
X31440Y-29787D01*
X31406Y-29619D01*
X31311Y-29476D01*
X31168Y-29380D01*
X31000Y-29347D01*
X30831Y-29380D01*
X30688Y-29476D01*
X30593Y-29619D01*
X30560Y-29787D01*
X30560Y-30212D01*
X30593Y-30380D01*
X30688Y-30523D01*
X30831Y-30619D01*
X31000Y-30652D01*
X31168Y-30619D01*
X31311Y-30523D01*
X31406Y-30380D01*
X31440Y-30212D01*
X31440Y-35098D01*
X30440Y-35098D01*
X30440Y-30212D01*
X30440Y-29787D01*
X30406Y-29619D01*
X30311Y-29476D01*
X30168Y-29380D01*
X30000Y-29347D01*
X29831Y-29380D01*
X29688Y-29476D01*
X29593Y-29619D01*
X29560Y-29787D01*
X29560Y-30212D01*
X29593Y-30380D01*
X29688Y-30523D01*
X29831Y-30619D01*
X30000Y-30652D01*
X30168Y-30619D01*
X30311Y-30523D01*
X30406Y-30380D01*
X30440Y-30212D01*
X30440Y-35098D01*
X29440Y-35098D01*
X29440Y-30212D01*
X29440Y-29787D01*
X29406Y-29619D01*
X29311Y-29476D01*
X29168Y-29380D01*
X29000Y-29347D01*
X28831Y-29380D01*
X28688Y-29476D01*
X28593Y-29619D01*
X28560Y-29787D01*
X28560Y-30212D01*
X28593Y-30380D01*
X28688Y-30523D01*
X28831Y-30619D01*
X29000Y-30652D01*
X29168Y-30619D01*
X29311Y-30523D01*
X29406Y-30380D01*
X29440Y-30212D01*
X29440Y-35098D01*
X29081Y-35098D01*
X28959Y-35122D01*
X28924Y-35145D01*
X28855Y-35192D01*
X28440Y-35607D01*
X28440Y-30212D01*
X28440Y-29787D01*
X28406Y-29619D01*
X28311Y-29476D01*
X28168Y-29380D01*
X28000Y-29347D01*
X27831Y-29380D01*
X27688Y-29476D01*
X27593Y-29619D01*
X27560Y-29787D01*
X27560Y-30212D01*
X27593Y-30380D01*
X27688Y-30523D01*
X27831Y-30619D01*
X28000Y-30652D01*
X28168Y-30619D01*
X28311Y-30523D01*
X28406Y-30380D01*
X28440Y-30212D01*
X28440Y-35607D01*
X28399Y-35648D01*
X28187Y-35560D01*
X27813Y-35559D01*
X27600Y-35647D01*
X27440Y-35487D01*
X27440Y-30212D01*
X27440Y-29787D01*
X27406Y-29619D01*
X27311Y-29476D01*
X27168Y-29380D01*
X27000Y-29347D01*
X26831Y-29380D01*
X26688Y-29476D01*
X26593Y-29619D01*
X26560Y-29787D01*
X26560Y-30212D01*
X26593Y-30380D01*
X26688Y-30523D01*
X26831Y-30619D01*
X27000Y-30652D01*
X27168Y-30619D01*
X27311Y-30523D01*
X27406Y-30380D01*
X27440Y-30212D01*
X27440Y-35487D01*
X27145Y-35192D01*
X27041Y-35123D01*
X26918Y-35098D01*
X25840Y-35098D01*
X25840Y-30212D01*
X25840Y-29787D01*
X25806Y-29619D01*
X25711Y-29476D01*
X25568Y-29380D01*
X25400Y-29347D01*
X25231Y-29380D01*
X25088Y-29476D01*
X24993Y-29619D01*
X24960Y-29787D01*
X24960Y-30212D01*
X24993Y-30380D01*
X25088Y-30523D01*
X25231Y-30619D01*
X25400Y-30652D01*
X25568Y-30619D01*
X25711Y-30523D01*
X25806Y-30380D01*
X25840Y-30212D01*
X25840Y-35098D01*
X24840Y-35098D01*
X24840Y-30212D01*
X24840Y-29787D01*
X24806Y-29619D01*
X24711Y-29476D01*
X24568Y-29380D01*
X24400Y-29347D01*
X24231Y-29380D01*
X24088Y-29476D01*
X23993Y-29619D01*
X23960Y-29787D01*
X23960Y-30212D01*
X23993Y-30380D01*
X24088Y-30523D01*
X24231Y-30619D01*
X24400Y-30652D01*
X24568Y-30619D01*
X24711Y-30523D01*
X24806Y-30380D01*
X24840Y-30212D01*
X24840Y-35098D01*
X23840Y-35098D01*
X23840Y-30212D01*
X23840Y-29787D01*
X23806Y-29619D01*
X23711Y-29476D01*
X23568Y-29380D01*
X23400Y-29347D01*
X23231Y-29380D01*
X23088Y-29476D01*
X22993Y-29619D01*
X22960Y-29787D01*
X22960Y-30212D01*
X22993Y-30380D01*
X23088Y-30523D01*
X23231Y-30619D01*
X23400Y-30652D01*
X23568Y-30619D01*
X23711Y-30523D01*
X23806Y-30380D01*
X23840Y-30212D01*
X23840Y-35098D01*
X22840Y-35098D01*
X22840Y-30212D01*
X22840Y-29787D01*
X22806Y-29619D01*
X22711Y-29476D01*
X22568Y-29380D01*
X22400Y-29347D01*
X22231Y-29380D01*
X22088Y-29476D01*
X21993Y-29619D01*
X21960Y-29787D01*
X21960Y-30212D01*
X21993Y-30380D01*
X22088Y-30523D01*
X22231Y-30619D01*
X22400Y-30652D01*
X22568Y-30619D01*
X22711Y-30523D01*
X22806Y-30380D01*
X22840Y-30212D01*
X22840Y-35098D01*
X21840Y-35098D01*
X21840Y-30212D01*
X21840Y-29787D01*
X21806Y-29619D01*
X21711Y-29476D01*
X21568Y-29380D01*
X21400Y-29347D01*
X21231Y-29380D01*
X21088Y-29476D01*
X20993Y-29619D01*
X20960Y-29787D01*
X20960Y-30212D01*
X20993Y-30380D01*
X21088Y-30523D01*
X21231Y-30619D01*
X21400Y-30652D01*
X21568Y-30619D01*
X21711Y-30523D01*
X21806Y-30380D01*
X21840Y-30212D01*
X21840Y-35098D01*
X21081Y-35098D01*
X20958Y-35123D01*
X20854Y-35192D01*
X20840Y-35207D01*
X20840Y-30212D01*
X20840Y-29787D01*
X20806Y-29619D01*
X20711Y-29476D01*
X20568Y-29380D01*
X20400Y-29347D01*
X20231Y-29380D01*
X20088Y-29476D01*
X19993Y-29619D01*
X19960Y-29787D01*
X19960Y-30212D01*
X19993Y-30380D01*
X20088Y-30523D01*
X20231Y-30619D01*
X20400Y-30652D01*
X20568Y-30619D01*
X20711Y-30523D01*
X20806Y-30380D01*
X20840Y-30212D01*
X20840Y-35207D01*
X20399Y-35648D01*
X20187Y-35560D01*
X19840Y-35559D01*
X19840Y-30212D01*
X19840Y-29787D01*
X19806Y-29619D01*
X19711Y-29476D01*
X19568Y-29380D01*
X19400Y-29347D01*
X19231Y-29380D01*
X19088Y-29476D01*
X18993Y-29619D01*
X18960Y-29787D01*
X18960Y-30212D01*
X18993Y-30380D01*
X19088Y-30523D01*
X19231Y-30619D01*
X19400Y-30652D01*
X19568Y-30619D01*
X19711Y-30523D01*
X19806Y-30380D01*
X19840Y-30212D01*
X19840Y-35559D01*
X19813Y-35559D01*
X19600Y-35647D01*
X19146Y-35193D01*
X19042Y-35124D01*
X18919Y-35099D01*
X18840Y-35099D01*
X18840Y-30212D01*
X18840Y-29787D01*
X18806Y-29619D01*
X18711Y-29476D01*
X18568Y-29380D01*
X18400Y-29347D01*
X18231Y-29380D01*
X18088Y-29476D01*
X17993Y-29619D01*
X17960Y-29787D01*
X17960Y-30212D01*
X17993Y-30380D01*
X18088Y-30523D01*
X18231Y-30619D01*
X18400Y-30652D01*
X18568Y-30619D01*
X18711Y-30523D01*
X18806Y-30380D01*
X18840Y-30212D01*
X18840Y-35099D01*
X17840Y-35099D01*
X17840Y-30212D01*
X17840Y-29787D01*
X17806Y-29619D01*
X17711Y-29476D01*
X17568Y-29380D01*
X17400Y-29347D01*
X17231Y-29380D01*
X17088Y-29476D01*
X16993Y-29619D01*
X16960Y-29787D01*
X16960Y-30212D01*
X16993Y-30380D01*
X17088Y-30523D01*
X17231Y-30619D01*
X17400Y-30652D01*
X17568Y-30619D01*
X17711Y-30523D01*
X17806Y-30380D01*
X17840Y-30212D01*
X17840Y-35099D01*
X16840Y-35099D01*
X16840Y-30212D01*
X16840Y-29787D01*
X16806Y-29619D01*
X16711Y-29476D01*
X16568Y-29380D01*
X16400Y-29347D01*
X16231Y-29380D01*
X16088Y-29476D01*
X15993Y-29619D01*
X15960Y-29787D01*
X15960Y-30212D01*
X15993Y-30380D01*
X16088Y-30523D01*
X16231Y-30619D01*
X16400Y-30652D01*
X16568Y-30619D01*
X16711Y-30523D01*
X16806Y-30380D01*
X16840Y-30212D01*
X16840Y-35099D01*
X14710Y-35099D01*
X14587Y-35124D01*
X14484Y-35193D01*
X13497Y-36180D01*
X13490Y-36180D01*
X13490Y-35972D01*
X13468Y-35920D01*
X13429Y-35881D01*
X13377Y-35860D01*
X13322Y-35859D01*
X12822Y-35859D01*
X12770Y-35881D01*
X12731Y-35920D01*
X12710Y-35972D01*
X12709Y-36027D01*
X12709Y-37027D01*
X12731Y-37079D01*
X12770Y-37118D01*
X12780Y-37122D01*
X12780Y-38487D01*
X12619Y-38648D01*
X12407Y-38560D01*
X12390Y-38560D01*
X12390Y-36952D01*
X12390Y-36047D01*
X12389Y-35952D01*
X12353Y-35863D01*
X12285Y-35796D01*
X12197Y-35759D01*
X12020Y-35760D01*
X11960Y-35820D01*
X11960Y-36440D01*
X12330Y-36440D01*
X12390Y-36380D01*
X12390Y-36047D01*
X12390Y-36952D01*
X12390Y-36620D01*
X12330Y-36560D01*
X11960Y-36560D01*
X11960Y-37180D01*
X12020Y-37240D01*
X12197Y-37240D01*
X12285Y-37203D01*
X12353Y-37136D01*
X12389Y-37047D01*
X12390Y-36952D01*
X12390Y-38560D01*
X12033Y-38559D01*
X11840Y-38639D01*
X11840Y-37180D01*
X11840Y-36560D01*
X11840Y-36440D01*
X11840Y-35820D01*
X11780Y-35760D01*
X11602Y-35759D01*
X11514Y-35796D01*
X11446Y-35863D01*
X11410Y-35952D01*
X11409Y-36047D01*
X11410Y-36380D01*
X11470Y-36440D01*
X11840Y-36440D01*
X11840Y-36560D01*
X11470Y-36560D01*
X11410Y-36620D01*
X11409Y-36952D01*
X11410Y-37047D01*
X11446Y-37136D01*
X11514Y-37203D01*
X11602Y-37240D01*
X11780Y-37240D01*
X11840Y-37180D01*
X11840Y-38639D01*
X11688Y-38702D01*
X11423Y-38966D01*
X11280Y-39312D01*
X11279Y-39686D01*
X11422Y-40031D01*
X11686Y-40296D01*
X12032Y-40439D01*
X12406Y-40440D01*
X12751Y-40297D01*
X13016Y-40033D01*
X13159Y-39687D01*
X13160Y-39313D01*
X13072Y-39100D01*
X13326Y-38846D01*
X13326Y-38846D01*
X13395Y-38742D01*
X13419Y-38620D01*
X13420Y-38620D01*
X13420Y-37122D01*
X13429Y-37118D01*
X13468Y-37079D01*
X13489Y-37027D01*
X13490Y-36972D01*
X13490Y-36820D01*
X13630Y-36820D01*
X13630Y-36819D01*
X13752Y-36795D01*
X13856Y-36726D01*
X14842Y-35739D01*
X16430Y-35739D01*
X16203Y-35966D01*
X16060Y-36312D01*
X16059Y-36686D01*
X16202Y-37031D01*
X16466Y-37296D01*
X16812Y-37439D01*
X17186Y-37440D01*
X17459Y-37327D01*
X18207Y-38075D01*
X18207Y-38075D01*
X18264Y-38113D01*
X18292Y-38131D01*
X18292Y-38131D01*
X18391Y-38151D01*
X18391Y-38151D01*
X37062Y-38151D01*
X39344Y-40433D01*
X39428Y-40490D01*
X39528Y-40510D01*
X40075Y-40510D01*
X40046Y-40539D01*
X40009Y-40627D01*
X40010Y-40652D01*
X40070Y-40712D01*
X40440Y-40712D01*
X40440Y-40682D01*
X40560Y-40682D01*
X40560Y-40712D01*
X40930Y-40712D01*
X40990Y-40652D01*
X40990Y-40627D01*
X40990Y-40872D01*
X40990Y-40847D01*
X40930Y-40787D01*
X40560Y-40787D01*
X40560Y-40995D01*
X40560Y-41005D01*
X40560Y-41212D01*
X40930Y-41212D01*
X40990Y-41152D01*
X40990Y-41127D01*
X40990Y-41372D01*
X40990Y-41347D01*
X40930Y-41287D01*
X40560Y-41287D01*
X40560Y-41495D01*
X40560Y-41505D01*
X40560Y-41712D01*
X40930Y-41712D01*
X40990Y-41652D01*
X40990Y-41627D01*
X40990Y-41872D01*
X40990Y-41847D01*
X40930Y-41787D01*
X40560Y-41787D01*
X40560Y-41995D01*
X40560Y-42005D01*
X40560Y-42212D01*
X40930Y-42212D01*
X40990Y-42152D01*
X40990Y-42127D01*
X40990Y-42372D01*
X40990Y-42347D01*
X40930Y-42287D01*
X40560Y-42287D01*
X40560Y-42317D01*
X40440Y-42317D01*
X40440Y-42287D01*
X40440Y-42212D01*
X40440Y-42005D01*
X40440Y-41995D01*
X40440Y-41787D01*
X40440Y-41712D01*
X40440Y-41505D01*
X40440Y-41495D01*
X40440Y-41287D01*
X40440Y-41212D01*
X40440Y-41005D01*
X40440Y-40995D01*
X40440Y-40787D01*
X40070Y-40787D01*
X40010Y-40847D01*
X40009Y-40872D01*
X40046Y-40960D01*
X40085Y-41000D01*
X40046Y-41039D01*
X40009Y-41127D01*
X40010Y-41152D01*
X40070Y-41212D01*
X40440Y-41212D01*
X40440Y-41287D01*
X40070Y-41287D01*
X40010Y-41347D01*
X40009Y-41372D01*
X40046Y-41460D01*
X40085Y-41500D01*
X40046Y-41539D01*
X40009Y-41627D01*
X40010Y-41652D01*
X40070Y-41712D01*
X40440Y-41712D01*
X40440Y-41787D01*
X40070Y-41787D01*
X40010Y-41847D01*
X40009Y-41872D01*
X40046Y-41960D01*
X40085Y-42000D01*
X40046Y-42039D01*
X40009Y-42127D01*
X40010Y-42152D01*
X40070Y-42212D01*
X40440Y-42212D01*
X40440Y-42287D01*
X40070Y-42287D01*
X40010Y-42347D01*
X40009Y-42372D01*
X40046Y-42460D01*
X40113Y-42528D01*
X40175Y-42554D01*
X40170Y-42556D01*
X40131Y-42595D01*
X40110Y-42647D01*
X40109Y-42702D01*
X40109Y-42852D01*
X40110Y-42854D01*
X38604Y-42854D01*
X38536Y-42868D01*
X38477Y-42907D01*
X37315Y-44070D01*
X37197Y-44070D01*
X37205Y-44066D01*
X37293Y-43978D01*
X37341Y-43862D01*
X37341Y-43737D01*
X37294Y-43621D01*
X37205Y-43532D01*
X37089Y-43484D01*
X36990Y-43484D01*
X36990Y-42372D01*
X36990Y-42127D01*
X36953Y-42039D01*
X36914Y-42000D01*
X36953Y-41960D01*
X36990Y-41872D01*
X36990Y-41627D01*
X36953Y-41539D01*
X36914Y-41500D01*
X36953Y-41460D01*
X36990Y-41372D01*
X36990Y-41127D01*
X36953Y-41039D01*
X36914Y-41000D01*
X36953Y-40960D01*
X36990Y-40872D01*
X36990Y-40847D01*
X36930Y-40787D01*
X36560Y-40787D01*
X36560Y-40995D01*
X36560Y-41005D01*
X36560Y-41212D01*
X36930Y-41212D01*
X36990Y-41152D01*
X36990Y-41127D01*
X36990Y-41372D01*
X36990Y-41347D01*
X36930Y-41287D01*
X36560Y-41287D01*
X36560Y-41495D01*
X36560Y-41505D01*
X36560Y-41712D01*
X36930Y-41712D01*
X36990Y-41652D01*
X36990Y-41627D01*
X36990Y-41872D01*
X36990Y-41847D01*
X36930Y-41787D01*
X36560Y-41787D01*
X36560Y-41995D01*
X36560Y-42005D01*
X36560Y-42212D01*
X36930Y-42212D01*
X36990Y-42152D01*
X36990Y-42127D01*
X36990Y-42372D01*
X36990Y-42347D01*
X36930Y-42287D01*
X36560Y-42287D01*
X36560Y-42317D01*
X36440Y-42317D01*
X36440Y-42287D01*
X36440Y-42212D01*
X36440Y-42005D01*
X36440Y-41995D01*
X36440Y-41787D01*
X36440Y-41712D01*
X36440Y-41505D01*
X36440Y-41495D01*
X36440Y-41287D01*
X36440Y-41212D01*
X36440Y-41005D01*
X36440Y-40995D01*
X36440Y-40787D01*
X36070Y-40787D01*
X36010Y-40847D01*
X36009Y-40872D01*
X36046Y-40960D01*
X36085Y-41000D01*
X36046Y-41039D01*
X36009Y-41127D01*
X36010Y-41152D01*
X36070Y-41212D01*
X36440Y-41212D01*
X36440Y-41287D01*
X36070Y-41287D01*
X36010Y-41347D01*
X36009Y-41372D01*
X36046Y-41460D01*
X36085Y-41500D01*
X36046Y-41539D01*
X36009Y-41627D01*
X36010Y-41652D01*
X36070Y-41712D01*
X36440Y-41712D01*
X36440Y-41787D01*
X36070Y-41787D01*
X36010Y-41847D01*
X36009Y-41872D01*
X36046Y-41960D01*
X36085Y-42000D01*
X36046Y-42039D01*
X36009Y-42127D01*
X36010Y-42152D01*
X36070Y-42212D01*
X36440Y-42212D01*
X36440Y-42287D01*
X36070Y-42287D01*
X36010Y-42347D01*
X36009Y-42372D01*
X36046Y-42460D01*
X36113Y-42528D01*
X36175Y-42554D01*
X36170Y-42556D01*
X36131Y-42595D01*
X36110Y-42647D01*
X36109Y-42702D01*
X36109Y-42852D01*
X36131Y-42904D01*
X36170Y-42943D01*
X36222Y-42964D01*
X36277Y-42965D01*
X36777Y-42965D01*
X36829Y-42943D01*
X36868Y-42904D01*
X36889Y-42852D01*
X36890Y-42797D01*
X36890Y-42647D01*
X36868Y-42595D01*
X36829Y-42556D01*
X36824Y-42554D01*
X36886Y-42528D01*
X36953Y-42460D01*
X36990Y-42372D01*
X36990Y-43484D01*
X36964Y-43484D01*
X36890Y-43515D01*
X36890Y-43297D01*
X36890Y-43147D01*
X36868Y-43095D01*
X36829Y-43056D01*
X36777Y-43035D01*
X36722Y-43034D01*
X36222Y-43034D01*
X36170Y-43056D01*
X36131Y-43095D01*
X36110Y-43147D01*
X36109Y-43202D01*
X36109Y-43352D01*
X36131Y-43404D01*
X36170Y-43443D01*
X36222Y-43464D01*
X36277Y-43465D01*
X36777Y-43465D01*
X36829Y-43443D01*
X36868Y-43404D01*
X36889Y-43352D01*
X36890Y-43297D01*
X36890Y-43515D01*
X36848Y-43532D01*
X36826Y-43555D01*
X36777Y-43535D01*
X36722Y-43534D01*
X36222Y-43534D01*
X36170Y-43556D01*
X36131Y-43595D01*
X36110Y-43647D01*
X36109Y-43702D01*
X36109Y-43852D01*
X36131Y-43904D01*
X36170Y-43943D01*
X36222Y-43964D01*
X36277Y-43965D01*
X36754Y-43965D01*
X36759Y-43977D01*
X36848Y-44066D01*
X36856Y-44070D01*
X36843Y-44070D01*
X36829Y-44056D01*
X36777Y-44035D01*
X36722Y-44034D01*
X36222Y-44034D01*
X36170Y-44056D01*
X36131Y-44095D01*
X36110Y-44147D01*
X36109Y-44202D01*
X36109Y-44352D01*
X36131Y-44404D01*
X36170Y-44443D01*
X36222Y-44464D01*
X36277Y-44465D01*
X36777Y-44465D01*
X36829Y-44443D01*
X36842Y-44430D01*
X37389Y-44430D01*
X37458Y-44416D01*
X37517Y-44377D01*
X38679Y-43214D01*
X40109Y-43214D01*
X40109Y-43352D01*
X40131Y-43404D01*
X40156Y-43430D01*
X39969Y-43430D01*
X39847Y-43454D01*
X39743Y-43523D01*
X39674Y-43627D01*
X39649Y-43750D01*
X39649Y-45719D01*
X39674Y-45842D01*
X39738Y-45938D01*
X39497Y-46180D01*
X39490Y-46180D01*
X39490Y-45972D01*
X39468Y-45920D01*
X39429Y-45881D01*
X39377Y-45860D01*
X39322Y-45859D01*
X38822Y-45859D01*
X38770Y-45881D01*
X38731Y-45920D01*
X38710Y-45972D01*
X38709Y-46027D01*
X38709Y-46180D01*
X38569Y-46180D01*
X38447Y-46204D01*
X38390Y-46242D01*
X38390Y-46047D01*
X38389Y-45952D01*
X38353Y-45863D01*
X38285Y-45796D01*
X38197Y-45759D01*
X38020Y-45760D01*
X37960Y-45820D01*
X37960Y-46440D01*
X37967Y-46440D01*
X37967Y-46560D01*
X37960Y-46560D01*
X37960Y-46567D01*
X37840Y-46567D01*
X37840Y-46560D01*
X37840Y-46440D01*
X37840Y-45820D01*
X37780Y-45760D01*
X37602Y-45759D01*
X37514Y-45796D01*
X37446Y-45863D01*
X37410Y-45952D01*
X37409Y-46047D01*
X37410Y-46380D01*
X37470Y-46440D01*
X37840Y-46440D01*
X37840Y-46560D01*
X37470Y-46560D01*
X37410Y-46620D01*
X37409Y-46735D01*
X35706Y-45032D01*
X35706Y-40240D01*
X35792Y-40276D01*
X35917Y-40276D01*
X36033Y-40228D01*
X36110Y-40152D01*
X36109Y-40202D01*
X36109Y-40352D01*
X36131Y-40404D01*
X36170Y-40443D01*
X36175Y-40445D01*
X36113Y-40471D01*
X36046Y-40539D01*
X36009Y-40627D01*
X36010Y-40652D01*
X36070Y-40712D01*
X36440Y-40712D01*
X36440Y-40682D01*
X36560Y-40682D01*
X36560Y-40712D01*
X36930Y-40712D01*
X36990Y-40652D01*
X36990Y-40627D01*
X36953Y-40539D01*
X36924Y-40510D01*
X36970Y-40510D01*
X37069Y-40490D01*
X37153Y-40433D01*
X37210Y-40349D01*
X37230Y-40250D01*
X37230Y-40200D01*
X37253Y-40190D01*
X37342Y-40102D01*
X37390Y-39986D01*
X37390Y-39861D01*
X37342Y-39745D01*
X37254Y-39656D01*
X37138Y-39608D01*
X37013Y-39608D01*
X36897Y-39656D01*
X36890Y-39663D01*
X36890Y-39647D01*
X36868Y-39595D01*
X36829Y-39556D01*
X36777Y-39535D01*
X36722Y-39534D01*
X36638Y-39534D01*
X36726Y-39476D01*
X36733Y-39465D01*
X36777Y-39465D01*
X36829Y-39443D01*
X36868Y-39404D01*
X36889Y-39352D01*
X36890Y-39297D01*
X36890Y-39147D01*
X36868Y-39095D01*
X36829Y-39056D01*
X36777Y-39035D01*
X36733Y-39034D01*
X36726Y-39023D01*
X36638Y-38965D01*
X36777Y-38965D01*
X36829Y-38943D01*
X36868Y-38904D01*
X36889Y-38852D01*
X36890Y-38797D01*
X36890Y-38647D01*
X36868Y-38595D01*
X36829Y-38556D01*
X36777Y-38535D01*
X36722Y-38534D01*
X36222Y-38534D01*
X36211Y-38539D01*
X36139Y-38466D01*
X36023Y-38418D01*
X35898Y-38418D01*
X35782Y-38466D01*
X35693Y-38555D01*
X35645Y-38670D01*
X35645Y-38796D01*
X35693Y-38911D01*
X35751Y-38970D01*
X35751Y-38970D01*
X35671Y-39023D01*
X35159Y-39535D01*
X35090Y-39639D01*
X35066Y-39761D01*
X35066Y-44844D01*
X27055Y-44844D01*
X26932Y-44869D01*
X26828Y-44938D01*
X23773Y-47993D01*
X23704Y-48097D01*
X23680Y-48219D01*
X23680Y-48489D01*
X23593Y-48619D01*
X23560Y-48787D01*
X23560Y-49212D01*
X23593Y-49380D01*
X23688Y-49523D01*
X23831Y-49619D01*
X24000Y-49652D01*
X24168Y-49619D01*
X24311Y-49523D01*
X24406Y-49380D01*
X24440Y-49212D01*
X24440Y-48787D01*
X24406Y-48619D01*
X24320Y-48489D01*
X24320Y-48352D01*
X27187Y-45484D01*
X35253Y-45484D01*
X37286Y-47517D01*
X37286Y-47517D01*
X37390Y-47587D01*
X37513Y-47611D01*
X38275Y-47611D01*
X38275Y-47611D01*
X38397Y-47587D01*
X38501Y-47517D01*
X38796Y-47223D01*
X38796Y-47223D01*
X38851Y-47140D01*
X38877Y-47140D01*
X39377Y-47140D01*
X39429Y-47118D01*
X39468Y-47079D01*
X39489Y-47027D01*
X39490Y-46972D01*
X39490Y-46820D01*
X39630Y-46820D01*
X39630Y-46819D01*
X39752Y-46795D01*
X39856Y-46726D01*
X39856Y-46726D01*
X39893Y-46816D01*
X39982Y-46904D01*
X40097Y-46952D01*
X40221Y-46952D01*
X41303Y-48034D01*
X41303Y-48034D01*
X41361Y-48073D01*
X41430Y-48087D01*
X46812Y-48087D01*
X46482Y-48223D01*
X46224Y-48481D01*
X46085Y-48817D01*
X46084Y-49181D01*
X46223Y-49517D01*
X46481Y-49775D01*
X46624Y-49835D01*
X45440Y-49835D01*
X45440Y-49212D01*
X45440Y-48787D01*
X45406Y-48619D01*
X45311Y-48476D01*
X45168Y-48380D01*
X45000Y-48347D01*
X44831Y-48380D01*
X44688Y-48476D01*
X44593Y-48619D01*
X44560Y-48787D01*
X44560Y-49212D01*
X44593Y-49380D01*
X44688Y-49523D01*
X44831Y-49619D01*
X45000Y-49652D01*
X45168Y-49619D01*
X45311Y-49523D01*
X45406Y-49380D01*
X45440Y-49212D01*
X45440Y-49835D01*
X44440Y-49835D01*
X44440Y-49212D01*
X44440Y-48787D01*
X44406Y-48619D01*
X44311Y-48476D01*
X44168Y-48380D01*
X44000Y-48347D01*
X43831Y-48380D01*
X43688Y-48476D01*
X43593Y-48619D01*
X43560Y-48787D01*
X43560Y-49212D01*
X43593Y-49380D01*
X43688Y-49523D01*
X43831Y-49619D01*
X44000Y-49652D01*
X44168Y-49619D01*
X44311Y-49523D01*
X44406Y-49380D01*
X44440Y-49212D01*
X44440Y-49835D01*
X43440Y-49835D01*
X43440Y-49212D01*
X43440Y-48787D01*
X43406Y-48619D01*
X43311Y-48476D01*
X43168Y-48380D01*
X43000Y-48347D01*
X42831Y-48380D01*
X42688Y-48476D01*
X42593Y-48619D01*
X42560Y-48787D01*
X42560Y-49212D01*
X42593Y-49380D01*
X42688Y-49523D01*
X42831Y-49619D01*
X43000Y-49652D01*
X43168Y-49619D01*
X43311Y-49523D01*
X43406Y-49380D01*
X43440Y-49212D01*
X43440Y-49835D01*
X42440Y-49835D01*
X42440Y-49212D01*
X42440Y-48787D01*
X42406Y-48619D01*
X42311Y-48476D01*
X42168Y-48380D01*
X42000Y-48347D01*
X41831Y-48380D01*
X41688Y-48476D01*
X41593Y-48619D01*
X41560Y-48787D01*
X41560Y-49212D01*
X41593Y-49380D01*
X41688Y-49523D01*
X41831Y-49619D01*
X42000Y-49652D01*
X42168Y-49619D01*
X42311Y-49523D01*
X42406Y-49380D01*
X42440Y-49212D01*
X42440Y-49835D01*
X41440Y-49835D01*
X41440Y-49212D01*
X41440Y-48787D01*
X41406Y-48619D01*
X41311Y-48476D01*
X41168Y-48380D01*
X41000Y-48347D01*
X40831Y-48380D01*
X40688Y-48476D01*
X40593Y-48619D01*
X40560Y-48787D01*
X40560Y-49212D01*
X40593Y-49380D01*
X40688Y-49523D01*
X40831Y-49619D01*
X41000Y-49652D01*
X41168Y-49619D01*
X41311Y-49523D01*
X41406Y-49380D01*
X41440Y-49212D01*
X41440Y-49835D01*
X40440Y-49835D01*
X40440Y-49212D01*
X40440Y-48787D01*
X40406Y-48619D01*
X40311Y-48476D01*
X40168Y-48380D01*
X40000Y-48347D01*
X39831Y-48380D01*
X39688Y-48476D01*
X39593Y-48619D01*
X39560Y-48787D01*
X39560Y-49212D01*
X39593Y-49380D01*
X39688Y-49523D01*
X39831Y-49619D01*
X40000Y-49652D01*
X40168Y-49619D01*
X40311Y-49523D01*
X40406Y-49380D01*
X40440Y-49212D01*
X40440Y-49835D01*
X39440Y-49835D01*
X39440Y-49212D01*
X39440Y-48787D01*
X39406Y-48619D01*
X39311Y-48476D01*
X39168Y-48380D01*
X39000Y-48347D01*
X38831Y-48380D01*
X38688Y-48476D01*
X38593Y-48619D01*
X38560Y-48787D01*
X38560Y-49212D01*
X38593Y-49380D01*
X38688Y-49523D01*
X38831Y-49619D01*
X39000Y-49652D01*
X39168Y-49619D01*
X39311Y-49523D01*
X39406Y-49380D01*
X39440Y-49212D01*
X39440Y-49835D01*
X38440Y-49835D01*
X38440Y-49212D01*
X38440Y-48787D01*
X38406Y-48619D01*
X38311Y-48476D01*
X38168Y-48380D01*
X38000Y-48347D01*
X37831Y-48380D01*
X37688Y-48476D01*
X37593Y-48619D01*
X37560Y-48787D01*
X37560Y-49212D01*
X37593Y-49380D01*
X37688Y-49523D01*
X37831Y-49619D01*
X38000Y-49652D01*
X38168Y-49619D01*
X38311Y-49523D01*
X38406Y-49380D01*
X38440Y-49212D01*
X38440Y-49835D01*
X36440Y-49835D01*
X36440Y-49212D01*
X36440Y-48787D01*
X36406Y-48619D01*
X36311Y-48476D01*
X36168Y-48380D01*
X36000Y-48347D01*
X35831Y-48380D01*
X35688Y-48476D01*
X35593Y-48619D01*
X35560Y-48787D01*
X35560Y-49212D01*
X35593Y-49380D01*
X35688Y-49523D01*
X35831Y-49619D01*
X36000Y-49652D01*
X36168Y-49619D01*
X36311Y-49523D01*
X36406Y-49380D01*
X36440Y-49212D01*
X36440Y-49835D01*
X35440Y-49835D01*
X35440Y-49212D01*
X35440Y-48787D01*
X35406Y-48619D01*
X35311Y-48476D01*
X35168Y-48380D01*
X35000Y-48347D01*
X34831Y-48380D01*
X34688Y-48476D01*
X34593Y-48619D01*
X34560Y-48787D01*
X34560Y-49212D01*
X34593Y-49380D01*
X34688Y-49523D01*
X34831Y-49619D01*
X35000Y-49652D01*
X35168Y-49619D01*
X35311Y-49523D01*
X35406Y-49380D01*
X35440Y-49212D01*
X35440Y-49835D01*
X34440Y-49835D01*
X34440Y-49212D01*
X34440Y-48787D01*
X34406Y-48619D01*
X34311Y-48476D01*
X34168Y-48380D01*
X34000Y-48347D01*
X33831Y-48380D01*
X33688Y-48476D01*
X33593Y-48619D01*
X33560Y-48787D01*
X33560Y-49212D01*
X33593Y-49380D01*
X33688Y-49523D01*
X33831Y-49619D01*
X34000Y-49652D01*
X34168Y-49619D01*
X34311Y-49523D01*
X34406Y-49380D01*
X34440Y-49212D01*
X34440Y-49835D01*
X33440Y-49835D01*
X33440Y-49212D01*
X33440Y-48787D01*
X33406Y-48619D01*
X33311Y-48476D01*
X33168Y-48380D01*
X33000Y-48347D01*
X32831Y-48380D01*
X32688Y-48476D01*
X32593Y-48619D01*
X32560Y-48787D01*
X32560Y-49212D01*
X32593Y-49380D01*
X32688Y-49523D01*
X32831Y-49619D01*
X33000Y-49652D01*
X33168Y-49619D01*
X33311Y-49523D01*
X33406Y-49380D01*
X33440Y-49212D01*
X33440Y-49835D01*
X32440Y-49835D01*
X32440Y-49212D01*
X32440Y-48787D01*
X32406Y-48619D01*
X32311Y-48476D01*
X32168Y-48380D01*
X32000Y-48347D01*
X31831Y-48380D01*
X31688Y-48476D01*
X31593Y-48619D01*
X31560Y-48787D01*
X31560Y-49212D01*
X31593Y-49380D01*
X31688Y-49523D01*
X31831Y-49619D01*
X32000Y-49652D01*
X32168Y-49619D01*
X32311Y-49523D01*
X32406Y-49380D01*
X32440Y-49212D01*
X32440Y-49835D01*
X31440Y-49835D01*
X31440Y-49212D01*
X31440Y-48787D01*
X31406Y-48619D01*
X31311Y-48476D01*
X31168Y-48380D01*
X31000Y-48347D01*
X30831Y-48380D01*
X30688Y-48476D01*
X30593Y-48619D01*
X30560Y-48787D01*
X30560Y-49212D01*
X30593Y-49380D01*
X30688Y-49523D01*
X30831Y-49619D01*
X31000Y-49652D01*
X31168Y-49619D01*
X31311Y-49523D01*
X31406Y-49380D01*
X31440Y-49212D01*
X31440Y-49835D01*
X30440Y-49835D01*
X30440Y-49212D01*
X30440Y-48787D01*
X30406Y-48619D01*
X30311Y-48476D01*
X30168Y-48380D01*
X30000Y-48347D01*
X29831Y-48380D01*
X29688Y-48476D01*
X29593Y-48619D01*
X29560Y-48787D01*
X29560Y-49212D01*
X29593Y-49380D01*
X29688Y-49523D01*
X29831Y-49619D01*
X30000Y-49652D01*
X30168Y-49619D01*
X30311Y-49523D01*
X30406Y-49380D01*
X30440Y-49212D01*
X30440Y-49835D01*
X29440Y-49835D01*
X29440Y-49212D01*
X29440Y-48787D01*
X29406Y-48619D01*
X29311Y-48476D01*
X29168Y-48380D01*
X29000Y-48347D01*
X28831Y-48380D01*
X28688Y-48476D01*
X28593Y-48619D01*
X28560Y-48787D01*
X28560Y-49212D01*
X28593Y-49380D01*
X28688Y-49523D01*
X28831Y-49619D01*
X29000Y-49652D01*
X29168Y-49619D01*
X29311Y-49523D01*
X29406Y-49380D01*
X29440Y-49212D01*
X29440Y-49835D01*
X27440Y-49835D01*
X27440Y-49212D01*
X27440Y-48787D01*
X27406Y-48619D01*
X27311Y-48476D01*
X27168Y-48380D01*
X27000Y-48347D01*
X26831Y-48380D01*
X26688Y-48476D01*
X26593Y-48619D01*
X26560Y-48787D01*
X26560Y-49212D01*
X26593Y-49380D01*
X26688Y-49523D01*
X26831Y-49619D01*
X27000Y-49652D01*
X27168Y-49619D01*
X27311Y-49523D01*
X27406Y-49380D01*
X27440Y-49212D01*
X27440Y-49835D01*
X26540Y-49835D01*
X26540Y-49260D01*
X26540Y-49060D01*
X26540Y-48940D01*
X26540Y-48740D01*
X26475Y-48537D01*
X26339Y-48375D01*
X26143Y-48279D01*
X26060Y-48323D01*
X26060Y-48940D01*
X26540Y-48940D01*
X26540Y-49060D01*
X26060Y-49060D01*
X26060Y-49676D01*
X26143Y-49720D01*
X26339Y-49624D01*
X26475Y-49462D01*
X26540Y-49260D01*
X26540Y-49835D01*
X25940Y-49835D01*
X25940Y-49676D01*
X25940Y-49060D01*
X25940Y-48940D01*
X25940Y-48323D01*
X25856Y-48279D01*
X25660Y-48375D01*
X25524Y-48537D01*
X25500Y-48613D01*
X25475Y-48537D01*
X25339Y-48375D01*
X25143Y-48279D01*
X25060Y-48323D01*
X25060Y-48940D01*
X25460Y-48940D01*
X25540Y-48940D01*
X25940Y-48940D01*
X25940Y-49060D01*
X25540Y-49060D01*
X25460Y-49060D01*
X25060Y-49060D01*
X25060Y-49676D01*
X25143Y-49720D01*
X25339Y-49624D01*
X25475Y-49462D01*
X25500Y-49386D01*
X25524Y-49462D01*
X25660Y-49624D01*
X25856Y-49720D01*
X25940Y-49676D01*
X25940Y-49835D01*
X24940Y-49835D01*
X24940Y-49676D01*
X24940Y-49060D01*
X24940Y-48940D01*
X24940Y-48323D01*
X24856Y-48279D01*
X24660Y-48375D01*
X24524Y-48537D01*
X24460Y-48740D01*
X24460Y-48940D01*
X24940Y-48940D01*
X24940Y-49060D01*
X24460Y-49060D01*
X24460Y-49260D01*
X24524Y-49462D01*
X24660Y-49624D01*
X24856Y-49720D01*
X24940Y-49676D01*
X24940Y-49835D01*
X23440Y-49835D01*
X23440Y-49212D01*
X23440Y-48787D01*
X23406Y-48619D01*
X23311Y-48476D01*
X23168Y-48380D01*
X23000Y-48347D01*
X22831Y-48380D01*
X22688Y-48476D01*
X22593Y-48619D01*
X22560Y-48787D01*
X22560Y-49212D01*
X22593Y-49380D01*
X22688Y-49523D01*
X22831Y-49619D01*
X23000Y-49652D01*
X23168Y-49619D01*
X23311Y-49523D01*
X23406Y-49380D01*
X23440Y-49212D01*
X23440Y-49835D01*
X22440Y-49835D01*
X22440Y-49212D01*
X22440Y-48787D01*
X22406Y-48619D01*
X22311Y-48476D01*
X22168Y-48380D01*
X22000Y-48347D01*
X21831Y-48380D01*
X21688Y-48476D01*
X21593Y-48619D01*
X21560Y-48787D01*
X21560Y-49212D01*
X21593Y-49380D01*
X21688Y-49523D01*
X21831Y-49619D01*
X22000Y-49652D01*
X22168Y-49619D01*
X22311Y-49523D01*
X22406Y-49380D01*
X22440Y-49212D01*
X22440Y-49835D01*
X21440Y-49835D01*
X21440Y-49212D01*
X21440Y-48787D01*
X21406Y-48619D01*
X21311Y-48476D01*
X21168Y-48380D01*
X21000Y-48347D01*
X20831Y-48380D01*
X20688Y-48476D01*
X20593Y-48619D01*
X20560Y-48787D01*
X20560Y-49212D01*
X20593Y-49380D01*
X20688Y-49523D01*
X20831Y-49619D01*
X21000Y-49652D01*
X21168Y-49619D01*
X21311Y-49523D01*
X21406Y-49380D01*
X21440Y-49212D01*
X21440Y-49835D01*
X20440Y-49835D01*
X20440Y-49212D01*
X20440Y-48787D01*
X20406Y-48619D01*
X20311Y-48476D01*
X20168Y-48380D01*
X20000Y-48347D01*
X19831Y-48380D01*
X19688Y-48476D01*
X19593Y-48619D01*
X19560Y-48787D01*
X19560Y-49212D01*
X19593Y-49380D01*
X19688Y-49523D01*
X19831Y-49619D01*
X20000Y-49652D01*
X20168Y-49619D01*
X20311Y-49523D01*
X20406Y-49380D01*
X20440Y-49212D01*
X20440Y-49835D01*
X14875Y-49835D01*
X15017Y-49776D01*
X15275Y-49518D01*
X15414Y-49182D01*
X15415Y-48818D01*
X15276Y-48482D01*
X15018Y-48224D01*
X14682Y-48085D01*
X14318Y-48084D01*
X13982Y-48223D01*
X13724Y-48481D01*
X13585Y-48817D01*
X13584Y-49181D01*
X13723Y-49517D01*
X13981Y-49775D01*
X14124Y-49835D01*
X10804Y-49835D01*
X10804Y-39664D01*
X10795Y-39291D01*
X10669Y-38986D01*
X10536Y-38908D01*
X10451Y-38993D01*
X10451Y-38823D01*
X10373Y-38690D01*
X10310Y-38666D01*
X10310Y-37563D01*
X10182Y-37254D01*
X9946Y-37018D01*
X9637Y-36890D01*
X9303Y-36889D01*
X8994Y-37017D01*
X8758Y-37253D01*
X8630Y-37562D01*
X8629Y-37896D01*
X8757Y-38205D01*
X8993Y-38441D01*
X9302Y-38569D01*
X9636Y-38570D01*
X9945Y-38442D01*
X10181Y-38206D01*
X10309Y-37897D01*
X10310Y-37563D01*
X10310Y-38666D01*
X10024Y-38555D01*
X9651Y-38564D01*
X9346Y-38690D01*
X9268Y-38823D01*
X9860Y-39415D01*
X10451Y-38823D01*
X10451Y-38993D01*
X9944Y-39500D01*
X10536Y-40091D01*
X10669Y-40013D01*
X10804Y-39664D01*
X10804Y-49835D01*
X10451Y-49835D01*
X10451Y-40176D01*
X9860Y-39584D01*
X9775Y-39669D01*
X9775Y-39500D01*
X9183Y-38908D01*
X9050Y-38986D01*
X9009Y-39093D01*
X8974Y-39059D01*
X8783Y-38980D01*
X8577Y-38979D01*
X8385Y-39058D01*
X8239Y-39205D01*
X8160Y-39396D01*
X8159Y-39602D01*
X8238Y-39794D01*
X8385Y-39940D01*
X8576Y-40019D01*
X8782Y-40020D01*
X8974Y-39941D01*
X9007Y-39908D01*
X9050Y-40013D01*
X9183Y-40091D01*
X9775Y-39500D01*
X9775Y-39669D01*
X9268Y-40176D01*
X9346Y-40309D01*
X9695Y-40444D01*
X10068Y-40435D01*
X10373Y-40309D01*
X10451Y-40176D01*
X10451Y-49835D01*
X10310Y-49835D01*
X10310Y-41103D01*
X10182Y-40794D01*
X9946Y-40558D01*
X9637Y-40430D01*
X9303Y-40429D01*
X8994Y-40557D01*
X8758Y-40793D01*
X8630Y-41102D01*
X8629Y-41436D01*
X8757Y-41745D01*
X8993Y-41981D01*
X9302Y-42109D01*
X9636Y-42110D01*
X9945Y-41982D01*
X10181Y-41746D01*
X10309Y-41437D01*
X10310Y-41103D01*
X10310Y-49835D01*
X7665Y-49835D01*
X7665Y-29165D01*
X14624Y-29165D01*
X14482Y-29223D01*
X14224Y-29481D01*
X14085Y-29817D01*
X14084Y-30181D01*
X14223Y-30517D01*
X14481Y-30775D01*
X14817Y-30914D01*
X15181Y-30915D01*
X15517Y-30776D01*
X15775Y-30518D01*
X15914Y-30182D01*
X15915Y-29818D01*
X15776Y-29482D01*
X15518Y-29224D01*
X15375Y-29165D01*
X44124Y-29165D01*
X43982Y-29223D01*
X43724Y-29481D01*
X43585Y-29817D01*
X43584Y-30181D01*
X43723Y-30517D01*
X43981Y-30775D01*
X44317Y-30914D01*
X44681Y-30915D01*
X45017Y-30776D01*
X45275Y-30518D01*
X45414Y-30182D01*
X45415Y-29818D01*
X45276Y-29482D01*
X45018Y-29224D01*
X44875Y-29165D01*
X78124Y-29165D01*
X77982Y-29223D01*
X77724Y-29481D01*
X77585Y-29817D01*
X77584Y-30181D01*
X77723Y-30517D01*
X77981Y-30775D01*
X78317Y-30914D01*
X78681Y-30915D01*
X79017Y-30776D01*
X79275Y-30518D01*
X79414Y-30182D01*
X79415Y-29818D01*
X79276Y-29482D01*
X79018Y-29224D01*
X78875Y-29165D01*
X102124Y-29165D01*
X101982Y-29223D01*
X101724Y-29481D01*
X101585Y-29817D01*
X101584Y-30181D01*
X101723Y-30517D01*
X101981Y-30775D01*
X102317Y-30914D01*
X102681Y-30915D01*
X103017Y-30776D01*
X103275Y-30518D01*
X103414Y-30182D01*
X103415Y-29818D01*
X103276Y-29482D01*
X103018Y-29224D01*
X102875Y-29165D01*
X109835Y-29165D01*
X109835Y-49835D01*
M02*
