M48
;DRILL file {Pcbnew (2013-jul-07)-stable} date Fri 01 Aug 2014 03:38:21 PM EDT
;FORMAT={-:-/ absolute / inch / decimal}
FMAT,2
INCH,TZ
T1C0.025
T2C0.040
T3C0.063
T4C0.087
T5C0.106
T6C0.124
T7C0.130
%
G90
G05
M72
T1
X3.5855Y-3.9961
X3.596Y-3.8734
X3.7027Y-4.38
X3.7076Y-3.9923
X4.0161Y-4.6638
X4.1657Y-4.05
X5.1878Y-4.0727
X5.2974Y-3.8509
X5.3401Y-4.3811
X5.3632Y-4.4748
X5.3922Y-4.2029
X5.4239Y-4.1153
X5.5124Y-4.0727
X7.3711Y-4.6615
X8.2085Y-4.6962
X9.0085Y-4.6946
X9.7676Y-4.7029
T2
X1.64Y-3.
X1.74Y-3.
X1.84Y-3.
X1.94Y-3.
X2.Y-4.9
X2.04Y-3.
X2.1Y-4.9
X2.14Y-3.
X2.2Y-4.9
X2.24Y-3.
X2.3Y-4.9
X2.34Y-3.
X2.4Y-4.9
X2.44Y-3.
X2.5Y-4.9
X2.54Y-3.
X2.6Y-4.9
X2.7Y-3.
X2.7Y-4.9
X2.8Y-3.
X2.9Y-3.
X2.9Y-4.9
X3.Y-3.
X3.Y-4.9
X3.1Y-3.
X3.1Y-4.9
X3.2Y-3.
X3.2Y-4.9
X3.3Y-3.
X3.3Y-4.9
X3.4Y-3.
X3.4Y-4.9
X3.5Y-4.9
X3.6Y-3.
X3.6Y-4.9
X3.7Y-3.
X3.8Y-3.
X3.8Y-4.9
X3.9Y-3.
X3.9Y-4.9
X4.Y-3.
X4.Y-4.9
X4.1Y-3.
X4.1Y-4.9
X4.2Y-3.
X4.2Y-4.9
X4.3Y-3.
X4.3Y-4.9
X4.4Y-4.9
X4.5Y-4.9
X4.6Y-3.
X4.6Y-3.1
X4.6Y-3.2
X4.6Y-3.3
X4.6Y-3.4
X4.6Y-3.5
X4.6Y-3.6
X4.6Y-3.7
X4.6Y-3.8
X4.6Y-3.9
X4.6Y-4.
X4.6Y-4.1
X4.6Y-4.2
X4.6Y-4.3
X4.6Y-4.4
X4.6Y-4.5
X4.6Y-4.6
X4.6Y-4.7
X4.7Y-3.
X4.7Y-3.1
X4.7Y-3.2
X4.7Y-3.3
X4.7Y-3.4
X4.7Y-3.5
X4.7Y-3.6
X4.7Y-3.7
X4.7Y-3.8
X4.7Y-3.9
X4.7Y-4.
X4.7Y-4.1
X4.7Y-4.2
X4.7Y-4.3
X4.7Y-4.4
X4.7Y-4.5
X4.7Y-4.6
X4.7Y-4.7
T3
X0.868Y-3.95
T4
X1.7Y-3.65
X2.Y-3.65
X2.5Y-3.65
X2.8Y-3.65
X3.3Y-3.65
X3.6Y-3.65
X4.1Y-3.65
X4.4Y-3.65
X4.9Y-3.65
X5.2Y-3.65
X5.7Y-3.65
X6.Y-3.65
X6.5Y-3.65
X6.8Y-3.65
X7.3Y-3.65
X7.6Y-3.65
X8.1Y-3.65
X8.4Y-3.65
X8.9Y-3.65
X9.2Y-3.65
X9.7Y-3.65
X10.Y-3.65
X10.5Y-3.65
X10.8Y-3.65
T5
X0.947Y-3.773
X0.947Y-4.127
X0.986Y-3.95
T6
X1.222Y-3.95
T7
X1.45Y-4.9
X1.5Y-3.
X4.45Y-3.
X4.7Y-4.9
X7.85Y-3.
X7.85Y-4.9
X10.25Y-3.
X10.25Y-4.9
T0
M30
