G04 (created by PCBNEW (2013-jul-07)-stable) date Fri 01 Aug 2014 03:38:15 PM EDT*
%MOIN*%
G04 Gerber Fmt 3.4, Leading zero omitted, Abs format*
%FSLAX34Y34*%
G01*
G70*
G90*
G04 APERTURE LIST*
%ADD10C,0.00590551*%
%ADD11C,0.009*%
%ADD12C,0.012*%
%ADD13C,0.015*%
%ADD14C,0.005*%
%ADD15C,0.01*%
%ADD16C,0.175*%
%ADD17O,0.08X0.12*%
%ADD18C,0.08*%
%ADD19C,0.18*%
%ADD20R,0.036X0.049*%
%ADD21C,0.096*%
%ADD22C,0.16*%
%ADD23R,0.067X0.067*%
%ADD24R,0.07X0.12*%
G04 APERTURE END LIST*
G54D10*
G54D11*
X110000Y-29000D02*
X7500Y-29000D01*
X110000Y-50000D02*
X110000Y-29000D01*
X7500Y-50000D02*
X110000Y-50000D01*
X7500Y-29000D02*
X7500Y-50000D01*
G54D12*
X14595Y-44914D02*
X14595Y-44628D01*
X14823Y-44971D02*
X14023Y-44771D01*
X14823Y-44571D01*
X14823Y-44371D02*
X14290Y-44371D01*
X14442Y-44371D02*
X14366Y-44342D01*
X14328Y-44314D01*
X14290Y-44257D01*
X14290Y-44200D01*
X14823Y-43742D02*
X14023Y-43742D01*
X14785Y-43742D02*
X14823Y-43800D01*
X14823Y-43914D01*
X14785Y-43971D01*
X14747Y-44000D01*
X14671Y-44028D01*
X14442Y-44028D01*
X14366Y-44000D01*
X14328Y-43971D01*
X14290Y-43914D01*
X14290Y-43800D01*
X14328Y-43742D01*
X14290Y-43200D02*
X14823Y-43200D01*
X14290Y-43457D02*
X14709Y-43457D01*
X14785Y-43428D01*
X14823Y-43371D01*
X14823Y-43285D01*
X14785Y-43228D01*
X14747Y-43200D01*
X14823Y-42914D02*
X14290Y-42914D01*
X14023Y-42914D02*
X14061Y-42942D01*
X14100Y-42914D01*
X14061Y-42885D01*
X14023Y-42914D01*
X14100Y-42914D01*
X14290Y-42628D02*
X14823Y-42628D01*
X14366Y-42628D02*
X14328Y-42600D01*
X14290Y-42542D01*
X14290Y-42457D01*
X14328Y-42400D01*
X14404Y-42371D01*
X14823Y-42371D01*
X14823Y-42000D02*
X14785Y-42057D01*
X14747Y-42085D01*
X14671Y-42114D01*
X14442Y-42114D01*
X14366Y-42085D01*
X14328Y-42057D01*
X14290Y-42000D01*
X14290Y-41914D01*
X14328Y-41857D01*
X14366Y-41828D01*
X14442Y-41800D01*
X14671Y-41800D01*
X14747Y-41828D01*
X14785Y-41857D01*
X14823Y-41914D01*
X14823Y-42000D01*
X14023Y-41171D02*
X14823Y-40971D01*
X14023Y-40771D01*
X14823Y-40314D02*
X14404Y-40314D01*
X14328Y-40342D01*
X14290Y-40400D01*
X14290Y-40514D01*
X14328Y-40571D01*
X14785Y-40314D02*
X14823Y-40371D01*
X14823Y-40514D01*
X14785Y-40571D01*
X14709Y-40600D01*
X14633Y-40600D01*
X14557Y-40571D01*
X14519Y-40514D01*
X14519Y-40371D01*
X14480Y-40314D01*
X14823Y-39942D02*
X14785Y-40000D01*
X14709Y-40028D01*
X14023Y-40028D01*
X14290Y-39771D02*
X14823Y-39628D01*
X14290Y-39485D01*
X14785Y-39028D02*
X14823Y-39085D01*
X14823Y-39200D01*
X14785Y-39257D01*
X14709Y-39285D01*
X14404Y-39285D01*
X14328Y-39257D01*
X14290Y-39200D01*
X14290Y-39085D01*
X14328Y-39028D01*
X14404Y-39000D01*
X14480Y-39000D01*
X14557Y-39285D01*
X14747Y-37942D02*
X14785Y-37971D01*
X14823Y-38057D01*
X14823Y-38114D01*
X14785Y-38200D01*
X14709Y-38257D01*
X14633Y-38285D01*
X14480Y-38314D01*
X14366Y-38314D01*
X14214Y-38285D01*
X14138Y-38257D01*
X14061Y-38200D01*
X14023Y-38114D01*
X14023Y-38057D01*
X14061Y-37971D01*
X14100Y-37942D01*
X14823Y-37600D02*
X14785Y-37657D01*
X14747Y-37685D01*
X14671Y-37714D01*
X14442Y-37714D01*
X14366Y-37685D01*
X14328Y-37657D01*
X14290Y-37600D01*
X14290Y-37514D01*
X14328Y-37457D01*
X14366Y-37428D01*
X14442Y-37400D01*
X14671Y-37400D01*
X14747Y-37428D01*
X14785Y-37457D01*
X14823Y-37514D01*
X14823Y-37600D01*
X14290Y-37142D02*
X14823Y-37142D01*
X14366Y-37142D02*
X14328Y-37114D01*
X14290Y-37057D01*
X14290Y-36971D01*
X14328Y-36914D01*
X14404Y-36885D01*
X14823Y-36885D01*
X14290Y-36685D02*
X14290Y-36457D01*
X14023Y-36600D02*
X14709Y-36600D01*
X14785Y-36571D01*
X14823Y-36514D01*
X14823Y-36457D01*
X14823Y-36257D02*
X14290Y-36257D01*
X14442Y-36257D02*
X14366Y-36228D01*
X14328Y-36200D01*
X14290Y-36142D01*
X14290Y-36085D01*
X14823Y-35800D02*
X14785Y-35857D01*
X14747Y-35885D01*
X14671Y-35914D01*
X14442Y-35914D01*
X14366Y-35885D01*
X14328Y-35857D01*
X14290Y-35800D01*
X14290Y-35714D01*
X14328Y-35657D01*
X14366Y-35628D01*
X14442Y-35600D01*
X14671Y-35600D01*
X14747Y-35628D01*
X14785Y-35657D01*
X14823Y-35714D01*
X14823Y-35800D01*
X14823Y-35257D02*
X14785Y-35314D01*
X14709Y-35342D01*
X14023Y-35342D01*
X14823Y-34942D02*
X14785Y-34999D01*
X14709Y-35028D01*
X14023Y-35028D01*
X14785Y-34485D02*
X14823Y-34542D01*
X14823Y-34657D01*
X14785Y-34714D01*
X14709Y-34742D01*
X14404Y-34742D01*
X14328Y-34714D01*
X14290Y-34657D01*
X14290Y-34542D01*
X14328Y-34485D01*
X14404Y-34457D01*
X14480Y-34457D01*
X14557Y-34742D01*
X14823Y-34199D02*
X14290Y-34199D01*
X14442Y-34199D02*
X14366Y-34171D01*
X14328Y-34142D01*
X14290Y-34085D01*
X14290Y-34028D01*
X22023Y-38714D02*
X22595Y-38714D01*
X22709Y-38742D01*
X22785Y-38800D01*
X22823Y-38885D01*
X22823Y-38942D01*
X22290Y-38171D02*
X22823Y-38171D01*
X22290Y-38428D02*
X22709Y-38428D01*
X22785Y-38400D01*
X22823Y-38342D01*
X22823Y-38257D01*
X22785Y-38200D01*
X22747Y-38171D01*
X22823Y-37800D02*
X22785Y-37857D01*
X22709Y-37885D01*
X22023Y-37885D01*
X22100Y-37142D02*
X22061Y-37114D01*
X22023Y-37057D01*
X22023Y-36914D01*
X22061Y-36857D01*
X22100Y-36828D01*
X22176Y-36800D01*
X22252Y-36800D01*
X22366Y-36828D01*
X22823Y-37171D01*
X22823Y-36800D01*
X22023Y-36428D02*
X22023Y-36371D01*
X22061Y-36314D01*
X22100Y-36285D01*
X22176Y-36257D01*
X22328Y-36228D01*
X22519Y-36228D01*
X22671Y-36257D01*
X22747Y-36285D01*
X22785Y-36314D01*
X22823Y-36371D01*
X22823Y-36428D01*
X22785Y-36485D01*
X22747Y-36514D01*
X22671Y-36542D01*
X22519Y-36571D01*
X22328Y-36571D01*
X22176Y-36542D01*
X22100Y-36514D01*
X22061Y-36485D01*
X22023Y-36428D01*
X22823Y-35657D02*
X22823Y-35999D01*
X22823Y-35828D02*
X22023Y-35828D01*
X22138Y-35885D01*
X22214Y-35942D01*
X22252Y-35999D01*
X22290Y-35142D02*
X22823Y-35142D01*
X21985Y-35285D02*
X22557Y-35428D01*
X22557Y-35057D01*
X22023Y-43485D02*
X22823Y-43285D01*
X22023Y-43085D01*
X22404Y-42885D02*
X22404Y-42685D01*
X22823Y-42600D02*
X22823Y-42885D01*
X22023Y-42885D01*
X22023Y-42600D01*
X22823Y-42000D02*
X22442Y-42200D01*
X22823Y-42342D02*
X22023Y-42342D01*
X22023Y-42114D01*
X22061Y-42057D01*
X22100Y-42028D01*
X22176Y-42000D01*
X22290Y-42000D01*
X22366Y-42028D01*
X22404Y-42057D01*
X22442Y-42114D01*
X22442Y-42342D01*
X22823Y-41428D02*
X22823Y-41771D01*
X22823Y-41600D02*
X22023Y-41600D01*
X22138Y-41657D01*
X22214Y-41714D01*
X22252Y-41771D01*
X22747Y-41171D02*
X22785Y-41142D01*
X22823Y-41171D01*
X22785Y-41199D01*
X22747Y-41171D01*
X22823Y-41171D01*
X22823Y-40571D02*
X22823Y-40914D01*
X22823Y-40742D02*
X22023Y-40742D01*
X22138Y-40800D01*
X22214Y-40857D01*
X22252Y-40914D01*
G54D13*
X88000Y-33500D02*
X93000Y-33500D01*
X88000Y-31500D02*
X93000Y-31500D01*
X93000Y-31500D02*
X93000Y-47000D01*
X93000Y-47000D02*
X88000Y-47000D01*
X88000Y-47000D02*
X88000Y-31500D01*
X96000Y-33500D02*
X101000Y-33500D01*
X96000Y-31500D02*
X101000Y-31500D01*
X101000Y-31500D02*
X101000Y-47000D01*
X101000Y-47000D02*
X96000Y-47000D01*
X96000Y-47000D02*
X96000Y-31500D01*
X104000Y-33500D02*
X109000Y-33500D01*
X104000Y-31500D02*
X109000Y-31500D01*
X109000Y-31500D02*
X109000Y-47000D01*
X109000Y-47000D02*
X104000Y-47000D01*
X104000Y-47000D02*
X104000Y-31500D01*
X93250Y-43000D02*
X95500Y-43000D01*
X93500Y-43250D02*
G75*
G03X93500Y-43250I-250J0D01*
G74*
G01*
X61250Y-43000D02*
X63500Y-43000D01*
X61500Y-43250D02*
G75*
G03X61500Y-43250I-250J0D01*
G74*
G01*
X29250Y-43000D02*
X31500Y-43000D01*
X29500Y-43250D02*
G75*
G03X29500Y-43250I-250J0D01*
G74*
G01*
X72000Y-33500D02*
X77000Y-33500D01*
X72000Y-31500D02*
X77000Y-31500D01*
X77000Y-31500D02*
X77000Y-47000D01*
X77000Y-47000D02*
X72000Y-47000D01*
X72000Y-47000D02*
X72000Y-31500D01*
X64000Y-33500D02*
X69000Y-33500D01*
X64000Y-31500D02*
X69000Y-31500D01*
X69000Y-31500D02*
X69000Y-47000D01*
X69000Y-47000D02*
X64000Y-47000D01*
X64000Y-47000D02*
X64000Y-31500D01*
X48000Y-33500D02*
X53000Y-33500D01*
X48000Y-31500D02*
X53000Y-31500D01*
X53000Y-31500D02*
X53000Y-47000D01*
X53000Y-47000D02*
X48000Y-47000D01*
X48000Y-47000D02*
X48000Y-31500D01*
X56000Y-33500D02*
X61000Y-33500D01*
X56000Y-31500D02*
X61000Y-31500D01*
X61000Y-31500D02*
X61000Y-47000D01*
X61000Y-47000D02*
X56000Y-47000D01*
X56000Y-47000D02*
X56000Y-31500D01*
X80000Y-33500D02*
X85000Y-33500D01*
X80000Y-31500D02*
X85000Y-31500D01*
X85000Y-31500D02*
X85000Y-47000D01*
X85000Y-47000D02*
X80000Y-47000D01*
X80000Y-47000D02*
X80000Y-31500D01*
X24000Y-33500D02*
X29000Y-33500D01*
X24000Y-31500D02*
X29000Y-31500D01*
X29000Y-31500D02*
X29000Y-47000D01*
X29000Y-47000D02*
X24000Y-47000D01*
X24000Y-47000D02*
X24000Y-31500D01*
X16000Y-33500D02*
X21000Y-33500D01*
X16000Y-31500D02*
X21000Y-31500D01*
X21000Y-31500D02*
X21000Y-47000D01*
X21000Y-47000D02*
X16000Y-47000D01*
X16000Y-47000D02*
X16000Y-31500D01*
X32000Y-33500D02*
X37000Y-33500D01*
X32000Y-31500D02*
X37000Y-31500D01*
X37000Y-31500D02*
X37000Y-47000D01*
X37000Y-47000D02*
X32000Y-47000D01*
X32000Y-47000D02*
X32000Y-31500D01*
X40000Y-33500D02*
X45000Y-33500D01*
X40000Y-31500D02*
X45000Y-31500D01*
X45000Y-31500D02*
X45000Y-47000D01*
X45000Y-47000D02*
X40000Y-47000D01*
X40000Y-47000D02*
X40000Y-31500D01*
X7500Y-42250D02*
X7500Y-36750D01*
X7500Y-36750D02*
X13250Y-36750D01*
X13250Y-36750D02*
X13250Y-42250D01*
X13250Y-42250D02*
X7500Y-42250D01*
X67500Y-47300D02*
X67500Y-47700D01*
X67300Y-47500D02*
X67700Y-47500D01*
X51500Y-47300D02*
X51500Y-47700D01*
X51300Y-47500D02*
X51700Y-47500D01*
X59500Y-47300D02*
X59500Y-47700D01*
X59300Y-47500D02*
X59700Y-47500D01*
X83500Y-47300D02*
X83500Y-47700D01*
X83300Y-47500D02*
X83700Y-47500D01*
X43500Y-47300D02*
X43500Y-47700D01*
X43300Y-47500D02*
X43700Y-47500D01*
X75500Y-47300D02*
X75500Y-47700D01*
X75300Y-47500D02*
X75700Y-47500D01*
X35500Y-47300D02*
X35500Y-47700D01*
X35300Y-47500D02*
X35700Y-47500D01*
X19500Y-47300D02*
X19500Y-47700D01*
X19300Y-47500D02*
X19700Y-47500D01*
X27500Y-47300D02*
X27500Y-47700D01*
X27300Y-47500D02*
X27700Y-47500D01*
X11000Y-43800D02*
X11000Y-44200D01*
X10800Y-44000D02*
X11200Y-44000D01*
X91500Y-47300D02*
X91500Y-47700D01*
X91300Y-47500D02*
X91700Y-47500D01*
X107500Y-47300D02*
X107500Y-47700D01*
X107300Y-47500D02*
X107700Y-47500D01*
X99500Y-47300D02*
X99500Y-47700D01*
X99300Y-47500D02*
X99700Y-47500D01*
G54D14*
X12800Y-44550D02*
X13400Y-44550D01*
X13400Y-44550D02*
X13400Y-43450D01*
X13400Y-43450D02*
X12800Y-43450D01*
X12200Y-43450D02*
X11600Y-43450D01*
X11600Y-43450D02*
X11600Y-44550D01*
X11600Y-44550D02*
X12200Y-44550D01*
G54D15*
X90176Y-30761D02*
X90309Y-31161D01*
X90442Y-30761D01*
X90538Y-30761D02*
X90785Y-30761D01*
X90652Y-30914D01*
X90709Y-30914D01*
X90747Y-30933D01*
X90766Y-30952D01*
X90785Y-30990D01*
X90785Y-31085D01*
X90766Y-31123D01*
X90747Y-31142D01*
X90709Y-31161D01*
X90595Y-31161D01*
X90557Y-31142D01*
X90538Y-31123D01*
X87261Y-46509D02*
X87661Y-46376D01*
X87261Y-46242D01*
X87547Y-46128D02*
X87547Y-45938D01*
X87661Y-46166D02*
X87261Y-46033D01*
X87661Y-45900D01*
X87661Y-45576D02*
X87661Y-45766D01*
X87261Y-45766D01*
X87261Y-45500D02*
X87661Y-45366D01*
X87261Y-45233D01*
X87452Y-45100D02*
X87452Y-44966D01*
X87661Y-44909D02*
X87661Y-45100D01*
X87261Y-45100D01*
X87261Y-44909D01*
X87300Y-44757D02*
X87280Y-44738D01*
X87261Y-44700D01*
X87261Y-44604D01*
X87280Y-44566D01*
X87300Y-44547D01*
X87338Y-44528D01*
X87376Y-44528D01*
X87433Y-44547D01*
X87661Y-44776D01*
X87661Y-44528D01*
X98176Y-30761D02*
X98309Y-31161D01*
X98442Y-30761D01*
X98557Y-30800D02*
X98576Y-30780D01*
X98614Y-30761D01*
X98709Y-30761D01*
X98747Y-30780D01*
X98766Y-30800D01*
X98785Y-30838D01*
X98785Y-30876D01*
X98766Y-30933D01*
X98538Y-31161D01*
X98785Y-31161D01*
X95261Y-46509D02*
X95661Y-46376D01*
X95261Y-46242D01*
X95547Y-46128D02*
X95547Y-45938D01*
X95661Y-46166D02*
X95261Y-46033D01*
X95661Y-45900D01*
X95661Y-45576D02*
X95661Y-45766D01*
X95261Y-45766D01*
X95261Y-45500D02*
X95661Y-45366D01*
X95261Y-45233D01*
X95452Y-45100D02*
X95452Y-44966D01*
X95661Y-44909D02*
X95661Y-45100D01*
X95261Y-45100D01*
X95261Y-44909D01*
X95661Y-44528D02*
X95661Y-44757D01*
X95661Y-44642D02*
X95261Y-44642D01*
X95319Y-44680D01*
X95357Y-44719D01*
X95376Y-44757D01*
X106176Y-30761D02*
X106309Y-31161D01*
X106442Y-30761D01*
X106785Y-31161D02*
X106557Y-31161D01*
X106671Y-31161D02*
X106671Y-30761D01*
X106633Y-30819D01*
X106595Y-30857D01*
X106557Y-30876D01*
X103261Y-46509D02*
X103661Y-46376D01*
X103261Y-46242D01*
X103547Y-46128D02*
X103547Y-45938D01*
X103661Y-46166D02*
X103261Y-46033D01*
X103661Y-45900D01*
X103661Y-45576D02*
X103661Y-45766D01*
X103261Y-45766D01*
X103261Y-45500D02*
X103661Y-45366D01*
X103261Y-45233D01*
X103452Y-45100D02*
X103452Y-44966D01*
X103661Y-44909D02*
X103661Y-45100D01*
X103261Y-45100D01*
X103261Y-44909D01*
X103261Y-44661D02*
X103261Y-44623D01*
X103280Y-44585D01*
X103300Y-44566D01*
X103338Y-44547D01*
X103414Y-44528D01*
X103509Y-44528D01*
X103585Y-44547D01*
X103623Y-44566D01*
X103642Y-44585D01*
X103661Y-44623D01*
X103661Y-44661D01*
X103642Y-44700D01*
X103623Y-44719D01*
X103585Y-44738D01*
X103509Y-44757D01*
X103414Y-44757D01*
X103338Y-44738D01*
X103300Y-44719D01*
X103280Y-44700D01*
X103261Y-44661D01*
X94233Y-41911D02*
X94100Y-41721D01*
X94004Y-41911D02*
X94004Y-41511D01*
X94157Y-41511D01*
X94195Y-41530D01*
X94214Y-41550D01*
X94233Y-41588D01*
X94233Y-41645D01*
X94214Y-41683D01*
X94195Y-41702D01*
X94157Y-41721D01*
X94004Y-41721D01*
X94404Y-41911D02*
X94404Y-41511D01*
X94557Y-41511D01*
X94595Y-41530D01*
X94614Y-41550D01*
X94633Y-41588D01*
X94633Y-41645D01*
X94614Y-41683D01*
X94595Y-41702D01*
X94557Y-41721D01*
X94404Y-41721D01*
X95014Y-41911D02*
X94785Y-41911D01*
X94900Y-41911D02*
X94900Y-41511D01*
X94861Y-41569D01*
X94823Y-41607D01*
X94785Y-41626D01*
X94233Y-44411D02*
X94004Y-44411D01*
X94119Y-44411D02*
X94119Y-44011D01*
X94080Y-44069D01*
X94042Y-44107D01*
X94004Y-44126D01*
X94595Y-44011D02*
X94404Y-44011D01*
X94385Y-44202D01*
X94404Y-44183D01*
X94442Y-44164D01*
X94538Y-44164D01*
X94576Y-44183D01*
X94595Y-44202D01*
X94614Y-44240D01*
X94614Y-44335D01*
X94595Y-44373D01*
X94576Y-44392D01*
X94538Y-44411D01*
X94442Y-44411D01*
X94404Y-44392D01*
X94385Y-44373D01*
X94861Y-44011D02*
X94900Y-44011D01*
X94938Y-44030D01*
X94957Y-44050D01*
X94976Y-44088D01*
X94995Y-44164D01*
X94995Y-44259D01*
X94976Y-44335D01*
X94957Y-44373D01*
X94938Y-44392D01*
X94900Y-44411D01*
X94861Y-44411D01*
X94823Y-44392D01*
X94804Y-44373D01*
X94785Y-44335D01*
X94766Y-44259D01*
X94766Y-44164D01*
X94785Y-44088D01*
X94804Y-44050D01*
X94823Y-44030D01*
X94861Y-44011D01*
X62233Y-41911D02*
X62100Y-41721D01*
X62004Y-41911D02*
X62004Y-41511D01*
X62157Y-41511D01*
X62195Y-41530D01*
X62214Y-41550D01*
X62233Y-41588D01*
X62233Y-41645D01*
X62214Y-41683D01*
X62195Y-41702D01*
X62157Y-41721D01*
X62004Y-41721D01*
X62404Y-41911D02*
X62404Y-41511D01*
X62557Y-41511D01*
X62595Y-41530D01*
X62614Y-41550D01*
X62633Y-41588D01*
X62633Y-41645D01*
X62614Y-41683D01*
X62595Y-41702D01*
X62557Y-41721D01*
X62404Y-41721D01*
X62785Y-41550D02*
X62804Y-41530D01*
X62842Y-41511D01*
X62938Y-41511D01*
X62976Y-41530D01*
X62995Y-41550D01*
X63014Y-41588D01*
X63014Y-41626D01*
X62995Y-41683D01*
X62766Y-41911D01*
X63014Y-41911D01*
X62233Y-44411D02*
X62004Y-44411D01*
X62119Y-44411D02*
X62119Y-44011D01*
X62080Y-44069D01*
X62042Y-44107D01*
X62004Y-44126D01*
X62595Y-44011D02*
X62404Y-44011D01*
X62385Y-44202D01*
X62404Y-44183D01*
X62442Y-44164D01*
X62538Y-44164D01*
X62576Y-44183D01*
X62595Y-44202D01*
X62614Y-44240D01*
X62614Y-44335D01*
X62595Y-44373D01*
X62576Y-44392D01*
X62538Y-44411D01*
X62442Y-44411D01*
X62404Y-44392D01*
X62385Y-44373D01*
X62861Y-44011D02*
X62900Y-44011D01*
X62938Y-44030D01*
X62957Y-44050D01*
X62976Y-44088D01*
X62995Y-44164D01*
X62995Y-44259D01*
X62976Y-44335D01*
X62957Y-44373D01*
X62938Y-44392D01*
X62900Y-44411D01*
X62861Y-44411D01*
X62823Y-44392D01*
X62804Y-44373D01*
X62785Y-44335D01*
X62766Y-44259D01*
X62766Y-44164D01*
X62785Y-44088D01*
X62804Y-44050D01*
X62823Y-44030D01*
X62861Y-44011D01*
X30233Y-41911D02*
X30100Y-41721D01*
X30004Y-41911D02*
X30004Y-41511D01*
X30157Y-41511D01*
X30195Y-41530D01*
X30214Y-41550D01*
X30233Y-41588D01*
X30233Y-41645D01*
X30214Y-41683D01*
X30195Y-41702D01*
X30157Y-41721D01*
X30004Y-41721D01*
X30404Y-41911D02*
X30404Y-41511D01*
X30557Y-41511D01*
X30595Y-41530D01*
X30614Y-41550D01*
X30633Y-41588D01*
X30633Y-41645D01*
X30614Y-41683D01*
X30595Y-41702D01*
X30557Y-41721D01*
X30404Y-41721D01*
X30766Y-41511D02*
X31014Y-41511D01*
X30880Y-41664D01*
X30938Y-41664D01*
X30976Y-41683D01*
X30995Y-41702D01*
X31014Y-41740D01*
X31014Y-41835D01*
X30995Y-41873D01*
X30976Y-41892D01*
X30938Y-41911D01*
X30823Y-41911D01*
X30785Y-41892D01*
X30766Y-41873D01*
X30233Y-44411D02*
X30004Y-44411D01*
X30119Y-44411D02*
X30119Y-44011D01*
X30080Y-44069D01*
X30042Y-44107D01*
X30004Y-44126D01*
X30595Y-44011D02*
X30404Y-44011D01*
X30385Y-44202D01*
X30404Y-44183D01*
X30442Y-44164D01*
X30538Y-44164D01*
X30576Y-44183D01*
X30595Y-44202D01*
X30614Y-44240D01*
X30614Y-44335D01*
X30595Y-44373D01*
X30576Y-44392D01*
X30538Y-44411D01*
X30442Y-44411D01*
X30404Y-44392D01*
X30385Y-44373D01*
X30861Y-44011D02*
X30900Y-44011D01*
X30938Y-44030D01*
X30957Y-44050D01*
X30976Y-44088D01*
X30995Y-44164D01*
X30995Y-44259D01*
X30976Y-44335D01*
X30957Y-44373D01*
X30938Y-44392D01*
X30900Y-44411D01*
X30861Y-44411D01*
X30823Y-44392D01*
X30804Y-44373D01*
X30785Y-44335D01*
X30766Y-44259D01*
X30766Y-44164D01*
X30785Y-44088D01*
X30804Y-44050D01*
X30823Y-44030D01*
X30861Y-44011D01*
X74176Y-30761D02*
X74309Y-31161D01*
X74442Y-30761D01*
X74766Y-30761D02*
X74576Y-30761D01*
X74557Y-30952D01*
X74576Y-30933D01*
X74614Y-30914D01*
X74709Y-30914D01*
X74747Y-30933D01*
X74766Y-30952D01*
X74785Y-30990D01*
X74785Y-31085D01*
X74766Y-31123D01*
X74747Y-31142D01*
X74709Y-31161D01*
X74614Y-31161D01*
X74576Y-31142D01*
X74557Y-31123D01*
X71261Y-46509D02*
X71661Y-46376D01*
X71261Y-46242D01*
X71547Y-46128D02*
X71547Y-45938D01*
X71661Y-46166D02*
X71261Y-46033D01*
X71661Y-45900D01*
X71661Y-45576D02*
X71661Y-45766D01*
X71261Y-45766D01*
X71261Y-45500D02*
X71661Y-45366D01*
X71261Y-45233D01*
X71452Y-45100D02*
X71452Y-44966D01*
X71661Y-44909D02*
X71661Y-45100D01*
X71261Y-45100D01*
X71261Y-44909D01*
X71395Y-44566D02*
X71661Y-44566D01*
X71242Y-44661D02*
X71528Y-44757D01*
X71528Y-44509D01*
X66176Y-30761D02*
X66309Y-31161D01*
X66442Y-30761D01*
X66747Y-30761D02*
X66671Y-30761D01*
X66633Y-30780D01*
X66614Y-30800D01*
X66576Y-30857D01*
X66557Y-30933D01*
X66557Y-31085D01*
X66576Y-31123D01*
X66595Y-31142D01*
X66633Y-31161D01*
X66709Y-31161D01*
X66747Y-31142D01*
X66766Y-31123D01*
X66785Y-31085D01*
X66785Y-30990D01*
X66766Y-30952D01*
X66747Y-30933D01*
X66709Y-30914D01*
X66633Y-30914D01*
X66595Y-30933D01*
X66576Y-30952D01*
X66557Y-30990D01*
X63261Y-46509D02*
X63661Y-46376D01*
X63261Y-46242D01*
X63547Y-46128D02*
X63547Y-45938D01*
X63661Y-46166D02*
X63261Y-46033D01*
X63661Y-45900D01*
X63661Y-45576D02*
X63661Y-45766D01*
X63261Y-45766D01*
X63261Y-45500D02*
X63661Y-45366D01*
X63261Y-45233D01*
X63452Y-45100D02*
X63452Y-44966D01*
X63661Y-44909D02*
X63661Y-45100D01*
X63261Y-45100D01*
X63261Y-44909D01*
X63261Y-44547D02*
X63261Y-44738D01*
X63452Y-44757D01*
X63433Y-44738D01*
X63414Y-44700D01*
X63414Y-44604D01*
X63433Y-44566D01*
X63452Y-44547D01*
X63490Y-44528D01*
X63585Y-44528D01*
X63623Y-44547D01*
X63642Y-44566D01*
X63661Y-44604D01*
X63661Y-44700D01*
X63642Y-44738D01*
X63623Y-44757D01*
X50176Y-30761D02*
X50309Y-31161D01*
X50442Y-30761D01*
X50633Y-30933D02*
X50595Y-30914D01*
X50576Y-30895D01*
X50557Y-30857D01*
X50557Y-30838D01*
X50576Y-30800D01*
X50595Y-30780D01*
X50633Y-30761D01*
X50709Y-30761D01*
X50747Y-30780D01*
X50766Y-30800D01*
X50785Y-30838D01*
X50785Y-30857D01*
X50766Y-30895D01*
X50747Y-30914D01*
X50709Y-30933D01*
X50633Y-30933D01*
X50595Y-30952D01*
X50576Y-30971D01*
X50557Y-31009D01*
X50557Y-31085D01*
X50576Y-31123D01*
X50595Y-31142D01*
X50633Y-31161D01*
X50709Y-31161D01*
X50747Y-31142D01*
X50766Y-31123D01*
X50785Y-31085D01*
X50785Y-31009D01*
X50766Y-30971D01*
X50747Y-30952D01*
X50709Y-30933D01*
X53261Y-46509D02*
X53661Y-46376D01*
X53261Y-46242D01*
X53547Y-46128D02*
X53547Y-45938D01*
X53661Y-46166D02*
X53261Y-46033D01*
X53661Y-45900D01*
X53661Y-45576D02*
X53661Y-45766D01*
X53261Y-45766D01*
X53261Y-45500D02*
X53661Y-45366D01*
X53261Y-45233D01*
X53452Y-45100D02*
X53452Y-44966D01*
X53661Y-44909D02*
X53661Y-45100D01*
X53261Y-45100D01*
X53261Y-44909D01*
X53261Y-44776D02*
X53261Y-44509D01*
X53661Y-44680D01*
X58176Y-30761D02*
X58309Y-31161D01*
X58442Y-30761D01*
X58538Y-30761D02*
X58804Y-30761D01*
X58633Y-31161D01*
X55261Y-46509D02*
X55661Y-46376D01*
X55261Y-46242D01*
X55547Y-46128D02*
X55547Y-45938D01*
X55661Y-46166D02*
X55261Y-46033D01*
X55661Y-45900D01*
X55661Y-45576D02*
X55661Y-45766D01*
X55261Y-45766D01*
X55261Y-45500D02*
X55661Y-45366D01*
X55261Y-45233D01*
X55452Y-45100D02*
X55452Y-44966D01*
X55661Y-44909D02*
X55661Y-45100D01*
X55261Y-45100D01*
X55261Y-44909D01*
X55261Y-44566D02*
X55261Y-44642D01*
X55280Y-44680D01*
X55300Y-44700D01*
X55357Y-44738D01*
X55433Y-44757D01*
X55585Y-44757D01*
X55623Y-44738D01*
X55642Y-44719D01*
X55661Y-44680D01*
X55661Y-44604D01*
X55642Y-44566D01*
X55623Y-44547D01*
X55585Y-44528D01*
X55490Y-44528D01*
X55452Y-44547D01*
X55433Y-44566D01*
X55414Y-44604D01*
X55414Y-44680D01*
X55433Y-44719D01*
X55452Y-44738D01*
X55490Y-44757D01*
X82176Y-30761D02*
X82309Y-31161D01*
X82442Y-30761D01*
X82747Y-30895D02*
X82747Y-31161D01*
X82652Y-30742D02*
X82557Y-31028D01*
X82804Y-31028D01*
X79261Y-46509D02*
X79661Y-46376D01*
X79261Y-46242D01*
X79547Y-46128D02*
X79547Y-45938D01*
X79661Y-46166D02*
X79261Y-46033D01*
X79661Y-45900D01*
X79661Y-45576D02*
X79661Y-45766D01*
X79261Y-45766D01*
X79261Y-45500D02*
X79661Y-45366D01*
X79261Y-45233D01*
X79452Y-45100D02*
X79452Y-44966D01*
X79661Y-44909D02*
X79661Y-45100D01*
X79261Y-45100D01*
X79261Y-44909D01*
X79261Y-44776D02*
X79261Y-44528D01*
X79414Y-44661D01*
X79414Y-44604D01*
X79433Y-44566D01*
X79452Y-44547D01*
X79490Y-44528D01*
X79585Y-44528D01*
X79623Y-44547D01*
X79642Y-44566D01*
X79661Y-44604D01*
X79661Y-44719D01*
X79642Y-44757D01*
X79623Y-44776D01*
X25985Y-30761D02*
X26119Y-31161D01*
X26252Y-30761D01*
X26595Y-31161D02*
X26366Y-31161D01*
X26480Y-31161D02*
X26480Y-30761D01*
X26442Y-30819D01*
X26404Y-30857D01*
X26366Y-30876D01*
X26976Y-31161D02*
X26747Y-31161D01*
X26861Y-31161D02*
X26861Y-30761D01*
X26823Y-30819D01*
X26785Y-30857D01*
X26747Y-30876D01*
X23261Y-46699D02*
X23661Y-46566D01*
X23261Y-46433D01*
X23547Y-46319D02*
X23547Y-46128D01*
X23661Y-46357D02*
X23261Y-46223D01*
X23661Y-46090D01*
X23661Y-45766D02*
X23661Y-45957D01*
X23261Y-45957D01*
X23261Y-45690D02*
X23661Y-45557D01*
X23261Y-45423D01*
X23452Y-45290D02*
X23452Y-45157D01*
X23661Y-45100D02*
X23661Y-45290D01*
X23261Y-45290D01*
X23261Y-45100D01*
X23661Y-44719D02*
X23661Y-44947D01*
X23661Y-44833D02*
X23261Y-44833D01*
X23319Y-44871D01*
X23357Y-44909D01*
X23376Y-44947D01*
X23261Y-44471D02*
X23261Y-44433D01*
X23280Y-44395D01*
X23300Y-44376D01*
X23338Y-44357D01*
X23414Y-44338D01*
X23509Y-44338D01*
X23585Y-44357D01*
X23623Y-44376D01*
X23642Y-44395D01*
X23661Y-44433D01*
X23661Y-44471D01*
X23642Y-44509D01*
X23623Y-44528D01*
X23585Y-44547D01*
X23509Y-44566D01*
X23414Y-44566D01*
X23338Y-44547D01*
X23300Y-44528D01*
X23280Y-44509D01*
X23261Y-44471D01*
X17985Y-30761D02*
X18119Y-31161D01*
X18252Y-30761D01*
X18595Y-31161D02*
X18366Y-31161D01*
X18480Y-31161D02*
X18480Y-30761D01*
X18442Y-30819D01*
X18404Y-30857D01*
X18366Y-30876D01*
X18747Y-30800D02*
X18766Y-30780D01*
X18804Y-30761D01*
X18900Y-30761D01*
X18938Y-30780D01*
X18957Y-30800D01*
X18976Y-30838D01*
X18976Y-30876D01*
X18957Y-30933D01*
X18728Y-31161D01*
X18976Y-31161D01*
X15261Y-46699D02*
X15661Y-46566D01*
X15261Y-46433D01*
X15547Y-46319D02*
X15547Y-46128D01*
X15661Y-46357D02*
X15261Y-46223D01*
X15661Y-46090D01*
X15661Y-45766D02*
X15661Y-45957D01*
X15261Y-45957D01*
X15261Y-45690D02*
X15661Y-45557D01*
X15261Y-45423D01*
X15452Y-45290D02*
X15452Y-45157D01*
X15661Y-45100D02*
X15661Y-45290D01*
X15261Y-45290D01*
X15261Y-45100D01*
X15661Y-44719D02*
X15661Y-44947D01*
X15661Y-44833D02*
X15261Y-44833D01*
X15319Y-44871D01*
X15357Y-44909D01*
X15376Y-44947D01*
X15661Y-44338D02*
X15661Y-44566D01*
X15661Y-44452D02*
X15261Y-44452D01*
X15319Y-44490D01*
X15357Y-44528D01*
X15376Y-44566D01*
X33985Y-30761D02*
X34119Y-31161D01*
X34252Y-30761D01*
X34595Y-31161D02*
X34366Y-31161D01*
X34480Y-31161D02*
X34480Y-30761D01*
X34442Y-30819D01*
X34404Y-30857D01*
X34366Y-30876D01*
X34842Y-30761D02*
X34880Y-30761D01*
X34919Y-30780D01*
X34938Y-30800D01*
X34957Y-30838D01*
X34976Y-30914D01*
X34976Y-31009D01*
X34957Y-31085D01*
X34938Y-31123D01*
X34919Y-31142D01*
X34880Y-31161D01*
X34842Y-31161D01*
X34804Y-31142D01*
X34785Y-31123D01*
X34766Y-31085D01*
X34747Y-31009D01*
X34747Y-30914D01*
X34766Y-30838D01*
X34785Y-30800D01*
X34804Y-30780D01*
X34842Y-30761D01*
X31261Y-46509D02*
X31661Y-46376D01*
X31261Y-46242D01*
X31547Y-46128D02*
X31547Y-45938D01*
X31661Y-46166D02*
X31261Y-46033D01*
X31661Y-45900D01*
X31661Y-45576D02*
X31661Y-45766D01*
X31261Y-45766D01*
X31261Y-45500D02*
X31661Y-45366D01*
X31261Y-45233D01*
X31452Y-45100D02*
X31452Y-44966D01*
X31661Y-44909D02*
X31661Y-45100D01*
X31261Y-45100D01*
X31261Y-44909D01*
X31661Y-44719D02*
X31661Y-44642D01*
X31642Y-44604D01*
X31623Y-44585D01*
X31566Y-44547D01*
X31490Y-44528D01*
X31338Y-44528D01*
X31300Y-44547D01*
X31280Y-44566D01*
X31261Y-44604D01*
X31261Y-44680D01*
X31280Y-44719D01*
X31300Y-44738D01*
X31338Y-44757D01*
X31433Y-44757D01*
X31471Y-44738D01*
X31490Y-44719D01*
X31509Y-44680D01*
X31509Y-44604D01*
X31490Y-44566D01*
X31471Y-44547D01*
X31433Y-44528D01*
X42176Y-30761D02*
X42309Y-31161D01*
X42442Y-30761D01*
X42595Y-31161D02*
X42671Y-31161D01*
X42709Y-31142D01*
X42728Y-31123D01*
X42766Y-31066D01*
X42785Y-30990D01*
X42785Y-30838D01*
X42766Y-30800D01*
X42747Y-30780D01*
X42709Y-30761D01*
X42633Y-30761D01*
X42595Y-30780D01*
X42576Y-30800D01*
X42557Y-30838D01*
X42557Y-30933D01*
X42576Y-30971D01*
X42595Y-30990D01*
X42633Y-31009D01*
X42709Y-31009D01*
X42747Y-30990D01*
X42766Y-30971D01*
X42785Y-30933D01*
X39261Y-46509D02*
X39661Y-46376D01*
X39261Y-46242D01*
X39547Y-46128D02*
X39547Y-45938D01*
X39661Y-46166D02*
X39261Y-46033D01*
X39661Y-45900D01*
X39661Y-45576D02*
X39661Y-45766D01*
X39261Y-45766D01*
X39261Y-45500D02*
X39661Y-45366D01*
X39261Y-45233D01*
X39452Y-45100D02*
X39452Y-44966D01*
X39661Y-44909D02*
X39661Y-45100D01*
X39261Y-45100D01*
X39261Y-44909D01*
X39433Y-44680D02*
X39414Y-44719D01*
X39395Y-44738D01*
X39357Y-44757D01*
X39338Y-44757D01*
X39300Y-44738D01*
X39280Y-44719D01*
X39261Y-44680D01*
X39261Y-44604D01*
X39280Y-44566D01*
X39300Y-44547D01*
X39338Y-44528D01*
X39357Y-44528D01*
X39395Y-44547D01*
X39414Y-44566D01*
X39433Y-44604D01*
X39433Y-44680D01*
X39452Y-44719D01*
X39471Y-44738D01*
X39509Y-44757D01*
X39585Y-44757D01*
X39623Y-44738D01*
X39642Y-44719D01*
X39661Y-44680D01*
X39661Y-44604D01*
X39642Y-44566D01*
X39623Y-44547D01*
X39585Y-44528D01*
X39509Y-44528D01*
X39471Y-44547D01*
X39452Y-44566D01*
X39433Y-44604D01*
X12704Y-36161D02*
X12704Y-35761D01*
X12857Y-35761D01*
X12895Y-35780D01*
X12914Y-35800D01*
X12933Y-35838D01*
X12933Y-35895D01*
X12914Y-35933D01*
X12895Y-35952D01*
X12857Y-35971D01*
X12704Y-35971D01*
X13314Y-36161D02*
X13085Y-36161D01*
X13200Y-36161D02*
X13200Y-35761D01*
X13161Y-35819D01*
X13123Y-35857D01*
X13085Y-35876D01*
X9585Y-36009D02*
X9890Y-36009D01*
X9738Y-36161D02*
X9738Y-35857D01*
X10271Y-35761D02*
X10080Y-35761D01*
X10061Y-35952D01*
X10080Y-35933D01*
X10119Y-35914D01*
X10214Y-35914D01*
X10252Y-35933D01*
X10271Y-35952D01*
X10290Y-35990D01*
X10290Y-36085D01*
X10271Y-36123D01*
X10252Y-36142D01*
X10214Y-36161D01*
X10119Y-36161D01*
X10080Y-36142D01*
X10061Y-36123D01*
X10404Y-35761D02*
X10538Y-36161D01*
X10671Y-35761D01*
X10804Y-36161D02*
X10804Y-35761D01*
X10900Y-35761D01*
X10957Y-35780D01*
X10995Y-35819D01*
X11014Y-35857D01*
X11033Y-35933D01*
X11033Y-35990D01*
X11014Y-36066D01*
X10995Y-36104D01*
X10957Y-36142D01*
X10900Y-36161D01*
X10804Y-36161D01*
X11433Y-36123D02*
X11414Y-36142D01*
X11357Y-36161D01*
X11319Y-36161D01*
X11261Y-36142D01*
X11223Y-36104D01*
X11204Y-36066D01*
X11185Y-35990D01*
X11185Y-35933D01*
X11204Y-35857D01*
X11223Y-35819D01*
X11261Y-35780D01*
X11319Y-35761D01*
X11357Y-35761D01*
X11414Y-35780D01*
X11433Y-35800D01*
X64704Y-47661D02*
X64704Y-47261D01*
X64800Y-47261D01*
X64857Y-47280D01*
X64895Y-47319D01*
X64914Y-47357D01*
X64933Y-47433D01*
X64933Y-47490D01*
X64914Y-47566D01*
X64895Y-47604D01*
X64857Y-47642D01*
X64800Y-47661D01*
X64704Y-47661D01*
X65066Y-47261D02*
X65333Y-47261D01*
X65161Y-47661D01*
X48704Y-47661D02*
X48704Y-47261D01*
X48800Y-47261D01*
X48857Y-47280D01*
X48895Y-47319D01*
X48914Y-47357D01*
X48933Y-47433D01*
X48933Y-47490D01*
X48914Y-47566D01*
X48895Y-47604D01*
X48857Y-47642D01*
X48800Y-47661D01*
X48704Y-47661D01*
X49123Y-47661D02*
X49200Y-47661D01*
X49238Y-47642D01*
X49257Y-47623D01*
X49295Y-47566D01*
X49314Y-47490D01*
X49314Y-47338D01*
X49295Y-47300D01*
X49276Y-47280D01*
X49238Y-47261D01*
X49161Y-47261D01*
X49123Y-47280D01*
X49104Y-47300D01*
X49085Y-47338D01*
X49085Y-47433D01*
X49104Y-47471D01*
X49123Y-47490D01*
X49161Y-47509D01*
X49238Y-47509D01*
X49276Y-47490D01*
X49295Y-47471D01*
X49314Y-47433D01*
X56704Y-47661D02*
X56704Y-47261D01*
X56800Y-47261D01*
X56857Y-47280D01*
X56895Y-47319D01*
X56914Y-47357D01*
X56933Y-47433D01*
X56933Y-47490D01*
X56914Y-47566D01*
X56895Y-47604D01*
X56857Y-47642D01*
X56800Y-47661D01*
X56704Y-47661D01*
X57161Y-47433D02*
X57123Y-47414D01*
X57104Y-47395D01*
X57085Y-47357D01*
X57085Y-47338D01*
X57104Y-47300D01*
X57123Y-47280D01*
X57161Y-47261D01*
X57238Y-47261D01*
X57276Y-47280D01*
X57295Y-47300D01*
X57314Y-47338D01*
X57314Y-47357D01*
X57295Y-47395D01*
X57276Y-47414D01*
X57238Y-47433D01*
X57161Y-47433D01*
X57123Y-47452D01*
X57104Y-47471D01*
X57085Y-47509D01*
X57085Y-47585D01*
X57104Y-47623D01*
X57123Y-47642D01*
X57161Y-47661D01*
X57238Y-47661D01*
X57276Y-47642D01*
X57295Y-47623D01*
X57314Y-47585D01*
X57314Y-47509D01*
X57295Y-47471D01*
X57276Y-47452D01*
X57238Y-47433D01*
X80704Y-47661D02*
X80704Y-47261D01*
X80800Y-47261D01*
X80857Y-47280D01*
X80895Y-47319D01*
X80914Y-47357D01*
X80933Y-47433D01*
X80933Y-47490D01*
X80914Y-47566D01*
X80895Y-47604D01*
X80857Y-47642D01*
X80800Y-47661D01*
X80704Y-47661D01*
X81295Y-47261D02*
X81104Y-47261D01*
X81085Y-47452D01*
X81104Y-47433D01*
X81142Y-47414D01*
X81238Y-47414D01*
X81276Y-47433D01*
X81295Y-47452D01*
X81314Y-47490D01*
X81314Y-47585D01*
X81295Y-47623D01*
X81276Y-47642D01*
X81238Y-47661D01*
X81142Y-47661D01*
X81104Y-47642D01*
X81085Y-47623D01*
X40514Y-47661D02*
X40514Y-47261D01*
X40609Y-47261D01*
X40666Y-47280D01*
X40704Y-47319D01*
X40723Y-47357D01*
X40742Y-47433D01*
X40742Y-47490D01*
X40723Y-47566D01*
X40704Y-47604D01*
X40666Y-47642D01*
X40609Y-47661D01*
X40514Y-47661D01*
X41123Y-47661D02*
X40895Y-47661D01*
X41009Y-47661D02*
X41009Y-47261D01*
X40971Y-47319D01*
X40933Y-47357D01*
X40895Y-47376D01*
X41371Y-47261D02*
X41409Y-47261D01*
X41447Y-47280D01*
X41466Y-47300D01*
X41485Y-47338D01*
X41504Y-47414D01*
X41504Y-47509D01*
X41485Y-47585D01*
X41466Y-47623D01*
X41447Y-47642D01*
X41409Y-47661D01*
X41371Y-47661D01*
X41333Y-47642D01*
X41314Y-47623D01*
X41295Y-47585D01*
X41276Y-47509D01*
X41276Y-47414D01*
X41295Y-47338D01*
X41314Y-47300D01*
X41333Y-47280D01*
X41371Y-47261D01*
X72704Y-47661D02*
X72704Y-47261D01*
X72800Y-47261D01*
X72857Y-47280D01*
X72895Y-47319D01*
X72914Y-47357D01*
X72933Y-47433D01*
X72933Y-47490D01*
X72914Y-47566D01*
X72895Y-47604D01*
X72857Y-47642D01*
X72800Y-47661D01*
X72704Y-47661D01*
X73276Y-47261D02*
X73200Y-47261D01*
X73161Y-47280D01*
X73142Y-47300D01*
X73104Y-47357D01*
X73085Y-47433D01*
X73085Y-47585D01*
X73104Y-47623D01*
X73123Y-47642D01*
X73161Y-47661D01*
X73238Y-47661D01*
X73276Y-47642D01*
X73295Y-47623D01*
X73314Y-47585D01*
X73314Y-47490D01*
X73295Y-47452D01*
X73276Y-47433D01*
X73238Y-47414D01*
X73161Y-47414D01*
X73123Y-47433D01*
X73104Y-47452D01*
X73085Y-47490D01*
X32514Y-47661D02*
X32514Y-47261D01*
X32609Y-47261D01*
X32666Y-47280D01*
X32704Y-47319D01*
X32723Y-47357D01*
X32742Y-47433D01*
X32742Y-47490D01*
X32723Y-47566D01*
X32704Y-47604D01*
X32666Y-47642D01*
X32609Y-47661D01*
X32514Y-47661D01*
X33123Y-47661D02*
X32895Y-47661D01*
X33009Y-47661D02*
X33009Y-47261D01*
X32971Y-47319D01*
X32933Y-47357D01*
X32895Y-47376D01*
X33504Y-47661D02*
X33276Y-47661D01*
X33390Y-47661D02*
X33390Y-47261D01*
X33352Y-47319D01*
X33314Y-47357D01*
X33276Y-47376D01*
X16514Y-47661D02*
X16514Y-47261D01*
X16609Y-47261D01*
X16666Y-47280D01*
X16704Y-47319D01*
X16723Y-47357D01*
X16742Y-47433D01*
X16742Y-47490D01*
X16723Y-47566D01*
X16704Y-47604D01*
X16666Y-47642D01*
X16609Y-47661D01*
X16514Y-47661D01*
X17123Y-47661D02*
X16895Y-47661D01*
X17009Y-47661D02*
X17009Y-47261D01*
X16971Y-47319D01*
X16933Y-47357D01*
X16895Y-47376D01*
X17257Y-47261D02*
X17504Y-47261D01*
X17371Y-47414D01*
X17428Y-47414D01*
X17466Y-47433D01*
X17485Y-47452D01*
X17504Y-47490D01*
X17504Y-47585D01*
X17485Y-47623D01*
X17466Y-47642D01*
X17428Y-47661D01*
X17314Y-47661D01*
X17276Y-47642D01*
X17257Y-47623D01*
X24514Y-47661D02*
X24514Y-47261D01*
X24609Y-47261D01*
X24666Y-47280D01*
X24704Y-47319D01*
X24723Y-47357D01*
X24742Y-47433D01*
X24742Y-47490D01*
X24723Y-47566D01*
X24704Y-47604D01*
X24666Y-47642D01*
X24609Y-47661D01*
X24514Y-47661D01*
X25123Y-47661D02*
X24895Y-47661D01*
X25009Y-47661D02*
X25009Y-47261D01*
X24971Y-47319D01*
X24933Y-47357D01*
X24895Y-47376D01*
X25276Y-47300D02*
X25295Y-47280D01*
X25333Y-47261D01*
X25428Y-47261D01*
X25466Y-47280D01*
X25485Y-47300D01*
X25504Y-47338D01*
X25504Y-47376D01*
X25485Y-47433D01*
X25257Y-47661D01*
X25504Y-47661D01*
X8204Y-44161D02*
X8204Y-43761D01*
X8300Y-43761D01*
X8357Y-43780D01*
X8395Y-43819D01*
X8414Y-43857D01*
X8433Y-43933D01*
X8433Y-43990D01*
X8414Y-44066D01*
X8395Y-44104D01*
X8357Y-44142D01*
X8300Y-44161D01*
X8204Y-44161D01*
X8814Y-44161D02*
X8585Y-44161D01*
X8700Y-44161D02*
X8700Y-43761D01*
X8661Y-43819D01*
X8623Y-43857D01*
X8585Y-43876D01*
X88704Y-47661D02*
X88704Y-47261D01*
X88800Y-47261D01*
X88857Y-47280D01*
X88895Y-47319D01*
X88914Y-47357D01*
X88933Y-47433D01*
X88933Y-47490D01*
X88914Y-47566D01*
X88895Y-47604D01*
X88857Y-47642D01*
X88800Y-47661D01*
X88704Y-47661D01*
X89276Y-47395D02*
X89276Y-47661D01*
X89180Y-47242D02*
X89085Y-47528D01*
X89333Y-47528D01*
X104704Y-47661D02*
X104704Y-47261D01*
X104800Y-47261D01*
X104857Y-47280D01*
X104895Y-47319D01*
X104914Y-47357D01*
X104933Y-47433D01*
X104933Y-47490D01*
X104914Y-47566D01*
X104895Y-47604D01*
X104857Y-47642D01*
X104800Y-47661D01*
X104704Y-47661D01*
X105085Y-47300D02*
X105104Y-47280D01*
X105142Y-47261D01*
X105238Y-47261D01*
X105276Y-47280D01*
X105295Y-47300D01*
X105314Y-47338D01*
X105314Y-47376D01*
X105295Y-47433D01*
X105066Y-47661D01*
X105314Y-47661D01*
X96704Y-47661D02*
X96704Y-47261D01*
X96800Y-47261D01*
X96857Y-47280D01*
X96895Y-47319D01*
X96914Y-47357D01*
X96933Y-47433D01*
X96933Y-47490D01*
X96914Y-47566D01*
X96895Y-47604D01*
X96857Y-47642D01*
X96800Y-47661D01*
X96704Y-47661D01*
X97066Y-47261D02*
X97314Y-47261D01*
X97180Y-47414D01*
X97238Y-47414D01*
X97276Y-47433D01*
X97295Y-47452D01*
X97314Y-47490D01*
X97314Y-47585D01*
X97295Y-47623D01*
X97276Y-47642D01*
X97238Y-47661D01*
X97123Y-47661D01*
X97085Y-47642D01*
X97066Y-47623D01*
X12433Y-45161D02*
X12300Y-44971D01*
X12204Y-45161D02*
X12204Y-44761D01*
X12357Y-44761D01*
X12395Y-44780D01*
X12414Y-44800D01*
X12433Y-44838D01*
X12433Y-44895D01*
X12414Y-44933D01*
X12395Y-44952D01*
X12357Y-44971D01*
X12204Y-44971D01*
X12814Y-45161D02*
X12585Y-45161D01*
X12700Y-45161D02*
X12700Y-44761D01*
X12661Y-44819D01*
X12623Y-44857D01*
X12585Y-44876D01*
X12233Y-43161D02*
X12004Y-43161D01*
X12119Y-43161D02*
X12119Y-42761D01*
X12080Y-42819D01*
X12042Y-42857D01*
X12004Y-42876D01*
X12595Y-42761D02*
X12404Y-42761D01*
X12385Y-42952D01*
X12404Y-42933D01*
X12442Y-42914D01*
X12538Y-42914D01*
X12576Y-42933D01*
X12595Y-42952D01*
X12614Y-42990D01*
X12614Y-43085D01*
X12595Y-43123D01*
X12576Y-43142D01*
X12538Y-43161D01*
X12442Y-43161D01*
X12404Y-43142D01*
X12385Y-43123D01*
X12861Y-42761D02*
X12900Y-42761D01*
X12938Y-42780D01*
X12957Y-42800D01*
X12976Y-42838D01*
X12995Y-42914D01*
X12995Y-43009D01*
X12976Y-43085D01*
X12957Y-43123D01*
X12938Y-43142D01*
X12900Y-43161D01*
X12861Y-43161D01*
X12823Y-43142D01*
X12804Y-43123D01*
X12785Y-43085D01*
X12766Y-43009D01*
X12766Y-42914D01*
X12785Y-42838D01*
X12804Y-42800D01*
X12823Y-42780D01*
X12861Y-42761D01*
%LPC*%
G54D16*
X14500Y-49000D03*
X15000Y-30000D03*
X47000Y-49000D03*
X44500Y-30000D03*
G54D17*
X20000Y-49000D03*
X21000Y-49000D03*
X22000Y-49000D03*
X23000Y-49000D03*
X24000Y-49000D03*
X25000Y-49000D03*
X26000Y-49000D03*
X27000Y-49000D03*
X29000Y-49000D03*
X30000Y-49000D03*
X31000Y-49000D03*
X32000Y-49000D03*
X33000Y-49000D03*
X34000Y-49000D03*
X35000Y-49000D03*
X36000Y-49000D03*
X38000Y-49000D03*
X39000Y-49000D03*
X40000Y-49000D03*
X41000Y-49000D03*
X42000Y-49000D03*
X43000Y-49000D03*
X44000Y-49000D03*
X45000Y-49000D03*
X16400Y-30000D03*
X17400Y-30000D03*
X18400Y-30000D03*
X19400Y-30000D03*
X20400Y-30000D03*
X21400Y-30000D03*
X22400Y-30000D03*
X23400Y-30000D03*
X24400Y-30000D03*
X25400Y-30000D03*
X27000Y-30000D03*
X34000Y-30000D03*
X33000Y-30000D03*
X32000Y-30000D03*
X31000Y-30000D03*
X30000Y-30000D03*
X29000Y-30000D03*
X28000Y-30000D03*
X36000Y-30000D03*
X37000Y-30000D03*
X38000Y-30000D03*
X39000Y-30000D03*
X40000Y-30000D03*
X41000Y-30000D03*
X42000Y-30000D03*
X43000Y-30000D03*
G54D18*
X46000Y-30000D03*
X47000Y-30000D03*
X46000Y-31000D03*
X47000Y-31000D03*
X46000Y-32000D03*
X47000Y-32000D03*
X46000Y-33000D03*
X47000Y-33000D03*
X46000Y-34000D03*
X47000Y-34000D03*
X46000Y-35000D03*
X47000Y-35000D03*
X46000Y-36000D03*
X47000Y-36000D03*
X46000Y-37000D03*
X47000Y-37000D03*
X46000Y-38000D03*
X47000Y-38000D03*
X46000Y-39000D03*
X47000Y-39000D03*
X46000Y-40000D03*
X47000Y-40000D03*
X46000Y-41000D03*
X47000Y-41000D03*
X46000Y-42000D03*
X47000Y-42000D03*
X46000Y-43000D03*
X47000Y-43000D03*
X46000Y-44000D03*
X47000Y-44000D03*
X46000Y-45000D03*
X47000Y-45000D03*
X46000Y-46000D03*
X47000Y-46000D03*
X46000Y-47000D03*
X47000Y-47000D03*
G54D19*
X89000Y-36500D03*
X92000Y-36500D03*
X97000Y-36500D03*
X100000Y-36500D03*
X105000Y-36500D03*
X108000Y-36500D03*
G54D20*
X93750Y-43640D03*
X94250Y-43640D03*
X94750Y-43640D03*
X95250Y-43640D03*
X95250Y-42360D03*
X94750Y-42360D03*
X94250Y-42360D03*
X93750Y-42360D03*
X61750Y-43640D03*
X62250Y-43640D03*
X62750Y-43640D03*
X63250Y-43640D03*
X63250Y-42360D03*
X62750Y-42360D03*
X62250Y-42360D03*
X61750Y-42360D03*
X29750Y-43640D03*
X30250Y-43640D03*
X30750Y-43640D03*
X31250Y-43640D03*
X31250Y-42360D03*
X30750Y-42360D03*
X30250Y-42360D03*
X29750Y-42360D03*
G54D19*
X73000Y-36500D03*
X76000Y-36500D03*
X65000Y-36500D03*
X68000Y-36500D03*
X49000Y-36500D03*
X52000Y-36500D03*
X57000Y-36500D03*
X60000Y-36500D03*
X81000Y-36500D03*
X84000Y-36500D03*
X25000Y-36500D03*
X28000Y-36500D03*
X17000Y-36500D03*
X20000Y-36500D03*
X33000Y-36500D03*
X36000Y-36500D03*
X41000Y-36500D03*
X44000Y-36500D03*
G54D21*
X8680Y-39500D03*
G54D22*
X9860Y-39500D03*
G54D19*
X12220Y-39500D03*
G54D22*
X9470Y-41270D03*
X9470Y-37730D03*
G54D23*
X66915Y-47500D03*
X66085Y-47500D03*
X50915Y-47500D03*
X50085Y-47500D03*
X58915Y-47500D03*
X58085Y-47500D03*
X82915Y-47500D03*
X82085Y-47500D03*
X42915Y-47500D03*
X42085Y-47500D03*
X74915Y-47500D03*
X74085Y-47500D03*
X34915Y-47500D03*
X34085Y-47500D03*
X18915Y-47500D03*
X18085Y-47500D03*
X26915Y-47500D03*
X26085Y-47500D03*
X10415Y-44000D03*
X9585Y-44000D03*
X90915Y-47500D03*
X90085Y-47500D03*
X106915Y-47500D03*
X106085Y-47500D03*
X98915Y-47500D03*
X98085Y-47500D03*
G54D24*
X13100Y-44000D03*
X11900Y-44000D03*
G54D16*
X78500Y-49000D03*
X78500Y-30000D03*
X102500Y-49000D03*
X102500Y-30000D03*
M02*
