G04 (created by PCBNEW (2013-jul-07)-stable) date Wed 30 Jul 2014 03:33:50 PM EDT*
%MOIN*%
G04 Gerber Fmt 3.4, Leading zero omitted, Abs format*
%FSLAX34Y34*%
G01*
G70*
G90*
G04 APERTURE LIST*
%ADD10C,0.00590551*%
%ADD11C,0.009*%
%ADD12C,0.155*%
%ADD13O,0.06X0.1*%
%ADD14C,0.06*%
%ADD15R,0.047X0.047*%
%ADD16C,0.16*%
%ADD17R,0.028X0.041*%
%ADD18C,0.035*%
%ADD19C,0.036*%
%ADD20C,0.024*%
%ADD21C,0.016*%
%ADD22C,0.008*%
G04 APERTURE END LIST*
G54D10*
G54D11*
X89500Y-51500D02*
X43500Y-51500D01*
X43500Y-30500D02*
X89500Y-30500D01*
X43500Y-30500D02*
X43500Y-51500D01*
X89500Y-51500D02*
X89500Y-30500D01*
G54D12*
X50500Y-50500D03*
X51000Y-31500D03*
X83000Y-50500D03*
X80500Y-31500D03*
G54D13*
X56000Y-50500D03*
X57000Y-50500D03*
X58000Y-50500D03*
X59000Y-50500D03*
X60000Y-50500D03*
X61000Y-50500D03*
X62000Y-50500D03*
X63000Y-50500D03*
X65000Y-50500D03*
X66000Y-50500D03*
X67000Y-50500D03*
X68000Y-50500D03*
X69000Y-50500D03*
X70000Y-50500D03*
X71000Y-50500D03*
X72000Y-50500D03*
X74000Y-50500D03*
X75000Y-50500D03*
X76000Y-50500D03*
X77000Y-50500D03*
X78000Y-50500D03*
X79000Y-50500D03*
X80000Y-50500D03*
X81000Y-50500D03*
X52400Y-31500D03*
X53400Y-31500D03*
X54400Y-31500D03*
X55400Y-31500D03*
X56400Y-31500D03*
X57400Y-31500D03*
X58400Y-31500D03*
X59400Y-31500D03*
X60400Y-31500D03*
X61400Y-31500D03*
X63000Y-31500D03*
X70000Y-31500D03*
X69000Y-31500D03*
X68000Y-31500D03*
X67000Y-31500D03*
X66000Y-31500D03*
X65000Y-31500D03*
X64000Y-31500D03*
X72000Y-31500D03*
X73000Y-31500D03*
X74000Y-31500D03*
X75000Y-31500D03*
X76000Y-31500D03*
X77000Y-31500D03*
X78000Y-31500D03*
X79000Y-31500D03*
G54D14*
X82000Y-31500D03*
X83000Y-31500D03*
X82000Y-32500D03*
X83000Y-32500D03*
X82000Y-33500D03*
X83000Y-33500D03*
X82000Y-34500D03*
X83000Y-34500D03*
X82000Y-35500D03*
X83000Y-35500D03*
X82000Y-36500D03*
X83000Y-36500D03*
X82000Y-37500D03*
X83000Y-37500D03*
X82000Y-38500D03*
X83000Y-38500D03*
X82000Y-39500D03*
X83000Y-39500D03*
X82000Y-40500D03*
X83000Y-40500D03*
X82000Y-41500D03*
X83000Y-41500D03*
X82000Y-42500D03*
X83000Y-42500D03*
X82000Y-43500D03*
X83000Y-43500D03*
X82000Y-44500D03*
X83000Y-44500D03*
X82000Y-45500D03*
X83000Y-45500D03*
X82000Y-46500D03*
X83000Y-46500D03*
X82000Y-47500D03*
X83000Y-47500D03*
X82000Y-48500D03*
X83000Y-48500D03*
G54D15*
X66915Y-33000D03*
X66085Y-33000D03*
X76915Y-33000D03*
X76085Y-33000D03*
X56915Y-33000D03*
X56085Y-33000D03*
G54D16*
X58000Y-44500D03*
X55000Y-44500D03*
X68000Y-44500D03*
X65000Y-44500D03*
X78000Y-44500D03*
X75000Y-44500D03*
G54D17*
X51250Y-40360D03*
X50750Y-40360D03*
X50250Y-40360D03*
X49750Y-40360D03*
X49750Y-41640D03*
X50250Y-41640D03*
X50750Y-41640D03*
X51250Y-41640D03*
G54D15*
X47415Y-41000D03*
X46585Y-41000D03*
G54D18*
X75037Y-37182D03*
X61000Y-47250D03*
G54D19*
X50750Y-41640D02*
X50250Y-41640D01*
X50250Y-41640D02*
X49750Y-41640D01*
X50750Y-41640D02*
X51250Y-41640D01*
X52140Y-41640D02*
X55000Y-44500D01*
X51250Y-41640D02*
X52140Y-41640D01*
X73895Y-43395D02*
X75000Y-44500D01*
X66104Y-43395D02*
X73895Y-43395D01*
X65000Y-44500D02*
X66104Y-43395D01*
G54D20*
X76085Y-33000D02*
X76085Y-33455D01*
X76085Y-37182D02*
X76085Y-33455D01*
X78000Y-39097D02*
X76085Y-37182D01*
X78000Y-44500D02*
X78000Y-39097D01*
X76085Y-37182D02*
X75037Y-37182D01*
X63976Y-35563D02*
X66085Y-33455D01*
X63976Y-44929D02*
X63976Y-35563D01*
X64578Y-45532D02*
X63976Y-44929D01*
X66967Y-45532D02*
X64578Y-45532D01*
X68000Y-44500D02*
X66967Y-45532D01*
X66085Y-33000D02*
X66085Y-33455D01*
X58000Y-35370D02*
X56085Y-33455D01*
X58000Y-44500D02*
X58000Y-35370D01*
X56085Y-33000D02*
X56085Y-33455D01*
G54D21*
X61000Y-50500D02*
X61000Y-47250D01*
X62000Y-49819D02*
X61000Y-49819D01*
X62000Y-50500D02*
X62000Y-49819D01*
X61000Y-50500D02*
X61000Y-49819D01*
X55404Y-49819D02*
X61000Y-49819D01*
X46585Y-41000D02*
X55404Y-49819D01*
G54D22*
X56539Y-32765D02*
X56539Y-33000D01*
X56399Y-32624D02*
X56539Y-32765D01*
X55774Y-32624D02*
X56399Y-32624D01*
X49750Y-38649D02*
X55774Y-32624D01*
X49750Y-40360D02*
X49750Y-38649D01*
X56915Y-33000D02*
X56539Y-33000D01*
X66539Y-32765D02*
X66539Y-33000D01*
X66218Y-32443D02*
X66539Y-32765D01*
X55699Y-32443D02*
X66218Y-32443D01*
X49467Y-38676D02*
X55699Y-32443D01*
X49467Y-40643D02*
X49467Y-38676D01*
X49529Y-40705D02*
X49467Y-40643D01*
X50250Y-40705D02*
X49529Y-40705D01*
X66915Y-33000D02*
X66539Y-33000D01*
X50250Y-40360D02*
X50250Y-40705D01*
X50750Y-40360D02*
X50750Y-40705D01*
X76915Y-33000D02*
X76539Y-33000D01*
X50569Y-40885D02*
X50750Y-40705D01*
X49454Y-40885D02*
X50569Y-40885D01*
X49286Y-40717D02*
X49454Y-40885D01*
X49286Y-38601D02*
X49286Y-40717D01*
X55624Y-32263D02*
X49286Y-38601D01*
X76038Y-32263D02*
X55624Y-32263D01*
X76539Y-32765D02*
X76038Y-32263D01*
X76539Y-33000D02*
X76539Y-32765D01*
X51250Y-40360D02*
X51250Y-40705D01*
X47415Y-41000D02*
X47790Y-41000D01*
X50889Y-41065D02*
X51250Y-40705D01*
X47855Y-41065D02*
X50889Y-41065D01*
X47790Y-41000D02*
X47855Y-41065D01*
G54D10*
G36*
X89335Y-51335D02*
X83375Y-51335D01*
X83517Y-51276D01*
X83775Y-51018D01*
X83914Y-50682D01*
X83915Y-50318D01*
X83776Y-49982D01*
X83518Y-49724D01*
X83440Y-49691D01*
X83440Y-48412D01*
X83440Y-47412D01*
X83440Y-46412D01*
X83440Y-45412D01*
X83440Y-44412D01*
X83440Y-43412D01*
X83440Y-42412D01*
X83440Y-41412D01*
X83440Y-40412D01*
X83440Y-39412D01*
X83440Y-38412D01*
X83440Y-37412D01*
X83440Y-36412D01*
X83440Y-35412D01*
X83440Y-34412D01*
X83440Y-33412D01*
X83440Y-32412D01*
X83440Y-31412D01*
X83373Y-31251D01*
X83249Y-31127D01*
X83087Y-31060D01*
X82912Y-31059D01*
X82751Y-31126D01*
X82627Y-31250D01*
X82560Y-31412D01*
X82559Y-31587D01*
X82626Y-31748D01*
X82750Y-31872D01*
X82912Y-31939D01*
X83087Y-31940D01*
X83248Y-31873D01*
X83372Y-31749D01*
X83439Y-31587D01*
X83440Y-31412D01*
X83440Y-32412D01*
X83373Y-32251D01*
X83249Y-32127D01*
X83087Y-32060D01*
X82912Y-32059D01*
X82751Y-32126D01*
X82627Y-32250D01*
X82560Y-32412D01*
X82559Y-32587D01*
X82626Y-32748D01*
X82750Y-32872D01*
X82912Y-32939D01*
X83087Y-32940D01*
X83248Y-32873D01*
X83372Y-32749D01*
X83439Y-32587D01*
X83440Y-32412D01*
X83440Y-33412D01*
X83373Y-33251D01*
X83249Y-33127D01*
X83087Y-33060D01*
X82912Y-33059D01*
X82751Y-33126D01*
X82627Y-33250D01*
X82560Y-33412D01*
X82559Y-33587D01*
X82626Y-33748D01*
X82750Y-33872D01*
X82912Y-33939D01*
X83087Y-33940D01*
X83248Y-33873D01*
X83372Y-33749D01*
X83439Y-33587D01*
X83440Y-33412D01*
X83440Y-34412D01*
X83373Y-34251D01*
X83249Y-34127D01*
X83087Y-34060D01*
X82912Y-34059D01*
X82751Y-34126D01*
X82627Y-34250D01*
X82560Y-34412D01*
X82559Y-34587D01*
X82626Y-34748D01*
X82750Y-34872D01*
X82912Y-34939D01*
X83087Y-34940D01*
X83248Y-34873D01*
X83372Y-34749D01*
X83439Y-34587D01*
X83440Y-34412D01*
X83440Y-35412D01*
X83373Y-35251D01*
X83249Y-35127D01*
X83087Y-35060D01*
X82912Y-35059D01*
X82751Y-35126D01*
X82627Y-35250D01*
X82560Y-35412D01*
X82559Y-35587D01*
X82626Y-35748D01*
X82750Y-35872D01*
X82912Y-35939D01*
X83087Y-35940D01*
X83248Y-35873D01*
X83372Y-35749D01*
X83439Y-35587D01*
X83440Y-35412D01*
X83440Y-36412D01*
X83373Y-36251D01*
X83249Y-36127D01*
X83087Y-36060D01*
X82912Y-36059D01*
X82751Y-36126D01*
X82627Y-36250D01*
X82560Y-36412D01*
X82559Y-36587D01*
X82626Y-36748D01*
X82750Y-36872D01*
X82912Y-36939D01*
X83087Y-36940D01*
X83248Y-36873D01*
X83372Y-36749D01*
X83439Y-36587D01*
X83440Y-36412D01*
X83440Y-37412D01*
X83373Y-37251D01*
X83249Y-37127D01*
X83087Y-37060D01*
X82912Y-37059D01*
X82751Y-37126D01*
X82627Y-37250D01*
X82560Y-37412D01*
X82559Y-37587D01*
X82626Y-37748D01*
X82750Y-37872D01*
X82912Y-37939D01*
X83087Y-37940D01*
X83248Y-37873D01*
X83372Y-37749D01*
X83439Y-37587D01*
X83440Y-37412D01*
X83440Y-38412D01*
X83373Y-38251D01*
X83249Y-38127D01*
X83087Y-38060D01*
X82912Y-38059D01*
X82751Y-38126D01*
X82627Y-38250D01*
X82560Y-38412D01*
X82559Y-38587D01*
X82626Y-38748D01*
X82750Y-38872D01*
X82912Y-38939D01*
X83087Y-38940D01*
X83248Y-38873D01*
X83372Y-38749D01*
X83439Y-38587D01*
X83440Y-38412D01*
X83440Y-39412D01*
X83373Y-39251D01*
X83249Y-39127D01*
X83087Y-39060D01*
X82912Y-39059D01*
X82751Y-39126D01*
X82627Y-39250D01*
X82560Y-39412D01*
X82559Y-39587D01*
X82626Y-39748D01*
X82750Y-39872D01*
X82912Y-39939D01*
X83087Y-39940D01*
X83248Y-39873D01*
X83372Y-39749D01*
X83439Y-39587D01*
X83440Y-39412D01*
X83440Y-40412D01*
X83373Y-40251D01*
X83249Y-40127D01*
X83087Y-40060D01*
X82912Y-40059D01*
X82751Y-40126D01*
X82627Y-40250D01*
X82560Y-40412D01*
X82559Y-40587D01*
X82626Y-40748D01*
X82750Y-40872D01*
X82912Y-40939D01*
X83087Y-40940D01*
X83248Y-40873D01*
X83372Y-40749D01*
X83439Y-40587D01*
X83440Y-40412D01*
X83440Y-41412D01*
X83373Y-41251D01*
X83249Y-41127D01*
X83087Y-41060D01*
X82912Y-41059D01*
X82751Y-41126D01*
X82627Y-41250D01*
X82560Y-41412D01*
X82559Y-41587D01*
X82626Y-41748D01*
X82750Y-41872D01*
X82912Y-41939D01*
X83087Y-41940D01*
X83248Y-41873D01*
X83372Y-41749D01*
X83439Y-41587D01*
X83440Y-41412D01*
X83440Y-42412D01*
X83373Y-42251D01*
X83249Y-42127D01*
X83087Y-42060D01*
X82912Y-42059D01*
X82751Y-42126D01*
X82627Y-42250D01*
X82560Y-42412D01*
X82559Y-42587D01*
X82626Y-42748D01*
X82750Y-42872D01*
X82912Y-42939D01*
X83087Y-42940D01*
X83248Y-42873D01*
X83372Y-42749D01*
X83439Y-42587D01*
X83440Y-42412D01*
X83440Y-43412D01*
X83373Y-43251D01*
X83249Y-43127D01*
X83087Y-43060D01*
X82912Y-43059D01*
X82751Y-43126D01*
X82627Y-43250D01*
X82560Y-43412D01*
X82559Y-43587D01*
X82626Y-43748D01*
X82750Y-43872D01*
X82912Y-43939D01*
X83087Y-43940D01*
X83248Y-43873D01*
X83372Y-43749D01*
X83439Y-43587D01*
X83440Y-43412D01*
X83440Y-44412D01*
X83373Y-44251D01*
X83249Y-44127D01*
X83087Y-44060D01*
X82912Y-44059D01*
X82751Y-44126D01*
X82627Y-44250D01*
X82560Y-44412D01*
X82559Y-44587D01*
X82626Y-44748D01*
X82750Y-44872D01*
X82912Y-44939D01*
X83087Y-44940D01*
X83248Y-44873D01*
X83372Y-44749D01*
X83439Y-44587D01*
X83440Y-44412D01*
X83440Y-45412D01*
X83373Y-45251D01*
X83249Y-45127D01*
X83087Y-45060D01*
X82912Y-45059D01*
X82751Y-45126D01*
X82627Y-45250D01*
X82560Y-45412D01*
X82559Y-45587D01*
X82626Y-45748D01*
X82750Y-45872D01*
X82912Y-45939D01*
X83087Y-45940D01*
X83248Y-45873D01*
X83372Y-45749D01*
X83439Y-45587D01*
X83440Y-45412D01*
X83440Y-46412D01*
X83373Y-46251D01*
X83249Y-46127D01*
X83087Y-46060D01*
X82912Y-46059D01*
X82751Y-46126D01*
X82627Y-46250D01*
X82560Y-46412D01*
X82559Y-46587D01*
X82626Y-46748D01*
X82750Y-46872D01*
X82912Y-46939D01*
X83087Y-46940D01*
X83248Y-46873D01*
X83372Y-46749D01*
X83439Y-46587D01*
X83440Y-46412D01*
X83440Y-47412D01*
X83373Y-47251D01*
X83249Y-47127D01*
X83087Y-47060D01*
X82912Y-47059D01*
X82751Y-47126D01*
X82627Y-47250D01*
X82560Y-47412D01*
X82559Y-47587D01*
X82626Y-47748D01*
X82750Y-47872D01*
X82912Y-47939D01*
X83087Y-47940D01*
X83248Y-47873D01*
X83372Y-47749D01*
X83439Y-47587D01*
X83440Y-47412D01*
X83440Y-48412D01*
X83373Y-48251D01*
X83249Y-48127D01*
X83087Y-48060D01*
X82912Y-48059D01*
X82751Y-48126D01*
X82627Y-48250D01*
X82560Y-48412D01*
X82559Y-48587D01*
X82626Y-48748D01*
X82750Y-48872D01*
X82912Y-48939D01*
X83087Y-48940D01*
X83248Y-48873D01*
X83372Y-48749D01*
X83439Y-48587D01*
X83440Y-48412D01*
X83440Y-49691D01*
X83182Y-49585D01*
X82818Y-49584D01*
X82482Y-49723D01*
X82440Y-49766D01*
X82440Y-48412D01*
X82440Y-47412D01*
X82440Y-46412D01*
X82440Y-45412D01*
X82440Y-44412D01*
X82440Y-43412D01*
X82440Y-42412D01*
X82440Y-41412D01*
X82440Y-40412D01*
X82440Y-39412D01*
X82440Y-38412D01*
X82440Y-37412D01*
X82440Y-36412D01*
X82440Y-35412D01*
X82440Y-34412D01*
X82440Y-33412D01*
X82440Y-32412D01*
X82440Y-31412D01*
X82373Y-31251D01*
X82249Y-31127D01*
X82087Y-31060D01*
X81912Y-31059D01*
X81751Y-31126D01*
X81627Y-31250D01*
X81560Y-31412D01*
X81559Y-31587D01*
X81626Y-31748D01*
X81750Y-31872D01*
X81912Y-31939D01*
X82087Y-31940D01*
X82248Y-31873D01*
X82372Y-31749D01*
X82439Y-31587D01*
X82440Y-31412D01*
X82440Y-32412D01*
X82373Y-32251D01*
X82249Y-32127D01*
X82087Y-32060D01*
X81912Y-32059D01*
X81751Y-32126D01*
X81627Y-32250D01*
X81560Y-32412D01*
X81559Y-32587D01*
X81626Y-32748D01*
X81750Y-32872D01*
X81912Y-32939D01*
X82087Y-32940D01*
X82248Y-32873D01*
X82372Y-32749D01*
X82439Y-32587D01*
X82440Y-32412D01*
X82440Y-33412D01*
X82373Y-33251D01*
X82249Y-33127D01*
X82087Y-33060D01*
X81912Y-33059D01*
X81751Y-33126D01*
X81627Y-33250D01*
X81560Y-33412D01*
X81559Y-33587D01*
X81626Y-33748D01*
X81750Y-33872D01*
X81912Y-33939D01*
X82087Y-33940D01*
X82248Y-33873D01*
X82372Y-33749D01*
X82439Y-33587D01*
X82440Y-33412D01*
X82440Y-34412D01*
X82373Y-34251D01*
X82249Y-34127D01*
X82087Y-34060D01*
X81912Y-34059D01*
X81751Y-34126D01*
X81627Y-34250D01*
X81560Y-34412D01*
X81559Y-34587D01*
X81626Y-34748D01*
X81750Y-34872D01*
X81912Y-34939D01*
X82087Y-34940D01*
X82248Y-34873D01*
X82372Y-34749D01*
X82439Y-34587D01*
X82440Y-34412D01*
X82440Y-35412D01*
X82373Y-35251D01*
X82249Y-35127D01*
X82087Y-35060D01*
X81912Y-35059D01*
X81751Y-35126D01*
X81627Y-35250D01*
X81560Y-35412D01*
X81559Y-35587D01*
X81626Y-35748D01*
X81750Y-35872D01*
X81912Y-35939D01*
X82087Y-35940D01*
X82248Y-35873D01*
X82372Y-35749D01*
X82439Y-35587D01*
X82440Y-35412D01*
X82440Y-36412D01*
X82373Y-36251D01*
X82249Y-36127D01*
X82087Y-36060D01*
X81912Y-36059D01*
X81751Y-36126D01*
X81627Y-36250D01*
X81560Y-36412D01*
X81559Y-36587D01*
X81626Y-36748D01*
X81750Y-36872D01*
X81912Y-36939D01*
X82087Y-36940D01*
X82248Y-36873D01*
X82372Y-36749D01*
X82439Y-36587D01*
X82440Y-36412D01*
X82440Y-37412D01*
X82373Y-37251D01*
X82249Y-37127D01*
X82087Y-37060D01*
X81912Y-37059D01*
X81751Y-37126D01*
X81627Y-37250D01*
X81560Y-37412D01*
X81559Y-37587D01*
X81626Y-37748D01*
X81750Y-37872D01*
X81912Y-37939D01*
X82087Y-37940D01*
X82248Y-37873D01*
X82372Y-37749D01*
X82439Y-37587D01*
X82440Y-37412D01*
X82440Y-38412D01*
X82373Y-38251D01*
X82249Y-38127D01*
X82087Y-38060D01*
X81912Y-38059D01*
X81751Y-38126D01*
X81627Y-38250D01*
X81560Y-38412D01*
X81559Y-38587D01*
X81626Y-38748D01*
X81750Y-38872D01*
X81912Y-38939D01*
X82087Y-38940D01*
X82248Y-38873D01*
X82372Y-38749D01*
X82439Y-38587D01*
X82440Y-38412D01*
X82440Y-39412D01*
X82373Y-39251D01*
X82249Y-39127D01*
X82087Y-39060D01*
X81912Y-39059D01*
X81751Y-39126D01*
X81627Y-39250D01*
X81560Y-39412D01*
X81559Y-39587D01*
X81626Y-39748D01*
X81750Y-39872D01*
X81912Y-39939D01*
X82087Y-39940D01*
X82248Y-39873D01*
X82372Y-39749D01*
X82439Y-39587D01*
X82440Y-39412D01*
X82440Y-40412D01*
X82373Y-40251D01*
X82249Y-40127D01*
X82087Y-40060D01*
X81912Y-40059D01*
X81751Y-40126D01*
X81627Y-40250D01*
X81560Y-40412D01*
X81559Y-40587D01*
X81626Y-40748D01*
X81750Y-40872D01*
X81912Y-40939D01*
X82087Y-40940D01*
X82248Y-40873D01*
X82372Y-40749D01*
X82439Y-40587D01*
X82440Y-40412D01*
X82440Y-41412D01*
X82373Y-41251D01*
X82249Y-41127D01*
X82087Y-41060D01*
X81912Y-41059D01*
X81751Y-41126D01*
X81627Y-41250D01*
X81560Y-41412D01*
X81559Y-41587D01*
X81626Y-41748D01*
X81750Y-41872D01*
X81912Y-41939D01*
X82087Y-41940D01*
X82248Y-41873D01*
X82372Y-41749D01*
X82439Y-41587D01*
X82440Y-41412D01*
X82440Y-42412D01*
X82373Y-42251D01*
X82249Y-42127D01*
X82087Y-42060D01*
X81912Y-42059D01*
X81751Y-42126D01*
X81627Y-42250D01*
X81560Y-42412D01*
X81559Y-42587D01*
X81626Y-42748D01*
X81750Y-42872D01*
X81912Y-42939D01*
X82087Y-42940D01*
X82248Y-42873D01*
X82372Y-42749D01*
X82439Y-42587D01*
X82440Y-42412D01*
X82440Y-43412D01*
X82373Y-43251D01*
X82249Y-43127D01*
X82087Y-43060D01*
X81912Y-43059D01*
X81751Y-43126D01*
X81627Y-43250D01*
X81560Y-43412D01*
X81559Y-43587D01*
X81626Y-43748D01*
X81750Y-43872D01*
X81912Y-43939D01*
X82087Y-43940D01*
X82248Y-43873D01*
X82372Y-43749D01*
X82439Y-43587D01*
X82440Y-43412D01*
X82440Y-44412D01*
X82373Y-44251D01*
X82249Y-44127D01*
X82087Y-44060D01*
X81912Y-44059D01*
X81751Y-44126D01*
X81627Y-44250D01*
X81560Y-44412D01*
X81559Y-44587D01*
X81626Y-44748D01*
X81750Y-44872D01*
X81912Y-44939D01*
X82087Y-44940D01*
X82248Y-44873D01*
X82372Y-44749D01*
X82439Y-44587D01*
X82440Y-44412D01*
X82440Y-45412D01*
X82373Y-45251D01*
X82249Y-45127D01*
X82087Y-45060D01*
X81912Y-45059D01*
X81751Y-45126D01*
X81627Y-45250D01*
X81560Y-45412D01*
X81559Y-45587D01*
X81626Y-45748D01*
X81750Y-45872D01*
X81912Y-45939D01*
X82087Y-45940D01*
X82248Y-45873D01*
X82372Y-45749D01*
X82439Y-45587D01*
X82440Y-45412D01*
X82440Y-46412D01*
X82373Y-46251D01*
X82249Y-46127D01*
X82087Y-46060D01*
X81912Y-46059D01*
X81751Y-46126D01*
X81627Y-46250D01*
X81560Y-46412D01*
X81559Y-46587D01*
X81626Y-46748D01*
X81750Y-46872D01*
X81912Y-46939D01*
X82087Y-46940D01*
X82248Y-46873D01*
X82372Y-46749D01*
X82439Y-46587D01*
X82440Y-46412D01*
X82440Y-47412D01*
X82373Y-47251D01*
X82249Y-47127D01*
X82087Y-47060D01*
X81912Y-47059D01*
X81751Y-47126D01*
X81627Y-47250D01*
X81560Y-47412D01*
X81559Y-47587D01*
X81626Y-47748D01*
X81750Y-47872D01*
X81912Y-47939D01*
X82087Y-47940D01*
X82248Y-47873D01*
X82372Y-47749D01*
X82439Y-47587D01*
X82440Y-47412D01*
X82440Y-48412D01*
X82373Y-48251D01*
X82249Y-48127D01*
X82087Y-48060D01*
X81912Y-48059D01*
X81751Y-48126D01*
X81627Y-48250D01*
X81560Y-48412D01*
X81559Y-48587D01*
X81626Y-48748D01*
X81750Y-48872D01*
X81912Y-48939D01*
X82087Y-48940D01*
X82248Y-48873D01*
X82372Y-48749D01*
X82439Y-48587D01*
X82440Y-48412D01*
X82440Y-49766D01*
X82224Y-49981D01*
X82085Y-50317D01*
X82084Y-50681D01*
X82223Y-51017D01*
X82481Y-51275D01*
X82624Y-51335D01*
X81440Y-51335D01*
X81440Y-50712D01*
X81440Y-50287D01*
X81406Y-50119D01*
X81311Y-49976D01*
X81168Y-49880D01*
X81000Y-49847D01*
X80831Y-49880D01*
X80688Y-49976D01*
X80593Y-50119D01*
X80560Y-50287D01*
X80560Y-50712D01*
X80593Y-50880D01*
X80688Y-51023D01*
X80831Y-51119D01*
X81000Y-51152D01*
X81168Y-51119D01*
X81311Y-51023D01*
X81406Y-50880D01*
X81440Y-50712D01*
X81440Y-51335D01*
X80440Y-51335D01*
X80440Y-50712D01*
X80440Y-50287D01*
X80406Y-50119D01*
X80311Y-49976D01*
X80168Y-49880D01*
X80000Y-49847D01*
X79831Y-49880D01*
X79688Y-49976D01*
X79593Y-50119D01*
X79560Y-50287D01*
X79560Y-50712D01*
X79593Y-50880D01*
X79688Y-51023D01*
X79831Y-51119D01*
X80000Y-51152D01*
X80168Y-51119D01*
X80311Y-51023D01*
X80406Y-50880D01*
X80440Y-50712D01*
X80440Y-51335D01*
X79440Y-51335D01*
X79440Y-50712D01*
X79440Y-50287D01*
X79440Y-31712D01*
X79440Y-31287D01*
X79406Y-31119D01*
X79311Y-30976D01*
X79168Y-30880D01*
X79000Y-30847D01*
X78831Y-30880D01*
X78688Y-30976D01*
X78593Y-31119D01*
X78560Y-31287D01*
X78560Y-31712D01*
X78593Y-31880D01*
X78688Y-32023D01*
X78831Y-32119D01*
X79000Y-32152D01*
X79168Y-32119D01*
X79311Y-32023D01*
X79406Y-31880D01*
X79440Y-31712D01*
X79440Y-50287D01*
X79406Y-50119D01*
X79311Y-49976D01*
X79168Y-49880D01*
X79000Y-49847D01*
X78940Y-49859D01*
X78940Y-44313D01*
X78797Y-43968D01*
X78533Y-43703D01*
X78440Y-43664D01*
X78440Y-31712D01*
X78440Y-31287D01*
X78406Y-31119D01*
X78311Y-30976D01*
X78168Y-30880D01*
X78000Y-30847D01*
X77831Y-30880D01*
X77688Y-30976D01*
X77593Y-31119D01*
X77560Y-31287D01*
X77560Y-31712D01*
X77593Y-31880D01*
X77688Y-32023D01*
X77831Y-32119D01*
X78000Y-32152D01*
X78168Y-32119D01*
X78311Y-32023D01*
X78406Y-31880D01*
X78440Y-31712D01*
X78440Y-43664D01*
X78260Y-43590D01*
X78260Y-39097D01*
X78240Y-38998D01*
X78183Y-38914D01*
X77440Y-38170D01*
X77440Y-31712D01*
X77440Y-31287D01*
X77406Y-31119D01*
X77311Y-30976D01*
X77168Y-30880D01*
X77000Y-30847D01*
X76831Y-30880D01*
X76688Y-30976D01*
X76593Y-31119D01*
X76560Y-31287D01*
X76560Y-31712D01*
X76593Y-31880D01*
X76688Y-32023D01*
X76831Y-32119D01*
X77000Y-32152D01*
X77168Y-32119D01*
X77311Y-32023D01*
X77406Y-31880D01*
X77440Y-31712D01*
X77440Y-38170D01*
X76345Y-37075D01*
X76345Y-33455D01*
X76345Y-33375D01*
X76347Y-33375D01*
X76399Y-33353D01*
X76438Y-33314D01*
X76459Y-33262D01*
X76460Y-33207D01*
X76460Y-33158D01*
X76470Y-33166D01*
X76539Y-33180D01*
X76539Y-33180D01*
X76539Y-33262D01*
X76561Y-33314D01*
X76600Y-33353D01*
X76652Y-33374D01*
X76707Y-33375D01*
X77177Y-33375D01*
X77229Y-33353D01*
X77268Y-33314D01*
X77289Y-33262D01*
X77290Y-33207D01*
X77290Y-32737D01*
X77268Y-32685D01*
X77229Y-32646D01*
X77177Y-32625D01*
X77122Y-32624D01*
X76653Y-32624D01*
X76165Y-32136D01*
X76145Y-32123D01*
X76168Y-32119D01*
X76311Y-32023D01*
X76406Y-31880D01*
X76440Y-31712D01*
X76440Y-31287D01*
X76406Y-31119D01*
X76311Y-30976D01*
X76168Y-30880D01*
X76000Y-30847D01*
X75831Y-30880D01*
X75688Y-30976D01*
X75593Y-31119D01*
X75560Y-31287D01*
X75560Y-31712D01*
X75593Y-31880D01*
X75688Y-32023D01*
X75778Y-32083D01*
X75221Y-32083D01*
X75311Y-32023D01*
X75406Y-31880D01*
X75440Y-31712D01*
X75440Y-31287D01*
X75406Y-31119D01*
X75311Y-30976D01*
X75168Y-30880D01*
X75000Y-30847D01*
X74831Y-30880D01*
X74688Y-30976D01*
X74593Y-31119D01*
X74560Y-31287D01*
X74560Y-31712D01*
X74593Y-31880D01*
X74688Y-32023D01*
X74778Y-32083D01*
X74221Y-32083D01*
X74311Y-32023D01*
X74406Y-31880D01*
X74440Y-31712D01*
X74440Y-31287D01*
X74406Y-31119D01*
X74311Y-30976D01*
X74168Y-30880D01*
X74000Y-30847D01*
X73831Y-30880D01*
X73688Y-30976D01*
X73593Y-31119D01*
X73560Y-31287D01*
X73560Y-31712D01*
X73593Y-31880D01*
X73688Y-32023D01*
X73778Y-32083D01*
X73221Y-32083D01*
X73311Y-32023D01*
X73406Y-31880D01*
X73440Y-31712D01*
X73440Y-31287D01*
X73406Y-31119D01*
X73311Y-30976D01*
X73168Y-30880D01*
X73000Y-30847D01*
X72831Y-30880D01*
X72688Y-30976D01*
X72593Y-31119D01*
X72560Y-31287D01*
X72560Y-31712D01*
X72593Y-31880D01*
X72688Y-32023D01*
X72778Y-32083D01*
X72221Y-32083D01*
X72311Y-32023D01*
X72406Y-31880D01*
X72440Y-31712D01*
X72440Y-31287D01*
X72406Y-31119D01*
X72311Y-30976D01*
X72168Y-30880D01*
X72000Y-30847D01*
X71831Y-30880D01*
X71688Y-30976D01*
X71593Y-31119D01*
X71560Y-31287D01*
X71560Y-31712D01*
X71593Y-31880D01*
X71688Y-32023D01*
X71778Y-32083D01*
X70221Y-32083D01*
X70311Y-32023D01*
X70406Y-31880D01*
X70440Y-31712D01*
X70440Y-31287D01*
X70406Y-31119D01*
X70311Y-30976D01*
X70168Y-30880D01*
X70000Y-30847D01*
X69831Y-30880D01*
X69688Y-30976D01*
X69593Y-31119D01*
X69560Y-31287D01*
X69560Y-31712D01*
X69593Y-31880D01*
X69688Y-32023D01*
X69778Y-32083D01*
X69221Y-32083D01*
X69311Y-32023D01*
X69406Y-31880D01*
X69440Y-31712D01*
X69440Y-31287D01*
X69406Y-31119D01*
X69311Y-30976D01*
X69168Y-30880D01*
X69000Y-30847D01*
X68831Y-30880D01*
X68688Y-30976D01*
X68593Y-31119D01*
X68560Y-31287D01*
X68560Y-31712D01*
X68593Y-31880D01*
X68688Y-32023D01*
X68778Y-32083D01*
X68221Y-32083D01*
X68311Y-32023D01*
X68406Y-31880D01*
X68440Y-31712D01*
X68440Y-31287D01*
X68406Y-31119D01*
X68311Y-30976D01*
X68168Y-30880D01*
X68000Y-30847D01*
X67831Y-30880D01*
X67688Y-30976D01*
X67593Y-31119D01*
X67560Y-31287D01*
X67560Y-31712D01*
X67593Y-31880D01*
X67688Y-32023D01*
X67778Y-32083D01*
X67221Y-32083D01*
X67311Y-32023D01*
X67406Y-31880D01*
X67440Y-31712D01*
X67440Y-31287D01*
X67406Y-31119D01*
X67311Y-30976D01*
X67168Y-30880D01*
X67000Y-30847D01*
X66831Y-30880D01*
X66688Y-30976D01*
X66593Y-31119D01*
X66560Y-31287D01*
X66560Y-31712D01*
X66593Y-31880D01*
X66688Y-32023D01*
X66778Y-32083D01*
X66221Y-32083D01*
X66311Y-32023D01*
X66406Y-31880D01*
X66440Y-31712D01*
X66440Y-31287D01*
X66406Y-31119D01*
X66311Y-30976D01*
X66168Y-30880D01*
X66000Y-30847D01*
X65831Y-30880D01*
X65688Y-30976D01*
X65593Y-31119D01*
X65560Y-31287D01*
X65560Y-31712D01*
X65593Y-31880D01*
X65688Y-32023D01*
X65778Y-32083D01*
X65221Y-32083D01*
X65311Y-32023D01*
X65406Y-31880D01*
X65440Y-31712D01*
X65440Y-31287D01*
X65406Y-31119D01*
X65311Y-30976D01*
X65168Y-30880D01*
X65000Y-30847D01*
X64831Y-30880D01*
X64688Y-30976D01*
X64593Y-31119D01*
X64560Y-31287D01*
X64560Y-31712D01*
X64593Y-31880D01*
X64688Y-32023D01*
X64778Y-32083D01*
X64221Y-32083D01*
X64311Y-32023D01*
X64406Y-31880D01*
X64440Y-31712D01*
X64440Y-31287D01*
X64406Y-31119D01*
X64311Y-30976D01*
X64168Y-30880D01*
X64000Y-30847D01*
X63831Y-30880D01*
X63688Y-30976D01*
X63593Y-31119D01*
X63560Y-31287D01*
X63560Y-31712D01*
X63593Y-31880D01*
X63688Y-32023D01*
X63778Y-32083D01*
X63221Y-32083D01*
X63311Y-32023D01*
X63406Y-31880D01*
X63440Y-31712D01*
X63440Y-31287D01*
X63406Y-31119D01*
X63311Y-30976D01*
X63168Y-30880D01*
X63000Y-30847D01*
X62831Y-30880D01*
X62688Y-30976D01*
X62593Y-31119D01*
X62560Y-31287D01*
X62560Y-31712D01*
X62593Y-31880D01*
X62688Y-32023D01*
X62778Y-32083D01*
X61621Y-32083D01*
X61711Y-32023D01*
X61806Y-31880D01*
X61840Y-31712D01*
X61840Y-31287D01*
X61806Y-31119D01*
X61711Y-30976D01*
X61568Y-30880D01*
X61400Y-30847D01*
X61231Y-30880D01*
X61088Y-30976D01*
X60993Y-31119D01*
X60960Y-31287D01*
X60960Y-31712D01*
X60993Y-31880D01*
X61088Y-32023D01*
X61178Y-32083D01*
X60621Y-32083D01*
X60711Y-32023D01*
X60806Y-31880D01*
X60840Y-31712D01*
X60840Y-31287D01*
X60806Y-31119D01*
X60711Y-30976D01*
X60568Y-30880D01*
X60400Y-30847D01*
X60231Y-30880D01*
X60088Y-30976D01*
X59993Y-31119D01*
X59960Y-31287D01*
X59960Y-31712D01*
X59993Y-31880D01*
X60088Y-32023D01*
X60178Y-32083D01*
X59621Y-32083D01*
X59711Y-32023D01*
X59806Y-31880D01*
X59840Y-31712D01*
X59840Y-31287D01*
X59806Y-31119D01*
X59711Y-30976D01*
X59568Y-30880D01*
X59400Y-30847D01*
X59231Y-30880D01*
X59088Y-30976D01*
X58993Y-31119D01*
X58960Y-31287D01*
X58960Y-31712D01*
X58993Y-31880D01*
X59088Y-32023D01*
X59178Y-32083D01*
X58621Y-32083D01*
X58711Y-32023D01*
X58806Y-31880D01*
X58840Y-31712D01*
X58840Y-31287D01*
X58806Y-31119D01*
X58711Y-30976D01*
X58568Y-30880D01*
X58400Y-30847D01*
X58231Y-30880D01*
X58088Y-30976D01*
X57993Y-31119D01*
X57960Y-31287D01*
X57960Y-31712D01*
X57993Y-31880D01*
X58088Y-32023D01*
X58178Y-32083D01*
X57621Y-32083D01*
X57711Y-32023D01*
X57806Y-31880D01*
X57840Y-31712D01*
X57840Y-31287D01*
X57806Y-31119D01*
X57711Y-30976D01*
X57568Y-30880D01*
X57400Y-30847D01*
X57231Y-30880D01*
X57088Y-30976D01*
X56993Y-31119D01*
X56960Y-31287D01*
X56960Y-31712D01*
X56993Y-31880D01*
X57088Y-32023D01*
X57178Y-32083D01*
X56621Y-32083D01*
X56711Y-32023D01*
X56806Y-31880D01*
X56840Y-31712D01*
X56840Y-31287D01*
X56806Y-31119D01*
X56711Y-30976D01*
X56568Y-30880D01*
X56400Y-30847D01*
X56231Y-30880D01*
X56088Y-30976D01*
X55993Y-31119D01*
X55960Y-31287D01*
X55960Y-31712D01*
X55993Y-31880D01*
X56088Y-32023D01*
X56178Y-32083D01*
X55624Y-32083D01*
X55619Y-32084D01*
X55711Y-32023D01*
X55806Y-31880D01*
X55840Y-31712D01*
X55840Y-31287D01*
X55806Y-31119D01*
X55711Y-30976D01*
X55568Y-30880D01*
X55400Y-30847D01*
X55231Y-30880D01*
X55088Y-30976D01*
X54993Y-31119D01*
X54960Y-31287D01*
X54960Y-31712D01*
X54993Y-31880D01*
X55088Y-32023D01*
X55231Y-32119D01*
X55400Y-32152D01*
X55504Y-32131D01*
X55497Y-32136D01*
X54840Y-32793D01*
X54840Y-31712D01*
X54840Y-31287D01*
X54806Y-31119D01*
X54711Y-30976D01*
X54568Y-30880D01*
X54400Y-30847D01*
X54231Y-30880D01*
X54088Y-30976D01*
X53993Y-31119D01*
X53960Y-31287D01*
X53960Y-31712D01*
X53993Y-31880D01*
X54088Y-32023D01*
X54231Y-32119D01*
X54400Y-32152D01*
X54568Y-32119D01*
X54711Y-32023D01*
X54806Y-31880D01*
X54840Y-31712D01*
X54840Y-32793D01*
X53840Y-33793D01*
X53840Y-31712D01*
X53840Y-31287D01*
X53806Y-31119D01*
X53711Y-30976D01*
X53568Y-30880D01*
X53400Y-30847D01*
X53231Y-30880D01*
X53088Y-30976D01*
X52993Y-31119D01*
X52960Y-31287D01*
X52960Y-31712D01*
X52993Y-31880D01*
X53088Y-32023D01*
X53231Y-32119D01*
X53400Y-32152D01*
X53568Y-32119D01*
X53711Y-32023D01*
X53806Y-31880D01*
X53840Y-31712D01*
X53840Y-33793D01*
X52840Y-34793D01*
X52840Y-31712D01*
X52840Y-31287D01*
X52806Y-31119D01*
X52711Y-30976D01*
X52568Y-30880D01*
X52400Y-30847D01*
X52231Y-30880D01*
X52088Y-30976D01*
X51993Y-31119D01*
X51960Y-31287D01*
X51960Y-31712D01*
X51993Y-31880D01*
X52088Y-32023D01*
X52231Y-32119D01*
X52400Y-32152D01*
X52568Y-32119D01*
X52711Y-32023D01*
X52806Y-31880D01*
X52840Y-31712D01*
X52840Y-34793D01*
X49159Y-38474D01*
X49120Y-38532D01*
X49106Y-38601D01*
X49106Y-40717D01*
X49120Y-40786D01*
X49159Y-40844D01*
X49200Y-40885D01*
X47930Y-40885D01*
X47917Y-40872D01*
X47859Y-40833D01*
X47790Y-40820D01*
X47790Y-40820D01*
X47790Y-40737D01*
X47768Y-40685D01*
X47729Y-40646D01*
X47677Y-40625D01*
X47622Y-40624D01*
X47152Y-40624D01*
X47100Y-40646D01*
X47061Y-40685D01*
X47040Y-40737D01*
X47039Y-40792D01*
X47039Y-41143D01*
X46960Y-41063D01*
X46960Y-40737D01*
X46938Y-40685D01*
X46899Y-40646D01*
X46847Y-40625D01*
X46792Y-40624D01*
X46322Y-40624D01*
X46270Y-40646D01*
X46231Y-40685D01*
X46210Y-40737D01*
X46209Y-40792D01*
X46209Y-41262D01*
X46231Y-41314D01*
X46270Y-41353D01*
X46322Y-41374D01*
X46377Y-41375D01*
X46648Y-41375D01*
X55249Y-49975D01*
X55249Y-49975D01*
X55285Y-49999D01*
X55320Y-50023D01*
X55320Y-50023D01*
X55404Y-50039D01*
X55646Y-50039D01*
X55593Y-50119D01*
X55560Y-50287D01*
X55560Y-50712D01*
X55593Y-50880D01*
X55688Y-51023D01*
X55831Y-51119D01*
X56000Y-51152D01*
X56168Y-51119D01*
X56311Y-51023D01*
X56406Y-50880D01*
X56440Y-50712D01*
X56440Y-50287D01*
X56406Y-50119D01*
X56353Y-50039D01*
X56646Y-50039D01*
X56593Y-50119D01*
X56560Y-50287D01*
X56560Y-50712D01*
X56593Y-50880D01*
X56688Y-51023D01*
X56831Y-51119D01*
X57000Y-51152D01*
X57168Y-51119D01*
X57311Y-51023D01*
X57406Y-50880D01*
X57440Y-50712D01*
X57440Y-50287D01*
X57406Y-50119D01*
X57353Y-50039D01*
X57646Y-50039D01*
X57593Y-50119D01*
X57560Y-50287D01*
X57560Y-50712D01*
X57593Y-50880D01*
X57688Y-51023D01*
X57831Y-51119D01*
X58000Y-51152D01*
X58168Y-51119D01*
X58311Y-51023D01*
X58406Y-50880D01*
X58440Y-50712D01*
X58440Y-50287D01*
X58406Y-50119D01*
X58353Y-50039D01*
X58646Y-50039D01*
X58593Y-50119D01*
X58560Y-50287D01*
X58560Y-50712D01*
X58593Y-50880D01*
X58688Y-51023D01*
X58831Y-51119D01*
X59000Y-51152D01*
X59168Y-51119D01*
X59311Y-51023D01*
X59406Y-50880D01*
X59440Y-50712D01*
X59440Y-50287D01*
X59406Y-50119D01*
X59353Y-50039D01*
X59523Y-50039D01*
X59460Y-50240D01*
X59460Y-50440D01*
X59940Y-50440D01*
X59940Y-50432D01*
X60060Y-50432D01*
X60060Y-50440D01*
X60540Y-50440D01*
X60540Y-50240D01*
X60476Y-50039D01*
X60646Y-50039D01*
X60593Y-50119D01*
X60560Y-50287D01*
X60560Y-50712D01*
X60593Y-50880D01*
X60688Y-51023D01*
X60831Y-51119D01*
X61000Y-51152D01*
X61168Y-51119D01*
X61311Y-51023D01*
X61406Y-50880D01*
X61440Y-50712D01*
X61440Y-50287D01*
X61406Y-50119D01*
X61353Y-50039D01*
X61646Y-50039D01*
X61593Y-50119D01*
X61560Y-50287D01*
X61560Y-50712D01*
X61593Y-50880D01*
X61688Y-51023D01*
X61831Y-51119D01*
X62000Y-51152D01*
X62168Y-51119D01*
X62311Y-51023D01*
X62406Y-50880D01*
X62440Y-50712D01*
X62440Y-50287D01*
X62406Y-50119D01*
X62311Y-49976D01*
X62220Y-49915D01*
X62220Y-49819D01*
X62203Y-49735D01*
X62155Y-49664D01*
X62084Y-49616D01*
X62000Y-49599D01*
X61220Y-49599D01*
X61220Y-47475D01*
X61266Y-47428D01*
X61314Y-47312D01*
X61315Y-47187D01*
X61267Y-47071D01*
X61178Y-46983D01*
X61062Y-46935D01*
X60937Y-46934D01*
X60821Y-46982D01*
X60733Y-47071D01*
X60685Y-47187D01*
X60684Y-47312D01*
X60732Y-47428D01*
X60780Y-47475D01*
X60780Y-49599D01*
X56043Y-49599D01*
X56043Y-44688D01*
X56036Y-44275D01*
X55891Y-43926D01*
X55748Y-43836D01*
X55663Y-43921D01*
X55663Y-43751D01*
X55573Y-43608D01*
X55188Y-43456D01*
X54775Y-43463D01*
X54426Y-43608D01*
X54336Y-43751D01*
X55000Y-44415D01*
X55663Y-43751D01*
X55663Y-43921D01*
X55084Y-44500D01*
X55748Y-45163D01*
X55891Y-45073D01*
X56043Y-44688D01*
X56043Y-49599D01*
X55663Y-49599D01*
X55663Y-45248D01*
X55000Y-44584D01*
X54915Y-44669D01*
X54915Y-44500D01*
X54251Y-43836D01*
X54108Y-43926D01*
X53956Y-44311D01*
X53963Y-44724D01*
X54108Y-45073D01*
X54251Y-45163D01*
X54915Y-44500D01*
X54915Y-44669D01*
X54336Y-45248D01*
X54426Y-45391D01*
X54811Y-45543D01*
X55224Y-45536D01*
X55573Y-45391D01*
X55663Y-45248D01*
X55663Y-49599D01*
X55496Y-49599D01*
X51630Y-45733D01*
X51630Y-41797D01*
X51630Y-41482D01*
X51629Y-41387D01*
X51593Y-41298D01*
X51525Y-41231D01*
X51437Y-41194D01*
X51370Y-41195D01*
X51310Y-41255D01*
X51310Y-41580D01*
X51570Y-41580D01*
X51630Y-41520D01*
X51630Y-41482D01*
X51630Y-41797D01*
X51630Y-41760D01*
X51570Y-41700D01*
X51310Y-41700D01*
X51310Y-42025D01*
X51370Y-42085D01*
X51437Y-42085D01*
X51525Y-42048D01*
X51593Y-41981D01*
X51629Y-41892D01*
X51630Y-41797D01*
X51630Y-45733D01*
X51190Y-45293D01*
X51190Y-42025D01*
X51190Y-41700D01*
X51070Y-41700D01*
X50930Y-41700D01*
X50810Y-41700D01*
X50810Y-42025D01*
X50870Y-42085D01*
X50937Y-42085D01*
X51000Y-42059D01*
X51062Y-42085D01*
X51130Y-42085D01*
X51190Y-42025D01*
X51190Y-45293D01*
X50690Y-44793D01*
X50690Y-42025D01*
X50690Y-41700D01*
X50570Y-41700D01*
X50430Y-41700D01*
X50310Y-41700D01*
X50310Y-42025D01*
X50370Y-42085D01*
X50437Y-42085D01*
X50500Y-42059D01*
X50562Y-42085D01*
X50630Y-42085D01*
X50690Y-42025D01*
X50690Y-44793D01*
X50190Y-44293D01*
X50190Y-42025D01*
X50190Y-41700D01*
X50070Y-41700D01*
X49930Y-41700D01*
X49810Y-41700D01*
X49810Y-42025D01*
X49870Y-42085D01*
X49937Y-42085D01*
X50000Y-42059D01*
X50062Y-42085D01*
X50130Y-42085D01*
X50190Y-42025D01*
X50190Y-44293D01*
X49690Y-43793D01*
X49690Y-42025D01*
X49690Y-41700D01*
X49430Y-41700D01*
X49370Y-41760D01*
X49369Y-41797D01*
X49370Y-41892D01*
X49406Y-41981D01*
X49474Y-42048D01*
X49562Y-42085D01*
X49630Y-42085D01*
X49690Y-42025D01*
X49690Y-43793D01*
X47271Y-41375D01*
X47677Y-41375D01*
X47729Y-41353D01*
X47768Y-41314D01*
X47789Y-41262D01*
X47790Y-41232D01*
X47855Y-41245D01*
X49460Y-41245D01*
X49406Y-41298D01*
X49370Y-41387D01*
X49369Y-41482D01*
X49370Y-41520D01*
X49430Y-41580D01*
X49690Y-41580D01*
X49690Y-41572D01*
X49810Y-41572D01*
X49810Y-41580D01*
X49930Y-41580D01*
X50070Y-41580D01*
X50190Y-41580D01*
X50190Y-41572D01*
X50310Y-41572D01*
X50310Y-41580D01*
X50430Y-41580D01*
X50570Y-41580D01*
X50690Y-41580D01*
X50690Y-41572D01*
X50810Y-41572D01*
X50810Y-41580D01*
X50930Y-41580D01*
X51070Y-41580D01*
X51190Y-41580D01*
X51190Y-41255D01*
X51130Y-41195D01*
X51062Y-41194D01*
X51000Y-41220D01*
X50984Y-41214D01*
X51017Y-41192D01*
X51377Y-40832D01*
X51377Y-40832D01*
X51416Y-40774D01*
X51429Y-40705D01*
X51430Y-40705D01*
X51430Y-40678D01*
X51457Y-40666D01*
X51491Y-40633D01*
X51509Y-40588D01*
X51510Y-40541D01*
X51510Y-40131D01*
X51491Y-40087D01*
X51458Y-40053D01*
X51413Y-40035D01*
X51366Y-40034D01*
X51086Y-40034D01*
X51042Y-40053D01*
X51008Y-40086D01*
X51000Y-40106D01*
X50991Y-40087D01*
X50958Y-40053D01*
X50913Y-40035D01*
X50866Y-40034D01*
X50586Y-40034D01*
X50542Y-40053D01*
X50508Y-40086D01*
X50500Y-40106D01*
X50491Y-40087D01*
X50458Y-40053D01*
X50413Y-40035D01*
X50366Y-40034D01*
X50086Y-40034D01*
X50042Y-40053D01*
X50008Y-40086D01*
X50000Y-40106D01*
X49991Y-40087D01*
X49958Y-40053D01*
X49930Y-40041D01*
X49930Y-38723D01*
X55709Y-32943D01*
X55709Y-33262D01*
X55731Y-33314D01*
X55770Y-33353D01*
X55822Y-33374D01*
X55825Y-33374D01*
X55825Y-33455D01*
X55844Y-33554D01*
X55901Y-33638D01*
X57740Y-35477D01*
X57740Y-43590D01*
X57468Y-43702D01*
X57203Y-43966D01*
X57060Y-44312D01*
X57059Y-44686D01*
X57202Y-45031D01*
X57466Y-45296D01*
X57812Y-45439D01*
X58186Y-45440D01*
X58531Y-45297D01*
X58796Y-45033D01*
X58939Y-44687D01*
X58940Y-44313D01*
X58797Y-43968D01*
X58533Y-43703D01*
X58260Y-43590D01*
X58260Y-35370D01*
X58240Y-35270D01*
X58183Y-35186D01*
X56365Y-33367D01*
X56399Y-33353D01*
X56438Y-33314D01*
X56459Y-33262D01*
X56460Y-33207D01*
X56460Y-33158D01*
X56470Y-33166D01*
X56539Y-33180D01*
X56539Y-33180D01*
X56539Y-33262D01*
X56561Y-33314D01*
X56600Y-33353D01*
X56652Y-33374D01*
X56707Y-33375D01*
X57177Y-33375D01*
X57229Y-33353D01*
X57268Y-33314D01*
X57289Y-33262D01*
X57290Y-33207D01*
X57290Y-32737D01*
X57268Y-32685D01*
X57229Y-32646D01*
X57177Y-32625D01*
X57122Y-32624D01*
X56653Y-32624D01*
X56652Y-32623D01*
X66143Y-32623D01*
X66144Y-32624D01*
X65822Y-32624D01*
X65770Y-32646D01*
X65731Y-32685D01*
X65710Y-32737D01*
X65709Y-32792D01*
X65709Y-33262D01*
X65731Y-33314D01*
X65770Y-33353D01*
X65804Y-33367D01*
X63792Y-35380D01*
X63736Y-35464D01*
X63716Y-35563D01*
X63716Y-44929D01*
X63736Y-45029D01*
X63792Y-45113D01*
X64395Y-45716D01*
X64395Y-45716D01*
X64479Y-45772D01*
X64578Y-45792D01*
X66967Y-45792D01*
X67067Y-45772D01*
X67151Y-45716D01*
X67540Y-45327D01*
X67812Y-45439D01*
X68186Y-45440D01*
X68531Y-45297D01*
X68796Y-45033D01*
X68939Y-44687D01*
X68940Y-44313D01*
X68797Y-43968D01*
X68533Y-43703D01*
X68187Y-43560D01*
X67813Y-43559D01*
X67468Y-43702D01*
X67203Y-43966D01*
X67060Y-44312D01*
X67059Y-44686D01*
X67172Y-44959D01*
X66860Y-45272D01*
X66043Y-45272D01*
X66043Y-44688D01*
X66036Y-44275D01*
X65891Y-43926D01*
X65748Y-43836D01*
X65663Y-43921D01*
X65663Y-43751D01*
X65573Y-43608D01*
X65188Y-43456D01*
X64775Y-43463D01*
X64426Y-43608D01*
X64336Y-43751D01*
X65000Y-44415D01*
X65663Y-43751D01*
X65663Y-43921D01*
X65084Y-44500D01*
X65748Y-45163D01*
X65891Y-45073D01*
X66043Y-44688D01*
X66043Y-45272D01*
X65648Y-45272D01*
X65663Y-45248D01*
X65000Y-44584D01*
X64994Y-44590D01*
X64909Y-44505D01*
X64915Y-44500D01*
X64251Y-43836D01*
X64236Y-43845D01*
X64236Y-35671D01*
X66268Y-33638D01*
X66268Y-33638D01*
X66306Y-33582D01*
X66325Y-33554D01*
X66325Y-33554D01*
X66344Y-33455D01*
X66345Y-33455D01*
X66345Y-33375D01*
X66347Y-33375D01*
X66399Y-33353D01*
X66438Y-33314D01*
X66459Y-33262D01*
X66460Y-33207D01*
X66460Y-33158D01*
X66470Y-33166D01*
X66539Y-33180D01*
X66539Y-33180D01*
X66539Y-33262D01*
X66561Y-33314D01*
X66600Y-33353D01*
X66652Y-33374D01*
X66707Y-33375D01*
X67177Y-33375D01*
X67229Y-33353D01*
X67268Y-33314D01*
X67289Y-33262D01*
X67290Y-33207D01*
X67290Y-32737D01*
X67268Y-32685D01*
X67229Y-32646D01*
X67177Y-32625D01*
X67122Y-32624D01*
X66653Y-32624D01*
X66472Y-32443D01*
X75963Y-32443D01*
X76144Y-32624D01*
X75822Y-32624D01*
X75770Y-32646D01*
X75731Y-32685D01*
X75710Y-32737D01*
X75709Y-32792D01*
X75709Y-33262D01*
X75731Y-33314D01*
X75770Y-33353D01*
X75822Y-33374D01*
X75825Y-33374D01*
X75825Y-33455D01*
X75825Y-36922D01*
X75222Y-36922D01*
X75215Y-36916D01*
X75100Y-36868D01*
X74974Y-36867D01*
X74858Y-36915D01*
X74770Y-37004D01*
X74722Y-37120D01*
X74722Y-37245D01*
X74769Y-37361D01*
X74858Y-37449D01*
X74974Y-37497D01*
X75099Y-37498D01*
X75215Y-37450D01*
X75222Y-37442D01*
X75977Y-37442D01*
X77740Y-39205D01*
X77740Y-43590D01*
X77468Y-43702D01*
X77203Y-43966D01*
X77060Y-44312D01*
X77059Y-44686D01*
X77202Y-45031D01*
X77466Y-45296D01*
X77812Y-45439D01*
X78186Y-45440D01*
X78531Y-45297D01*
X78796Y-45033D01*
X78939Y-44687D01*
X78940Y-44313D01*
X78940Y-49859D01*
X78831Y-49880D01*
X78688Y-49976D01*
X78593Y-50119D01*
X78560Y-50287D01*
X78560Y-50712D01*
X78593Y-50880D01*
X78688Y-51023D01*
X78831Y-51119D01*
X79000Y-51152D01*
X79168Y-51119D01*
X79311Y-51023D01*
X79406Y-50880D01*
X79440Y-50712D01*
X79440Y-51335D01*
X78440Y-51335D01*
X78440Y-50712D01*
X78440Y-50287D01*
X78406Y-50119D01*
X78311Y-49976D01*
X78168Y-49880D01*
X78000Y-49847D01*
X77831Y-49880D01*
X77688Y-49976D01*
X77593Y-50119D01*
X77560Y-50287D01*
X77560Y-50712D01*
X77593Y-50880D01*
X77688Y-51023D01*
X77831Y-51119D01*
X78000Y-51152D01*
X78168Y-51119D01*
X78311Y-51023D01*
X78406Y-50880D01*
X78440Y-50712D01*
X78440Y-51335D01*
X77440Y-51335D01*
X77440Y-50712D01*
X77440Y-50287D01*
X77406Y-50119D01*
X77311Y-49976D01*
X77168Y-49880D01*
X77000Y-49847D01*
X76831Y-49880D01*
X76688Y-49976D01*
X76593Y-50119D01*
X76560Y-50287D01*
X76560Y-50712D01*
X76593Y-50880D01*
X76688Y-51023D01*
X76831Y-51119D01*
X77000Y-51152D01*
X77168Y-51119D01*
X77311Y-51023D01*
X77406Y-50880D01*
X77440Y-50712D01*
X77440Y-51335D01*
X76440Y-51335D01*
X76440Y-50712D01*
X76440Y-50287D01*
X76406Y-50119D01*
X76311Y-49976D01*
X76168Y-49880D01*
X76043Y-49856D01*
X76043Y-44688D01*
X76036Y-44275D01*
X75891Y-43926D01*
X75748Y-43836D01*
X75663Y-43921D01*
X75663Y-43751D01*
X75573Y-43608D01*
X75188Y-43456D01*
X74775Y-43463D01*
X74426Y-43608D01*
X74336Y-43751D01*
X75000Y-44415D01*
X75663Y-43751D01*
X75663Y-43921D01*
X75084Y-44500D01*
X75748Y-45163D01*
X75891Y-45073D01*
X76043Y-44688D01*
X76043Y-49856D01*
X76000Y-49847D01*
X75831Y-49880D01*
X75688Y-49976D01*
X75663Y-50014D01*
X75663Y-45248D01*
X75000Y-44584D01*
X74915Y-44669D01*
X74915Y-44500D01*
X74251Y-43836D01*
X74108Y-43926D01*
X73956Y-44311D01*
X73963Y-44724D01*
X74108Y-45073D01*
X74251Y-45163D01*
X74915Y-44500D01*
X74915Y-44669D01*
X74336Y-45248D01*
X74426Y-45391D01*
X74811Y-45543D01*
X75224Y-45536D01*
X75573Y-45391D01*
X75663Y-45248D01*
X75663Y-50014D01*
X75593Y-50119D01*
X75560Y-50287D01*
X75560Y-50712D01*
X75593Y-50880D01*
X75688Y-51023D01*
X75831Y-51119D01*
X76000Y-51152D01*
X76168Y-51119D01*
X76311Y-51023D01*
X76406Y-50880D01*
X76440Y-50712D01*
X76440Y-51335D01*
X75440Y-51335D01*
X75440Y-50712D01*
X75440Y-50287D01*
X75406Y-50119D01*
X75311Y-49976D01*
X75168Y-49880D01*
X75000Y-49847D01*
X74831Y-49880D01*
X74688Y-49976D01*
X74593Y-50119D01*
X74560Y-50287D01*
X74560Y-50712D01*
X74593Y-50880D01*
X74688Y-51023D01*
X74831Y-51119D01*
X75000Y-51152D01*
X75168Y-51119D01*
X75311Y-51023D01*
X75406Y-50880D01*
X75440Y-50712D01*
X75440Y-51335D01*
X74440Y-51335D01*
X74440Y-50712D01*
X74440Y-50287D01*
X74406Y-50119D01*
X74311Y-49976D01*
X74168Y-49880D01*
X74000Y-49847D01*
X73831Y-49880D01*
X73688Y-49976D01*
X73593Y-50119D01*
X73560Y-50287D01*
X73560Y-50712D01*
X73593Y-50880D01*
X73688Y-51023D01*
X73831Y-51119D01*
X74000Y-51152D01*
X74168Y-51119D01*
X74311Y-51023D01*
X74406Y-50880D01*
X74440Y-50712D01*
X74440Y-51335D01*
X72440Y-51335D01*
X72440Y-50712D01*
X72440Y-50287D01*
X72406Y-50119D01*
X72311Y-49976D01*
X72168Y-49880D01*
X72000Y-49847D01*
X71831Y-49880D01*
X71688Y-49976D01*
X71593Y-50119D01*
X71560Y-50287D01*
X71560Y-50712D01*
X71593Y-50880D01*
X71688Y-51023D01*
X71831Y-51119D01*
X72000Y-51152D01*
X72168Y-51119D01*
X72311Y-51023D01*
X72406Y-50880D01*
X72440Y-50712D01*
X72440Y-51335D01*
X71440Y-51335D01*
X71440Y-50712D01*
X71440Y-50287D01*
X71406Y-50119D01*
X71311Y-49976D01*
X71168Y-49880D01*
X71000Y-49847D01*
X70831Y-49880D01*
X70688Y-49976D01*
X70593Y-50119D01*
X70560Y-50287D01*
X70560Y-50712D01*
X70593Y-50880D01*
X70688Y-51023D01*
X70831Y-51119D01*
X71000Y-51152D01*
X71168Y-51119D01*
X71311Y-51023D01*
X71406Y-50880D01*
X71440Y-50712D01*
X71440Y-51335D01*
X70440Y-51335D01*
X70440Y-50712D01*
X70440Y-50287D01*
X70406Y-50119D01*
X70311Y-49976D01*
X70168Y-49880D01*
X70000Y-49847D01*
X69831Y-49880D01*
X69688Y-49976D01*
X69593Y-50119D01*
X69560Y-50287D01*
X69560Y-50712D01*
X69593Y-50880D01*
X69688Y-51023D01*
X69831Y-51119D01*
X70000Y-51152D01*
X70168Y-51119D01*
X70311Y-51023D01*
X70406Y-50880D01*
X70440Y-50712D01*
X70440Y-51335D01*
X69440Y-51335D01*
X69440Y-50712D01*
X69440Y-50287D01*
X69406Y-50119D01*
X69311Y-49976D01*
X69168Y-49880D01*
X69000Y-49847D01*
X68831Y-49880D01*
X68688Y-49976D01*
X68593Y-50119D01*
X68560Y-50287D01*
X68560Y-50712D01*
X68593Y-50880D01*
X68688Y-51023D01*
X68831Y-51119D01*
X69000Y-51152D01*
X69168Y-51119D01*
X69311Y-51023D01*
X69406Y-50880D01*
X69440Y-50712D01*
X69440Y-51335D01*
X68440Y-51335D01*
X68440Y-50712D01*
X68440Y-50287D01*
X68406Y-50119D01*
X68311Y-49976D01*
X68168Y-49880D01*
X68000Y-49847D01*
X67831Y-49880D01*
X67688Y-49976D01*
X67593Y-50119D01*
X67560Y-50287D01*
X67560Y-50712D01*
X67593Y-50880D01*
X67688Y-51023D01*
X67831Y-51119D01*
X68000Y-51152D01*
X68168Y-51119D01*
X68311Y-51023D01*
X68406Y-50880D01*
X68440Y-50712D01*
X68440Y-51335D01*
X67440Y-51335D01*
X67440Y-50712D01*
X67440Y-50287D01*
X67406Y-50119D01*
X67311Y-49976D01*
X67168Y-49880D01*
X67000Y-49847D01*
X66831Y-49880D01*
X66688Y-49976D01*
X66593Y-50119D01*
X66560Y-50287D01*
X66560Y-50712D01*
X66593Y-50880D01*
X66688Y-51023D01*
X66831Y-51119D01*
X67000Y-51152D01*
X67168Y-51119D01*
X67311Y-51023D01*
X67406Y-50880D01*
X67440Y-50712D01*
X67440Y-51335D01*
X66440Y-51335D01*
X66440Y-50712D01*
X66440Y-50287D01*
X66406Y-50119D01*
X66311Y-49976D01*
X66168Y-49880D01*
X66000Y-49847D01*
X65831Y-49880D01*
X65688Y-49976D01*
X65593Y-50119D01*
X65560Y-50287D01*
X65560Y-50712D01*
X65593Y-50880D01*
X65688Y-51023D01*
X65831Y-51119D01*
X66000Y-51152D01*
X66168Y-51119D01*
X66311Y-51023D01*
X66406Y-50880D01*
X66440Y-50712D01*
X66440Y-51335D01*
X65440Y-51335D01*
X65440Y-50712D01*
X65440Y-50287D01*
X65406Y-50119D01*
X65311Y-49976D01*
X65168Y-49880D01*
X65000Y-49847D01*
X64831Y-49880D01*
X64688Y-49976D01*
X64593Y-50119D01*
X64560Y-50287D01*
X64560Y-50712D01*
X64593Y-50880D01*
X64688Y-51023D01*
X64831Y-51119D01*
X65000Y-51152D01*
X65168Y-51119D01*
X65311Y-51023D01*
X65406Y-50880D01*
X65440Y-50712D01*
X65440Y-51335D01*
X63440Y-51335D01*
X63440Y-50712D01*
X63440Y-50287D01*
X63406Y-50119D01*
X63311Y-49976D01*
X63168Y-49880D01*
X63000Y-49847D01*
X62831Y-49880D01*
X62688Y-49976D01*
X62593Y-50119D01*
X62560Y-50287D01*
X62560Y-50712D01*
X62593Y-50880D01*
X62688Y-51023D01*
X62831Y-51119D01*
X63000Y-51152D01*
X63168Y-51119D01*
X63311Y-51023D01*
X63406Y-50880D01*
X63440Y-50712D01*
X63440Y-51335D01*
X60540Y-51335D01*
X60540Y-50760D01*
X60540Y-50560D01*
X60060Y-50560D01*
X60060Y-51176D01*
X60143Y-51220D01*
X60339Y-51124D01*
X60475Y-50962D01*
X60540Y-50760D01*
X60540Y-51335D01*
X59940Y-51335D01*
X59940Y-51176D01*
X59940Y-50560D01*
X59460Y-50560D01*
X59460Y-50760D01*
X59524Y-50962D01*
X59660Y-51124D01*
X59856Y-51220D01*
X59940Y-51176D01*
X59940Y-51335D01*
X50875Y-51335D01*
X51017Y-51276D01*
X51275Y-51018D01*
X51414Y-50682D01*
X51415Y-50318D01*
X51276Y-49982D01*
X51018Y-49724D01*
X50682Y-49585D01*
X50318Y-49584D01*
X49982Y-49723D01*
X49724Y-49981D01*
X49585Y-50317D01*
X49584Y-50681D01*
X49723Y-51017D01*
X49981Y-51275D01*
X50124Y-51335D01*
X43665Y-51335D01*
X43665Y-30665D01*
X50624Y-30665D01*
X50482Y-30723D01*
X50224Y-30981D01*
X50085Y-31317D01*
X50084Y-31681D01*
X50223Y-32017D01*
X50481Y-32275D01*
X50817Y-32414D01*
X51181Y-32415D01*
X51517Y-32276D01*
X51775Y-32018D01*
X51914Y-31682D01*
X51915Y-31318D01*
X51776Y-30982D01*
X51518Y-30724D01*
X51375Y-30665D01*
X80124Y-30665D01*
X79982Y-30723D01*
X79724Y-30981D01*
X79585Y-31317D01*
X79584Y-31681D01*
X79723Y-32017D01*
X79981Y-32275D01*
X80317Y-32414D01*
X80681Y-32415D01*
X81017Y-32276D01*
X81275Y-32018D01*
X81414Y-31682D01*
X81415Y-31318D01*
X81276Y-30982D01*
X81018Y-30724D01*
X80875Y-30665D01*
X89335Y-30665D01*
X89335Y-51335D01*
X89335Y-51335D01*
G37*
G54D22*
X89335Y-51335D02*
X83375Y-51335D01*
X83517Y-51276D01*
X83775Y-51018D01*
X83914Y-50682D01*
X83915Y-50318D01*
X83776Y-49982D01*
X83518Y-49724D01*
X83440Y-49691D01*
X83440Y-48412D01*
X83440Y-47412D01*
X83440Y-46412D01*
X83440Y-45412D01*
X83440Y-44412D01*
X83440Y-43412D01*
X83440Y-42412D01*
X83440Y-41412D01*
X83440Y-40412D01*
X83440Y-39412D01*
X83440Y-38412D01*
X83440Y-37412D01*
X83440Y-36412D01*
X83440Y-35412D01*
X83440Y-34412D01*
X83440Y-33412D01*
X83440Y-32412D01*
X83440Y-31412D01*
X83373Y-31251D01*
X83249Y-31127D01*
X83087Y-31060D01*
X82912Y-31059D01*
X82751Y-31126D01*
X82627Y-31250D01*
X82560Y-31412D01*
X82559Y-31587D01*
X82626Y-31748D01*
X82750Y-31872D01*
X82912Y-31939D01*
X83087Y-31940D01*
X83248Y-31873D01*
X83372Y-31749D01*
X83439Y-31587D01*
X83440Y-31412D01*
X83440Y-32412D01*
X83373Y-32251D01*
X83249Y-32127D01*
X83087Y-32060D01*
X82912Y-32059D01*
X82751Y-32126D01*
X82627Y-32250D01*
X82560Y-32412D01*
X82559Y-32587D01*
X82626Y-32748D01*
X82750Y-32872D01*
X82912Y-32939D01*
X83087Y-32940D01*
X83248Y-32873D01*
X83372Y-32749D01*
X83439Y-32587D01*
X83440Y-32412D01*
X83440Y-33412D01*
X83373Y-33251D01*
X83249Y-33127D01*
X83087Y-33060D01*
X82912Y-33059D01*
X82751Y-33126D01*
X82627Y-33250D01*
X82560Y-33412D01*
X82559Y-33587D01*
X82626Y-33748D01*
X82750Y-33872D01*
X82912Y-33939D01*
X83087Y-33940D01*
X83248Y-33873D01*
X83372Y-33749D01*
X83439Y-33587D01*
X83440Y-33412D01*
X83440Y-34412D01*
X83373Y-34251D01*
X83249Y-34127D01*
X83087Y-34060D01*
X82912Y-34059D01*
X82751Y-34126D01*
X82627Y-34250D01*
X82560Y-34412D01*
X82559Y-34587D01*
X82626Y-34748D01*
X82750Y-34872D01*
X82912Y-34939D01*
X83087Y-34940D01*
X83248Y-34873D01*
X83372Y-34749D01*
X83439Y-34587D01*
X83440Y-34412D01*
X83440Y-35412D01*
X83373Y-35251D01*
X83249Y-35127D01*
X83087Y-35060D01*
X82912Y-35059D01*
X82751Y-35126D01*
X82627Y-35250D01*
X82560Y-35412D01*
X82559Y-35587D01*
X82626Y-35748D01*
X82750Y-35872D01*
X82912Y-35939D01*
X83087Y-35940D01*
X83248Y-35873D01*
X83372Y-35749D01*
X83439Y-35587D01*
X83440Y-35412D01*
X83440Y-36412D01*
X83373Y-36251D01*
X83249Y-36127D01*
X83087Y-36060D01*
X82912Y-36059D01*
X82751Y-36126D01*
X82627Y-36250D01*
X82560Y-36412D01*
X82559Y-36587D01*
X82626Y-36748D01*
X82750Y-36872D01*
X82912Y-36939D01*
X83087Y-36940D01*
X83248Y-36873D01*
X83372Y-36749D01*
X83439Y-36587D01*
X83440Y-36412D01*
X83440Y-37412D01*
X83373Y-37251D01*
X83249Y-37127D01*
X83087Y-37060D01*
X82912Y-37059D01*
X82751Y-37126D01*
X82627Y-37250D01*
X82560Y-37412D01*
X82559Y-37587D01*
X82626Y-37748D01*
X82750Y-37872D01*
X82912Y-37939D01*
X83087Y-37940D01*
X83248Y-37873D01*
X83372Y-37749D01*
X83439Y-37587D01*
X83440Y-37412D01*
X83440Y-38412D01*
X83373Y-38251D01*
X83249Y-38127D01*
X83087Y-38060D01*
X82912Y-38059D01*
X82751Y-38126D01*
X82627Y-38250D01*
X82560Y-38412D01*
X82559Y-38587D01*
X82626Y-38748D01*
X82750Y-38872D01*
X82912Y-38939D01*
X83087Y-38940D01*
X83248Y-38873D01*
X83372Y-38749D01*
X83439Y-38587D01*
X83440Y-38412D01*
X83440Y-39412D01*
X83373Y-39251D01*
X83249Y-39127D01*
X83087Y-39060D01*
X82912Y-39059D01*
X82751Y-39126D01*
X82627Y-39250D01*
X82560Y-39412D01*
X82559Y-39587D01*
X82626Y-39748D01*
X82750Y-39872D01*
X82912Y-39939D01*
X83087Y-39940D01*
X83248Y-39873D01*
X83372Y-39749D01*
X83439Y-39587D01*
X83440Y-39412D01*
X83440Y-40412D01*
X83373Y-40251D01*
X83249Y-40127D01*
X83087Y-40060D01*
X82912Y-40059D01*
X82751Y-40126D01*
X82627Y-40250D01*
X82560Y-40412D01*
X82559Y-40587D01*
X82626Y-40748D01*
X82750Y-40872D01*
X82912Y-40939D01*
X83087Y-40940D01*
X83248Y-40873D01*
X83372Y-40749D01*
X83439Y-40587D01*
X83440Y-40412D01*
X83440Y-41412D01*
X83373Y-41251D01*
X83249Y-41127D01*
X83087Y-41060D01*
X82912Y-41059D01*
X82751Y-41126D01*
X82627Y-41250D01*
X82560Y-41412D01*
X82559Y-41587D01*
X82626Y-41748D01*
X82750Y-41872D01*
X82912Y-41939D01*
X83087Y-41940D01*
X83248Y-41873D01*
X83372Y-41749D01*
X83439Y-41587D01*
X83440Y-41412D01*
X83440Y-42412D01*
X83373Y-42251D01*
X83249Y-42127D01*
X83087Y-42060D01*
X82912Y-42059D01*
X82751Y-42126D01*
X82627Y-42250D01*
X82560Y-42412D01*
X82559Y-42587D01*
X82626Y-42748D01*
X82750Y-42872D01*
X82912Y-42939D01*
X83087Y-42940D01*
X83248Y-42873D01*
X83372Y-42749D01*
X83439Y-42587D01*
X83440Y-42412D01*
X83440Y-43412D01*
X83373Y-43251D01*
X83249Y-43127D01*
X83087Y-43060D01*
X82912Y-43059D01*
X82751Y-43126D01*
X82627Y-43250D01*
X82560Y-43412D01*
X82559Y-43587D01*
X82626Y-43748D01*
X82750Y-43872D01*
X82912Y-43939D01*
X83087Y-43940D01*
X83248Y-43873D01*
X83372Y-43749D01*
X83439Y-43587D01*
X83440Y-43412D01*
X83440Y-44412D01*
X83373Y-44251D01*
X83249Y-44127D01*
X83087Y-44060D01*
X82912Y-44059D01*
X82751Y-44126D01*
X82627Y-44250D01*
X82560Y-44412D01*
X82559Y-44587D01*
X82626Y-44748D01*
X82750Y-44872D01*
X82912Y-44939D01*
X83087Y-44940D01*
X83248Y-44873D01*
X83372Y-44749D01*
X83439Y-44587D01*
X83440Y-44412D01*
X83440Y-45412D01*
X83373Y-45251D01*
X83249Y-45127D01*
X83087Y-45060D01*
X82912Y-45059D01*
X82751Y-45126D01*
X82627Y-45250D01*
X82560Y-45412D01*
X82559Y-45587D01*
X82626Y-45748D01*
X82750Y-45872D01*
X82912Y-45939D01*
X83087Y-45940D01*
X83248Y-45873D01*
X83372Y-45749D01*
X83439Y-45587D01*
X83440Y-45412D01*
X83440Y-46412D01*
X83373Y-46251D01*
X83249Y-46127D01*
X83087Y-46060D01*
X82912Y-46059D01*
X82751Y-46126D01*
X82627Y-46250D01*
X82560Y-46412D01*
X82559Y-46587D01*
X82626Y-46748D01*
X82750Y-46872D01*
X82912Y-46939D01*
X83087Y-46940D01*
X83248Y-46873D01*
X83372Y-46749D01*
X83439Y-46587D01*
X83440Y-46412D01*
X83440Y-47412D01*
X83373Y-47251D01*
X83249Y-47127D01*
X83087Y-47060D01*
X82912Y-47059D01*
X82751Y-47126D01*
X82627Y-47250D01*
X82560Y-47412D01*
X82559Y-47587D01*
X82626Y-47748D01*
X82750Y-47872D01*
X82912Y-47939D01*
X83087Y-47940D01*
X83248Y-47873D01*
X83372Y-47749D01*
X83439Y-47587D01*
X83440Y-47412D01*
X83440Y-48412D01*
X83373Y-48251D01*
X83249Y-48127D01*
X83087Y-48060D01*
X82912Y-48059D01*
X82751Y-48126D01*
X82627Y-48250D01*
X82560Y-48412D01*
X82559Y-48587D01*
X82626Y-48748D01*
X82750Y-48872D01*
X82912Y-48939D01*
X83087Y-48940D01*
X83248Y-48873D01*
X83372Y-48749D01*
X83439Y-48587D01*
X83440Y-48412D01*
X83440Y-49691D01*
X83182Y-49585D01*
X82818Y-49584D01*
X82482Y-49723D01*
X82440Y-49766D01*
X82440Y-48412D01*
X82440Y-47412D01*
X82440Y-46412D01*
X82440Y-45412D01*
X82440Y-44412D01*
X82440Y-43412D01*
X82440Y-42412D01*
X82440Y-41412D01*
X82440Y-40412D01*
X82440Y-39412D01*
X82440Y-38412D01*
X82440Y-37412D01*
X82440Y-36412D01*
X82440Y-35412D01*
X82440Y-34412D01*
X82440Y-33412D01*
X82440Y-32412D01*
X82440Y-31412D01*
X82373Y-31251D01*
X82249Y-31127D01*
X82087Y-31060D01*
X81912Y-31059D01*
X81751Y-31126D01*
X81627Y-31250D01*
X81560Y-31412D01*
X81559Y-31587D01*
X81626Y-31748D01*
X81750Y-31872D01*
X81912Y-31939D01*
X82087Y-31940D01*
X82248Y-31873D01*
X82372Y-31749D01*
X82439Y-31587D01*
X82440Y-31412D01*
X82440Y-32412D01*
X82373Y-32251D01*
X82249Y-32127D01*
X82087Y-32060D01*
X81912Y-32059D01*
X81751Y-32126D01*
X81627Y-32250D01*
X81560Y-32412D01*
X81559Y-32587D01*
X81626Y-32748D01*
X81750Y-32872D01*
X81912Y-32939D01*
X82087Y-32940D01*
X82248Y-32873D01*
X82372Y-32749D01*
X82439Y-32587D01*
X82440Y-32412D01*
X82440Y-33412D01*
X82373Y-33251D01*
X82249Y-33127D01*
X82087Y-33060D01*
X81912Y-33059D01*
X81751Y-33126D01*
X81627Y-33250D01*
X81560Y-33412D01*
X81559Y-33587D01*
X81626Y-33748D01*
X81750Y-33872D01*
X81912Y-33939D01*
X82087Y-33940D01*
X82248Y-33873D01*
X82372Y-33749D01*
X82439Y-33587D01*
X82440Y-33412D01*
X82440Y-34412D01*
X82373Y-34251D01*
X82249Y-34127D01*
X82087Y-34060D01*
X81912Y-34059D01*
X81751Y-34126D01*
X81627Y-34250D01*
X81560Y-34412D01*
X81559Y-34587D01*
X81626Y-34748D01*
X81750Y-34872D01*
X81912Y-34939D01*
X82087Y-34940D01*
X82248Y-34873D01*
X82372Y-34749D01*
X82439Y-34587D01*
X82440Y-34412D01*
X82440Y-35412D01*
X82373Y-35251D01*
X82249Y-35127D01*
X82087Y-35060D01*
X81912Y-35059D01*
X81751Y-35126D01*
X81627Y-35250D01*
X81560Y-35412D01*
X81559Y-35587D01*
X81626Y-35748D01*
X81750Y-35872D01*
X81912Y-35939D01*
X82087Y-35940D01*
X82248Y-35873D01*
X82372Y-35749D01*
X82439Y-35587D01*
X82440Y-35412D01*
X82440Y-36412D01*
X82373Y-36251D01*
X82249Y-36127D01*
X82087Y-36060D01*
X81912Y-36059D01*
X81751Y-36126D01*
X81627Y-36250D01*
X81560Y-36412D01*
X81559Y-36587D01*
X81626Y-36748D01*
X81750Y-36872D01*
X81912Y-36939D01*
X82087Y-36940D01*
X82248Y-36873D01*
X82372Y-36749D01*
X82439Y-36587D01*
X82440Y-36412D01*
X82440Y-37412D01*
X82373Y-37251D01*
X82249Y-37127D01*
X82087Y-37060D01*
X81912Y-37059D01*
X81751Y-37126D01*
X81627Y-37250D01*
X81560Y-37412D01*
X81559Y-37587D01*
X81626Y-37748D01*
X81750Y-37872D01*
X81912Y-37939D01*
X82087Y-37940D01*
X82248Y-37873D01*
X82372Y-37749D01*
X82439Y-37587D01*
X82440Y-37412D01*
X82440Y-38412D01*
X82373Y-38251D01*
X82249Y-38127D01*
X82087Y-38060D01*
X81912Y-38059D01*
X81751Y-38126D01*
X81627Y-38250D01*
X81560Y-38412D01*
X81559Y-38587D01*
X81626Y-38748D01*
X81750Y-38872D01*
X81912Y-38939D01*
X82087Y-38940D01*
X82248Y-38873D01*
X82372Y-38749D01*
X82439Y-38587D01*
X82440Y-38412D01*
X82440Y-39412D01*
X82373Y-39251D01*
X82249Y-39127D01*
X82087Y-39060D01*
X81912Y-39059D01*
X81751Y-39126D01*
X81627Y-39250D01*
X81560Y-39412D01*
X81559Y-39587D01*
X81626Y-39748D01*
X81750Y-39872D01*
X81912Y-39939D01*
X82087Y-39940D01*
X82248Y-39873D01*
X82372Y-39749D01*
X82439Y-39587D01*
X82440Y-39412D01*
X82440Y-40412D01*
X82373Y-40251D01*
X82249Y-40127D01*
X82087Y-40060D01*
X81912Y-40059D01*
X81751Y-40126D01*
X81627Y-40250D01*
X81560Y-40412D01*
X81559Y-40587D01*
X81626Y-40748D01*
X81750Y-40872D01*
X81912Y-40939D01*
X82087Y-40940D01*
X82248Y-40873D01*
X82372Y-40749D01*
X82439Y-40587D01*
X82440Y-40412D01*
X82440Y-41412D01*
X82373Y-41251D01*
X82249Y-41127D01*
X82087Y-41060D01*
X81912Y-41059D01*
X81751Y-41126D01*
X81627Y-41250D01*
X81560Y-41412D01*
X81559Y-41587D01*
X81626Y-41748D01*
X81750Y-41872D01*
X81912Y-41939D01*
X82087Y-41940D01*
X82248Y-41873D01*
X82372Y-41749D01*
X82439Y-41587D01*
X82440Y-41412D01*
X82440Y-42412D01*
X82373Y-42251D01*
X82249Y-42127D01*
X82087Y-42060D01*
X81912Y-42059D01*
X81751Y-42126D01*
X81627Y-42250D01*
X81560Y-42412D01*
X81559Y-42587D01*
X81626Y-42748D01*
X81750Y-42872D01*
X81912Y-42939D01*
X82087Y-42940D01*
X82248Y-42873D01*
X82372Y-42749D01*
X82439Y-42587D01*
X82440Y-42412D01*
X82440Y-43412D01*
X82373Y-43251D01*
X82249Y-43127D01*
X82087Y-43060D01*
X81912Y-43059D01*
X81751Y-43126D01*
X81627Y-43250D01*
X81560Y-43412D01*
X81559Y-43587D01*
X81626Y-43748D01*
X81750Y-43872D01*
X81912Y-43939D01*
X82087Y-43940D01*
X82248Y-43873D01*
X82372Y-43749D01*
X82439Y-43587D01*
X82440Y-43412D01*
X82440Y-44412D01*
X82373Y-44251D01*
X82249Y-44127D01*
X82087Y-44060D01*
X81912Y-44059D01*
X81751Y-44126D01*
X81627Y-44250D01*
X81560Y-44412D01*
X81559Y-44587D01*
X81626Y-44748D01*
X81750Y-44872D01*
X81912Y-44939D01*
X82087Y-44940D01*
X82248Y-44873D01*
X82372Y-44749D01*
X82439Y-44587D01*
X82440Y-44412D01*
X82440Y-45412D01*
X82373Y-45251D01*
X82249Y-45127D01*
X82087Y-45060D01*
X81912Y-45059D01*
X81751Y-45126D01*
X81627Y-45250D01*
X81560Y-45412D01*
X81559Y-45587D01*
X81626Y-45748D01*
X81750Y-45872D01*
X81912Y-45939D01*
X82087Y-45940D01*
X82248Y-45873D01*
X82372Y-45749D01*
X82439Y-45587D01*
X82440Y-45412D01*
X82440Y-46412D01*
X82373Y-46251D01*
X82249Y-46127D01*
X82087Y-46060D01*
X81912Y-46059D01*
X81751Y-46126D01*
X81627Y-46250D01*
X81560Y-46412D01*
X81559Y-46587D01*
X81626Y-46748D01*
X81750Y-46872D01*
X81912Y-46939D01*
X82087Y-46940D01*
X82248Y-46873D01*
X82372Y-46749D01*
X82439Y-46587D01*
X82440Y-46412D01*
X82440Y-47412D01*
X82373Y-47251D01*
X82249Y-47127D01*
X82087Y-47060D01*
X81912Y-47059D01*
X81751Y-47126D01*
X81627Y-47250D01*
X81560Y-47412D01*
X81559Y-47587D01*
X81626Y-47748D01*
X81750Y-47872D01*
X81912Y-47939D01*
X82087Y-47940D01*
X82248Y-47873D01*
X82372Y-47749D01*
X82439Y-47587D01*
X82440Y-47412D01*
X82440Y-48412D01*
X82373Y-48251D01*
X82249Y-48127D01*
X82087Y-48060D01*
X81912Y-48059D01*
X81751Y-48126D01*
X81627Y-48250D01*
X81560Y-48412D01*
X81559Y-48587D01*
X81626Y-48748D01*
X81750Y-48872D01*
X81912Y-48939D01*
X82087Y-48940D01*
X82248Y-48873D01*
X82372Y-48749D01*
X82439Y-48587D01*
X82440Y-48412D01*
X82440Y-49766D01*
X82224Y-49981D01*
X82085Y-50317D01*
X82084Y-50681D01*
X82223Y-51017D01*
X82481Y-51275D01*
X82624Y-51335D01*
X81440Y-51335D01*
X81440Y-50712D01*
X81440Y-50287D01*
X81406Y-50119D01*
X81311Y-49976D01*
X81168Y-49880D01*
X81000Y-49847D01*
X80831Y-49880D01*
X80688Y-49976D01*
X80593Y-50119D01*
X80560Y-50287D01*
X80560Y-50712D01*
X80593Y-50880D01*
X80688Y-51023D01*
X80831Y-51119D01*
X81000Y-51152D01*
X81168Y-51119D01*
X81311Y-51023D01*
X81406Y-50880D01*
X81440Y-50712D01*
X81440Y-51335D01*
X80440Y-51335D01*
X80440Y-50712D01*
X80440Y-50287D01*
X80406Y-50119D01*
X80311Y-49976D01*
X80168Y-49880D01*
X80000Y-49847D01*
X79831Y-49880D01*
X79688Y-49976D01*
X79593Y-50119D01*
X79560Y-50287D01*
X79560Y-50712D01*
X79593Y-50880D01*
X79688Y-51023D01*
X79831Y-51119D01*
X80000Y-51152D01*
X80168Y-51119D01*
X80311Y-51023D01*
X80406Y-50880D01*
X80440Y-50712D01*
X80440Y-51335D01*
X79440Y-51335D01*
X79440Y-50712D01*
X79440Y-50287D01*
X79440Y-31712D01*
X79440Y-31287D01*
X79406Y-31119D01*
X79311Y-30976D01*
X79168Y-30880D01*
X79000Y-30847D01*
X78831Y-30880D01*
X78688Y-30976D01*
X78593Y-31119D01*
X78560Y-31287D01*
X78560Y-31712D01*
X78593Y-31880D01*
X78688Y-32023D01*
X78831Y-32119D01*
X79000Y-32152D01*
X79168Y-32119D01*
X79311Y-32023D01*
X79406Y-31880D01*
X79440Y-31712D01*
X79440Y-50287D01*
X79406Y-50119D01*
X79311Y-49976D01*
X79168Y-49880D01*
X79000Y-49847D01*
X78940Y-49859D01*
X78940Y-44313D01*
X78797Y-43968D01*
X78533Y-43703D01*
X78440Y-43664D01*
X78440Y-31712D01*
X78440Y-31287D01*
X78406Y-31119D01*
X78311Y-30976D01*
X78168Y-30880D01*
X78000Y-30847D01*
X77831Y-30880D01*
X77688Y-30976D01*
X77593Y-31119D01*
X77560Y-31287D01*
X77560Y-31712D01*
X77593Y-31880D01*
X77688Y-32023D01*
X77831Y-32119D01*
X78000Y-32152D01*
X78168Y-32119D01*
X78311Y-32023D01*
X78406Y-31880D01*
X78440Y-31712D01*
X78440Y-43664D01*
X78260Y-43590D01*
X78260Y-39097D01*
X78240Y-38998D01*
X78183Y-38914D01*
X77440Y-38170D01*
X77440Y-31712D01*
X77440Y-31287D01*
X77406Y-31119D01*
X77311Y-30976D01*
X77168Y-30880D01*
X77000Y-30847D01*
X76831Y-30880D01*
X76688Y-30976D01*
X76593Y-31119D01*
X76560Y-31287D01*
X76560Y-31712D01*
X76593Y-31880D01*
X76688Y-32023D01*
X76831Y-32119D01*
X77000Y-32152D01*
X77168Y-32119D01*
X77311Y-32023D01*
X77406Y-31880D01*
X77440Y-31712D01*
X77440Y-38170D01*
X76345Y-37075D01*
X76345Y-33455D01*
X76345Y-33375D01*
X76347Y-33375D01*
X76399Y-33353D01*
X76438Y-33314D01*
X76459Y-33262D01*
X76460Y-33207D01*
X76460Y-33158D01*
X76470Y-33166D01*
X76539Y-33180D01*
X76539Y-33180D01*
X76539Y-33262D01*
X76561Y-33314D01*
X76600Y-33353D01*
X76652Y-33374D01*
X76707Y-33375D01*
X77177Y-33375D01*
X77229Y-33353D01*
X77268Y-33314D01*
X77289Y-33262D01*
X77290Y-33207D01*
X77290Y-32737D01*
X77268Y-32685D01*
X77229Y-32646D01*
X77177Y-32625D01*
X77122Y-32624D01*
X76653Y-32624D01*
X76165Y-32136D01*
X76145Y-32123D01*
X76168Y-32119D01*
X76311Y-32023D01*
X76406Y-31880D01*
X76440Y-31712D01*
X76440Y-31287D01*
X76406Y-31119D01*
X76311Y-30976D01*
X76168Y-30880D01*
X76000Y-30847D01*
X75831Y-30880D01*
X75688Y-30976D01*
X75593Y-31119D01*
X75560Y-31287D01*
X75560Y-31712D01*
X75593Y-31880D01*
X75688Y-32023D01*
X75778Y-32083D01*
X75221Y-32083D01*
X75311Y-32023D01*
X75406Y-31880D01*
X75440Y-31712D01*
X75440Y-31287D01*
X75406Y-31119D01*
X75311Y-30976D01*
X75168Y-30880D01*
X75000Y-30847D01*
X74831Y-30880D01*
X74688Y-30976D01*
X74593Y-31119D01*
X74560Y-31287D01*
X74560Y-31712D01*
X74593Y-31880D01*
X74688Y-32023D01*
X74778Y-32083D01*
X74221Y-32083D01*
X74311Y-32023D01*
X74406Y-31880D01*
X74440Y-31712D01*
X74440Y-31287D01*
X74406Y-31119D01*
X74311Y-30976D01*
X74168Y-30880D01*
X74000Y-30847D01*
X73831Y-30880D01*
X73688Y-30976D01*
X73593Y-31119D01*
X73560Y-31287D01*
X73560Y-31712D01*
X73593Y-31880D01*
X73688Y-32023D01*
X73778Y-32083D01*
X73221Y-32083D01*
X73311Y-32023D01*
X73406Y-31880D01*
X73440Y-31712D01*
X73440Y-31287D01*
X73406Y-31119D01*
X73311Y-30976D01*
X73168Y-30880D01*
X73000Y-30847D01*
X72831Y-30880D01*
X72688Y-30976D01*
X72593Y-31119D01*
X72560Y-31287D01*
X72560Y-31712D01*
X72593Y-31880D01*
X72688Y-32023D01*
X72778Y-32083D01*
X72221Y-32083D01*
X72311Y-32023D01*
X72406Y-31880D01*
X72440Y-31712D01*
X72440Y-31287D01*
X72406Y-31119D01*
X72311Y-30976D01*
X72168Y-30880D01*
X72000Y-30847D01*
X71831Y-30880D01*
X71688Y-30976D01*
X71593Y-31119D01*
X71560Y-31287D01*
X71560Y-31712D01*
X71593Y-31880D01*
X71688Y-32023D01*
X71778Y-32083D01*
X70221Y-32083D01*
X70311Y-32023D01*
X70406Y-31880D01*
X70440Y-31712D01*
X70440Y-31287D01*
X70406Y-31119D01*
X70311Y-30976D01*
X70168Y-30880D01*
X70000Y-30847D01*
X69831Y-30880D01*
X69688Y-30976D01*
X69593Y-31119D01*
X69560Y-31287D01*
X69560Y-31712D01*
X69593Y-31880D01*
X69688Y-32023D01*
X69778Y-32083D01*
X69221Y-32083D01*
X69311Y-32023D01*
X69406Y-31880D01*
X69440Y-31712D01*
X69440Y-31287D01*
X69406Y-31119D01*
X69311Y-30976D01*
X69168Y-30880D01*
X69000Y-30847D01*
X68831Y-30880D01*
X68688Y-30976D01*
X68593Y-31119D01*
X68560Y-31287D01*
X68560Y-31712D01*
X68593Y-31880D01*
X68688Y-32023D01*
X68778Y-32083D01*
X68221Y-32083D01*
X68311Y-32023D01*
X68406Y-31880D01*
X68440Y-31712D01*
X68440Y-31287D01*
X68406Y-31119D01*
X68311Y-30976D01*
X68168Y-30880D01*
X68000Y-30847D01*
X67831Y-30880D01*
X67688Y-30976D01*
X67593Y-31119D01*
X67560Y-31287D01*
X67560Y-31712D01*
X67593Y-31880D01*
X67688Y-32023D01*
X67778Y-32083D01*
X67221Y-32083D01*
X67311Y-32023D01*
X67406Y-31880D01*
X67440Y-31712D01*
X67440Y-31287D01*
X67406Y-31119D01*
X67311Y-30976D01*
X67168Y-30880D01*
X67000Y-30847D01*
X66831Y-30880D01*
X66688Y-30976D01*
X66593Y-31119D01*
X66560Y-31287D01*
X66560Y-31712D01*
X66593Y-31880D01*
X66688Y-32023D01*
X66778Y-32083D01*
X66221Y-32083D01*
X66311Y-32023D01*
X66406Y-31880D01*
X66440Y-31712D01*
X66440Y-31287D01*
X66406Y-31119D01*
X66311Y-30976D01*
X66168Y-30880D01*
X66000Y-30847D01*
X65831Y-30880D01*
X65688Y-30976D01*
X65593Y-31119D01*
X65560Y-31287D01*
X65560Y-31712D01*
X65593Y-31880D01*
X65688Y-32023D01*
X65778Y-32083D01*
X65221Y-32083D01*
X65311Y-32023D01*
X65406Y-31880D01*
X65440Y-31712D01*
X65440Y-31287D01*
X65406Y-31119D01*
X65311Y-30976D01*
X65168Y-30880D01*
X65000Y-30847D01*
X64831Y-30880D01*
X64688Y-30976D01*
X64593Y-31119D01*
X64560Y-31287D01*
X64560Y-31712D01*
X64593Y-31880D01*
X64688Y-32023D01*
X64778Y-32083D01*
X64221Y-32083D01*
X64311Y-32023D01*
X64406Y-31880D01*
X64440Y-31712D01*
X64440Y-31287D01*
X64406Y-31119D01*
X64311Y-30976D01*
X64168Y-30880D01*
X64000Y-30847D01*
X63831Y-30880D01*
X63688Y-30976D01*
X63593Y-31119D01*
X63560Y-31287D01*
X63560Y-31712D01*
X63593Y-31880D01*
X63688Y-32023D01*
X63778Y-32083D01*
X63221Y-32083D01*
X63311Y-32023D01*
X63406Y-31880D01*
X63440Y-31712D01*
X63440Y-31287D01*
X63406Y-31119D01*
X63311Y-30976D01*
X63168Y-30880D01*
X63000Y-30847D01*
X62831Y-30880D01*
X62688Y-30976D01*
X62593Y-31119D01*
X62560Y-31287D01*
X62560Y-31712D01*
X62593Y-31880D01*
X62688Y-32023D01*
X62778Y-32083D01*
X61621Y-32083D01*
X61711Y-32023D01*
X61806Y-31880D01*
X61840Y-31712D01*
X61840Y-31287D01*
X61806Y-31119D01*
X61711Y-30976D01*
X61568Y-30880D01*
X61400Y-30847D01*
X61231Y-30880D01*
X61088Y-30976D01*
X60993Y-31119D01*
X60960Y-31287D01*
X60960Y-31712D01*
X60993Y-31880D01*
X61088Y-32023D01*
X61178Y-32083D01*
X60621Y-32083D01*
X60711Y-32023D01*
X60806Y-31880D01*
X60840Y-31712D01*
X60840Y-31287D01*
X60806Y-31119D01*
X60711Y-30976D01*
X60568Y-30880D01*
X60400Y-30847D01*
X60231Y-30880D01*
X60088Y-30976D01*
X59993Y-31119D01*
X59960Y-31287D01*
X59960Y-31712D01*
X59993Y-31880D01*
X60088Y-32023D01*
X60178Y-32083D01*
X59621Y-32083D01*
X59711Y-32023D01*
X59806Y-31880D01*
X59840Y-31712D01*
X59840Y-31287D01*
X59806Y-31119D01*
X59711Y-30976D01*
X59568Y-30880D01*
X59400Y-30847D01*
X59231Y-30880D01*
X59088Y-30976D01*
X58993Y-31119D01*
X58960Y-31287D01*
X58960Y-31712D01*
X58993Y-31880D01*
X59088Y-32023D01*
X59178Y-32083D01*
X58621Y-32083D01*
X58711Y-32023D01*
X58806Y-31880D01*
X58840Y-31712D01*
X58840Y-31287D01*
X58806Y-31119D01*
X58711Y-30976D01*
X58568Y-30880D01*
X58400Y-30847D01*
X58231Y-30880D01*
X58088Y-30976D01*
X57993Y-31119D01*
X57960Y-31287D01*
X57960Y-31712D01*
X57993Y-31880D01*
X58088Y-32023D01*
X58178Y-32083D01*
X57621Y-32083D01*
X57711Y-32023D01*
X57806Y-31880D01*
X57840Y-31712D01*
X57840Y-31287D01*
X57806Y-31119D01*
X57711Y-30976D01*
X57568Y-30880D01*
X57400Y-30847D01*
X57231Y-30880D01*
X57088Y-30976D01*
X56993Y-31119D01*
X56960Y-31287D01*
X56960Y-31712D01*
X56993Y-31880D01*
X57088Y-32023D01*
X57178Y-32083D01*
X56621Y-32083D01*
X56711Y-32023D01*
X56806Y-31880D01*
X56840Y-31712D01*
X56840Y-31287D01*
X56806Y-31119D01*
X56711Y-30976D01*
X56568Y-30880D01*
X56400Y-30847D01*
X56231Y-30880D01*
X56088Y-30976D01*
X55993Y-31119D01*
X55960Y-31287D01*
X55960Y-31712D01*
X55993Y-31880D01*
X56088Y-32023D01*
X56178Y-32083D01*
X55624Y-32083D01*
X55619Y-32084D01*
X55711Y-32023D01*
X55806Y-31880D01*
X55840Y-31712D01*
X55840Y-31287D01*
X55806Y-31119D01*
X55711Y-30976D01*
X55568Y-30880D01*
X55400Y-30847D01*
X55231Y-30880D01*
X55088Y-30976D01*
X54993Y-31119D01*
X54960Y-31287D01*
X54960Y-31712D01*
X54993Y-31880D01*
X55088Y-32023D01*
X55231Y-32119D01*
X55400Y-32152D01*
X55504Y-32131D01*
X55497Y-32136D01*
X54840Y-32793D01*
X54840Y-31712D01*
X54840Y-31287D01*
X54806Y-31119D01*
X54711Y-30976D01*
X54568Y-30880D01*
X54400Y-30847D01*
X54231Y-30880D01*
X54088Y-30976D01*
X53993Y-31119D01*
X53960Y-31287D01*
X53960Y-31712D01*
X53993Y-31880D01*
X54088Y-32023D01*
X54231Y-32119D01*
X54400Y-32152D01*
X54568Y-32119D01*
X54711Y-32023D01*
X54806Y-31880D01*
X54840Y-31712D01*
X54840Y-32793D01*
X53840Y-33793D01*
X53840Y-31712D01*
X53840Y-31287D01*
X53806Y-31119D01*
X53711Y-30976D01*
X53568Y-30880D01*
X53400Y-30847D01*
X53231Y-30880D01*
X53088Y-30976D01*
X52993Y-31119D01*
X52960Y-31287D01*
X52960Y-31712D01*
X52993Y-31880D01*
X53088Y-32023D01*
X53231Y-32119D01*
X53400Y-32152D01*
X53568Y-32119D01*
X53711Y-32023D01*
X53806Y-31880D01*
X53840Y-31712D01*
X53840Y-33793D01*
X52840Y-34793D01*
X52840Y-31712D01*
X52840Y-31287D01*
X52806Y-31119D01*
X52711Y-30976D01*
X52568Y-30880D01*
X52400Y-30847D01*
X52231Y-30880D01*
X52088Y-30976D01*
X51993Y-31119D01*
X51960Y-31287D01*
X51960Y-31712D01*
X51993Y-31880D01*
X52088Y-32023D01*
X52231Y-32119D01*
X52400Y-32152D01*
X52568Y-32119D01*
X52711Y-32023D01*
X52806Y-31880D01*
X52840Y-31712D01*
X52840Y-34793D01*
X49159Y-38474D01*
X49120Y-38532D01*
X49106Y-38601D01*
X49106Y-40717D01*
X49120Y-40786D01*
X49159Y-40844D01*
X49200Y-40885D01*
X47930Y-40885D01*
X47917Y-40872D01*
X47859Y-40833D01*
X47790Y-40820D01*
X47790Y-40820D01*
X47790Y-40737D01*
X47768Y-40685D01*
X47729Y-40646D01*
X47677Y-40625D01*
X47622Y-40624D01*
X47152Y-40624D01*
X47100Y-40646D01*
X47061Y-40685D01*
X47040Y-40737D01*
X47039Y-40792D01*
X47039Y-41143D01*
X46960Y-41063D01*
X46960Y-40737D01*
X46938Y-40685D01*
X46899Y-40646D01*
X46847Y-40625D01*
X46792Y-40624D01*
X46322Y-40624D01*
X46270Y-40646D01*
X46231Y-40685D01*
X46210Y-40737D01*
X46209Y-40792D01*
X46209Y-41262D01*
X46231Y-41314D01*
X46270Y-41353D01*
X46322Y-41374D01*
X46377Y-41375D01*
X46648Y-41375D01*
X55249Y-49975D01*
X55249Y-49975D01*
X55285Y-49999D01*
X55320Y-50023D01*
X55320Y-50023D01*
X55404Y-50039D01*
X55646Y-50039D01*
X55593Y-50119D01*
X55560Y-50287D01*
X55560Y-50712D01*
X55593Y-50880D01*
X55688Y-51023D01*
X55831Y-51119D01*
X56000Y-51152D01*
X56168Y-51119D01*
X56311Y-51023D01*
X56406Y-50880D01*
X56440Y-50712D01*
X56440Y-50287D01*
X56406Y-50119D01*
X56353Y-50039D01*
X56646Y-50039D01*
X56593Y-50119D01*
X56560Y-50287D01*
X56560Y-50712D01*
X56593Y-50880D01*
X56688Y-51023D01*
X56831Y-51119D01*
X57000Y-51152D01*
X57168Y-51119D01*
X57311Y-51023D01*
X57406Y-50880D01*
X57440Y-50712D01*
X57440Y-50287D01*
X57406Y-50119D01*
X57353Y-50039D01*
X57646Y-50039D01*
X57593Y-50119D01*
X57560Y-50287D01*
X57560Y-50712D01*
X57593Y-50880D01*
X57688Y-51023D01*
X57831Y-51119D01*
X58000Y-51152D01*
X58168Y-51119D01*
X58311Y-51023D01*
X58406Y-50880D01*
X58440Y-50712D01*
X58440Y-50287D01*
X58406Y-50119D01*
X58353Y-50039D01*
X58646Y-50039D01*
X58593Y-50119D01*
X58560Y-50287D01*
X58560Y-50712D01*
X58593Y-50880D01*
X58688Y-51023D01*
X58831Y-51119D01*
X59000Y-51152D01*
X59168Y-51119D01*
X59311Y-51023D01*
X59406Y-50880D01*
X59440Y-50712D01*
X59440Y-50287D01*
X59406Y-50119D01*
X59353Y-50039D01*
X59523Y-50039D01*
X59460Y-50240D01*
X59460Y-50440D01*
X59940Y-50440D01*
X59940Y-50432D01*
X60060Y-50432D01*
X60060Y-50440D01*
X60540Y-50440D01*
X60540Y-50240D01*
X60476Y-50039D01*
X60646Y-50039D01*
X60593Y-50119D01*
X60560Y-50287D01*
X60560Y-50712D01*
X60593Y-50880D01*
X60688Y-51023D01*
X60831Y-51119D01*
X61000Y-51152D01*
X61168Y-51119D01*
X61311Y-51023D01*
X61406Y-50880D01*
X61440Y-50712D01*
X61440Y-50287D01*
X61406Y-50119D01*
X61353Y-50039D01*
X61646Y-50039D01*
X61593Y-50119D01*
X61560Y-50287D01*
X61560Y-50712D01*
X61593Y-50880D01*
X61688Y-51023D01*
X61831Y-51119D01*
X62000Y-51152D01*
X62168Y-51119D01*
X62311Y-51023D01*
X62406Y-50880D01*
X62440Y-50712D01*
X62440Y-50287D01*
X62406Y-50119D01*
X62311Y-49976D01*
X62220Y-49915D01*
X62220Y-49819D01*
X62203Y-49735D01*
X62155Y-49664D01*
X62084Y-49616D01*
X62000Y-49599D01*
X61220Y-49599D01*
X61220Y-47475D01*
X61266Y-47428D01*
X61314Y-47312D01*
X61315Y-47187D01*
X61267Y-47071D01*
X61178Y-46983D01*
X61062Y-46935D01*
X60937Y-46934D01*
X60821Y-46982D01*
X60733Y-47071D01*
X60685Y-47187D01*
X60684Y-47312D01*
X60732Y-47428D01*
X60780Y-47475D01*
X60780Y-49599D01*
X56043Y-49599D01*
X56043Y-44688D01*
X56036Y-44275D01*
X55891Y-43926D01*
X55748Y-43836D01*
X55663Y-43921D01*
X55663Y-43751D01*
X55573Y-43608D01*
X55188Y-43456D01*
X54775Y-43463D01*
X54426Y-43608D01*
X54336Y-43751D01*
X55000Y-44415D01*
X55663Y-43751D01*
X55663Y-43921D01*
X55084Y-44500D01*
X55748Y-45163D01*
X55891Y-45073D01*
X56043Y-44688D01*
X56043Y-49599D01*
X55663Y-49599D01*
X55663Y-45248D01*
X55000Y-44584D01*
X54915Y-44669D01*
X54915Y-44500D01*
X54251Y-43836D01*
X54108Y-43926D01*
X53956Y-44311D01*
X53963Y-44724D01*
X54108Y-45073D01*
X54251Y-45163D01*
X54915Y-44500D01*
X54915Y-44669D01*
X54336Y-45248D01*
X54426Y-45391D01*
X54811Y-45543D01*
X55224Y-45536D01*
X55573Y-45391D01*
X55663Y-45248D01*
X55663Y-49599D01*
X55496Y-49599D01*
X51630Y-45733D01*
X51630Y-41797D01*
X51630Y-41482D01*
X51629Y-41387D01*
X51593Y-41298D01*
X51525Y-41231D01*
X51437Y-41194D01*
X51370Y-41195D01*
X51310Y-41255D01*
X51310Y-41580D01*
X51570Y-41580D01*
X51630Y-41520D01*
X51630Y-41482D01*
X51630Y-41797D01*
X51630Y-41760D01*
X51570Y-41700D01*
X51310Y-41700D01*
X51310Y-42025D01*
X51370Y-42085D01*
X51437Y-42085D01*
X51525Y-42048D01*
X51593Y-41981D01*
X51629Y-41892D01*
X51630Y-41797D01*
X51630Y-45733D01*
X51190Y-45293D01*
X51190Y-42025D01*
X51190Y-41700D01*
X51070Y-41700D01*
X50930Y-41700D01*
X50810Y-41700D01*
X50810Y-42025D01*
X50870Y-42085D01*
X50937Y-42085D01*
X51000Y-42059D01*
X51062Y-42085D01*
X51130Y-42085D01*
X51190Y-42025D01*
X51190Y-45293D01*
X50690Y-44793D01*
X50690Y-42025D01*
X50690Y-41700D01*
X50570Y-41700D01*
X50430Y-41700D01*
X50310Y-41700D01*
X50310Y-42025D01*
X50370Y-42085D01*
X50437Y-42085D01*
X50500Y-42059D01*
X50562Y-42085D01*
X50630Y-42085D01*
X50690Y-42025D01*
X50690Y-44793D01*
X50190Y-44293D01*
X50190Y-42025D01*
X50190Y-41700D01*
X50070Y-41700D01*
X49930Y-41700D01*
X49810Y-41700D01*
X49810Y-42025D01*
X49870Y-42085D01*
X49937Y-42085D01*
X50000Y-42059D01*
X50062Y-42085D01*
X50130Y-42085D01*
X50190Y-42025D01*
X50190Y-44293D01*
X49690Y-43793D01*
X49690Y-42025D01*
X49690Y-41700D01*
X49430Y-41700D01*
X49370Y-41760D01*
X49369Y-41797D01*
X49370Y-41892D01*
X49406Y-41981D01*
X49474Y-42048D01*
X49562Y-42085D01*
X49630Y-42085D01*
X49690Y-42025D01*
X49690Y-43793D01*
X47271Y-41375D01*
X47677Y-41375D01*
X47729Y-41353D01*
X47768Y-41314D01*
X47789Y-41262D01*
X47790Y-41232D01*
X47855Y-41245D01*
X49460Y-41245D01*
X49406Y-41298D01*
X49370Y-41387D01*
X49369Y-41482D01*
X49370Y-41520D01*
X49430Y-41580D01*
X49690Y-41580D01*
X49690Y-41572D01*
X49810Y-41572D01*
X49810Y-41580D01*
X49930Y-41580D01*
X50070Y-41580D01*
X50190Y-41580D01*
X50190Y-41572D01*
X50310Y-41572D01*
X50310Y-41580D01*
X50430Y-41580D01*
X50570Y-41580D01*
X50690Y-41580D01*
X50690Y-41572D01*
X50810Y-41572D01*
X50810Y-41580D01*
X50930Y-41580D01*
X51070Y-41580D01*
X51190Y-41580D01*
X51190Y-41255D01*
X51130Y-41195D01*
X51062Y-41194D01*
X51000Y-41220D01*
X50984Y-41214D01*
X51017Y-41192D01*
X51377Y-40832D01*
X51377Y-40832D01*
X51416Y-40774D01*
X51429Y-40705D01*
X51430Y-40705D01*
X51430Y-40678D01*
X51457Y-40666D01*
X51491Y-40633D01*
X51509Y-40588D01*
X51510Y-40541D01*
X51510Y-40131D01*
X51491Y-40087D01*
X51458Y-40053D01*
X51413Y-40035D01*
X51366Y-40034D01*
X51086Y-40034D01*
X51042Y-40053D01*
X51008Y-40086D01*
X51000Y-40106D01*
X50991Y-40087D01*
X50958Y-40053D01*
X50913Y-40035D01*
X50866Y-40034D01*
X50586Y-40034D01*
X50542Y-40053D01*
X50508Y-40086D01*
X50500Y-40106D01*
X50491Y-40087D01*
X50458Y-40053D01*
X50413Y-40035D01*
X50366Y-40034D01*
X50086Y-40034D01*
X50042Y-40053D01*
X50008Y-40086D01*
X50000Y-40106D01*
X49991Y-40087D01*
X49958Y-40053D01*
X49930Y-40041D01*
X49930Y-38723D01*
X55709Y-32943D01*
X55709Y-33262D01*
X55731Y-33314D01*
X55770Y-33353D01*
X55822Y-33374D01*
X55825Y-33374D01*
X55825Y-33455D01*
X55844Y-33554D01*
X55901Y-33638D01*
X57740Y-35477D01*
X57740Y-43590D01*
X57468Y-43702D01*
X57203Y-43966D01*
X57060Y-44312D01*
X57059Y-44686D01*
X57202Y-45031D01*
X57466Y-45296D01*
X57812Y-45439D01*
X58186Y-45440D01*
X58531Y-45297D01*
X58796Y-45033D01*
X58939Y-44687D01*
X58940Y-44313D01*
X58797Y-43968D01*
X58533Y-43703D01*
X58260Y-43590D01*
X58260Y-35370D01*
X58240Y-35270D01*
X58183Y-35186D01*
X56365Y-33367D01*
X56399Y-33353D01*
X56438Y-33314D01*
X56459Y-33262D01*
X56460Y-33207D01*
X56460Y-33158D01*
X56470Y-33166D01*
X56539Y-33180D01*
X56539Y-33180D01*
X56539Y-33262D01*
X56561Y-33314D01*
X56600Y-33353D01*
X56652Y-33374D01*
X56707Y-33375D01*
X57177Y-33375D01*
X57229Y-33353D01*
X57268Y-33314D01*
X57289Y-33262D01*
X57290Y-33207D01*
X57290Y-32737D01*
X57268Y-32685D01*
X57229Y-32646D01*
X57177Y-32625D01*
X57122Y-32624D01*
X56653Y-32624D01*
X56652Y-32623D01*
X66143Y-32623D01*
X66144Y-32624D01*
X65822Y-32624D01*
X65770Y-32646D01*
X65731Y-32685D01*
X65710Y-32737D01*
X65709Y-32792D01*
X65709Y-33262D01*
X65731Y-33314D01*
X65770Y-33353D01*
X65804Y-33367D01*
X63792Y-35380D01*
X63736Y-35464D01*
X63716Y-35563D01*
X63716Y-44929D01*
X63736Y-45029D01*
X63792Y-45113D01*
X64395Y-45716D01*
X64395Y-45716D01*
X64479Y-45772D01*
X64578Y-45792D01*
X66967Y-45792D01*
X67067Y-45772D01*
X67151Y-45716D01*
X67540Y-45327D01*
X67812Y-45439D01*
X68186Y-45440D01*
X68531Y-45297D01*
X68796Y-45033D01*
X68939Y-44687D01*
X68940Y-44313D01*
X68797Y-43968D01*
X68533Y-43703D01*
X68187Y-43560D01*
X67813Y-43559D01*
X67468Y-43702D01*
X67203Y-43966D01*
X67060Y-44312D01*
X67059Y-44686D01*
X67172Y-44959D01*
X66860Y-45272D01*
X66043Y-45272D01*
X66043Y-44688D01*
X66036Y-44275D01*
X65891Y-43926D01*
X65748Y-43836D01*
X65663Y-43921D01*
X65663Y-43751D01*
X65573Y-43608D01*
X65188Y-43456D01*
X64775Y-43463D01*
X64426Y-43608D01*
X64336Y-43751D01*
X65000Y-44415D01*
X65663Y-43751D01*
X65663Y-43921D01*
X65084Y-44500D01*
X65748Y-45163D01*
X65891Y-45073D01*
X66043Y-44688D01*
X66043Y-45272D01*
X65648Y-45272D01*
X65663Y-45248D01*
X65000Y-44584D01*
X64994Y-44590D01*
X64909Y-44505D01*
X64915Y-44500D01*
X64251Y-43836D01*
X64236Y-43845D01*
X64236Y-35671D01*
X66268Y-33638D01*
X66268Y-33638D01*
X66306Y-33582D01*
X66325Y-33554D01*
X66325Y-33554D01*
X66344Y-33455D01*
X66345Y-33455D01*
X66345Y-33375D01*
X66347Y-33375D01*
X66399Y-33353D01*
X66438Y-33314D01*
X66459Y-33262D01*
X66460Y-33207D01*
X66460Y-33158D01*
X66470Y-33166D01*
X66539Y-33180D01*
X66539Y-33180D01*
X66539Y-33262D01*
X66561Y-33314D01*
X66600Y-33353D01*
X66652Y-33374D01*
X66707Y-33375D01*
X67177Y-33375D01*
X67229Y-33353D01*
X67268Y-33314D01*
X67289Y-33262D01*
X67290Y-33207D01*
X67290Y-32737D01*
X67268Y-32685D01*
X67229Y-32646D01*
X67177Y-32625D01*
X67122Y-32624D01*
X66653Y-32624D01*
X66472Y-32443D01*
X75963Y-32443D01*
X76144Y-32624D01*
X75822Y-32624D01*
X75770Y-32646D01*
X75731Y-32685D01*
X75710Y-32737D01*
X75709Y-32792D01*
X75709Y-33262D01*
X75731Y-33314D01*
X75770Y-33353D01*
X75822Y-33374D01*
X75825Y-33374D01*
X75825Y-33455D01*
X75825Y-36922D01*
X75222Y-36922D01*
X75215Y-36916D01*
X75100Y-36868D01*
X74974Y-36867D01*
X74858Y-36915D01*
X74770Y-37004D01*
X74722Y-37120D01*
X74722Y-37245D01*
X74769Y-37361D01*
X74858Y-37449D01*
X74974Y-37497D01*
X75099Y-37498D01*
X75215Y-37450D01*
X75222Y-37442D01*
X75977Y-37442D01*
X77740Y-39205D01*
X77740Y-43590D01*
X77468Y-43702D01*
X77203Y-43966D01*
X77060Y-44312D01*
X77059Y-44686D01*
X77202Y-45031D01*
X77466Y-45296D01*
X77812Y-45439D01*
X78186Y-45440D01*
X78531Y-45297D01*
X78796Y-45033D01*
X78939Y-44687D01*
X78940Y-44313D01*
X78940Y-49859D01*
X78831Y-49880D01*
X78688Y-49976D01*
X78593Y-50119D01*
X78560Y-50287D01*
X78560Y-50712D01*
X78593Y-50880D01*
X78688Y-51023D01*
X78831Y-51119D01*
X79000Y-51152D01*
X79168Y-51119D01*
X79311Y-51023D01*
X79406Y-50880D01*
X79440Y-50712D01*
X79440Y-51335D01*
X78440Y-51335D01*
X78440Y-50712D01*
X78440Y-50287D01*
X78406Y-50119D01*
X78311Y-49976D01*
X78168Y-49880D01*
X78000Y-49847D01*
X77831Y-49880D01*
X77688Y-49976D01*
X77593Y-50119D01*
X77560Y-50287D01*
X77560Y-50712D01*
X77593Y-50880D01*
X77688Y-51023D01*
X77831Y-51119D01*
X78000Y-51152D01*
X78168Y-51119D01*
X78311Y-51023D01*
X78406Y-50880D01*
X78440Y-50712D01*
X78440Y-51335D01*
X77440Y-51335D01*
X77440Y-50712D01*
X77440Y-50287D01*
X77406Y-50119D01*
X77311Y-49976D01*
X77168Y-49880D01*
X77000Y-49847D01*
X76831Y-49880D01*
X76688Y-49976D01*
X76593Y-50119D01*
X76560Y-50287D01*
X76560Y-50712D01*
X76593Y-50880D01*
X76688Y-51023D01*
X76831Y-51119D01*
X77000Y-51152D01*
X77168Y-51119D01*
X77311Y-51023D01*
X77406Y-50880D01*
X77440Y-50712D01*
X77440Y-51335D01*
X76440Y-51335D01*
X76440Y-50712D01*
X76440Y-50287D01*
X76406Y-50119D01*
X76311Y-49976D01*
X76168Y-49880D01*
X76043Y-49856D01*
X76043Y-44688D01*
X76036Y-44275D01*
X75891Y-43926D01*
X75748Y-43836D01*
X75663Y-43921D01*
X75663Y-43751D01*
X75573Y-43608D01*
X75188Y-43456D01*
X74775Y-43463D01*
X74426Y-43608D01*
X74336Y-43751D01*
X75000Y-44415D01*
X75663Y-43751D01*
X75663Y-43921D01*
X75084Y-44500D01*
X75748Y-45163D01*
X75891Y-45073D01*
X76043Y-44688D01*
X76043Y-49856D01*
X76000Y-49847D01*
X75831Y-49880D01*
X75688Y-49976D01*
X75663Y-50014D01*
X75663Y-45248D01*
X75000Y-44584D01*
X74915Y-44669D01*
X74915Y-44500D01*
X74251Y-43836D01*
X74108Y-43926D01*
X73956Y-44311D01*
X73963Y-44724D01*
X74108Y-45073D01*
X74251Y-45163D01*
X74915Y-44500D01*
X74915Y-44669D01*
X74336Y-45248D01*
X74426Y-45391D01*
X74811Y-45543D01*
X75224Y-45536D01*
X75573Y-45391D01*
X75663Y-45248D01*
X75663Y-50014D01*
X75593Y-50119D01*
X75560Y-50287D01*
X75560Y-50712D01*
X75593Y-50880D01*
X75688Y-51023D01*
X75831Y-51119D01*
X76000Y-51152D01*
X76168Y-51119D01*
X76311Y-51023D01*
X76406Y-50880D01*
X76440Y-50712D01*
X76440Y-51335D01*
X75440Y-51335D01*
X75440Y-50712D01*
X75440Y-50287D01*
X75406Y-50119D01*
X75311Y-49976D01*
X75168Y-49880D01*
X75000Y-49847D01*
X74831Y-49880D01*
X74688Y-49976D01*
X74593Y-50119D01*
X74560Y-50287D01*
X74560Y-50712D01*
X74593Y-50880D01*
X74688Y-51023D01*
X74831Y-51119D01*
X75000Y-51152D01*
X75168Y-51119D01*
X75311Y-51023D01*
X75406Y-50880D01*
X75440Y-50712D01*
X75440Y-51335D01*
X74440Y-51335D01*
X74440Y-50712D01*
X74440Y-50287D01*
X74406Y-50119D01*
X74311Y-49976D01*
X74168Y-49880D01*
X74000Y-49847D01*
X73831Y-49880D01*
X73688Y-49976D01*
X73593Y-50119D01*
X73560Y-50287D01*
X73560Y-50712D01*
X73593Y-50880D01*
X73688Y-51023D01*
X73831Y-51119D01*
X74000Y-51152D01*
X74168Y-51119D01*
X74311Y-51023D01*
X74406Y-50880D01*
X74440Y-50712D01*
X74440Y-51335D01*
X72440Y-51335D01*
X72440Y-50712D01*
X72440Y-50287D01*
X72406Y-50119D01*
X72311Y-49976D01*
X72168Y-49880D01*
X72000Y-49847D01*
X71831Y-49880D01*
X71688Y-49976D01*
X71593Y-50119D01*
X71560Y-50287D01*
X71560Y-50712D01*
X71593Y-50880D01*
X71688Y-51023D01*
X71831Y-51119D01*
X72000Y-51152D01*
X72168Y-51119D01*
X72311Y-51023D01*
X72406Y-50880D01*
X72440Y-50712D01*
X72440Y-51335D01*
X71440Y-51335D01*
X71440Y-50712D01*
X71440Y-50287D01*
X71406Y-50119D01*
X71311Y-49976D01*
X71168Y-49880D01*
X71000Y-49847D01*
X70831Y-49880D01*
X70688Y-49976D01*
X70593Y-50119D01*
X70560Y-50287D01*
X70560Y-50712D01*
X70593Y-50880D01*
X70688Y-51023D01*
X70831Y-51119D01*
X71000Y-51152D01*
X71168Y-51119D01*
X71311Y-51023D01*
X71406Y-50880D01*
X71440Y-50712D01*
X71440Y-51335D01*
X70440Y-51335D01*
X70440Y-50712D01*
X70440Y-50287D01*
X70406Y-50119D01*
X70311Y-49976D01*
X70168Y-49880D01*
X70000Y-49847D01*
X69831Y-49880D01*
X69688Y-49976D01*
X69593Y-50119D01*
X69560Y-50287D01*
X69560Y-50712D01*
X69593Y-50880D01*
X69688Y-51023D01*
X69831Y-51119D01*
X70000Y-51152D01*
X70168Y-51119D01*
X70311Y-51023D01*
X70406Y-50880D01*
X70440Y-50712D01*
X70440Y-51335D01*
X69440Y-51335D01*
X69440Y-50712D01*
X69440Y-50287D01*
X69406Y-50119D01*
X69311Y-49976D01*
X69168Y-49880D01*
X69000Y-49847D01*
X68831Y-49880D01*
X68688Y-49976D01*
X68593Y-50119D01*
X68560Y-50287D01*
X68560Y-50712D01*
X68593Y-50880D01*
X68688Y-51023D01*
X68831Y-51119D01*
X69000Y-51152D01*
X69168Y-51119D01*
X69311Y-51023D01*
X69406Y-50880D01*
X69440Y-50712D01*
X69440Y-51335D01*
X68440Y-51335D01*
X68440Y-50712D01*
X68440Y-50287D01*
X68406Y-50119D01*
X68311Y-49976D01*
X68168Y-49880D01*
X68000Y-49847D01*
X67831Y-49880D01*
X67688Y-49976D01*
X67593Y-50119D01*
X67560Y-50287D01*
X67560Y-50712D01*
X67593Y-50880D01*
X67688Y-51023D01*
X67831Y-51119D01*
X68000Y-51152D01*
X68168Y-51119D01*
X68311Y-51023D01*
X68406Y-50880D01*
X68440Y-50712D01*
X68440Y-51335D01*
X67440Y-51335D01*
X67440Y-50712D01*
X67440Y-50287D01*
X67406Y-50119D01*
X67311Y-49976D01*
X67168Y-49880D01*
X67000Y-49847D01*
X66831Y-49880D01*
X66688Y-49976D01*
X66593Y-50119D01*
X66560Y-50287D01*
X66560Y-50712D01*
X66593Y-50880D01*
X66688Y-51023D01*
X66831Y-51119D01*
X67000Y-51152D01*
X67168Y-51119D01*
X67311Y-51023D01*
X67406Y-50880D01*
X67440Y-50712D01*
X67440Y-51335D01*
X66440Y-51335D01*
X66440Y-50712D01*
X66440Y-50287D01*
X66406Y-50119D01*
X66311Y-49976D01*
X66168Y-49880D01*
X66000Y-49847D01*
X65831Y-49880D01*
X65688Y-49976D01*
X65593Y-50119D01*
X65560Y-50287D01*
X65560Y-50712D01*
X65593Y-50880D01*
X65688Y-51023D01*
X65831Y-51119D01*
X66000Y-51152D01*
X66168Y-51119D01*
X66311Y-51023D01*
X66406Y-50880D01*
X66440Y-50712D01*
X66440Y-51335D01*
X65440Y-51335D01*
X65440Y-50712D01*
X65440Y-50287D01*
X65406Y-50119D01*
X65311Y-49976D01*
X65168Y-49880D01*
X65000Y-49847D01*
X64831Y-49880D01*
X64688Y-49976D01*
X64593Y-50119D01*
X64560Y-50287D01*
X64560Y-50712D01*
X64593Y-50880D01*
X64688Y-51023D01*
X64831Y-51119D01*
X65000Y-51152D01*
X65168Y-51119D01*
X65311Y-51023D01*
X65406Y-50880D01*
X65440Y-50712D01*
X65440Y-51335D01*
X63440Y-51335D01*
X63440Y-50712D01*
X63440Y-50287D01*
X63406Y-50119D01*
X63311Y-49976D01*
X63168Y-49880D01*
X63000Y-49847D01*
X62831Y-49880D01*
X62688Y-49976D01*
X62593Y-50119D01*
X62560Y-50287D01*
X62560Y-50712D01*
X62593Y-50880D01*
X62688Y-51023D01*
X62831Y-51119D01*
X63000Y-51152D01*
X63168Y-51119D01*
X63311Y-51023D01*
X63406Y-50880D01*
X63440Y-50712D01*
X63440Y-51335D01*
X60540Y-51335D01*
X60540Y-50760D01*
X60540Y-50560D01*
X60060Y-50560D01*
X60060Y-51176D01*
X60143Y-51220D01*
X60339Y-51124D01*
X60475Y-50962D01*
X60540Y-50760D01*
X60540Y-51335D01*
X59940Y-51335D01*
X59940Y-51176D01*
X59940Y-50560D01*
X59460Y-50560D01*
X59460Y-50760D01*
X59524Y-50962D01*
X59660Y-51124D01*
X59856Y-51220D01*
X59940Y-51176D01*
X59940Y-51335D01*
X50875Y-51335D01*
X51017Y-51276D01*
X51275Y-51018D01*
X51414Y-50682D01*
X51415Y-50318D01*
X51276Y-49982D01*
X51018Y-49724D01*
X50682Y-49585D01*
X50318Y-49584D01*
X49982Y-49723D01*
X49724Y-49981D01*
X49585Y-50317D01*
X49584Y-50681D01*
X49723Y-51017D01*
X49981Y-51275D01*
X50124Y-51335D01*
X43665Y-51335D01*
X43665Y-30665D01*
X50624Y-30665D01*
X50482Y-30723D01*
X50224Y-30981D01*
X50085Y-31317D01*
X50084Y-31681D01*
X50223Y-32017D01*
X50481Y-32275D01*
X50817Y-32414D01*
X51181Y-32415D01*
X51517Y-32276D01*
X51775Y-32018D01*
X51914Y-31682D01*
X51915Y-31318D01*
X51776Y-30982D01*
X51518Y-30724D01*
X51375Y-30665D01*
X80124Y-30665D01*
X79982Y-30723D01*
X79724Y-30981D01*
X79585Y-31317D01*
X79584Y-31681D01*
X79723Y-32017D01*
X79981Y-32275D01*
X80317Y-32414D01*
X80681Y-32415D01*
X81017Y-32276D01*
X81275Y-32018D01*
X81414Y-31682D01*
X81415Y-31318D01*
X81276Y-30982D01*
X81018Y-30724D01*
X80875Y-30665D01*
X89335Y-30665D01*
X89335Y-51335D01*
M02*
