G04 (created by PCBNEW (2013-jul-07)-stable) date Wed 30 Jul 2014 03:33:50 PM EDT*
%MOIN*%
G04 Gerber Fmt 3.4, Leading zero omitted, Abs format*
%FSLAX34Y34*%
G01*
G70*
G90*
G04 APERTURE LIST*
%ADD10C,0.00590551*%
%ADD11C,0.009*%
%ADD12C,0.005*%
%ADD13C,0.015*%
%ADD14C,0.01*%
%ADD15C,0.175*%
%ADD16O,0.08X0.12*%
%ADD17C,0.08*%
%ADD18R,0.12X0.07*%
%ADD19R,0.07X0.035*%
%ADD20C,0.18*%
G04 APERTURE END LIST*
G54D10*
G54D11*
X89500Y-51500D02*
X43500Y-51500D01*
X43500Y-30500D02*
X89500Y-30500D01*
X43500Y-30500D02*
X43500Y-51500D01*
X89500Y-51500D02*
X89500Y-30500D01*
G54D12*
X70950Y-38200D02*
X70950Y-37600D01*
X70950Y-37600D02*
X72050Y-37600D01*
X72050Y-37600D02*
X72050Y-38200D01*
X72050Y-38800D02*
X72050Y-39400D01*
X72050Y-39400D02*
X70950Y-39400D01*
X70950Y-39400D02*
X70950Y-38800D01*
G54D13*
X77750Y-35750D02*
G75*
G03X77750Y-35750I-250J0D01*
G74*
G01*
X75000Y-35250D02*
X78000Y-35250D01*
X78000Y-35250D02*
X78000Y-41750D01*
X78000Y-41750D02*
X75000Y-41750D01*
X75000Y-41750D02*
X75000Y-35250D01*
G54D14*
X72623Y-38433D02*
X72642Y-38414D01*
X72661Y-38357D01*
X72661Y-38319D01*
X72642Y-38261D01*
X72604Y-38223D01*
X72566Y-38204D01*
X72490Y-38185D01*
X72433Y-38185D01*
X72357Y-38204D01*
X72319Y-38223D01*
X72280Y-38261D01*
X72261Y-38319D01*
X72261Y-38357D01*
X72280Y-38414D01*
X72300Y-38433D01*
X72661Y-38814D02*
X72661Y-38585D01*
X72661Y-38700D02*
X72261Y-38700D01*
X72319Y-38661D01*
X72357Y-38623D01*
X72376Y-38585D01*
G54D12*
X71992Y-39621D02*
X71964Y-39621D01*
X71935Y-39635D01*
X71921Y-39650D01*
X71907Y-39678D01*
X71892Y-39735D01*
X71892Y-39807D01*
X71907Y-39864D01*
X71921Y-39892D01*
X71935Y-39907D01*
X71964Y-39921D01*
X71992Y-39921D01*
X72021Y-39907D01*
X72035Y-39892D01*
X72049Y-39864D01*
X72064Y-39807D01*
X72064Y-39735D01*
X72049Y-39678D01*
X72035Y-39650D01*
X72021Y-39635D01*
X71992Y-39621D01*
X71764Y-39892D02*
X71750Y-39907D01*
X71764Y-39921D01*
X71778Y-39907D01*
X71764Y-39892D01*
X71764Y-39921D01*
X71464Y-39921D02*
X71635Y-39921D01*
X71550Y-39921D02*
X71550Y-39621D01*
X71578Y-39664D01*
X71607Y-39692D01*
X71635Y-39707D01*
X71207Y-39721D02*
X71207Y-39921D01*
X71335Y-39721D02*
X71335Y-39878D01*
X71321Y-39907D01*
X71292Y-39921D01*
X71250Y-39921D01*
X71221Y-39907D01*
X71207Y-39892D01*
X70964Y-39764D02*
X71064Y-39764D01*
X71064Y-39921D02*
X71064Y-39621D01*
X70921Y-39621D01*
G54D14*
X76804Y-34511D02*
X76804Y-34835D01*
X76785Y-34873D01*
X76766Y-34892D01*
X76728Y-34911D01*
X76652Y-34911D01*
X76614Y-34892D01*
X76595Y-34873D01*
X76576Y-34835D01*
X76576Y-34511D01*
X76176Y-34911D02*
X76404Y-34911D01*
X76290Y-34911D02*
X76290Y-34511D01*
X76328Y-34569D01*
X76366Y-34607D01*
X76404Y-34626D01*
X77719Y-42011D02*
X77490Y-42011D01*
X77604Y-42411D02*
X77604Y-42011D01*
X77166Y-42411D02*
X77357Y-42411D01*
X77357Y-42011D01*
X77033Y-42202D02*
X76900Y-42202D01*
X76842Y-42411D02*
X77033Y-42411D01*
X77033Y-42011D01*
X76842Y-42011D01*
X76709Y-42011D02*
X76442Y-42011D01*
X76614Y-42411D01*
X76309Y-42050D02*
X76290Y-42030D01*
X76252Y-42011D01*
X76157Y-42011D01*
X76119Y-42030D01*
X76100Y-42050D01*
X76080Y-42088D01*
X76080Y-42126D01*
X76100Y-42183D01*
X76328Y-42411D01*
X76080Y-42411D01*
X75947Y-42011D02*
X75700Y-42011D01*
X75833Y-42164D01*
X75776Y-42164D01*
X75738Y-42183D01*
X75719Y-42202D01*
X75700Y-42240D01*
X75700Y-42335D01*
X75719Y-42373D01*
X75738Y-42392D01*
X75776Y-42411D01*
X75890Y-42411D01*
X75928Y-42392D01*
X75947Y-42373D01*
X75566Y-42011D02*
X75300Y-42411D01*
X75300Y-42011D02*
X75566Y-42411D01*
%LPC*%
G54D15*
X50500Y-50500D03*
X51000Y-31500D03*
X83000Y-50500D03*
X80500Y-31500D03*
G54D16*
X56000Y-50500D03*
X57000Y-50500D03*
X58000Y-50500D03*
X59000Y-50500D03*
X60000Y-50500D03*
X61000Y-50500D03*
X62000Y-50500D03*
X63000Y-50500D03*
X65000Y-50500D03*
X66000Y-50500D03*
X67000Y-50500D03*
X68000Y-50500D03*
X69000Y-50500D03*
X70000Y-50500D03*
X71000Y-50500D03*
X72000Y-50500D03*
X74000Y-50500D03*
X75000Y-50500D03*
X76000Y-50500D03*
X77000Y-50500D03*
X78000Y-50500D03*
X79000Y-50500D03*
X80000Y-50500D03*
X81000Y-50500D03*
X52400Y-31500D03*
X53400Y-31500D03*
X54400Y-31500D03*
X55400Y-31500D03*
X56400Y-31500D03*
X57400Y-31500D03*
X58400Y-31500D03*
X59400Y-31500D03*
X60400Y-31500D03*
X61400Y-31500D03*
X63000Y-31500D03*
X70000Y-31500D03*
X69000Y-31500D03*
X68000Y-31500D03*
X67000Y-31500D03*
X66000Y-31500D03*
X65000Y-31500D03*
X64000Y-31500D03*
X72000Y-31500D03*
X73000Y-31500D03*
X74000Y-31500D03*
X75000Y-31500D03*
X76000Y-31500D03*
X77000Y-31500D03*
X78000Y-31500D03*
X79000Y-31500D03*
G54D17*
X82000Y-31500D03*
X83000Y-31500D03*
X82000Y-32500D03*
X83000Y-32500D03*
X82000Y-33500D03*
X83000Y-33500D03*
X82000Y-34500D03*
X83000Y-34500D03*
X82000Y-35500D03*
X83000Y-35500D03*
X82000Y-36500D03*
X83000Y-36500D03*
X82000Y-37500D03*
X83000Y-37500D03*
X82000Y-38500D03*
X83000Y-38500D03*
X82000Y-39500D03*
X83000Y-39500D03*
X82000Y-40500D03*
X83000Y-40500D03*
X82000Y-41500D03*
X83000Y-41500D03*
X82000Y-42500D03*
X83000Y-42500D03*
X82000Y-43500D03*
X83000Y-43500D03*
X82000Y-44500D03*
X83000Y-44500D03*
X82000Y-45500D03*
X83000Y-45500D03*
X82000Y-46500D03*
X83000Y-46500D03*
X82000Y-47500D03*
X83000Y-47500D03*
X82000Y-48500D03*
X83000Y-48500D03*
G54D18*
X71500Y-37900D03*
X71500Y-39100D03*
G54D19*
X78500Y-38250D03*
X78500Y-37750D03*
X78500Y-37250D03*
X78500Y-36750D03*
X78500Y-36250D03*
X78500Y-35750D03*
X78500Y-38750D03*
X78500Y-39250D03*
X78500Y-39750D03*
X78500Y-40250D03*
X78500Y-40750D03*
X78500Y-41250D03*
X74500Y-41250D03*
X74500Y-40750D03*
X74500Y-40250D03*
X74500Y-39750D03*
X74500Y-39250D03*
X74500Y-38750D03*
X74500Y-38250D03*
X74500Y-37750D03*
X74500Y-37250D03*
X74500Y-36750D03*
X74500Y-36250D03*
X74500Y-35750D03*
G54D20*
X58000Y-44500D03*
X55000Y-44500D03*
X68000Y-44500D03*
X65000Y-44500D03*
X78000Y-44500D03*
X75000Y-44500D03*
M02*
