M48
;DRILL file {Pcbnew (2013-jul-07)-stable} date Wed 30 Jul 2014 03:33:56 PM EDT
;FORMAT={-:-/ absolute / inch / decimal}
FMAT,2
INCH,TZ
T1C0.025
T2C0.040
T3C0.087
T4C0.130
%
G90
G05
M72
T1
X6.1Y-4.725
X7.5037Y-3.7183
T2
X5.24Y-3.15
X5.34Y-3.15
X5.44Y-3.15
X5.54Y-3.15
X5.6Y-5.05
X5.64Y-3.15
X5.7Y-5.05
X5.74Y-3.15
X5.8Y-5.05
X5.84Y-3.15
X5.9Y-5.05
X5.94Y-3.15
X6.Y-5.05
X6.04Y-3.15
X6.1Y-5.05
X6.14Y-3.15
X6.2Y-5.05
X6.3Y-3.15
X6.3Y-5.05
X6.4Y-3.15
X6.5Y-3.15
X6.5Y-5.05
X6.6Y-3.15
X6.6Y-5.05
X6.7Y-3.15
X6.7Y-5.05
X6.8Y-3.15
X6.8Y-5.05
X6.9Y-3.15
X6.9Y-5.05
X7.Y-3.15
X7.Y-5.05
X7.1Y-5.05
X7.2Y-3.15
X7.2Y-5.05
X7.3Y-3.15
X7.4Y-3.15
X7.4Y-5.05
X7.5Y-3.15
X7.5Y-5.05
X7.6Y-3.15
X7.6Y-5.05
X7.7Y-3.15
X7.7Y-5.05
X7.8Y-3.15
X7.8Y-5.05
X7.9Y-3.15
X7.9Y-5.05
X8.Y-5.05
X8.1Y-5.05
X8.2Y-3.15
X8.2Y-3.25
X8.2Y-3.35
X8.2Y-3.45
X8.2Y-3.55
X8.2Y-3.65
X8.2Y-3.75
X8.2Y-3.85
X8.2Y-3.95
X8.2Y-4.05
X8.2Y-4.15
X8.2Y-4.25
X8.2Y-4.35
X8.2Y-4.45
X8.2Y-4.55
X8.2Y-4.65
X8.2Y-4.75
X8.2Y-4.85
X8.3Y-3.15
X8.3Y-3.25
X8.3Y-3.35
X8.3Y-3.45
X8.3Y-3.55
X8.3Y-3.65
X8.3Y-3.75
X8.3Y-3.85
X8.3Y-3.95
X8.3Y-4.05
X8.3Y-4.15
X8.3Y-4.25
X8.3Y-4.35
X8.3Y-4.45
X8.3Y-4.55
X8.3Y-4.65
X8.3Y-4.75
X8.3Y-4.85
T3
X5.5Y-4.45
X5.8Y-4.45
X6.5Y-4.45
X6.8Y-4.45
X7.5Y-4.45
X7.8Y-4.45
T4
X5.05Y-5.05
X5.1Y-3.15
X8.05Y-3.15
X8.3Y-5.05
T0
M30
