G04 (created by PCBNEW (2013-jul-07)-stable) date Wed 30 Jul 2014 03:33:50 PM EDT*
%MOIN*%
G04 Gerber Fmt 3.4, Leading zero omitted, Abs format*
%FSLAX34Y34*%
G01*
G70*
G90*
G04 APERTURE LIST*
%ADD10C,0.00590551*%
%ADD11C,0.009*%
%ADD12C,0.155*%
%ADD13O,0.06X0.1*%
%ADD14C,0.06*%
%ADD15R,0.1X0.05*%
%ADD16R,0.05X0.015*%
%ADD17C,0.16*%
%ADD18C,0.035*%
%ADD19C,0.036*%
%ADD20C,0.008*%
%ADD21C,0.024*%
%ADD22C,0.016*%
G04 APERTURE END LIST*
G54D10*
G54D11*
X89500Y-51500D02*
X43500Y-51500D01*
X43500Y-30500D02*
X89500Y-30500D01*
X43500Y-30500D02*
X43500Y-51500D01*
X89500Y-51500D02*
X89500Y-30500D01*
G54D12*
X50500Y-50500D03*
X51000Y-31500D03*
X83000Y-50500D03*
X80500Y-31500D03*
G54D13*
X56000Y-50500D03*
X57000Y-50500D03*
X58000Y-50500D03*
X59000Y-50500D03*
X60000Y-50500D03*
X61000Y-50500D03*
X62000Y-50500D03*
X63000Y-50500D03*
X65000Y-50500D03*
X66000Y-50500D03*
X67000Y-50500D03*
X68000Y-50500D03*
X69000Y-50500D03*
X70000Y-50500D03*
X71000Y-50500D03*
X72000Y-50500D03*
X74000Y-50500D03*
X75000Y-50500D03*
X76000Y-50500D03*
X77000Y-50500D03*
X78000Y-50500D03*
X79000Y-50500D03*
X80000Y-50500D03*
X81000Y-50500D03*
X52400Y-31500D03*
X53400Y-31500D03*
X54400Y-31500D03*
X55400Y-31500D03*
X56400Y-31500D03*
X57400Y-31500D03*
X58400Y-31500D03*
X59400Y-31500D03*
X60400Y-31500D03*
X61400Y-31500D03*
X63000Y-31500D03*
X70000Y-31500D03*
X69000Y-31500D03*
X68000Y-31500D03*
X67000Y-31500D03*
X66000Y-31500D03*
X65000Y-31500D03*
X64000Y-31500D03*
X72000Y-31500D03*
X73000Y-31500D03*
X74000Y-31500D03*
X75000Y-31500D03*
X76000Y-31500D03*
X77000Y-31500D03*
X78000Y-31500D03*
X79000Y-31500D03*
G54D14*
X82000Y-31500D03*
X83000Y-31500D03*
X82000Y-32500D03*
X83000Y-32500D03*
X82000Y-33500D03*
X83000Y-33500D03*
X82000Y-34500D03*
X83000Y-34500D03*
X82000Y-35500D03*
X83000Y-35500D03*
X82000Y-36500D03*
X83000Y-36500D03*
X82000Y-37500D03*
X83000Y-37500D03*
X82000Y-38500D03*
X83000Y-38500D03*
X82000Y-39500D03*
X83000Y-39500D03*
X82000Y-40500D03*
X83000Y-40500D03*
X82000Y-41500D03*
X83000Y-41500D03*
X82000Y-42500D03*
X83000Y-42500D03*
X82000Y-43500D03*
X83000Y-43500D03*
X82000Y-44500D03*
X83000Y-44500D03*
X82000Y-45500D03*
X83000Y-45500D03*
X82000Y-46500D03*
X83000Y-46500D03*
X82000Y-47500D03*
X83000Y-47500D03*
X82000Y-48500D03*
X83000Y-48500D03*
G54D15*
X71500Y-37900D03*
X71500Y-39100D03*
G54D16*
X78500Y-38250D03*
X78500Y-37750D03*
X78500Y-37250D03*
X78500Y-36750D03*
X78500Y-36250D03*
X78500Y-35750D03*
X78500Y-38750D03*
X78500Y-39250D03*
X78500Y-39750D03*
X78500Y-40250D03*
X78500Y-40750D03*
X78500Y-41250D03*
X74500Y-41250D03*
X74500Y-40750D03*
X74500Y-40250D03*
X74500Y-39750D03*
X74500Y-39250D03*
X74500Y-38750D03*
X74500Y-38250D03*
X74500Y-37750D03*
X74500Y-37250D03*
X74500Y-36750D03*
X74500Y-36250D03*
X74500Y-35750D03*
G54D17*
X58000Y-44500D03*
X55000Y-44500D03*
X68000Y-44500D03*
X65000Y-44500D03*
X78000Y-44500D03*
X75000Y-44500D03*
G54D18*
X75037Y-37182D03*
X61000Y-47250D03*
G54D19*
X55000Y-44500D02*
X60000Y-49500D01*
X60000Y-49500D02*
X60000Y-50500D01*
X71500Y-37900D02*
X71500Y-37369D01*
X78500Y-40750D02*
X77969Y-40750D01*
X72619Y-36250D02*
X74500Y-36250D01*
X71500Y-37369D02*
X72619Y-36250D01*
X75000Y-43719D02*
X77969Y-40750D01*
X75000Y-44500D02*
X75000Y-43719D01*
X60000Y-49500D02*
X65000Y-44500D01*
X65000Y-43619D02*
X70719Y-37900D01*
X65000Y-44500D02*
X65000Y-43619D01*
X71500Y-37900D02*
X70719Y-37900D01*
G54D20*
X82500Y-45000D02*
X83000Y-45500D01*
X82500Y-43376D02*
X82500Y-45000D01*
X82183Y-43059D02*
X82500Y-43376D01*
X81937Y-43059D02*
X82183Y-43059D01*
X81545Y-42667D02*
X81937Y-43059D01*
X81545Y-38404D02*
X81545Y-42667D01*
X78890Y-35750D02*
X81545Y-38404D01*
X78500Y-35750D02*
X78890Y-35750D01*
X81354Y-44854D02*
X82000Y-45500D01*
X81354Y-38714D02*
X81354Y-44854D01*
X78890Y-36250D02*
X81354Y-38714D01*
X78500Y-36250D02*
X78890Y-36250D01*
X78890Y-43390D02*
X82000Y-46500D01*
X78890Y-41250D02*
X78890Y-43390D01*
X78500Y-41250D02*
X78890Y-41250D01*
X82500Y-46000D02*
X83000Y-46500D01*
X81876Y-46000D02*
X82500Y-46000D01*
X79070Y-43194D02*
X81876Y-46000D01*
X79070Y-40295D02*
X79070Y-43194D01*
X78810Y-40034D02*
X79070Y-40295D01*
X77428Y-40034D02*
X78810Y-40034D01*
X76713Y-40750D02*
X77428Y-40034D01*
X74500Y-40750D02*
X76713Y-40750D01*
G54D21*
X74500Y-37250D02*
X74970Y-37250D01*
X75037Y-37182D02*
X74970Y-37250D01*
X73742Y-36750D02*
X74500Y-36750D01*
X71862Y-38629D02*
X73742Y-36750D01*
X70882Y-38629D02*
X71862Y-38629D01*
X68000Y-41512D02*
X70882Y-38629D01*
X68000Y-44500D02*
X68000Y-41512D01*
X77126Y-36750D02*
X78500Y-36750D01*
X75825Y-35449D02*
X77126Y-36750D01*
X67050Y-35449D02*
X75825Y-35449D01*
X58000Y-44500D02*
X67050Y-35449D01*
G54D20*
X63522Y-51140D02*
X58000Y-51140D01*
X74197Y-40465D02*
X63522Y-51140D01*
X75509Y-40465D02*
X74197Y-40465D01*
X76439Y-39534D02*
X75509Y-40465D01*
X78747Y-39534D02*
X76439Y-39534D01*
X78890Y-39391D02*
X78747Y-39534D01*
X78890Y-37614D02*
X78890Y-39391D01*
X78741Y-37465D02*
X78890Y-37614D01*
X76605Y-37465D02*
X78741Y-37465D01*
X74890Y-35750D02*
X76605Y-37465D01*
X58000Y-50500D02*
X58000Y-51140D01*
X74500Y-35750D02*
X74890Y-35750D01*
X74500Y-41250D02*
X74109Y-41250D01*
X76663Y-47500D02*
X82000Y-47500D01*
X74050Y-44886D02*
X76663Y-47500D01*
X74050Y-41309D02*
X74050Y-44886D01*
X74109Y-41250D02*
X74050Y-41309D01*
G54D22*
X71500Y-42396D02*
X71500Y-39100D01*
X64076Y-49819D02*
X71500Y-42396D01*
X62000Y-49819D02*
X64076Y-49819D01*
X62000Y-50500D02*
X62000Y-49819D01*
G54D10*
G36*
X78567Y-39287D02*
X78560Y-39287D01*
X78560Y-39317D01*
X78440Y-39317D01*
X78440Y-39287D01*
X78440Y-39212D01*
X78440Y-39005D01*
X78440Y-38995D01*
X78440Y-38787D01*
X78440Y-38712D01*
X78440Y-38505D01*
X78440Y-38495D01*
X78440Y-38287D01*
X78440Y-38212D01*
X78440Y-38005D01*
X78440Y-37995D01*
X78440Y-37787D01*
X78070Y-37787D01*
X78010Y-37847D01*
X78009Y-37872D01*
X78046Y-37960D01*
X78085Y-38000D01*
X78046Y-38039D01*
X78009Y-38127D01*
X78010Y-38152D01*
X78070Y-38212D01*
X78440Y-38212D01*
X78440Y-38287D01*
X78070Y-38287D01*
X78010Y-38347D01*
X78009Y-38372D01*
X78046Y-38460D01*
X78085Y-38500D01*
X78046Y-38539D01*
X78009Y-38627D01*
X78010Y-38652D01*
X78070Y-38712D01*
X78440Y-38712D01*
X78440Y-38787D01*
X78070Y-38787D01*
X78010Y-38847D01*
X78009Y-38872D01*
X78046Y-38960D01*
X78085Y-39000D01*
X78046Y-39039D01*
X78009Y-39127D01*
X78010Y-39152D01*
X78070Y-39212D01*
X78440Y-39212D01*
X78440Y-39287D01*
X78070Y-39287D01*
X78010Y-39347D01*
X78009Y-39354D01*
X76439Y-39354D01*
X76370Y-39368D01*
X76312Y-39407D01*
X75434Y-40285D01*
X74990Y-40285D01*
X74990Y-39372D01*
X74990Y-39127D01*
X74953Y-39039D01*
X74914Y-39000D01*
X74953Y-38960D01*
X74990Y-38872D01*
X74990Y-38627D01*
X74953Y-38539D01*
X74914Y-38500D01*
X74953Y-38460D01*
X74990Y-38372D01*
X74990Y-38127D01*
X74953Y-38039D01*
X74914Y-38000D01*
X74953Y-37960D01*
X74990Y-37872D01*
X74990Y-37847D01*
X74930Y-37787D01*
X74560Y-37787D01*
X74560Y-37995D01*
X74560Y-38005D01*
X74560Y-38212D01*
X74930Y-38212D01*
X74990Y-38152D01*
X74990Y-38127D01*
X74990Y-38372D01*
X74990Y-38347D01*
X74930Y-38287D01*
X74560Y-38287D01*
X74560Y-38495D01*
X74560Y-38505D01*
X74560Y-38712D01*
X74930Y-38712D01*
X74990Y-38652D01*
X74990Y-38627D01*
X74990Y-38872D01*
X74990Y-38847D01*
X74930Y-38787D01*
X74560Y-38787D01*
X74560Y-38995D01*
X74560Y-39005D01*
X74560Y-39212D01*
X74930Y-39212D01*
X74990Y-39152D01*
X74990Y-39127D01*
X74990Y-39372D01*
X74990Y-39347D01*
X74930Y-39287D01*
X74560Y-39287D01*
X74560Y-39317D01*
X74440Y-39317D01*
X74440Y-39287D01*
X74440Y-39212D01*
X74440Y-39005D01*
X74440Y-38995D01*
X74440Y-38787D01*
X74440Y-38712D01*
X74440Y-38505D01*
X74440Y-38495D01*
X74440Y-38287D01*
X74440Y-38212D01*
X74440Y-38005D01*
X74440Y-37995D01*
X74440Y-37787D01*
X74070Y-37787D01*
X74010Y-37847D01*
X74009Y-37872D01*
X74046Y-37960D01*
X74085Y-38000D01*
X74046Y-38039D01*
X74009Y-38127D01*
X74010Y-38152D01*
X74070Y-38212D01*
X74440Y-38212D01*
X74440Y-38287D01*
X74070Y-38287D01*
X74010Y-38347D01*
X74009Y-38372D01*
X74046Y-38460D01*
X74085Y-38500D01*
X74046Y-38539D01*
X74009Y-38627D01*
X74010Y-38652D01*
X74070Y-38712D01*
X74440Y-38712D01*
X74440Y-38787D01*
X74070Y-38787D01*
X74010Y-38847D01*
X74009Y-38872D01*
X74046Y-38960D01*
X74085Y-39000D01*
X74046Y-39039D01*
X74009Y-39127D01*
X74010Y-39152D01*
X74070Y-39212D01*
X74440Y-39212D01*
X74440Y-39287D01*
X74070Y-39287D01*
X74010Y-39347D01*
X74009Y-39372D01*
X74046Y-39460D01*
X74113Y-39528D01*
X74175Y-39554D01*
X74170Y-39556D01*
X74131Y-39595D01*
X74110Y-39647D01*
X74109Y-39702D01*
X74109Y-39852D01*
X74131Y-39904D01*
X74170Y-39943D01*
X74222Y-39964D01*
X74277Y-39965D01*
X74777Y-39965D01*
X74829Y-39943D01*
X74868Y-39904D01*
X74889Y-39852D01*
X74890Y-39797D01*
X74890Y-39647D01*
X74868Y-39595D01*
X74829Y-39556D01*
X74824Y-39554D01*
X74886Y-39528D01*
X74953Y-39460D01*
X74990Y-39372D01*
X74990Y-40285D01*
X74890Y-40285D01*
X74890Y-40147D01*
X74868Y-40095D01*
X74829Y-40056D01*
X74777Y-40035D01*
X74722Y-40034D01*
X74222Y-40034D01*
X74170Y-40056D01*
X74131Y-40095D01*
X74110Y-40147D01*
X74109Y-40202D01*
X74109Y-40311D01*
X74070Y-40337D01*
X72240Y-42168D01*
X72240Y-39397D01*
X72240Y-39220D01*
X72180Y-39160D01*
X71560Y-39160D01*
X71560Y-39530D01*
X71620Y-39590D01*
X71952Y-39590D01*
X72047Y-39589D01*
X72136Y-39553D01*
X72203Y-39485D01*
X72240Y-39397D01*
X72240Y-42168D01*
X71440Y-42968D01*
X63448Y-50960D01*
X63353Y-50960D01*
X63406Y-50880D01*
X63440Y-50712D01*
X63440Y-50287D01*
X63406Y-50119D01*
X63311Y-49976D01*
X63168Y-49880D01*
X63000Y-49847D01*
X62831Y-49880D01*
X62688Y-49976D01*
X62593Y-50119D01*
X62560Y-50287D01*
X62560Y-50712D01*
X62593Y-50880D01*
X62646Y-50960D01*
X62476Y-50960D01*
X62540Y-50760D01*
X62540Y-50560D01*
X62540Y-50440D01*
X62540Y-50240D01*
X62475Y-50037D01*
X62339Y-49875D01*
X62143Y-49779D01*
X62060Y-49823D01*
X62060Y-50440D01*
X62540Y-50440D01*
X62540Y-50560D01*
X62060Y-50560D01*
X62060Y-50567D01*
X61940Y-50567D01*
X61940Y-50560D01*
X61940Y-50440D01*
X61940Y-49823D01*
X61856Y-49779D01*
X61660Y-49875D01*
X61524Y-50037D01*
X61500Y-50113D01*
X61475Y-50037D01*
X61339Y-49875D01*
X61143Y-49779D01*
X61060Y-49823D01*
X61060Y-50440D01*
X61460Y-50440D01*
X61540Y-50440D01*
X61940Y-50440D01*
X61940Y-50560D01*
X61540Y-50560D01*
X61460Y-50560D01*
X61060Y-50560D01*
X61060Y-50567D01*
X60940Y-50567D01*
X60940Y-50560D01*
X60940Y-50440D01*
X60940Y-49823D01*
X60856Y-49779D01*
X60660Y-49875D01*
X60524Y-50037D01*
X60460Y-50240D01*
X60460Y-50440D01*
X60940Y-50440D01*
X60940Y-50560D01*
X60460Y-50560D01*
X60460Y-50760D01*
X60523Y-50960D01*
X60353Y-50960D01*
X60406Y-50880D01*
X60440Y-50712D01*
X60440Y-50287D01*
X60406Y-50119D01*
X60320Y-49989D01*
X60320Y-49632D01*
X64600Y-45351D01*
X64812Y-45439D01*
X65186Y-45440D01*
X65531Y-45297D01*
X65796Y-45033D01*
X65939Y-44687D01*
X65940Y-44313D01*
X65797Y-43968D01*
X65533Y-43703D01*
X65417Y-43655D01*
X70852Y-38220D01*
X70877Y-38220D01*
X70881Y-38229D01*
X70920Y-38268D01*
X70972Y-38289D01*
X71027Y-38290D01*
X71834Y-38290D01*
X71754Y-38369D01*
X70882Y-38369D01*
X70799Y-38386D01*
X70783Y-38389D01*
X70698Y-38445D01*
X67816Y-41328D01*
X67759Y-41413D01*
X67740Y-41512D01*
X67740Y-43590D01*
X67468Y-43702D01*
X67203Y-43966D01*
X67060Y-44312D01*
X67059Y-44686D01*
X67202Y-45031D01*
X67466Y-45296D01*
X67812Y-45439D01*
X68186Y-45440D01*
X68531Y-45297D01*
X68796Y-45033D01*
X68939Y-44687D01*
X68940Y-44313D01*
X68797Y-43968D01*
X68533Y-43703D01*
X68260Y-43590D01*
X68260Y-41620D01*
X70760Y-39120D01*
X70760Y-39160D01*
X70819Y-39160D01*
X70760Y-39220D01*
X70759Y-39397D01*
X70796Y-39485D01*
X70863Y-39553D01*
X70952Y-39589D01*
X71047Y-39590D01*
X71380Y-39590D01*
X71440Y-39530D01*
X71440Y-39160D01*
X71432Y-39160D01*
X71432Y-39040D01*
X71440Y-39040D01*
X71440Y-39032D01*
X71560Y-39032D01*
X71560Y-39040D01*
X72180Y-39040D01*
X72240Y-38980D01*
X72240Y-38802D01*
X72203Y-38714D01*
X72174Y-38685D01*
X73850Y-37010D01*
X74400Y-37010D01*
X74362Y-37034D01*
X74222Y-37034D01*
X74170Y-37056D01*
X74131Y-37095D01*
X74110Y-37147D01*
X74109Y-37202D01*
X74109Y-37352D01*
X74131Y-37404D01*
X74170Y-37443D01*
X74175Y-37445D01*
X74113Y-37471D01*
X74046Y-37539D01*
X74009Y-37627D01*
X74010Y-37652D01*
X74070Y-37712D01*
X74440Y-37712D01*
X74440Y-37682D01*
X74560Y-37682D01*
X74560Y-37712D01*
X74930Y-37712D01*
X74990Y-37652D01*
X74990Y-37627D01*
X74953Y-37539D01*
X74924Y-37510D01*
X74970Y-37510D01*
X75030Y-37497D01*
X75099Y-37498D01*
X75215Y-37450D01*
X75304Y-37361D01*
X75352Y-37245D01*
X75352Y-37120D01*
X75304Y-37004D01*
X75215Y-36916D01*
X75100Y-36868D01*
X74974Y-36867D01*
X74858Y-36915D01*
X74784Y-36990D01*
X74599Y-36990D01*
X74637Y-36965D01*
X74777Y-36965D01*
X74829Y-36943D01*
X74868Y-36904D01*
X74889Y-36852D01*
X74890Y-36797D01*
X74890Y-36647D01*
X74868Y-36595D01*
X74829Y-36556D01*
X74777Y-36535D01*
X74722Y-36534D01*
X74638Y-36534D01*
X74726Y-36476D01*
X74733Y-36465D01*
X74777Y-36465D01*
X74829Y-36443D01*
X74868Y-36404D01*
X74889Y-36352D01*
X74890Y-36297D01*
X74890Y-36147D01*
X74868Y-36095D01*
X74829Y-36056D01*
X74777Y-36035D01*
X74733Y-36034D01*
X74726Y-36023D01*
X74638Y-35965D01*
X74777Y-35965D01*
X74829Y-35943D01*
X74829Y-35943D01*
X76477Y-37592D01*
X76536Y-37631D01*
X76605Y-37645D01*
X78009Y-37645D01*
X78010Y-37652D01*
X78070Y-37712D01*
X78440Y-37712D01*
X78440Y-37682D01*
X78560Y-37682D01*
X78560Y-37712D01*
X78567Y-37712D01*
X78567Y-37787D01*
X78560Y-37787D01*
X78560Y-37995D01*
X78560Y-38005D01*
X78560Y-38212D01*
X78567Y-38212D01*
X78567Y-38287D01*
X78560Y-38287D01*
X78560Y-38495D01*
X78560Y-38505D01*
X78560Y-38712D01*
X78567Y-38712D01*
X78567Y-38787D01*
X78560Y-38787D01*
X78560Y-38995D01*
X78560Y-39005D01*
X78560Y-39212D01*
X78567Y-39212D01*
X78567Y-39287D01*
X78567Y-39287D01*
G37*
G54D20*
X78567Y-39287D02*
X78560Y-39287D01*
X78560Y-39317D01*
X78440Y-39317D01*
X78440Y-39287D01*
X78440Y-39212D01*
X78440Y-39005D01*
X78440Y-38995D01*
X78440Y-38787D01*
X78440Y-38712D01*
X78440Y-38505D01*
X78440Y-38495D01*
X78440Y-38287D01*
X78440Y-38212D01*
X78440Y-38005D01*
X78440Y-37995D01*
X78440Y-37787D01*
X78070Y-37787D01*
X78010Y-37847D01*
X78009Y-37872D01*
X78046Y-37960D01*
X78085Y-38000D01*
X78046Y-38039D01*
X78009Y-38127D01*
X78010Y-38152D01*
X78070Y-38212D01*
X78440Y-38212D01*
X78440Y-38287D01*
X78070Y-38287D01*
X78010Y-38347D01*
X78009Y-38372D01*
X78046Y-38460D01*
X78085Y-38500D01*
X78046Y-38539D01*
X78009Y-38627D01*
X78010Y-38652D01*
X78070Y-38712D01*
X78440Y-38712D01*
X78440Y-38787D01*
X78070Y-38787D01*
X78010Y-38847D01*
X78009Y-38872D01*
X78046Y-38960D01*
X78085Y-39000D01*
X78046Y-39039D01*
X78009Y-39127D01*
X78010Y-39152D01*
X78070Y-39212D01*
X78440Y-39212D01*
X78440Y-39287D01*
X78070Y-39287D01*
X78010Y-39347D01*
X78009Y-39354D01*
X76439Y-39354D01*
X76370Y-39368D01*
X76312Y-39407D01*
X75434Y-40285D01*
X74990Y-40285D01*
X74990Y-39372D01*
X74990Y-39127D01*
X74953Y-39039D01*
X74914Y-39000D01*
X74953Y-38960D01*
X74990Y-38872D01*
X74990Y-38627D01*
X74953Y-38539D01*
X74914Y-38500D01*
X74953Y-38460D01*
X74990Y-38372D01*
X74990Y-38127D01*
X74953Y-38039D01*
X74914Y-38000D01*
X74953Y-37960D01*
X74990Y-37872D01*
X74990Y-37847D01*
X74930Y-37787D01*
X74560Y-37787D01*
X74560Y-37995D01*
X74560Y-38005D01*
X74560Y-38212D01*
X74930Y-38212D01*
X74990Y-38152D01*
X74990Y-38127D01*
X74990Y-38372D01*
X74990Y-38347D01*
X74930Y-38287D01*
X74560Y-38287D01*
X74560Y-38495D01*
X74560Y-38505D01*
X74560Y-38712D01*
X74930Y-38712D01*
X74990Y-38652D01*
X74990Y-38627D01*
X74990Y-38872D01*
X74990Y-38847D01*
X74930Y-38787D01*
X74560Y-38787D01*
X74560Y-38995D01*
X74560Y-39005D01*
X74560Y-39212D01*
X74930Y-39212D01*
X74990Y-39152D01*
X74990Y-39127D01*
X74990Y-39372D01*
X74990Y-39347D01*
X74930Y-39287D01*
X74560Y-39287D01*
X74560Y-39317D01*
X74440Y-39317D01*
X74440Y-39287D01*
X74440Y-39212D01*
X74440Y-39005D01*
X74440Y-38995D01*
X74440Y-38787D01*
X74440Y-38712D01*
X74440Y-38505D01*
X74440Y-38495D01*
X74440Y-38287D01*
X74440Y-38212D01*
X74440Y-38005D01*
X74440Y-37995D01*
X74440Y-37787D01*
X74070Y-37787D01*
X74010Y-37847D01*
X74009Y-37872D01*
X74046Y-37960D01*
X74085Y-38000D01*
X74046Y-38039D01*
X74009Y-38127D01*
X74010Y-38152D01*
X74070Y-38212D01*
X74440Y-38212D01*
X74440Y-38287D01*
X74070Y-38287D01*
X74010Y-38347D01*
X74009Y-38372D01*
X74046Y-38460D01*
X74085Y-38500D01*
X74046Y-38539D01*
X74009Y-38627D01*
X74010Y-38652D01*
X74070Y-38712D01*
X74440Y-38712D01*
X74440Y-38787D01*
X74070Y-38787D01*
X74010Y-38847D01*
X74009Y-38872D01*
X74046Y-38960D01*
X74085Y-39000D01*
X74046Y-39039D01*
X74009Y-39127D01*
X74010Y-39152D01*
X74070Y-39212D01*
X74440Y-39212D01*
X74440Y-39287D01*
X74070Y-39287D01*
X74010Y-39347D01*
X74009Y-39372D01*
X74046Y-39460D01*
X74113Y-39528D01*
X74175Y-39554D01*
X74170Y-39556D01*
X74131Y-39595D01*
X74110Y-39647D01*
X74109Y-39702D01*
X74109Y-39852D01*
X74131Y-39904D01*
X74170Y-39943D01*
X74222Y-39964D01*
X74277Y-39965D01*
X74777Y-39965D01*
X74829Y-39943D01*
X74868Y-39904D01*
X74889Y-39852D01*
X74890Y-39797D01*
X74890Y-39647D01*
X74868Y-39595D01*
X74829Y-39556D01*
X74824Y-39554D01*
X74886Y-39528D01*
X74953Y-39460D01*
X74990Y-39372D01*
X74990Y-40285D01*
X74890Y-40285D01*
X74890Y-40147D01*
X74868Y-40095D01*
X74829Y-40056D01*
X74777Y-40035D01*
X74722Y-40034D01*
X74222Y-40034D01*
X74170Y-40056D01*
X74131Y-40095D01*
X74110Y-40147D01*
X74109Y-40202D01*
X74109Y-40311D01*
X74070Y-40337D01*
X72240Y-42168D01*
X72240Y-39397D01*
X72240Y-39220D01*
X72180Y-39160D01*
X71560Y-39160D01*
X71560Y-39530D01*
X71620Y-39590D01*
X71952Y-39590D01*
X72047Y-39589D01*
X72136Y-39553D01*
X72203Y-39485D01*
X72240Y-39397D01*
X72240Y-42168D01*
X71440Y-42968D01*
X63448Y-50960D01*
X63353Y-50960D01*
X63406Y-50880D01*
X63440Y-50712D01*
X63440Y-50287D01*
X63406Y-50119D01*
X63311Y-49976D01*
X63168Y-49880D01*
X63000Y-49847D01*
X62831Y-49880D01*
X62688Y-49976D01*
X62593Y-50119D01*
X62560Y-50287D01*
X62560Y-50712D01*
X62593Y-50880D01*
X62646Y-50960D01*
X62476Y-50960D01*
X62540Y-50760D01*
X62540Y-50560D01*
X62540Y-50440D01*
X62540Y-50240D01*
X62475Y-50037D01*
X62339Y-49875D01*
X62143Y-49779D01*
X62060Y-49823D01*
X62060Y-50440D01*
X62540Y-50440D01*
X62540Y-50560D01*
X62060Y-50560D01*
X62060Y-50567D01*
X61940Y-50567D01*
X61940Y-50560D01*
X61940Y-50440D01*
X61940Y-49823D01*
X61856Y-49779D01*
X61660Y-49875D01*
X61524Y-50037D01*
X61500Y-50113D01*
X61475Y-50037D01*
X61339Y-49875D01*
X61143Y-49779D01*
X61060Y-49823D01*
X61060Y-50440D01*
X61460Y-50440D01*
X61540Y-50440D01*
X61940Y-50440D01*
X61940Y-50560D01*
X61540Y-50560D01*
X61460Y-50560D01*
X61060Y-50560D01*
X61060Y-50567D01*
X60940Y-50567D01*
X60940Y-50560D01*
X60940Y-50440D01*
X60940Y-49823D01*
X60856Y-49779D01*
X60660Y-49875D01*
X60524Y-50037D01*
X60460Y-50240D01*
X60460Y-50440D01*
X60940Y-50440D01*
X60940Y-50560D01*
X60460Y-50560D01*
X60460Y-50760D01*
X60523Y-50960D01*
X60353Y-50960D01*
X60406Y-50880D01*
X60440Y-50712D01*
X60440Y-50287D01*
X60406Y-50119D01*
X60320Y-49989D01*
X60320Y-49632D01*
X64600Y-45351D01*
X64812Y-45439D01*
X65186Y-45440D01*
X65531Y-45297D01*
X65796Y-45033D01*
X65939Y-44687D01*
X65940Y-44313D01*
X65797Y-43968D01*
X65533Y-43703D01*
X65417Y-43655D01*
X70852Y-38220D01*
X70877Y-38220D01*
X70881Y-38229D01*
X70920Y-38268D01*
X70972Y-38289D01*
X71027Y-38290D01*
X71834Y-38290D01*
X71754Y-38369D01*
X70882Y-38369D01*
X70799Y-38386D01*
X70783Y-38389D01*
X70698Y-38445D01*
X67816Y-41328D01*
X67759Y-41413D01*
X67740Y-41512D01*
X67740Y-43590D01*
X67468Y-43702D01*
X67203Y-43966D01*
X67060Y-44312D01*
X67059Y-44686D01*
X67202Y-45031D01*
X67466Y-45296D01*
X67812Y-45439D01*
X68186Y-45440D01*
X68531Y-45297D01*
X68796Y-45033D01*
X68939Y-44687D01*
X68940Y-44313D01*
X68797Y-43968D01*
X68533Y-43703D01*
X68260Y-43590D01*
X68260Y-41620D01*
X70760Y-39120D01*
X70760Y-39160D01*
X70819Y-39160D01*
X70760Y-39220D01*
X70759Y-39397D01*
X70796Y-39485D01*
X70863Y-39553D01*
X70952Y-39589D01*
X71047Y-39590D01*
X71380Y-39590D01*
X71440Y-39530D01*
X71440Y-39160D01*
X71432Y-39160D01*
X71432Y-39040D01*
X71440Y-39040D01*
X71440Y-39032D01*
X71560Y-39032D01*
X71560Y-39040D01*
X72180Y-39040D01*
X72240Y-38980D01*
X72240Y-38802D01*
X72203Y-38714D01*
X72174Y-38685D01*
X73850Y-37010D01*
X74400Y-37010D01*
X74362Y-37034D01*
X74222Y-37034D01*
X74170Y-37056D01*
X74131Y-37095D01*
X74110Y-37147D01*
X74109Y-37202D01*
X74109Y-37352D01*
X74131Y-37404D01*
X74170Y-37443D01*
X74175Y-37445D01*
X74113Y-37471D01*
X74046Y-37539D01*
X74009Y-37627D01*
X74010Y-37652D01*
X74070Y-37712D01*
X74440Y-37712D01*
X74440Y-37682D01*
X74560Y-37682D01*
X74560Y-37712D01*
X74930Y-37712D01*
X74990Y-37652D01*
X74990Y-37627D01*
X74953Y-37539D01*
X74924Y-37510D01*
X74970Y-37510D01*
X75030Y-37497D01*
X75099Y-37498D01*
X75215Y-37450D01*
X75304Y-37361D01*
X75352Y-37245D01*
X75352Y-37120D01*
X75304Y-37004D01*
X75215Y-36916D01*
X75100Y-36868D01*
X74974Y-36867D01*
X74858Y-36915D01*
X74784Y-36990D01*
X74599Y-36990D01*
X74637Y-36965D01*
X74777Y-36965D01*
X74829Y-36943D01*
X74868Y-36904D01*
X74889Y-36852D01*
X74890Y-36797D01*
X74890Y-36647D01*
X74868Y-36595D01*
X74829Y-36556D01*
X74777Y-36535D01*
X74722Y-36534D01*
X74638Y-36534D01*
X74726Y-36476D01*
X74733Y-36465D01*
X74777Y-36465D01*
X74829Y-36443D01*
X74868Y-36404D01*
X74889Y-36352D01*
X74890Y-36297D01*
X74890Y-36147D01*
X74868Y-36095D01*
X74829Y-36056D01*
X74777Y-36035D01*
X74733Y-36034D01*
X74726Y-36023D01*
X74638Y-35965D01*
X74777Y-35965D01*
X74829Y-35943D01*
X74829Y-35943D01*
X76477Y-37592D01*
X76536Y-37631D01*
X76605Y-37645D01*
X78009Y-37645D01*
X78010Y-37652D01*
X78070Y-37712D01*
X78440Y-37712D01*
X78440Y-37682D01*
X78560Y-37682D01*
X78560Y-37712D01*
X78567Y-37712D01*
X78567Y-37787D01*
X78560Y-37787D01*
X78560Y-37995D01*
X78560Y-38005D01*
X78560Y-38212D01*
X78567Y-38212D01*
X78567Y-38287D01*
X78560Y-38287D01*
X78560Y-38495D01*
X78560Y-38505D01*
X78560Y-38712D01*
X78567Y-38712D01*
X78567Y-38787D01*
X78560Y-38787D01*
X78560Y-38995D01*
X78560Y-39005D01*
X78560Y-39212D01*
X78567Y-39212D01*
X78567Y-39287D01*
G54D10*
G36*
X89335Y-51335D02*
X83375Y-51335D01*
X83517Y-51276D01*
X83775Y-51018D01*
X83914Y-50682D01*
X83915Y-50318D01*
X83776Y-49982D01*
X83518Y-49724D01*
X83440Y-49691D01*
X83440Y-48412D01*
X83440Y-47412D01*
X83440Y-46412D01*
X83373Y-46251D01*
X83249Y-46127D01*
X83087Y-46060D01*
X82912Y-46059D01*
X82843Y-46088D01*
X82627Y-45872D01*
X82568Y-45833D01*
X82500Y-45820D01*
X82302Y-45820D01*
X82372Y-45749D01*
X82439Y-45587D01*
X82440Y-45412D01*
X82373Y-45251D01*
X82249Y-45127D01*
X82087Y-45060D01*
X81912Y-45059D01*
X81843Y-45088D01*
X81534Y-44779D01*
X81534Y-42911D01*
X81750Y-43127D01*
X81627Y-43250D01*
X81560Y-43412D01*
X81559Y-43587D01*
X81626Y-43748D01*
X81750Y-43872D01*
X81912Y-43939D01*
X82087Y-43940D01*
X82248Y-43873D01*
X82320Y-43802D01*
X82320Y-44197D01*
X82249Y-44127D01*
X82087Y-44060D01*
X81912Y-44059D01*
X81751Y-44126D01*
X81627Y-44250D01*
X81560Y-44412D01*
X81559Y-44587D01*
X81626Y-44748D01*
X81750Y-44872D01*
X81912Y-44939D01*
X82087Y-44940D01*
X82248Y-44873D01*
X82320Y-44802D01*
X82320Y-45000D01*
X82333Y-45068D01*
X82372Y-45127D01*
X82588Y-45343D01*
X82560Y-45412D01*
X82559Y-45587D01*
X82626Y-45748D01*
X82750Y-45872D01*
X82912Y-45939D01*
X83087Y-45940D01*
X83248Y-45873D01*
X83372Y-45749D01*
X83439Y-45587D01*
X83440Y-45412D01*
X83373Y-45251D01*
X83249Y-45127D01*
X83087Y-45060D01*
X82912Y-45059D01*
X82843Y-45088D01*
X82680Y-44925D01*
X82680Y-44802D01*
X82750Y-44872D01*
X82912Y-44939D01*
X83087Y-44940D01*
X83248Y-44873D01*
X83372Y-44749D01*
X83439Y-44587D01*
X83440Y-44412D01*
X83373Y-44251D01*
X83249Y-44127D01*
X83087Y-44060D01*
X82912Y-44059D01*
X82751Y-44126D01*
X82680Y-44197D01*
X82680Y-43802D01*
X82750Y-43872D01*
X82912Y-43939D01*
X83087Y-43940D01*
X83248Y-43873D01*
X83372Y-43749D01*
X83439Y-43587D01*
X83440Y-43412D01*
X83440Y-42412D01*
X83440Y-41412D01*
X83440Y-40412D01*
X83440Y-39412D01*
X83440Y-38412D01*
X83440Y-37412D01*
X83440Y-36412D01*
X83440Y-35412D01*
X83440Y-34412D01*
X83440Y-33412D01*
X83440Y-32412D01*
X83440Y-31412D01*
X83373Y-31251D01*
X83249Y-31127D01*
X83087Y-31060D01*
X82912Y-31059D01*
X82751Y-31126D01*
X82627Y-31250D01*
X82560Y-31412D01*
X82559Y-31587D01*
X82626Y-31748D01*
X82750Y-31872D01*
X82912Y-31939D01*
X83087Y-31940D01*
X83248Y-31873D01*
X83372Y-31749D01*
X83439Y-31587D01*
X83440Y-31412D01*
X83440Y-32412D01*
X83373Y-32251D01*
X83249Y-32127D01*
X83087Y-32060D01*
X82912Y-32059D01*
X82751Y-32126D01*
X82627Y-32250D01*
X82560Y-32412D01*
X82559Y-32587D01*
X82626Y-32748D01*
X82750Y-32872D01*
X82912Y-32939D01*
X83087Y-32940D01*
X83248Y-32873D01*
X83372Y-32749D01*
X83439Y-32587D01*
X83440Y-32412D01*
X83440Y-33412D01*
X83373Y-33251D01*
X83249Y-33127D01*
X83087Y-33060D01*
X82912Y-33059D01*
X82751Y-33126D01*
X82627Y-33250D01*
X82560Y-33412D01*
X82559Y-33587D01*
X82626Y-33748D01*
X82750Y-33872D01*
X82912Y-33939D01*
X83087Y-33940D01*
X83248Y-33873D01*
X83372Y-33749D01*
X83439Y-33587D01*
X83440Y-33412D01*
X83440Y-34412D01*
X83373Y-34251D01*
X83249Y-34127D01*
X83087Y-34060D01*
X82912Y-34059D01*
X82751Y-34126D01*
X82627Y-34250D01*
X82560Y-34412D01*
X82559Y-34587D01*
X82626Y-34748D01*
X82750Y-34872D01*
X82912Y-34939D01*
X83087Y-34940D01*
X83248Y-34873D01*
X83372Y-34749D01*
X83439Y-34587D01*
X83440Y-34412D01*
X83440Y-35412D01*
X83373Y-35251D01*
X83249Y-35127D01*
X83087Y-35060D01*
X82912Y-35059D01*
X82751Y-35126D01*
X82627Y-35250D01*
X82560Y-35412D01*
X82559Y-35587D01*
X82626Y-35748D01*
X82750Y-35872D01*
X82912Y-35939D01*
X83087Y-35940D01*
X83248Y-35873D01*
X83372Y-35749D01*
X83439Y-35587D01*
X83440Y-35412D01*
X83440Y-36412D01*
X83373Y-36251D01*
X83249Y-36127D01*
X83087Y-36060D01*
X82912Y-36059D01*
X82751Y-36126D01*
X82627Y-36250D01*
X82560Y-36412D01*
X82559Y-36587D01*
X82626Y-36748D01*
X82750Y-36872D01*
X82912Y-36939D01*
X83087Y-36940D01*
X83248Y-36873D01*
X83372Y-36749D01*
X83439Y-36587D01*
X83440Y-36412D01*
X83440Y-37412D01*
X83373Y-37251D01*
X83249Y-37127D01*
X83087Y-37060D01*
X82912Y-37059D01*
X82751Y-37126D01*
X82627Y-37250D01*
X82560Y-37412D01*
X82559Y-37587D01*
X82626Y-37748D01*
X82750Y-37872D01*
X82912Y-37939D01*
X83087Y-37940D01*
X83248Y-37873D01*
X83372Y-37749D01*
X83439Y-37587D01*
X83440Y-37412D01*
X83440Y-38412D01*
X83373Y-38251D01*
X83249Y-38127D01*
X83087Y-38060D01*
X82912Y-38059D01*
X82751Y-38126D01*
X82627Y-38250D01*
X82560Y-38412D01*
X82559Y-38587D01*
X82626Y-38748D01*
X82750Y-38872D01*
X82912Y-38939D01*
X83087Y-38940D01*
X83248Y-38873D01*
X83372Y-38749D01*
X83439Y-38587D01*
X83440Y-38412D01*
X83440Y-39412D01*
X83373Y-39251D01*
X83249Y-39127D01*
X83087Y-39060D01*
X82912Y-39059D01*
X82751Y-39126D01*
X82627Y-39250D01*
X82560Y-39412D01*
X82559Y-39587D01*
X82626Y-39748D01*
X82750Y-39872D01*
X82912Y-39939D01*
X83087Y-39940D01*
X83248Y-39873D01*
X83372Y-39749D01*
X83439Y-39587D01*
X83440Y-39412D01*
X83440Y-40412D01*
X83373Y-40251D01*
X83249Y-40127D01*
X83087Y-40060D01*
X82912Y-40059D01*
X82751Y-40126D01*
X82627Y-40250D01*
X82560Y-40412D01*
X82559Y-40587D01*
X82626Y-40748D01*
X82750Y-40872D01*
X82912Y-40939D01*
X83087Y-40940D01*
X83248Y-40873D01*
X83372Y-40749D01*
X83439Y-40587D01*
X83440Y-40412D01*
X83440Y-41412D01*
X83373Y-41251D01*
X83249Y-41127D01*
X83087Y-41060D01*
X82912Y-41059D01*
X82751Y-41126D01*
X82627Y-41250D01*
X82560Y-41412D01*
X82559Y-41587D01*
X82626Y-41748D01*
X82750Y-41872D01*
X82912Y-41939D01*
X83087Y-41940D01*
X83248Y-41873D01*
X83372Y-41749D01*
X83439Y-41587D01*
X83440Y-41412D01*
X83440Y-42412D01*
X83373Y-42251D01*
X83249Y-42127D01*
X83087Y-42060D01*
X82912Y-42059D01*
X82751Y-42126D01*
X82627Y-42250D01*
X82560Y-42412D01*
X82559Y-42587D01*
X82626Y-42748D01*
X82750Y-42872D01*
X82912Y-42939D01*
X83087Y-42940D01*
X83248Y-42873D01*
X83372Y-42749D01*
X83439Y-42587D01*
X83440Y-42412D01*
X83440Y-43412D01*
X83373Y-43251D01*
X83249Y-43127D01*
X83087Y-43060D01*
X82912Y-43059D01*
X82751Y-43126D01*
X82627Y-43249D01*
X82627Y-43248D01*
X82627Y-43248D01*
X82310Y-42932D01*
X82252Y-42893D01*
X82216Y-42886D01*
X82248Y-42873D01*
X82372Y-42749D01*
X82439Y-42587D01*
X82440Y-42412D01*
X82373Y-42251D01*
X82249Y-42127D01*
X82087Y-42060D01*
X81912Y-42059D01*
X81751Y-42126D01*
X81725Y-42152D01*
X81725Y-41847D01*
X81750Y-41872D01*
X81912Y-41939D01*
X82087Y-41940D01*
X82248Y-41873D01*
X82372Y-41749D01*
X82439Y-41587D01*
X82440Y-41412D01*
X82373Y-41251D01*
X82249Y-41127D01*
X82087Y-41060D01*
X81912Y-41059D01*
X81751Y-41126D01*
X81725Y-41152D01*
X81725Y-40847D01*
X81750Y-40872D01*
X81912Y-40939D01*
X82087Y-40940D01*
X82248Y-40873D01*
X82372Y-40749D01*
X82439Y-40587D01*
X82440Y-40412D01*
X82373Y-40251D01*
X82249Y-40127D01*
X82087Y-40060D01*
X81912Y-40059D01*
X81751Y-40126D01*
X81725Y-40152D01*
X81725Y-39847D01*
X81750Y-39872D01*
X81912Y-39939D01*
X82087Y-39940D01*
X82248Y-39873D01*
X82372Y-39749D01*
X82439Y-39587D01*
X82440Y-39412D01*
X82373Y-39251D01*
X82249Y-39127D01*
X82087Y-39060D01*
X81912Y-39059D01*
X81751Y-39126D01*
X81725Y-39152D01*
X81725Y-38847D01*
X81750Y-38872D01*
X81912Y-38939D01*
X82087Y-38940D01*
X82248Y-38873D01*
X82372Y-38749D01*
X82439Y-38587D01*
X82440Y-38412D01*
X82440Y-37412D01*
X82440Y-36412D01*
X82440Y-35412D01*
X82440Y-34412D01*
X82440Y-33412D01*
X82440Y-32412D01*
X82440Y-31412D01*
X82373Y-31251D01*
X82249Y-31127D01*
X82087Y-31060D01*
X81912Y-31059D01*
X81751Y-31126D01*
X81627Y-31250D01*
X81560Y-31412D01*
X81559Y-31587D01*
X81626Y-31748D01*
X81750Y-31872D01*
X81912Y-31939D01*
X82087Y-31940D01*
X82248Y-31873D01*
X82372Y-31749D01*
X82439Y-31587D01*
X82440Y-31412D01*
X82440Y-32412D01*
X82373Y-32251D01*
X82249Y-32127D01*
X82087Y-32060D01*
X81912Y-32059D01*
X81751Y-32126D01*
X81627Y-32250D01*
X81560Y-32412D01*
X81559Y-32587D01*
X81626Y-32748D01*
X81750Y-32872D01*
X81912Y-32939D01*
X82087Y-32940D01*
X82248Y-32873D01*
X82372Y-32749D01*
X82439Y-32587D01*
X82440Y-32412D01*
X82440Y-33412D01*
X82373Y-33251D01*
X82249Y-33127D01*
X82087Y-33060D01*
X81912Y-33059D01*
X81751Y-33126D01*
X81627Y-33250D01*
X81560Y-33412D01*
X81559Y-33587D01*
X81626Y-33748D01*
X81750Y-33872D01*
X81912Y-33939D01*
X82087Y-33940D01*
X82248Y-33873D01*
X82372Y-33749D01*
X82439Y-33587D01*
X82440Y-33412D01*
X82440Y-34412D01*
X82373Y-34251D01*
X82249Y-34127D01*
X82087Y-34060D01*
X81912Y-34059D01*
X81751Y-34126D01*
X81627Y-34250D01*
X81560Y-34412D01*
X81559Y-34587D01*
X81626Y-34748D01*
X81750Y-34872D01*
X81912Y-34939D01*
X82087Y-34940D01*
X82248Y-34873D01*
X82372Y-34749D01*
X82439Y-34587D01*
X82440Y-34412D01*
X82440Y-35412D01*
X82373Y-35251D01*
X82249Y-35127D01*
X82087Y-35060D01*
X81912Y-35059D01*
X81751Y-35126D01*
X81627Y-35250D01*
X81560Y-35412D01*
X81559Y-35587D01*
X81626Y-35748D01*
X81750Y-35872D01*
X81912Y-35939D01*
X82087Y-35940D01*
X82248Y-35873D01*
X82372Y-35749D01*
X82439Y-35587D01*
X82440Y-35412D01*
X82440Y-36412D01*
X82373Y-36251D01*
X82249Y-36127D01*
X82087Y-36060D01*
X81912Y-36059D01*
X81751Y-36126D01*
X81627Y-36250D01*
X81560Y-36412D01*
X81559Y-36587D01*
X81626Y-36748D01*
X81750Y-36872D01*
X81912Y-36939D01*
X82087Y-36940D01*
X82248Y-36873D01*
X82372Y-36749D01*
X82439Y-36587D01*
X82440Y-36412D01*
X82440Y-37412D01*
X82373Y-37251D01*
X82249Y-37127D01*
X82087Y-37060D01*
X81912Y-37059D01*
X81751Y-37126D01*
X81627Y-37250D01*
X81560Y-37412D01*
X81559Y-37587D01*
X81626Y-37748D01*
X81750Y-37872D01*
X81912Y-37939D01*
X82087Y-37940D01*
X82248Y-37873D01*
X82372Y-37749D01*
X82439Y-37587D01*
X82440Y-37412D01*
X82440Y-38412D01*
X82373Y-38251D01*
X82249Y-38127D01*
X82087Y-38060D01*
X81912Y-38059D01*
X81751Y-38126D01*
X81636Y-38241D01*
X79440Y-36045D01*
X79440Y-31712D01*
X79440Y-31287D01*
X79406Y-31119D01*
X79311Y-30976D01*
X79168Y-30880D01*
X79000Y-30847D01*
X78831Y-30880D01*
X78688Y-30976D01*
X78593Y-31119D01*
X78560Y-31287D01*
X78560Y-31712D01*
X78593Y-31880D01*
X78688Y-32023D01*
X78831Y-32119D01*
X79000Y-32152D01*
X79168Y-32119D01*
X79311Y-32023D01*
X79406Y-31880D01*
X79440Y-31712D01*
X79440Y-36045D01*
X79017Y-35622D01*
X78959Y-35583D01*
X78890Y-35570D01*
X78843Y-35570D01*
X78829Y-35556D01*
X78777Y-35535D01*
X78722Y-35534D01*
X78440Y-35534D01*
X78440Y-31712D01*
X78440Y-31287D01*
X78406Y-31119D01*
X78311Y-30976D01*
X78168Y-30880D01*
X78000Y-30847D01*
X77831Y-30880D01*
X77688Y-30976D01*
X77593Y-31119D01*
X77560Y-31287D01*
X77560Y-31712D01*
X77593Y-31880D01*
X77688Y-32023D01*
X77831Y-32119D01*
X78000Y-32152D01*
X78168Y-32119D01*
X78311Y-32023D01*
X78406Y-31880D01*
X78440Y-31712D01*
X78440Y-35534D01*
X78222Y-35534D01*
X78170Y-35556D01*
X78131Y-35595D01*
X78110Y-35647D01*
X78109Y-35702D01*
X78109Y-35852D01*
X78131Y-35904D01*
X78170Y-35943D01*
X78222Y-35964D01*
X78277Y-35965D01*
X78777Y-35965D01*
X78829Y-35943D01*
X78829Y-35943D01*
X78989Y-36104D01*
X78959Y-36083D01*
X78890Y-36070D01*
X78843Y-36070D01*
X78829Y-36056D01*
X78777Y-36035D01*
X78722Y-36034D01*
X78222Y-36034D01*
X78170Y-36056D01*
X78131Y-36095D01*
X78110Y-36147D01*
X78109Y-36202D01*
X78109Y-36352D01*
X78131Y-36404D01*
X78170Y-36443D01*
X78222Y-36464D01*
X78277Y-36465D01*
X78777Y-36465D01*
X78829Y-36443D01*
X78829Y-36443D01*
X81174Y-38788D01*
X81174Y-44854D01*
X81187Y-44923D01*
X81226Y-44981D01*
X81588Y-45343D01*
X81560Y-45412D01*
X81560Y-45429D01*
X79250Y-43119D01*
X79250Y-40295D01*
X79236Y-40226D01*
X79197Y-40167D01*
X78937Y-39907D01*
X78882Y-39870D01*
X78889Y-39852D01*
X78890Y-39797D01*
X78890Y-39647D01*
X78889Y-39646D01*
X79017Y-39519D01*
X79017Y-39519D01*
X79056Y-39460D01*
X79070Y-39391D01*
X79070Y-39391D01*
X79070Y-37614D01*
X79070Y-37614D01*
X79056Y-37545D01*
X79056Y-37545D01*
X79043Y-37525D01*
X79017Y-37486D01*
X79017Y-37486D01*
X78888Y-37357D01*
X78889Y-37352D01*
X78890Y-37297D01*
X78890Y-37147D01*
X78868Y-37095D01*
X78829Y-37056D01*
X78777Y-37035D01*
X78722Y-37034D01*
X78222Y-37034D01*
X78170Y-37056D01*
X78131Y-37095D01*
X78110Y-37147D01*
X78109Y-37202D01*
X78109Y-37285D01*
X76679Y-37285D01*
X75103Y-35709D01*
X75717Y-35709D01*
X76942Y-36933D01*
X76942Y-36933D01*
X76998Y-36971D01*
X77026Y-36990D01*
X77026Y-36990D01*
X77126Y-37009D01*
X77126Y-37010D01*
X78500Y-37010D01*
X78599Y-36990D01*
X78637Y-36965D01*
X78777Y-36965D01*
X78829Y-36943D01*
X78868Y-36904D01*
X78889Y-36852D01*
X78890Y-36797D01*
X78890Y-36647D01*
X78868Y-36595D01*
X78829Y-36556D01*
X78777Y-36535D01*
X78722Y-36534D01*
X78637Y-36534D01*
X78599Y-36509D01*
X78500Y-36490D01*
X77440Y-36490D01*
X77440Y-31712D01*
X77440Y-31287D01*
X77406Y-31119D01*
X77311Y-30976D01*
X77168Y-30880D01*
X77000Y-30847D01*
X76831Y-30880D01*
X76688Y-30976D01*
X76593Y-31119D01*
X76560Y-31287D01*
X76560Y-31712D01*
X76593Y-31880D01*
X76688Y-32023D01*
X76831Y-32119D01*
X77000Y-32152D01*
X77168Y-32119D01*
X77311Y-32023D01*
X77406Y-31880D01*
X77440Y-31712D01*
X77440Y-36490D01*
X77233Y-36490D01*
X76440Y-35696D01*
X76440Y-31712D01*
X76440Y-31287D01*
X76406Y-31119D01*
X76311Y-30976D01*
X76168Y-30880D01*
X76000Y-30847D01*
X75831Y-30880D01*
X75688Y-30976D01*
X75593Y-31119D01*
X75560Y-31287D01*
X75560Y-31712D01*
X75593Y-31880D01*
X75688Y-32023D01*
X75831Y-32119D01*
X76000Y-32152D01*
X76168Y-32119D01*
X76311Y-32023D01*
X76406Y-31880D01*
X76440Y-31712D01*
X76440Y-35696D01*
X76008Y-35265D01*
X75924Y-35208D01*
X75825Y-35189D01*
X75440Y-35189D01*
X75440Y-31712D01*
X75440Y-31287D01*
X75406Y-31119D01*
X75311Y-30976D01*
X75168Y-30880D01*
X75000Y-30847D01*
X74831Y-30880D01*
X74688Y-30976D01*
X74593Y-31119D01*
X74560Y-31287D01*
X74560Y-31712D01*
X74593Y-31880D01*
X74688Y-32023D01*
X74831Y-32119D01*
X75000Y-32152D01*
X75168Y-32119D01*
X75311Y-32023D01*
X75406Y-31880D01*
X75440Y-31712D01*
X75440Y-35189D01*
X74440Y-35189D01*
X74440Y-31712D01*
X74440Y-31287D01*
X74406Y-31119D01*
X74311Y-30976D01*
X74168Y-30880D01*
X74000Y-30847D01*
X73831Y-30880D01*
X73688Y-30976D01*
X73593Y-31119D01*
X73560Y-31287D01*
X73560Y-31712D01*
X73593Y-31880D01*
X73688Y-32023D01*
X73831Y-32119D01*
X74000Y-32152D01*
X74168Y-32119D01*
X74311Y-32023D01*
X74406Y-31880D01*
X74440Y-31712D01*
X74440Y-35189D01*
X73440Y-35189D01*
X73440Y-31712D01*
X73440Y-31287D01*
X73406Y-31119D01*
X73311Y-30976D01*
X73168Y-30880D01*
X73000Y-30847D01*
X72831Y-30880D01*
X72688Y-30976D01*
X72593Y-31119D01*
X72560Y-31287D01*
X72560Y-31712D01*
X72593Y-31880D01*
X72688Y-32023D01*
X72831Y-32119D01*
X73000Y-32152D01*
X73168Y-32119D01*
X73311Y-32023D01*
X73406Y-31880D01*
X73440Y-31712D01*
X73440Y-35189D01*
X72440Y-35189D01*
X72440Y-31712D01*
X72440Y-31287D01*
X72406Y-31119D01*
X72311Y-30976D01*
X72168Y-30880D01*
X72000Y-30847D01*
X71831Y-30880D01*
X71688Y-30976D01*
X71593Y-31119D01*
X71560Y-31287D01*
X71560Y-31712D01*
X71593Y-31880D01*
X71688Y-32023D01*
X71831Y-32119D01*
X72000Y-32152D01*
X72168Y-32119D01*
X72311Y-32023D01*
X72406Y-31880D01*
X72440Y-31712D01*
X72440Y-35189D01*
X70440Y-35189D01*
X70440Y-31712D01*
X70440Y-31287D01*
X70406Y-31119D01*
X70311Y-30976D01*
X70168Y-30880D01*
X70000Y-30847D01*
X69831Y-30880D01*
X69688Y-30976D01*
X69593Y-31119D01*
X69560Y-31287D01*
X69560Y-31712D01*
X69593Y-31880D01*
X69688Y-32023D01*
X69831Y-32119D01*
X70000Y-32152D01*
X70168Y-32119D01*
X70311Y-32023D01*
X70406Y-31880D01*
X70440Y-31712D01*
X70440Y-35189D01*
X69440Y-35189D01*
X69440Y-31712D01*
X69440Y-31287D01*
X69406Y-31119D01*
X69311Y-30976D01*
X69168Y-30880D01*
X69000Y-30847D01*
X68831Y-30880D01*
X68688Y-30976D01*
X68593Y-31119D01*
X68560Y-31287D01*
X68560Y-31712D01*
X68593Y-31880D01*
X68688Y-32023D01*
X68831Y-32119D01*
X69000Y-32152D01*
X69168Y-32119D01*
X69311Y-32023D01*
X69406Y-31880D01*
X69440Y-31712D01*
X69440Y-35189D01*
X68440Y-35189D01*
X68440Y-31712D01*
X68440Y-31287D01*
X68406Y-31119D01*
X68311Y-30976D01*
X68168Y-30880D01*
X68000Y-30847D01*
X67831Y-30880D01*
X67688Y-30976D01*
X67593Y-31119D01*
X67560Y-31287D01*
X67560Y-31712D01*
X67593Y-31880D01*
X67688Y-32023D01*
X67831Y-32119D01*
X68000Y-32152D01*
X68168Y-32119D01*
X68311Y-32023D01*
X68406Y-31880D01*
X68440Y-31712D01*
X68440Y-35189D01*
X67440Y-35189D01*
X67440Y-31712D01*
X67440Y-31287D01*
X67406Y-31119D01*
X67311Y-30976D01*
X67168Y-30880D01*
X67000Y-30847D01*
X66831Y-30880D01*
X66688Y-30976D01*
X66593Y-31119D01*
X66560Y-31287D01*
X66560Y-31712D01*
X66593Y-31880D01*
X66688Y-32023D01*
X66831Y-32119D01*
X67000Y-32152D01*
X67168Y-32119D01*
X67311Y-32023D01*
X67406Y-31880D01*
X67440Y-31712D01*
X67440Y-35189D01*
X67050Y-35189D01*
X66951Y-35208D01*
X66923Y-35227D01*
X66867Y-35265D01*
X66440Y-35692D01*
X66440Y-31712D01*
X66440Y-31287D01*
X66406Y-31119D01*
X66311Y-30976D01*
X66168Y-30880D01*
X66000Y-30847D01*
X65831Y-30880D01*
X65688Y-30976D01*
X65593Y-31119D01*
X65560Y-31287D01*
X65560Y-31712D01*
X65593Y-31880D01*
X65688Y-32023D01*
X65831Y-32119D01*
X66000Y-32152D01*
X66168Y-32119D01*
X66311Y-32023D01*
X66406Y-31880D01*
X66440Y-31712D01*
X66440Y-35692D01*
X65440Y-36692D01*
X65440Y-31712D01*
X65440Y-31287D01*
X65406Y-31119D01*
X65311Y-30976D01*
X65168Y-30880D01*
X65000Y-30847D01*
X64831Y-30880D01*
X64688Y-30976D01*
X64593Y-31119D01*
X64560Y-31287D01*
X64560Y-31712D01*
X64593Y-31880D01*
X64688Y-32023D01*
X64831Y-32119D01*
X65000Y-32152D01*
X65168Y-32119D01*
X65311Y-32023D01*
X65406Y-31880D01*
X65440Y-31712D01*
X65440Y-36692D01*
X64440Y-37692D01*
X64440Y-31712D01*
X64440Y-31287D01*
X64406Y-31119D01*
X64311Y-30976D01*
X64168Y-30880D01*
X64000Y-30847D01*
X63831Y-30880D01*
X63688Y-30976D01*
X63593Y-31119D01*
X63560Y-31287D01*
X63560Y-31712D01*
X63593Y-31880D01*
X63688Y-32023D01*
X63831Y-32119D01*
X64000Y-32152D01*
X64168Y-32119D01*
X64311Y-32023D01*
X64406Y-31880D01*
X64440Y-31712D01*
X64440Y-37692D01*
X63440Y-38692D01*
X63440Y-31712D01*
X63440Y-31287D01*
X63406Y-31119D01*
X63311Y-30976D01*
X63168Y-30880D01*
X63000Y-30847D01*
X62831Y-30880D01*
X62688Y-30976D01*
X62593Y-31119D01*
X62560Y-31287D01*
X62560Y-31712D01*
X62593Y-31880D01*
X62688Y-32023D01*
X62831Y-32119D01*
X63000Y-32152D01*
X63168Y-32119D01*
X63311Y-32023D01*
X63406Y-31880D01*
X63440Y-31712D01*
X63440Y-38692D01*
X61840Y-40292D01*
X61840Y-31712D01*
X61840Y-31287D01*
X61806Y-31119D01*
X61711Y-30976D01*
X61568Y-30880D01*
X61400Y-30847D01*
X61231Y-30880D01*
X61088Y-30976D01*
X60993Y-31119D01*
X60960Y-31287D01*
X60960Y-31712D01*
X60993Y-31880D01*
X61088Y-32023D01*
X61231Y-32119D01*
X61400Y-32152D01*
X61568Y-32119D01*
X61711Y-32023D01*
X61806Y-31880D01*
X61840Y-31712D01*
X61840Y-40292D01*
X60840Y-41292D01*
X60840Y-31712D01*
X60840Y-31287D01*
X60806Y-31119D01*
X60711Y-30976D01*
X60568Y-30880D01*
X60400Y-30847D01*
X60231Y-30880D01*
X60088Y-30976D01*
X59993Y-31119D01*
X59960Y-31287D01*
X59960Y-31712D01*
X59993Y-31880D01*
X60088Y-32023D01*
X60231Y-32119D01*
X60400Y-32152D01*
X60568Y-32119D01*
X60711Y-32023D01*
X60806Y-31880D01*
X60840Y-31712D01*
X60840Y-41292D01*
X59840Y-42292D01*
X59840Y-31712D01*
X59840Y-31287D01*
X59806Y-31119D01*
X59711Y-30976D01*
X59568Y-30880D01*
X59400Y-30847D01*
X59231Y-30880D01*
X59088Y-30976D01*
X58993Y-31119D01*
X58960Y-31287D01*
X58960Y-31712D01*
X58993Y-31880D01*
X59088Y-32023D01*
X59231Y-32119D01*
X59400Y-32152D01*
X59568Y-32119D01*
X59711Y-32023D01*
X59806Y-31880D01*
X59840Y-31712D01*
X59840Y-42292D01*
X58840Y-43292D01*
X58840Y-31712D01*
X58840Y-31287D01*
X58806Y-31119D01*
X58711Y-30976D01*
X58568Y-30880D01*
X58400Y-30847D01*
X58231Y-30880D01*
X58088Y-30976D01*
X57993Y-31119D01*
X57960Y-31287D01*
X57960Y-31712D01*
X57993Y-31880D01*
X58088Y-32023D01*
X58231Y-32119D01*
X58400Y-32152D01*
X58568Y-32119D01*
X58711Y-32023D01*
X58806Y-31880D01*
X58840Y-31712D01*
X58840Y-43292D01*
X58459Y-43672D01*
X58187Y-43560D01*
X57840Y-43559D01*
X57840Y-31712D01*
X57840Y-31287D01*
X57806Y-31119D01*
X57711Y-30976D01*
X57568Y-30880D01*
X57400Y-30847D01*
X57231Y-30880D01*
X57088Y-30976D01*
X56993Y-31119D01*
X56960Y-31287D01*
X56960Y-31712D01*
X56993Y-31880D01*
X57088Y-32023D01*
X57231Y-32119D01*
X57400Y-32152D01*
X57568Y-32119D01*
X57711Y-32023D01*
X57806Y-31880D01*
X57840Y-31712D01*
X57840Y-43559D01*
X57813Y-43559D01*
X57468Y-43702D01*
X57203Y-43966D01*
X57060Y-44312D01*
X57059Y-44686D01*
X57202Y-45031D01*
X57466Y-45296D01*
X57812Y-45439D01*
X58186Y-45440D01*
X58531Y-45297D01*
X58796Y-45033D01*
X58939Y-44687D01*
X58940Y-44313D01*
X58827Y-44040D01*
X67158Y-35709D01*
X74109Y-35709D01*
X74109Y-35852D01*
X74131Y-35904D01*
X74156Y-35930D01*
X72619Y-35930D01*
X72497Y-35954D01*
X72393Y-36023D01*
X71273Y-37143D01*
X71204Y-37247D01*
X71180Y-37369D01*
X71180Y-37509D01*
X70972Y-37509D01*
X70920Y-37531D01*
X70881Y-37570D01*
X70877Y-37580D01*
X70719Y-37580D01*
X70597Y-37604D01*
X70535Y-37645D01*
X70493Y-37673D01*
X64773Y-43393D01*
X64704Y-43497D01*
X64681Y-43614D01*
X64468Y-43702D01*
X64203Y-43966D01*
X64060Y-44312D01*
X64059Y-44686D01*
X64147Y-44899D01*
X60000Y-49047D01*
X56840Y-45887D01*
X56840Y-31712D01*
X56840Y-31287D01*
X56806Y-31119D01*
X56711Y-30976D01*
X56568Y-30880D01*
X56400Y-30847D01*
X56231Y-30880D01*
X56088Y-30976D01*
X55993Y-31119D01*
X55960Y-31287D01*
X55960Y-31712D01*
X55993Y-31880D01*
X56088Y-32023D01*
X56231Y-32119D01*
X56400Y-32152D01*
X56568Y-32119D01*
X56711Y-32023D01*
X56806Y-31880D01*
X56840Y-31712D01*
X56840Y-45887D01*
X55851Y-44899D01*
X55939Y-44687D01*
X55940Y-44313D01*
X55840Y-44071D01*
X55840Y-31712D01*
X55840Y-31287D01*
X55806Y-31119D01*
X55711Y-30976D01*
X55568Y-30880D01*
X55400Y-30847D01*
X55231Y-30880D01*
X55088Y-30976D01*
X54993Y-31119D01*
X54960Y-31287D01*
X54960Y-31712D01*
X54993Y-31880D01*
X55088Y-32023D01*
X55231Y-32119D01*
X55400Y-32152D01*
X55568Y-32119D01*
X55711Y-32023D01*
X55806Y-31880D01*
X55840Y-31712D01*
X55840Y-44071D01*
X55797Y-43968D01*
X55533Y-43703D01*
X55187Y-43560D01*
X54840Y-43559D01*
X54840Y-31712D01*
X54840Y-31287D01*
X54806Y-31119D01*
X54711Y-30976D01*
X54568Y-30880D01*
X54400Y-30847D01*
X54231Y-30880D01*
X54088Y-30976D01*
X53993Y-31119D01*
X53960Y-31287D01*
X53960Y-31712D01*
X53993Y-31880D01*
X54088Y-32023D01*
X54231Y-32119D01*
X54400Y-32152D01*
X54568Y-32119D01*
X54711Y-32023D01*
X54806Y-31880D01*
X54840Y-31712D01*
X54840Y-43559D01*
X54813Y-43559D01*
X54468Y-43702D01*
X54203Y-43966D01*
X54060Y-44312D01*
X54059Y-44686D01*
X54202Y-45031D01*
X54466Y-45296D01*
X54812Y-45439D01*
X55186Y-45440D01*
X55399Y-45352D01*
X59680Y-49632D01*
X59680Y-49989D01*
X59593Y-50119D01*
X59560Y-50287D01*
X59560Y-50712D01*
X59593Y-50880D01*
X59646Y-50960D01*
X59353Y-50960D01*
X59406Y-50880D01*
X59440Y-50712D01*
X59440Y-50287D01*
X59406Y-50119D01*
X59311Y-49976D01*
X59168Y-49880D01*
X59000Y-49847D01*
X58831Y-49880D01*
X58688Y-49976D01*
X58593Y-50119D01*
X58560Y-50287D01*
X58560Y-50712D01*
X58593Y-50880D01*
X58646Y-50960D01*
X58353Y-50960D01*
X58406Y-50880D01*
X58440Y-50712D01*
X58440Y-50287D01*
X58406Y-50119D01*
X58311Y-49976D01*
X58168Y-49880D01*
X58000Y-49847D01*
X57831Y-49880D01*
X57688Y-49976D01*
X57593Y-50119D01*
X57560Y-50287D01*
X57560Y-50712D01*
X57593Y-50880D01*
X57688Y-51023D01*
X57820Y-51111D01*
X57820Y-51140D01*
X57833Y-51209D01*
X57872Y-51267D01*
X57931Y-51306D01*
X58000Y-51320D01*
X63522Y-51320D01*
X63591Y-51306D01*
X63649Y-51267D01*
X64560Y-50357D01*
X64560Y-50712D01*
X64593Y-50880D01*
X64688Y-51023D01*
X64831Y-51119D01*
X65000Y-51152D01*
X65168Y-51119D01*
X65311Y-51023D01*
X65406Y-50880D01*
X65440Y-50712D01*
X65440Y-50287D01*
X65406Y-50119D01*
X65311Y-49976D01*
X65168Y-49880D01*
X65058Y-49859D01*
X74109Y-40807D01*
X74109Y-40852D01*
X74131Y-40904D01*
X74170Y-40943D01*
X74222Y-40964D01*
X74277Y-40965D01*
X74777Y-40965D01*
X74829Y-40943D01*
X74842Y-40930D01*
X76713Y-40930D01*
X76782Y-40916D01*
X76840Y-40877D01*
X77503Y-40214D01*
X78109Y-40214D01*
X78109Y-40352D01*
X78131Y-40404D01*
X78156Y-40430D01*
X77969Y-40430D01*
X77847Y-40454D01*
X77743Y-40523D01*
X74773Y-43493D01*
X74704Y-43597D01*
X74702Y-43605D01*
X74468Y-43702D01*
X74230Y-43940D01*
X74230Y-41464D01*
X74277Y-41465D01*
X74777Y-41465D01*
X74829Y-41443D01*
X74868Y-41404D01*
X74889Y-41352D01*
X74890Y-41297D01*
X74890Y-41147D01*
X74868Y-41095D01*
X74829Y-41056D01*
X74777Y-41035D01*
X74722Y-41034D01*
X74222Y-41034D01*
X74170Y-41056D01*
X74157Y-41070D01*
X74109Y-41070D01*
X74040Y-41083D01*
X74021Y-41096D01*
X73982Y-41122D01*
X73922Y-41182D01*
X73883Y-41240D01*
X73870Y-41309D01*
X73870Y-44886D01*
X73883Y-44955D01*
X73922Y-45013D01*
X76536Y-47627D01*
X76536Y-47627D01*
X76594Y-47666D01*
X76663Y-47680D01*
X81598Y-47680D01*
X81626Y-47748D01*
X81750Y-47872D01*
X81912Y-47939D01*
X82087Y-47940D01*
X82248Y-47873D01*
X82372Y-47749D01*
X82439Y-47587D01*
X82440Y-47412D01*
X82373Y-47251D01*
X82249Y-47127D01*
X82087Y-47060D01*
X81912Y-47059D01*
X81751Y-47126D01*
X81627Y-47250D01*
X81598Y-47320D01*
X78940Y-47320D01*
X78940Y-44313D01*
X78797Y-43968D01*
X78533Y-43703D01*
X78187Y-43560D01*
X77813Y-43559D01*
X77468Y-43702D01*
X77203Y-43966D01*
X77060Y-44312D01*
X77059Y-44686D01*
X77202Y-45031D01*
X77466Y-45296D01*
X77812Y-45439D01*
X78186Y-45440D01*
X78531Y-45297D01*
X78796Y-45033D01*
X78939Y-44687D01*
X78940Y-44313D01*
X78940Y-47320D01*
X76738Y-47320D01*
X74858Y-45439D01*
X75186Y-45440D01*
X75531Y-45297D01*
X75796Y-45033D01*
X75939Y-44687D01*
X75940Y-44313D01*
X75797Y-43968D01*
X75533Y-43703D01*
X75487Y-43684D01*
X78102Y-41070D01*
X78157Y-41070D01*
X78131Y-41095D01*
X78110Y-41147D01*
X78109Y-41202D01*
X78109Y-41352D01*
X78131Y-41404D01*
X78170Y-41443D01*
X78222Y-41464D01*
X78277Y-41465D01*
X78710Y-41465D01*
X78710Y-43390D01*
X78723Y-43459D01*
X78762Y-43517D01*
X81588Y-46343D01*
X81560Y-46412D01*
X81559Y-46587D01*
X81626Y-46748D01*
X81750Y-46872D01*
X81912Y-46939D01*
X82087Y-46940D01*
X82248Y-46873D01*
X82372Y-46749D01*
X82439Y-46587D01*
X82440Y-46412D01*
X82373Y-46251D01*
X82302Y-46180D01*
X82425Y-46180D01*
X82588Y-46343D01*
X82560Y-46412D01*
X82559Y-46587D01*
X82626Y-46748D01*
X82750Y-46872D01*
X82912Y-46939D01*
X83087Y-46940D01*
X83248Y-46873D01*
X83372Y-46749D01*
X83439Y-46587D01*
X83440Y-46412D01*
X83440Y-47412D01*
X83373Y-47251D01*
X83249Y-47127D01*
X83087Y-47060D01*
X82912Y-47059D01*
X82751Y-47126D01*
X82627Y-47250D01*
X82560Y-47412D01*
X82559Y-47587D01*
X82626Y-47748D01*
X82750Y-47872D01*
X82912Y-47939D01*
X83087Y-47940D01*
X83248Y-47873D01*
X83372Y-47749D01*
X83439Y-47587D01*
X83440Y-47412D01*
X83440Y-48412D01*
X83373Y-48251D01*
X83249Y-48127D01*
X83087Y-48060D01*
X82912Y-48059D01*
X82751Y-48126D01*
X82627Y-48250D01*
X82560Y-48412D01*
X82559Y-48587D01*
X82626Y-48748D01*
X82750Y-48872D01*
X82912Y-48939D01*
X83087Y-48940D01*
X83248Y-48873D01*
X83372Y-48749D01*
X83439Y-48587D01*
X83440Y-48412D01*
X83440Y-49691D01*
X83182Y-49585D01*
X82818Y-49584D01*
X82482Y-49723D01*
X82440Y-49766D01*
X82440Y-48412D01*
X82373Y-48251D01*
X82249Y-48127D01*
X82087Y-48060D01*
X81912Y-48059D01*
X81751Y-48126D01*
X81627Y-48250D01*
X81560Y-48412D01*
X81559Y-48587D01*
X81626Y-48748D01*
X81750Y-48872D01*
X81912Y-48939D01*
X82087Y-48940D01*
X82248Y-48873D01*
X82372Y-48749D01*
X82439Y-48587D01*
X82440Y-48412D01*
X82440Y-49766D01*
X82224Y-49981D01*
X82085Y-50317D01*
X82084Y-50681D01*
X82223Y-51017D01*
X82481Y-51275D01*
X82624Y-51335D01*
X81440Y-51335D01*
X81440Y-50712D01*
X81440Y-50287D01*
X81406Y-50119D01*
X81311Y-49976D01*
X81168Y-49880D01*
X81000Y-49847D01*
X80831Y-49880D01*
X80688Y-49976D01*
X80593Y-50119D01*
X80560Y-50287D01*
X80560Y-50712D01*
X80593Y-50880D01*
X80688Y-51023D01*
X80831Y-51119D01*
X81000Y-51152D01*
X81168Y-51119D01*
X81311Y-51023D01*
X81406Y-50880D01*
X81440Y-50712D01*
X81440Y-51335D01*
X80440Y-51335D01*
X80440Y-50712D01*
X80440Y-50287D01*
X80406Y-50119D01*
X80311Y-49976D01*
X80168Y-49880D01*
X80000Y-49847D01*
X79831Y-49880D01*
X79688Y-49976D01*
X79593Y-50119D01*
X79560Y-50287D01*
X79560Y-50712D01*
X79593Y-50880D01*
X79688Y-51023D01*
X79831Y-51119D01*
X80000Y-51152D01*
X80168Y-51119D01*
X80311Y-51023D01*
X80406Y-50880D01*
X80440Y-50712D01*
X80440Y-51335D01*
X79440Y-51335D01*
X79440Y-50712D01*
X79440Y-50287D01*
X79406Y-50119D01*
X79311Y-49976D01*
X79168Y-49880D01*
X79000Y-49847D01*
X78831Y-49880D01*
X78688Y-49976D01*
X78593Y-50119D01*
X78560Y-50287D01*
X78560Y-50712D01*
X78593Y-50880D01*
X78688Y-51023D01*
X78831Y-51119D01*
X79000Y-51152D01*
X79168Y-51119D01*
X79311Y-51023D01*
X79406Y-50880D01*
X79440Y-50712D01*
X79440Y-51335D01*
X78440Y-51335D01*
X78440Y-50712D01*
X78440Y-50287D01*
X78406Y-50119D01*
X78311Y-49976D01*
X78168Y-49880D01*
X78000Y-49847D01*
X77831Y-49880D01*
X77688Y-49976D01*
X77593Y-50119D01*
X77560Y-50287D01*
X77560Y-50712D01*
X77593Y-50880D01*
X77688Y-51023D01*
X77831Y-51119D01*
X78000Y-51152D01*
X78168Y-51119D01*
X78311Y-51023D01*
X78406Y-50880D01*
X78440Y-50712D01*
X78440Y-51335D01*
X77440Y-51335D01*
X77440Y-50712D01*
X77440Y-50287D01*
X77406Y-50119D01*
X77311Y-49976D01*
X77168Y-49880D01*
X77000Y-49847D01*
X76831Y-49880D01*
X76688Y-49976D01*
X76593Y-50119D01*
X76560Y-50287D01*
X76560Y-50712D01*
X76593Y-50880D01*
X76688Y-51023D01*
X76831Y-51119D01*
X77000Y-51152D01*
X77168Y-51119D01*
X77311Y-51023D01*
X77406Y-50880D01*
X77440Y-50712D01*
X77440Y-51335D01*
X76440Y-51335D01*
X76440Y-50712D01*
X76440Y-50287D01*
X76406Y-50119D01*
X76311Y-49976D01*
X76168Y-49880D01*
X76000Y-49847D01*
X75831Y-49880D01*
X75688Y-49976D01*
X75593Y-50119D01*
X75560Y-50287D01*
X75560Y-50712D01*
X75593Y-50880D01*
X75688Y-51023D01*
X75831Y-51119D01*
X76000Y-51152D01*
X76168Y-51119D01*
X76311Y-51023D01*
X76406Y-50880D01*
X76440Y-50712D01*
X76440Y-51335D01*
X75440Y-51335D01*
X75440Y-50712D01*
X75440Y-50287D01*
X75406Y-50119D01*
X75311Y-49976D01*
X75168Y-49880D01*
X75000Y-49847D01*
X74831Y-49880D01*
X74688Y-49976D01*
X74593Y-50119D01*
X74560Y-50287D01*
X74560Y-50712D01*
X74593Y-50880D01*
X74688Y-51023D01*
X74831Y-51119D01*
X75000Y-51152D01*
X75168Y-51119D01*
X75311Y-51023D01*
X75406Y-50880D01*
X75440Y-50712D01*
X75440Y-51335D01*
X74440Y-51335D01*
X74440Y-50712D01*
X74440Y-50287D01*
X74406Y-50119D01*
X74311Y-49976D01*
X74168Y-49880D01*
X74000Y-49847D01*
X73831Y-49880D01*
X73688Y-49976D01*
X73593Y-50119D01*
X73560Y-50287D01*
X73560Y-50712D01*
X73593Y-50880D01*
X73688Y-51023D01*
X73831Y-51119D01*
X74000Y-51152D01*
X74168Y-51119D01*
X74311Y-51023D01*
X74406Y-50880D01*
X74440Y-50712D01*
X74440Y-51335D01*
X72440Y-51335D01*
X72440Y-50712D01*
X72440Y-50287D01*
X72406Y-50119D01*
X72311Y-49976D01*
X72168Y-49880D01*
X72000Y-49847D01*
X71831Y-49880D01*
X71688Y-49976D01*
X71593Y-50119D01*
X71560Y-50287D01*
X71560Y-50712D01*
X71593Y-50880D01*
X71688Y-51023D01*
X71831Y-51119D01*
X72000Y-51152D01*
X72168Y-51119D01*
X72311Y-51023D01*
X72406Y-50880D01*
X72440Y-50712D01*
X72440Y-51335D01*
X71440Y-51335D01*
X71440Y-50712D01*
X71440Y-50287D01*
X71406Y-50119D01*
X71311Y-49976D01*
X71168Y-49880D01*
X71000Y-49847D01*
X70831Y-49880D01*
X70688Y-49976D01*
X70593Y-50119D01*
X70560Y-50287D01*
X70560Y-50712D01*
X70593Y-50880D01*
X70688Y-51023D01*
X70831Y-51119D01*
X71000Y-51152D01*
X71168Y-51119D01*
X71311Y-51023D01*
X71406Y-50880D01*
X71440Y-50712D01*
X71440Y-51335D01*
X70440Y-51335D01*
X70440Y-50712D01*
X70440Y-50287D01*
X70406Y-50119D01*
X70311Y-49976D01*
X70168Y-49880D01*
X70000Y-49847D01*
X69831Y-49880D01*
X69688Y-49976D01*
X69593Y-50119D01*
X69560Y-50287D01*
X69560Y-50712D01*
X69593Y-50880D01*
X69688Y-51023D01*
X69831Y-51119D01*
X70000Y-51152D01*
X70168Y-51119D01*
X70311Y-51023D01*
X70406Y-50880D01*
X70440Y-50712D01*
X70440Y-51335D01*
X69440Y-51335D01*
X69440Y-50712D01*
X69440Y-50287D01*
X69406Y-50119D01*
X69311Y-49976D01*
X69168Y-49880D01*
X69000Y-49847D01*
X68831Y-49880D01*
X68688Y-49976D01*
X68593Y-50119D01*
X68560Y-50287D01*
X68560Y-50712D01*
X68593Y-50880D01*
X68688Y-51023D01*
X68831Y-51119D01*
X69000Y-51152D01*
X69168Y-51119D01*
X69311Y-51023D01*
X69406Y-50880D01*
X69440Y-50712D01*
X69440Y-51335D01*
X68440Y-51335D01*
X68440Y-50712D01*
X68440Y-50287D01*
X68406Y-50119D01*
X68311Y-49976D01*
X68168Y-49880D01*
X68000Y-49847D01*
X67831Y-49880D01*
X67688Y-49976D01*
X67593Y-50119D01*
X67560Y-50287D01*
X67560Y-50712D01*
X67593Y-50880D01*
X67688Y-51023D01*
X67831Y-51119D01*
X68000Y-51152D01*
X68168Y-51119D01*
X68311Y-51023D01*
X68406Y-50880D01*
X68440Y-50712D01*
X68440Y-51335D01*
X67440Y-51335D01*
X67440Y-50712D01*
X67440Y-50287D01*
X67406Y-50119D01*
X67311Y-49976D01*
X67168Y-49880D01*
X67000Y-49847D01*
X66831Y-49880D01*
X66688Y-49976D01*
X66593Y-50119D01*
X66560Y-50287D01*
X66560Y-50712D01*
X66593Y-50880D01*
X66688Y-51023D01*
X66831Y-51119D01*
X67000Y-51152D01*
X67168Y-51119D01*
X67311Y-51023D01*
X67406Y-50880D01*
X67440Y-50712D01*
X67440Y-51335D01*
X66440Y-51335D01*
X66440Y-50712D01*
X66440Y-50287D01*
X66406Y-50119D01*
X66311Y-49976D01*
X66168Y-49880D01*
X66000Y-49847D01*
X65831Y-49880D01*
X65688Y-49976D01*
X65593Y-50119D01*
X65560Y-50287D01*
X65560Y-50712D01*
X65593Y-50880D01*
X65688Y-51023D01*
X65831Y-51119D01*
X66000Y-51152D01*
X66168Y-51119D01*
X66311Y-51023D01*
X66406Y-50880D01*
X66440Y-50712D01*
X66440Y-51335D01*
X57440Y-51335D01*
X57440Y-50712D01*
X57440Y-50287D01*
X57406Y-50119D01*
X57311Y-49976D01*
X57168Y-49880D01*
X57000Y-49847D01*
X56831Y-49880D01*
X56688Y-49976D01*
X56593Y-50119D01*
X56560Y-50287D01*
X56560Y-50712D01*
X56593Y-50880D01*
X56688Y-51023D01*
X56831Y-51119D01*
X57000Y-51152D01*
X57168Y-51119D01*
X57311Y-51023D01*
X57406Y-50880D01*
X57440Y-50712D01*
X57440Y-51335D01*
X56440Y-51335D01*
X56440Y-50712D01*
X56440Y-50287D01*
X56406Y-50119D01*
X56311Y-49976D01*
X56168Y-49880D01*
X56000Y-49847D01*
X55831Y-49880D01*
X55688Y-49976D01*
X55593Y-50119D01*
X55560Y-50287D01*
X55560Y-50712D01*
X55593Y-50880D01*
X55688Y-51023D01*
X55831Y-51119D01*
X56000Y-51152D01*
X56168Y-51119D01*
X56311Y-51023D01*
X56406Y-50880D01*
X56440Y-50712D01*
X56440Y-51335D01*
X53840Y-51335D01*
X53840Y-31712D01*
X53840Y-31287D01*
X53806Y-31119D01*
X53711Y-30976D01*
X53568Y-30880D01*
X53400Y-30847D01*
X53231Y-30880D01*
X53088Y-30976D01*
X52993Y-31119D01*
X52960Y-31287D01*
X52960Y-31712D01*
X52993Y-31880D01*
X53088Y-32023D01*
X53231Y-32119D01*
X53400Y-32152D01*
X53568Y-32119D01*
X53711Y-32023D01*
X53806Y-31880D01*
X53840Y-31712D01*
X53840Y-51335D01*
X52840Y-51335D01*
X52840Y-31712D01*
X52840Y-31287D01*
X52806Y-31119D01*
X52711Y-30976D01*
X52568Y-30880D01*
X52400Y-30847D01*
X52231Y-30880D01*
X52088Y-30976D01*
X51993Y-31119D01*
X51960Y-31287D01*
X51960Y-31712D01*
X51993Y-31880D01*
X52088Y-32023D01*
X52231Y-32119D01*
X52400Y-32152D01*
X52568Y-32119D01*
X52711Y-32023D01*
X52806Y-31880D01*
X52840Y-31712D01*
X52840Y-51335D01*
X50875Y-51335D01*
X51017Y-51276D01*
X51275Y-51018D01*
X51414Y-50682D01*
X51415Y-50318D01*
X51276Y-49982D01*
X51018Y-49724D01*
X50682Y-49585D01*
X50318Y-49584D01*
X49982Y-49723D01*
X49724Y-49981D01*
X49585Y-50317D01*
X49584Y-50681D01*
X49723Y-51017D01*
X49981Y-51275D01*
X50124Y-51335D01*
X43665Y-51335D01*
X43665Y-30665D01*
X50624Y-30665D01*
X50482Y-30723D01*
X50224Y-30981D01*
X50085Y-31317D01*
X50084Y-31681D01*
X50223Y-32017D01*
X50481Y-32275D01*
X50817Y-32414D01*
X51181Y-32415D01*
X51517Y-32276D01*
X51775Y-32018D01*
X51914Y-31682D01*
X51915Y-31318D01*
X51776Y-30982D01*
X51518Y-30724D01*
X51375Y-30665D01*
X80124Y-30665D01*
X79982Y-30723D01*
X79724Y-30981D01*
X79585Y-31317D01*
X79584Y-31681D01*
X79723Y-32017D01*
X79981Y-32275D01*
X80317Y-32414D01*
X80681Y-32415D01*
X81017Y-32276D01*
X81275Y-32018D01*
X81414Y-31682D01*
X81415Y-31318D01*
X81276Y-30982D01*
X81018Y-30724D01*
X80875Y-30665D01*
X89335Y-30665D01*
X89335Y-51335D01*
X89335Y-51335D01*
G37*
G54D20*
X89335Y-51335D02*
X83375Y-51335D01*
X83517Y-51276D01*
X83775Y-51018D01*
X83914Y-50682D01*
X83915Y-50318D01*
X83776Y-49982D01*
X83518Y-49724D01*
X83440Y-49691D01*
X83440Y-48412D01*
X83440Y-47412D01*
X83440Y-46412D01*
X83373Y-46251D01*
X83249Y-46127D01*
X83087Y-46060D01*
X82912Y-46059D01*
X82843Y-46088D01*
X82627Y-45872D01*
X82568Y-45833D01*
X82500Y-45820D01*
X82302Y-45820D01*
X82372Y-45749D01*
X82439Y-45587D01*
X82440Y-45412D01*
X82373Y-45251D01*
X82249Y-45127D01*
X82087Y-45060D01*
X81912Y-45059D01*
X81843Y-45088D01*
X81534Y-44779D01*
X81534Y-42911D01*
X81750Y-43127D01*
X81627Y-43250D01*
X81560Y-43412D01*
X81559Y-43587D01*
X81626Y-43748D01*
X81750Y-43872D01*
X81912Y-43939D01*
X82087Y-43940D01*
X82248Y-43873D01*
X82320Y-43802D01*
X82320Y-44197D01*
X82249Y-44127D01*
X82087Y-44060D01*
X81912Y-44059D01*
X81751Y-44126D01*
X81627Y-44250D01*
X81560Y-44412D01*
X81559Y-44587D01*
X81626Y-44748D01*
X81750Y-44872D01*
X81912Y-44939D01*
X82087Y-44940D01*
X82248Y-44873D01*
X82320Y-44802D01*
X82320Y-45000D01*
X82333Y-45068D01*
X82372Y-45127D01*
X82588Y-45343D01*
X82560Y-45412D01*
X82559Y-45587D01*
X82626Y-45748D01*
X82750Y-45872D01*
X82912Y-45939D01*
X83087Y-45940D01*
X83248Y-45873D01*
X83372Y-45749D01*
X83439Y-45587D01*
X83440Y-45412D01*
X83373Y-45251D01*
X83249Y-45127D01*
X83087Y-45060D01*
X82912Y-45059D01*
X82843Y-45088D01*
X82680Y-44925D01*
X82680Y-44802D01*
X82750Y-44872D01*
X82912Y-44939D01*
X83087Y-44940D01*
X83248Y-44873D01*
X83372Y-44749D01*
X83439Y-44587D01*
X83440Y-44412D01*
X83373Y-44251D01*
X83249Y-44127D01*
X83087Y-44060D01*
X82912Y-44059D01*
X82751Y-44126D01*
X82680Y-44197D01*
X82680Y-43802D01*
X82750Y-43872D01*
X82912Y-43939D01*
X83087Y-43940D01*
X83248Y-43873D01*
X83372Y-43749D01*
X83439Y-43587D01*
X83440Y-43412D01*
X83440Y-42412D01*
X83440Y-41412D01*
X83440Y-40412D01*
X83440Y-39412D01*
X83440Y-38412D01*
X83440Y-37412D01*
X83440Y-36412D01*
X83440Y-35412D01*
X83440Y-34412D01*
X83440Y-33412D01*
X83440Y-32412D01*
X83440Y-31412D01*
X83373Y-31251D01*
X83249Y-31127D01*
X83087Y-31060D01*
X82912Y-31059D01*
X82751Y-31126D01*
X82627Y-31250D01*
X82560Y-31412D01*
X82559Y-31587D01*
X82626Y-31748D01*
X82750Y-31872D01*
X82912Y-31939D01*
X83087Y-31940D01*
X83248Y-31873D01*
X83372Y-31749D01*
X83439Y-31587D01*
X83440Y-31412D01*
X83440Y-32412D01*
X83373Y-32251D01*
X83249Y-32127D01*
X83087Y-32060D01*
X82912Y-32059D01*
X82751Y-32126D01*
X82627Y-32250D01*
X82560Y-32412D01*
X82559Y-32587D01*
X82626Y-32748D01*
X82750Y-32872D01*
X82912Y-32939D01*
X83087Y-32940D01*
X83248Y-32873D01*
X83372Y-32749D01*
X83439Y-32587D01*
X83440Y-32412D01*
X83440Y-33412D01*
X83373Y-33251D01*
X83249Y-33127D01*
X83087Y-33060D01*
X82912Y-33059D01*
X82751Y-33126D01*
X82627Y-33250D01*
X82560Y-33412D01*
X82559Y-33587D01*
X82626Y-33748D01*
X82750Y-33872D01*
X82912Y-33939D01*
X83087Y-33940D01*
X83248Y-33873D01*
X83372Y-33749D01*
X83439Y-33587D01*
X83440Y-33412D01*
X83440Y-34412D01*
X83373Y-34251D01*
X83249Y-34127D01*
X83087Y-34060D01*
X82912Y-34059D01*
X82751Y-34126D01*
X82627Y-34250D01*
X82560Y-34412D01*
X82559Y-34587D01*
X82626Y-34748D01*
X82750Y-34872D01*
X82912Y-34939D01*
X83087Y-34940D01*
X83248Y-34873D01*
X83372Y-34749D01*
X83439Y-34587D01*
X83440Y-34412D01*
X83440Y-35412D01*
X83373Y-35251D01*
X83249Y-35127D01*
X83087Y-35060D01*
X82912Y-35059D01*
X82751Y-35126D01*
X82627Y-35250D01*
X82560Y-35412D01*
X82559Y-35587D01*
X82626Y-35748D01*
X82750Y-35872D01*
X82912Y-35939D01*
X83087Y-35940D01*
X83248Y-35873D01*
X83372Y-35749D01*
X83439Y-35587D01*
X83440Y-35412D01*
X83440Y-36412D01*
X83373Y-36251D01*
X83249Y-36127D01*
X83087Y-36060D01*
X82912Y-36059D01*
X82751Y-36126D01*
X82627Y-36250D01*
X82560Y-36412D01*
X82559Y-36587D01*
X82626Y-36748D01*
X82750Y-36872D01*
X82912Y-36939D01*
X83087Y-36940D01*
X83248Y-36873D01*
X83372Y-36749D01*
X83439Y-36587D01*
X83440Y-36412D01*
X83440Y-37412D01*
X83373Y-37251D01*
X83249Y-37127D01*
X83087Y-37060D01*
X82912Y-37059D01*
X82751Y-37126D01*
X82627Y-37250D01*
X82560Y-37412D01*
X82559Y-37587D01*
X82626Y-37748D01*
X82750Y-37872D01*
X82912Y-37939D01*
X83087Y-37940D01*
X83248Y-37873D01*
X83372Y-37749D01*
X83439Y-37587D01*
X83440Y-37412D01*
X83440Y-38412D01*
X83373Y-38251D01*
X83249Y-38127D01*
X83087Y-38060D01*
X82912Y-38059D01*
X82751Y-38126D01*
X82627Y-38250D01*
X82560Y-38412D01*
X82559Y-38587D01*
X82626Y-38748D01*
X82750Y-38872D01*
X82912Y-38939D01*
X83087Y-38940D01*
X83248Y-38873D01*
X83372Y-38749D01*
X83439Y-38587D01*
X83440Y-38412D01*
X83440Y-39412D01*
X83373Y-39251D01*
X83249Y-39127D01*
X83087Y-39060D01*
X82912Y-39059D01*
X82751Y-39126D01*
X82627Y-39250D01*
X82560Y-39412D01*
X82559Y-39587D01*
X82626Y-39748D01*
X82750Y-39872D01*
X82912Y-39939D01*
X83087Y-39940D01*
X83248Y-39873D01*
X83372Y-39749D01*
X83439Y-39587D01*
X83440Y-39412D01*
X83440Y-40412D01*
X83373Y-40251D01*
X83249Y-40127D01*
X83087Y-40060D01*
X82912Y-40059D01*
X82751Y-40126D01*
X82627Y-40250D01*
X82560Y-40412D01*
X82559Y-40587D01*
X82626Y-40748D01*
X82750Y-40872D01*
X82912Y-40939D01*
X83087Y-40940D01*
X83248Y-40873D01*
X83372Y-40749D01*
X83439Y-40587D01*
X83440Y-40412D01*
X83440Y-41412D01*
X83373Y-41251D01*
X83249Y-41127D01*
X83087Y-41060D01*
X82912Y-41059D01*
X82751Y-41126D01*
X82627Y-41250D01*
X82560Y-41412D01*
X82559Y-41587D01*
X82626Y-41748D01*
X82750Y-41872D01*
X82912Y-41939D01*
X83087Y-41940D01*
X83248Y-41873D01*
X83372Y-41749D01*
X83439Y-41587D01*
X83440Y-41412D01*
X83440Y-42412D01*
X83373Y-42251D01*
X83249Y-42127D01*
X83087Y-42060D01*
X82912Y-42059D01*
X82751Y-42126D01*
X82627Y-42250D01*
X82560Y-42412D01*
X82559Y-42587D01*
X82626Y-42748D01*
X82750Y-42872D01*
X82912Y-42939D01*
X83087Y-42940D01*
X83248Y-42873D01*
X83372Y-42749D01*
X83439Y-42587D01*
X83440Y-42412D01*
X83440Y-43412D01*
X83373Y-43251D01*
X83249Y-43127D01*
X83087Y-43060D01*
X82912Y-43059D01*
X82751Y-43126D01*
X82627Y-43249D01*
X82627Y-43248D01*
X82627Y-43248D01*
X82310Y-42932D01*
X82252Y-42893D01*
X82216Y-42886D01*
X82248Y-42873D01*
X82372Y-42749D01*
X82439Y-42587D01*
X82440Y-42412D01*
X82373Y-42251D01*
X82249Y-42127D01*
X82087Y-42060D01*
X81912Y-42059D01*
X81751Y-42126D01*
X81725Y-42152D01*
X81725Y-41847D01*
X81750Y-41872D01*
X81912Y-41939D01*
X82087Y-41940D01*
X82248Y-41873D01*
X82372Y-41749D01*
X82439Y-41587D01*
X82440Y-41412D01*
X82373Y-41251D01*
X82249Y-41127D01*
X82087Y-41060D01*
X81912Y-41059D01*
X81751Y-41126D01*
X81725Y-41152D01*
X81725Y-40847D01*
X81750Y-40872D01*
X81912Y-40939D01*
X82087Y-40940D01*
X82248Y-40873D01*
X82372Y-40749D01*
X82439Y-40587D01*
X82440Y-40412D01*
X82373Y-40251D01*
X82249Y-40127D01*
X82087Y-40060D01*
X81912Y-40059D01*
X81751Y-40126D01*
X81725Y-40152D01*
X81725Y-39847D01*
X81750Y-39872D01*
X81912Y-39939D01*
X82087Y-39940D01*
X82248Y-39873D01*
X82372Y-39749D01*
X82439Y-39587D01*
X82440Y-39412D01*
X82373Y-39251D01*
X82249Y-39127D01*
X82087Y-39060D01*
X81912Y-39059D01*
X81751Y-39126D01*
X81725Y-39152D01*
X81725Y-38847D01*
X81750Y-38872D01*
X81912Y-38939D01*
X82087Y-38940D01*
X82248Y-38873D01*
X82372Y-38749D01*
X82439Y-38587D01*
X82440Y-38412D01*
X82440Y-37412D01*
X82440Y-36412D01*
X82440Y-35412D01*
X82440Y-34412D01*
X82440Y-33412D01*
X82440Y-32412D01*
X82440Y-31412D01*
X82373Y-31251D01*
X82249Y-31127D01*
X82087Y-31060D01*
X81912Y-31059D01*
X81751Y-31126D01*
X81627Y-31250D01*
X81560Y-31412D01*
X81559Y-31587D01*
X81626Y-31748D01*
X81750Y-31872D01*
X81912Y-31939D01*
X82087Y-31940D01*
X82248Y-31873D01*
X82372Y-31749D01*
X82439Y-31587D01*
X82440Y-31412D01*
X82440Y-32412D01*
X82373Y-32251D01*
X82249Y-32127D01*
X82087Y-32060D01*
X81912Y-32059D01*
X81751Y-32126D01*
X81627Y-32250D01*
X81560Y-32412D01*
X81559Y-32587D01*
X81626Y-32748D01*
X81750Y-32872D01*
X81912Y-32939D01*
X82087Y-32940D01*
X82248Y-32873D01*
X82372Y-32749D01*
X82439Y-32587D01*
X82440Y-32412D01*
X82440Y-33412D01*
X82373Y-33251D01*
X82249Y-33127D01*
X82087Y-33060D01*
X81912Y-33059D01*
X81751Y-33126D01*
X81627Y-33250D01*
X81560Y-33412D01*
X81559Y-33587D01*
X81626Y-33748D01*
X81750Y-33872D01*
X81912Y-33939D01*
X82087Y-33940D01*
X82248Y-33873D01*
X82372Y-33749D01*
X82439Y-33587D01*
X82440Y-33412D01*
X82440Y-34412D01*
X82373Y-34251D01*
X82249Y-34127D01*
X82087Y-34060D01*
X81912Y-34059D01*
X81751Y-34126D01*
X81627Y-34250D01*
X81560Y-34412D01*
X81559Y-34587D01*
X81626Y-34748D01*
X81750Y-34872D01*
X81912Y-34939D01*
X82087Y-34940D01*
X82248Y-34873D01*
X82372Y-34749D01*
X82439Y-34587D01*
X82440Y-34412D01*
X82440Y-35412D01*
X82373Y-35251D01*
X82249Y-35127D01*
X82087Y-35060D01*
X81912Y-35059D01*
X81751Y-35126D01*
X81627Y-35250D01*
X81560Y-35412D01*
X81559Y-35587D01*
X81626Y-35748D01*
X81750Y-35872D01*
X81912Y-35939D01*
X82087Y-35940D01*
X82248Y-35873D01*
X82372Y-35749D01*
X82439Y-35587D01*
X82440Y-35412D01*
X82440Y-36412D01*
X82373Y-36251D01*
X82249Y-36127D01*
X82087Y-36060D01*
X81912Y-36059D01*
X81751Y-36126D01*
X81627Y-36250D01*
X81560Y-36412D01*
X81559Y-36587D01*
X81626Y-36748D01*
X81750Y-36872D01*
X81912Y-36939D01*
X82087Y-36940D01*
X82248Y-36873D01*
X82372Y-36749D01*
X82439Y-36587D01*
X82440Y-36412D01*
X82440Y-37412D01*
X82373Y-37251D01*
X82249Y-37127D01*
X82087Y-37060D01*
X81912Y-37059D01*
X81751Y-37126D01*
X81627Y-37250D01*
X81560Y-37412D01*
X81559Y-37587D01*
X81626Y-37748D01*
X81750Y-37872D01*
X81912Y-37939D01*
X82087Y-37940D01*
X82248Y-37873D01*
X82372Y-37749D01*
X82439Y-37587D01*
X82440Y-37412D01*
X82440Y-38412D01*
X82373Y-38251D01*
X82249Y-38127D01*
X82087Y-38060D01*
X81912Y-38059D01*
X81751Y-38126D01*
X81636Y-38241D01*
X79440Y-36045D01*
X79440Y-31712D01*
X79440Y-31287D01*
X79406Y-31119D01*
X79311Y-30976D01*
X79168Y-30880D01*
X79000Y-30847D01*
X78831Y-30880D01*
X78688Y-30976D01*
X78593Y-31119D01*
X78560Y-31287D01*
X78560Y-31712D01*
X78593Y-31880D01*
X78688Y-32023D01*
X78831Y-32119D01*
X79000Y-32152D01*
X79168Y-32119D01*
X79311Y-32023D01*
X79406Y-31880D01*
X79440Y-31712D01*
X79440Y-36045D01*
X79017Y-35622D01*
X78959Y-35583D01*
X78890Y-35570D01*
X78843Y-35570D01*
X78829Y-35556D01*
X78777Y-35535D01*
X78722Y-35534D01*
X78440Y-35534D01*
X78440Y-31712D01*
X78440Y-31287D01*
X78406Y-31119D01*
X78311Y-30976D01*
X78168Y-30880D01*
X78000Y-30847D01*
X77831Y-30880D01*
X77688Y-30976D01*
X77593Y-31119D01*
X77560Y-31287D01*
X77560Y-31712D01*
X77593Y-31880D01*
X77688Y-32023D01*
X77831Y-32119D01*
X78000Y-32152D01*
X78168Y-32119D01*
X78311Y-32023D01*
X78406Y-31880D01*
X78440Y-31712D01*
X78440Y-35534D01*
X78222Y-35534D01*
X78170Y-35556D01*
X78131Y-35595D01*
X78110Y-35647D01*
X78109Y-35702D01*
X78109Y-35852D01*
X78131Y-35904D01*
X78170Y-35943D01*
X78222Y-35964D01*
X78277Y-35965D01*
X78777Y-35965D01*
X78829Y-35943D01*
X78829Y-35943D01*
X78989Y-36104D01*
X78959Y-36083D01*
X78890Y-36070D01*
X78843Y-36070D01*
X78829Y-36056D01*
X78777Y-36035D01*
X78722Y-36034D01*
X78222Y-36034D01*
X78170Y-36056D01*
X78131Y-36095D01*
X78110Y-36147D01*
X78109Y-36202D01*
X78109Y-36352D01*
X78131Y-36404D01*
X78170Y-36443D01*
X78222Y-36464D01*
X78277Y-36465D01*
X78777Y-36465D01*
X78829Y-36443D01*
X78829Y-36443D01*
X81174Y-38788D01*
X81174Y-44854D01*
X81187Y-44923D01*
X81226Y-44981D01*
X81588Y-45343D01*
X81560Y-45412D01*
X81560Y-45429D01*
X79250Y-43119D01*
X79250Y-40295D01*
X79236Y-40226D01*
X79197Y-40167D01*
X78937Y-39907D01*
X78882Y-39870D01*
X78889Y-39852D01*
X78890Y-39797D01*
X78890Y-39647D01*
X78889Y-39646D01*
X79017Y-39519D01*
X79017Y-39519D01*
X79056Y-39460D01*
X79070Y-39391D01*
X79070Y-39391D01*
X79070Y-37614D01*
X79070Y-37614D01*
X79056Y-37545D01*
X79056Y-37545D01*
X79043Y-37525D01*
X79017Y-37486D01*
X79017Y-37486D01*
X78888Y-37357D01*
X78889Y-37352D01*
X78890Y-37297D01*
X78890Y-37147D01*
X78868Y-37095D01*
X78829Y-37056D01*
X78777Y-37035D01*
X78722Y-37034D01*
X78222Y-37034D01*
X78170Y-37056D01*
X78131Y-37095D01*
X78110Y-37147D01*
X78109Y-37202D01*
X78109Y-37285D01*
X76679Y-37285D01*
X75103Y-35709D01*
X75717Y-35709D01*
X76942Y-36933D01*
X76942Y-36933D01*
X76998Y-36971D01*
X77026Y-36990D01*
X77026Y-36990D01*
X77126Y-37009D01*
X77126Y-37010D01*
X78500Y-37010D01*
X78599Y-36990D01*
X78637Y-36965D01*
X78777Y-36965D01*
X78829Y-36943D01*
X78868Y-36904D01*
X78889Y-36852D01*
X78890Y-36797D01*
X78890Y-36647D01*
X78868Y-36595D01*
X78829Y-36556D01*
X78777Y-36535D01*
X78722Y-36534D01*
X78637Y-36534D01*
X78599Y-36509D01*
X78500Y-36490D01*
X77440Y-36490D01*
X77440Y-31712D01*
X77440Y-31287D01*
X77406Y-31119D01*
X77311Y-30976D01*
X77168Y-30880D01*
X77000Y-30847D01*
X76831Y-30880D01*
X76688Y-30976D01*
X76593Y-31119D01*
X76560Y-31287D01*
X76560Y-31712D01*
X76593Y-31880D01*
X76688Y-32023D01*
X76831Y-32119D01*
X77000Y-32152D01*
X77168Y-32119D01*
X77311Y-32023D01*
X77406Y-31880D01*
X77440Y-31712D01*
X77440Y-36490D01*
X77233Y-36490D01*
X76440Y-35696D01*
X76440Y-31712D01*
X76440Y-31287D01*
X76406Y-31119D01*
X76311Y-30976D01*
X76168Y-30880D01*
X76000Y-30847D01*
X75831Y-30880D01*
X75688Y-30976D01*
X75593Y-31119D01*
X75560Y-31287D01*
X75560Y-31712D01*
X75593Y-31880D01*
X75688Y-32023D01*
X75831Y-32119D01*
X76000Y-32152D01*
X76168Y-32119D01*
X76311Y-32023D01*
X76406Y-31880D01*
X76440Y-31712D01*
X76440Y-35696D01*
X76008Y-35265D01*
X75924Y-35208D01*
X75825Y-35189D01*
X75440Y-35189D01*
X75440Y-31712D01*
X75440Y-31287D01*
X75406Y-31119D01*
X75311Y-30976D01*
X75168Y-30880D01*
X75000Y-30847D01*
X74831Y-30880D01*
X74688Y-30976D01*
X74593Y-31119D01*
X74560Y-31287D01*
X74560Y-31712D01*
X74593Y-31880D01*
X74688Y-32023D01*
X74831Y-32119D01*
X75000Y-32152D01*
X75168Y-32119D01*
X75311Y-32023D01*
X75406Y-31880D01*
X75440Y-31712D01*
X75440Y-35189D01*
X74440Y-35189D01*
X74440Y-31712D01*
X74440Y-31287D01*
X74406Y-31119D01*
X74311Y-30976D01*
X74168Y-30880D01*
X74000Y-30847D01*
X73831Y-30880D01*
X73688Y-30976D01*
X73593Y-31119D01*
X73560Y-31287D01*
X73560Y-31712D01*
X73593Y-31880D01*
X73688Y-32023D01*
X73831Y-32119D01*
X74000Y-32152D01*
X74168Y-32119D01*
X74311Y-32023D01*
X74406Y-31880D01*
X74440Y-31712D01*
X74440Y-35189D01*
X73440Y-35189D01*
X73440Y-31712D01*
X73440Y-31287D01*
X73406Y-31119D01*
X73311Y-30976D01*
X73168Y-30880D01*
X73000Y-30847D01*
X72831Y-30880D01*
X72688Y-30976D01*
X72593Y-31119D01*
X72560Y-31287D01*
X72560Y-31712D01*
X72593Y-31880D01*
X72688Y-32023D01*
X72831Y-32119D01*
X73000Y-32152D01*
X73168Y-32119D01*
X73311Y-32023D01*
X73406Y-31880D01*
X73440Y-31712D01*
X73440Y-35189D01*
X72440Y-35189D01*
X72440Y-31712D01*
X72440Y-31287D01*
X72406Y-31119D01*
X72311Y-30976D01*
X72168Y-30880D01*
X72000Y-30847D01*
X71831Y-30880D01*
X71688Y-30976D01*
X71593Y-31119D01*
X71560Y-31287D01*
X71560Y-31712D01*
X71593Y-31880D01*
X71688Y-32023D01*
X71831Y-32119D01*
X72000Y-32152D01*
X72168Y-32119D01*
X72311Y-32023D01*
X72406Y-31880D01*
X72440Y-31712D01*
X72440Y-35189D01*
X70440Y-35189D01*
X70440Y-31712D01*
X70440Y-31287D01*
X70406Y-31119D01*
X70311Y-30976D01*
X70168Y-30880D01*
X70000Y-30847D01*
X69831Y-30880D01*
X69688Y-30976D01*
X69593Y-31119D01*
X69560Y-31287D01*
X69560Y-31712D01*
X69593Y-31880D01*
X69688Y-32023D01*
X69831Y-32119D01*
X70000Y-32152D01*
X70168Y-32119D01*
X70311Y-32023D01*
X70406Y-31880D01*
X70440Y-31712D01*
X70440Y-35189D01*
X69440Y-35189D01*
X69440Y-31712D01*
X69440Y-31287D01*
X69406Y-31119D01*
X69311Y-30976D01*
X69168Y-30880D01*
X69000Y-30847D01*
X68831Y-30880D01*
X68688Y-30976D01*
X68593Y-31119D01*
X68560Y-31287D01*
X68560Y-31712D01*
X68593Y-31880D01*
X68688Y-32023D01*
X68831Y-32119D01*
X69000Y-32152D01*
X69168Y-32119D01*
X69311Y-32023D01*
X69406Y-31880D01*
X69440Y-31712D01*
X69440Y-35189D01*
X68440Y-35189D01*
X68440Y-31712D01*
X68440Y-31287D01*
X68406Y-31119D01*
X68311Y-30976D01*
X68168Y-30880D01*
X68000Y-30847D01*
X67831Y-30880D01*
X67688Y-30976D01*
X67593Y-31119D01*
X67560Y-31287D01*
X67560Y-31712D01*
X67593Y-31880D01*
X67688Y-32023D01*
X67831Y-32119D01*
X68000Y-32152D01*
X68168Y-32119D01*
X68311Y-32023D01*
X68406Y-31880D01*
X68440Y-31712D01*
X68440Y-35189D01*
X67440Y-35189D01*
X67440Y-31712D01*
X67440Y-31287D01*
X67406Y-31119D01*
X67311Y-30976D01*
X67168Y-30880D01*
X67000Y-30847D01*
X66831Y-30880D01*
X66688Y-30976D01*
X66593Y-31119D01*
X66560Y-31287D01*
X66560Y-31712D01*
X66593Y-31880D01*
X66688Y-32023D01*
X66831Y-32119D01*
X67000Y-32152D01*
X67168Y-32119D01*
X67311Y-32023D01*
X67406Y-31880D01*
X67440Y-31712D01*
X67440Y-35189D01*
X67050Y-35189D01*
X66951Y-35208D01*
X66923Y-35227D01*
X66867Y-35265D01*
X66440Y-35692D01*
X66440Y-31712D01*
X66440Y-31287D01*
X66406Y-31119D01*
X66311Y-30976D01*
X66168Y-30880D01*
X66000Y-30847D01*
X65831Y-30880D01*
X65688Y-30976D01*
X65593Y-31119D01*
X65560Y-31287D01*
X65560Y-31712D01*
X65593Y-31880D01*
X65688Y-32023D01*
X65831Y-32119D01*
X66000Y-32152D01*
X66168Y-32119D01*
X66311Y-32023D01*
X66406Y-31880D01*
X66440Y-31712D01*
X66440Y-35692D01*
X65440Y-36692D01*
X65440Y-31712D01*
X65440Y-31287D01*
X65406Y-31119D01*
X65311Y-30976D01*
X65168Y-30880D01*
X65000Y-30847D01*
X64831Y-30880D01*
X64688Y-30976D01*
X64593Y-31119D01*
X64560Y-31287D01*
X64560Y-31712D01*
X64593Y-31880D01*
X64688Y-32023D01*
X64831Y-32119D01*
X65000Y-32152D01*
X65168Y-32119D01*
X65311Y-32023D01*
X65406Y-31880D01*
X65440Y-31712D01*
X65440Y-36692D01*
X64440Y-37692D01*
X64440Y-31712D01*
X64440Y-31287D01*
X64406Y-31119D01*
X64311Y-30976D01*
X64168Y-30880D01*
X64000Y-30847D01*
X63831Y-30880D01*
X63688Y-30976D01*
X63593Y-31119D01*
X63560Y-31287D01*
X63560Y-31712D01*
X63593Y-31880D01*
X63688Y-32023D01*
X63831Y-32119D01*
X64000Y-32152D01*
X64168Y-32119D01*
X64311Y-32023D01*
X64406Y-31880D01*
X64440Y-31712D01*
X64440Y-37692D01*
X63440Y-38692D01*
X63440Y-31712D01*
X63440Y-31287D01*
X63406Y-31119D01*
X63311Y-30976D01*
X63168Y-30880D01*
X63000Y-30847D01*
X62831Y-30880D01*
X62688Y-30976D01*
X62593Y-31119D01*
X62560Y-31287D01*
X62560Y-31712D01*
X62593Y-31880D01*
X62688Y-32023D01*
X62831Y-32119D01*
X63000Y-32152D01*
X63168Y-32119D01*
X63311Y-32023D01*
X63406Y-31880D01*
X63440Y-31712D01*
X63440Y-38692D01*
X61840Y-40292D01*
X61840Y-31712D01*
X61840Y-31287D01*
X61806Y-31119D01*
X61711Y-30976D01*
X61568Y-30880D01*
X61400Y-30847D01*
X61231Y-30880D01*
X61088Y-30976D01*
X60993Y-31119D01*
X60960Y-31287D01*
X60960Y-31712D01*
X60993Y-31880D01*
X61088Y-32023D01*
X61231Y-32119D01*
X61400Y-32152D01*
X61568Y-32119D01*
X61711Y-32023D01*
X61806Y-31880D01*
X61840Y-31712D01*
X61840Y-40292D01*
X60840Y-41292D01*
X60840Y-31712D01*
X60840Y-31287D01*
X60806Y-31119D01*
X60711Y-30976D01*
X60568Y-30880D01*
X60400Y-30847D01*
X60231Y-30880D01*
X60088Y-30976D01*
X59993Y-31119D01*
X59960Y-31287D01*
X59960Y-31712D01*
X59993Y-31880D01*
X60088Y-32023D01*
X60231Y-32119D01*
X60400Y-32152D01*
X60568Y-32119D01*
X60711Y-32023D01*
X60806Y-31880D01*
X60840Y-31712D01*
X60840Y-41292D01*
X59840Y-42292D01*
X59840Y-31712D01*
X59840Y-31287D01*
X59806Y-31119D01*
X59711Y-30976D01*
X59568Y-30880D01*
X59400Y-30847D01*
X59231Y-30880D01*
X59088Y-30976D01*
X58993Y-31119D01*
X58960Y-31287D01*
X58960Y-31712D01*
X58993Y-31880D01*
X59088Y-32023D01*
X59231Y-32119D01*
X59400Y-32152D01*
X59568Y-32119D01*
X59711Y-32023D01*
X59806Y-31880D01*
X59840Y-31712D01*
X59840Y-42292D01*
X58840Y-43292D01*
X58840Y-31712D01*
X58840Y-31287D01*
X58806Y-31119D01*
X58711Y-30976D01*
X58568Y-30880D01*
X58400Y-30847D01*
X58231Y-30880D01*
X58088Y-30976D01*
X57993Y-31119D01*
X57960Y-31287D01*
X57960Y-31712D01*
X57993Y-31880D01*
X58088Y-32023D01*
X58231Y-32119D01*
X58400Y-32152D01*
X58568Y-32119D01*
X58711Y-32023D01*
X58806Y-31880D01*
X58840Y-31712D01*
X58840Y-43292D01*
X58459Y-43672D01*
X58187Y-43560D01*
X57840Y-43559D01*
X57840Y-31712D01*
X57840Y-31287D01*
X57806Y-31119D01*
X57711Y-30976D01*
X57568Y-30880D01*
X57400Y-30847D01*
X57231Y-30880D01*
X57088Y-30976D01*
X56993Y-31119D01*
X56960Y-31287D01*
X56960Y-31712D01*
X56993Y-31880D01*
X57088Y-32023D01*
X57231Y-32119D01*
X57400Y-32152D01*
X57568Y-32119D01*
X57711Y-32023D01*
X57806Y-31880D01*
X57840Y-31712D01*
X57840Y-43559D01*
X57813Y-43559D01*
X57468Y-43702D01*
X57203Y-43966D01*
X57060Y-44312D01*
X57059Y-44686D01*
X57202Y-45031D01*
X57466Y-45296D01*
X57812Y-45439D01*
X58186Y-45440D01*
X58531Y-45297D01*
X58796Y-45033D01*
X58939Y-44687D01*
X58940Y-44313D01*
X58827Y-44040D01*
X67158Y-35709D01*
X74109Y-35709D01*
X74109Y-35852D01*
X74131Y-35904D01*
X74156Y-35930D01*
X72619Y-35930D01*
X72497Y-35954D01*
X72393Y-36023D01*
X71273Y-37143D01*
X71204Y-37247D01*
X71180Y-37369D01*
X71180Y-37509D01*
X70972Y-37509D01*
X70920Y-37531D01*
X70881Y-37570D01*
X70877Y-37580D01*
X70719Y-37580D01*
X70597Y-37604D01*
X70535Y-37645D01*
X70493Y-37673D01*
X64773Y-43393D01*
X64704Y-43497D01*
X64681Y-43614D01*
X64468Y-43702D01*
X64203Y-43966D01*
X64060Y-44312D01*
X64059Y-44686D01*
X64147Y-44899D01*
X60000Y-49047D01*
X56840Y-45887D01*
X56840Y-31712D01*
X56840Y-31287D01*
X56806Y-31119D01*
X56711Y-30976D01*
X56568Y-30880D01*
X56400Y-30847D01*
X56231Y-30880D01*
X56088Y-30976D01*
X55993Y-31119D01*
X55960Y-31287D01*
X55960Y-31712D01*
X55993Y-31880D01*
X56088Y-32023D01*
X56231Y-32119D01*
X56400Y-32152D01*
X56568Y-32119D01*
X56711Y-32023D01*
X56806Y-31880D01*
X56840Y-31712D01*
X56840Y-45887D01*
X55851Y-44899D01*
X55939Y-44687D01*
X55940Y-44313D01*
X55840Y-44071D01*
X55840Y-31712D01*
X55840Y-31287D01*
X55806Y-31119D01*
X55711Y-30976D01*
X55568Y-30880D01*
X55400Y-30847D01*
X55231Y-30880D01*
X55088Y-30976D01*
X54993Y-31119D01*
X54960Y-31287D01*
X54960Y-31712D01*
X54993Y-31880D01*
X55088Y-32023D01*
X55231Y-32119D01*
X55400Y-32152D01*
X55568Y-32119D01*
X55711Y-32023D01*
X55806Y-31880D01*
X55840Y-31712D01*
X55840Y-44071D01*
X55797Y-43968D01*
X55533Y-43703D01*
X55187Y-43560D01*
X54840Y-43559D01*
X54840Y-31712D01*
X54840Y-31287D01*
X54806Y-31119D01*
X54711Y-30976D01*
X54568Y-30880D01*
X54400Y-30847D01*
X54231Y-30880D01*
X54088Y-30976D01*
X53993Y-31119D01*
X53960Y-31287D01*
X53960Y-31712D01*
X53993Y-31880D01*
X54088Y-32023D01*
X54231Y-32119D01*
X54400Y-32152D01*
X54568Y-32119D01*
X54711Y-32023D01*
X54806Y-31880D01*
X54840Y-31712D01*
X54840Y-43559D01*
X54813Y-43559D01*
X54468Y-43702D01*
X54203Y-43966D01*
X54060Y-44312D01*
X54059Y-44686D01*
X54202Y-45031D01*
X54466Y-45296D01*
X54812Y-45439D01*
X55186Y-45440D01*
X55399Y-45352D01*
X59680Y-49632D01*
X59680Y-49989D01*
X59593Y-50119D01*
X59560Y-50287D01*
X59560Y-50712D01*
X59593Y-50880D01*
X59646Y-50960D01*
X59353Y-50960D01*
X59406Y-50880D01*
X59440Y-50712D01*
X59440Y-50287D01*
X59406Y-50119D01*
X59311Y-49976D01*
X59168Y-49880D01*
X59000Y-49847D01*
X58831Y-49880D01*
X58688Y-49976D01*
X58593Y-50119D01*
X58560Y-50287D01*
X58560Y-50712D01*
X58593Y-50880D01*
X58646Y-50960D01*
X58353Y-50960D01*
X58406Y-50880D01*
X58440Y-50712D01*
X58440Y-50287D01*
X58406Y-50119D01*
X58311Y-49976D01*
X58168Y-49880D01*
X58000Y-49847D01*
X57831Y-49880D01*
X57688Y-49976D01*
X57593Y-50119D01*
X57560Y-50287D01*
X57560Y-50712D01*
X57593Y-50880D01*
X57688Y-51023D01*
X57820Y-51111D01*
X57820Y-51140D01*
X57833Y-51209D01*
X57872Y-51267D01*
X57931Y-51306D01*
X58000Y-51320D01*
X63522Y-51320D01*
X63591Y-51306D01*
X63649Y-51267D01*
X64560Y-50357D01*
X64560Y-50712D01*
X64593Y-50880D01*
X64688Y-51023D01*
X64831Y-51119D01*
X65000Y-51152D01*
X65168Y-51119D01*
X65311Y-51023D01*
X65406Y-50880D01*
X65440Y-50712D01*
X65440Y-50287D01*
X65406Y-50119D01*
X65311Y-49976D01*
X65168Y-49880D01*
X65058Y-49859D01*
X74109Y-40807D01*
X74109Y-40852D01*
X74131Y-40904D01*
X74170Y-40943D01*
X74222Y-40964D01*
X74277Y-40965D01*
X74777Y-40965D01*
X74829Y-40943D01*
X74842Y-40930D01*
X76713Y-40930D01*
X76782Y-40916D01*
X76840Y-40877D01*
X77503Y-40214D01*
X78109Y-40214D01*
X78109Y-40352D01*
X78131Y-40404D01*
X78156Y-40430D01*
X77969Y-40430D01*
X77847Y-40454D01*
X77743Y-40523D01*
X74773Y-43493D01*
X74704Y-43597D01*
X74702Y-43605D01*
X74468Y-43702D01*
X74230Y-43940D01*
X74230Y-41464D01*
X74277Y-41465D01*
X74777Y-41465D01*
X74829Y-41443D01*
X74868Y-41404D01*
X74889Y-41352D01*
X74890Y-41297D01*
X74890Y-41147D01*
X74868Y-41095D01*
X74829Y-41056D01*
X74777Y-41035D01*
X74722Y-41034D01*
X74222Y-41034D01*
X74170Y-41056D01*
X74157Y-41070D01*
X74109Y-41070D01*
X74040Y-41083D01*
X74021Y-41096D01*
X73982Y-41122D01*
X73922Y-41182D01*
X73883Y-41240D01*
X73870Y-41309D01*
X73870Y-44886D01*
X73883Y-44955D01*
X73922Y-45013D01*
X76536Y-47627D01*
X76536Y-47627D01*
X76594Y-47666D01*
X76663Y-47680D01*
X81598Y-47680D01*
X81626Y-47748D01*
X81750Y-47872D01*
X81912Y-47939D01*
X82087Y-47940D01*
X82248Y-47873D01*
X82372Y-47749D01*
X82439Y-47587D01*
X82440Y-47412D01*
X82373Y-47251D01*
X82249Y-47127D01*
X82087Y-47060D01*
X81912Y-47059D01*
X81751Y-47126D01*
X81627Y-47250D01*
X81598Y-47320D01*
X78940Y-47320D01*
X78940Y-44313D01*
X78797Y-43968D01*
X78533Y-43703D01*
X78187Y-43560D01*
X77813Y-43559D01*
X77468Y-43702D01*
X77203Y-43966D01*
X77060Y-44312D01*
X77059Y-44686D01*
X77202Y-45031D01*
X77466Y-45296D01*
X77812Y-45439D01*
X78186Y-45440D01*
X78531Y-45297D01*
X78796Y-45033D01*
X78939Y-44687D01*
X78940Y-44313D01*
X78940Y-47320D01*
X76738Y-47320D01*
X74858Y-45439D01*
X75186Y-45440D01*
X75531Y-45297D01*
X75796Y-45033D01*
X75939Y-44687D01*
X75940Y-44313D01*
X75797Y-43968D01*
X75533Y-43703D01*
X75487Y-43684D01*
X78102Y-41070D01*
X78157Y-41070D01*
X78131Y-41095D01*
X78110Y-41147D01*
X78109Y-41202D01*
X78109Y-41352D01*
X78131Y-41404D01*
X78170Y-41443D01*
X78222Y-41464D01*
X78277Y-41465D01*
X78710Y-41465D01*
X78710Y-43390D01*
X78723Y-43459D01*
X78762Y-43517D01*
X81588Y-46343D01*
X81560Y-46412D01*
X81559Y-46587D01*
X81626Y-46748D01*
X81750Y-46872D01*
X81912Y-46939D01*
X82087Y-46940D01*
X82248Y-46873D01*
X82372Y-46749D01*
X82439Y-46587D01*
X82440Y-46412D01*
X82373Y-46251D01*
X82302Y-46180D01*
X82425Y-46180D01*
X82588Y-46343D01*
X82560Y-46412D01*
X82559Y-46587D01*
X82626Y-46748D01*
X82750Y-46872D01*
X82912Y-46939D01*
X83087Y-46940D01*
X83248Y-46873D01*
X83372Y-46749D01*
X83439Y-46587D01*
X83440Y-46412D01*
X83440Y-47412D01*
X83373Y-47251D01*
X83249Y-47127D01*
X83087Y-47060D01*
X82912Y-47059D01*
X82751Y-47126D01*
X82627Y-47250D01*
X82560Y-47412D01*
X82559Y-47587D01*
X82626Y-47748D01*
X82750Y-47872D01*
X82912Y-47939D01*
X83087Y-47940D01*
X83248Y-47873D01*
X83372Y-47749D01*
X83439Y-47587D01*
X83440Y-47412D01*
X83440Y-48412D01*
X83373Y-48251D01*
X83249Y-48127D01*
X83087Y-48060D01*
X82912Y-48059D01*
X82751Y-48126D01*
X82627Y-48250D01*
X82560Y-48412D01*
X82559Y-48587D01*
X82626Y-48748D01*
X82750Y-48872D01*
X82912Y-48939D01*
X83087Y-48940D01*
X83248Y-48873D01*
X83372Y-48749D01*
X83439Y-48587D01*
X83440Y-48412D01*
X83440Y-49691D01*
X83182Y-49585D01*
X82818Y-49584D01*
X82482Y-49723D01*
X82440Y-49766D01*
X82440Y-48412D01*
X82373Y-48251D01*
X82249Y-48127D01*
X82087Y-48060D01*
X81912Y-48059D01*
X81751Y-48126D01*
X81627Y-48250D01*
X81560Y-48412D01*
X81559Y-48587D01*
X81626Y-48748D01*
X81750Y-48872D01*
X81912Y-48939D01*
X82087Y-48940D01*
X82248Y-48873D01*
X82372Y-48749D01*
X82439Y-48587D01*
X82440Y-48412D01*
X82440Y-49766D01*
X82224Y-49981D01*
X82085Y-50317D01*
X82084Y-50681D01*
X82223Y-51017D01*
X82481Y-51275D01*
X82624Y-51335D01*
X81440Y-51335D01*
X81440Y-50712D01*
X81440Y-50287D01*
X81406Y-50119D01*
X81311Y-49976D01*
X81168Y-49880D01*
X81000Y-49847D01*
X80831Y-49880D01*
X80688Y-49976D01*
X80593Y-50119D01*
X80560Y-50287D01*
X80560Y-50712D01*
X80593Y-50880D01*
X80688Y-51023D01*
X80831Y-51119D01*
X81000Y-51152D01*
X81168Y-51119D01*
X81311Y-51023D01*
X81406Y-50880D01*
X81440Y-50712D01*
X81440Y-51335D01*
X80440Y-51335D01*
X80440Y-50712D01*
X80440Y-50287D01*
X80406Y-50119D01*
X80311Y-49976D01*
X80168Y-49880D01*
X80000Y-49847D01*
X79831Y-49880D01*
X79688Y-49976D01*
X79593Y-50119D01*
X79560Y-50287D01*
X79560Y-50712D01*
X79593Y-50880D01*
X79688Y-51023D01*
X79831Y-51119D01*
X80000Y-51152D01*
X80168Y-51119D01*
X80311Y-51023D01*
X80406Y-50880D01*
X80440Y-50712D01*
X80440Y-51335D01*
X79440Y-51335D01*
X79440Y-50712D01*
X79440Y-50287D01*
X79406Y-50119D01*
X79311Y-49976D01*
X79168Y-49880D01*
X79000Y-49847D01*
X78831Y-49880D01*
X78688Y-49976D01*
X78593Y-50119D01*
X78560Y-50287D01*
X78560Y-50712D01*
X78593Y-50880D01*
X78688Y-51023D01*
X78831Y-51119D01*
X79000Y-51152D01*
X79168Y-51119D01*
X79311Y-51023D01*
X79406Y-50880D01*
X79440Y-50712D01*
X79440Y-51335D01*
X78440Y-51335D01*
X78440Y-50712D01*
X78440Y-50287D01*
X78406Y-50119D01*
X78311Y-49976D01*
X78168Y-49880D01*
X78000Y-49847D01*
X77831Y-49880D01*
X77688Y-49976D01*
X77593Y-50119D01*
X77560Y-50287D01*
X77560Y-50712D01*
X77593Y-50880D01*
X77688Y-51023D01*
X77831Y-51119D01*
X78000Y-51152D01*
X78168Y-51119D01*
X78311Y-51023D01*
X78406Y-50880D01*
X78440Y-50712D01*
X78440Y-51335D01*
X77440Y-51335D01*
X77440Y-50712D01*
X77440Y-50287D01*
X77406Y-50119D01*
X77311Y-49976D01*
X77168Y-49880D01*
X77000Y-49847D01*
X76831Y-49880D01*
X76688Y-49976D01*
X76593Y-50119D01*
X76560Y-50287D01*
X76560Y-50712D01*
X76593Y-50880D01*
X76688Y-51023D01*
X76831Y-51119D01*
X77000Y-51152D01*
X77168Y-51119D01*
X77311Y-51023D01*
X77406Y-50880D01*
X77440Y-50712D01*
X77440Y-51335D01*
X76440Y-51335D01*
X76440Y-50712D01*
X76440Y-50287D01*
X76406Y-50119D01*
X76311Y-49976D01*
X76168Y-49880D01*
X76000Y-49847D01*
X75831Y-49880D01*
X75688Y-49976D01*
X75593Y-50119D01*
X75560Y-50287D01*
X75560Y-50712D01*
X75593Y-50880D01*
X75688Y-51023D01*
X75831Y-51119D01*
X76000Y-51152D01*
X76168Y-51119D01*
X76311Y-51023D01*
X76406Y-50880D01*
X76440Y-50712D01*
X76440Y-51335D01*
X75440Y-51335D01*
X75440Y-50712D01*
X75440Y-50287D01*
X75406Y-50119D01*
X75311Y-49976D01*
X75168Y-49880D01*
X75000Y-49847D01*
X74831Y-49880D01*
X74688Y-49976D01*
X74593Y-50119D01*
X74560Y-50287D01*
X74560Y-50712D01*
X74593Y-50880D01*
X74688Y-51023D01*
X74831Y-51119D01*
X75000Y-51152D01*
X75168Y-51119D01*
X75311Y-51023D01*
X75406Y-50880D01*
X75440Y-50712D01*
X75440Y-51335D01*
X74440Y-51335D01*
X74440Y-50712D01*
X74440Y-50287D01*
X74406Y-50119D01*
X74311Y-49976D01*
X74168Y-49880D01*
X74000Y-49847D01*
X73831Y-49880D01*
X73688Y-49976D01*
X73593Y-50119D01*
X73560Y-50287D01*
X73560Y-50712D01*
X73593Y-50880D01*
X73688Y-51023D01*
X73831Y-51119D01*
X74000Y-51152D01*
X74168Y-51119D01*
X74311Y-51023D01*
X74406Y-50880D01*
X74440Y-50712D01*
X74440Y-51335D01*
X72440Y-51335D01*
X72440Y-50712D01*
X72440Y-50287D01*
X72406Y-50119D01*
X72311Y-49976D01*
X72168Y-49880D01*
X72000Y-49847D01*
X71831Y-49880D01*
X71688Y-49976D01*
X71593Y-50119D01*
X71560Y-50287D01*
X71560Y-50712D01*
X71593Y-50880D01*
X71688Y-51023D01*
X71831Y-51119D01*
X72000Y-51152D01*
X72168Y-51119D01*
X72311Y-51023D01*
X72406Y-50880D01*
X72440Y-50712D01*
X72440Y-51335D01*
X71440Y-51335D01*
X71440Y-50712D01*
X71440Y-50287D01*
X71406Y-50119D01*
X71311Y-49976D01*
X71168Y-49880D01*
X71000Y-49847D01*
X70831Y-49880D01*
X70688Y-49976D01*
X70593Y-50119D01*
X70560Y-50287D01*
X70560Y-50712D01*
X70593Y-50880D01*
X70688Y-51023D01*
X70831Y-51119D01*
X71000Y-51152D01*
X71168Y-51119D01*
X71311Y-51023D01*
X71406Y-50880D01*
X71440Y-50712D01*
X71440Y-51335D01*
X70440Y-51335D01*
X70440Y-50712D01*
X70440Y-50287D01*
X70406Y-50119D01*
X70311Y-49976D01*
X70168Y-49880D01*
X70000Y-49847D01*
X69831Y-49880D01*
X69688Y-49976D01*
X69593Y-50119D01*
X69560Y-50287D01*
X69560Y-50712D01*
X69593Y-50880D01*
X69688Y-51023D01*
X69831Y-51119D01*
X70000Y-51152D01*
X70168Y-51119D01*
X70311Y-51023D01*
X70406Y-50880D01*
X70440Y-50712D01*
X70440Y-51335D01*
X69440Y-51335D01*
X69440Y-50712D01*
X69440Y-50287D01*
X69406Y-50119D01*
X69311Y-49976D01*
X69168Y-49880D01*
X69000Y-49847D01*
X68831Y-49880D01*
X68688Y-49976D01*
X68593Y-50119D01*
X68560Y-50287D01*
X68560Y-50712D01*
X68593Y-50880D01*
X68688Y-51023D01*
X68831Y-51119D01*
X69000Y-51152D01*
X69168Y-51119D01*
X69311Y-51023D01*
X69406Y-50880D01*
X69440Y-50712D01*
X69440Y-51335D01*
X68440Y-51335D01*
X68440Y-50712D01*
X68440Y-50287D01*
X68406Y-50119D01*
X68311Y-49976D01*
X68168Y-49880D01*
X68000Y-49847D01*
X67831Y-49880D01*
X67688Y-49976D01*
X67593Y-50119D01*
X67560Y-50287D01*
X67560Y-50712D01*
X67593Y-50880D01*
X67688Y-51023D01*
X67831Y-51119D01*
X68000Y-51152D01*
X68168Y-51119D01*
X68311Y-51023D01*
X68406Y-50880D01*
X68440Y-50712D01*
X68440Y-51335D01*
X67440Y-51335D01*
X67440Y-50712D01*
X67440Y-50287D01*
X67406Y-50119D01*
X67311Y-49976D01*
X67168Y-49880D01*
X67000Y-49847D01*
X66831Y-49880D01*
X66688Y-49976D01*
X66593Y-50119D01*
X66560Y-50287D01*
X66560Y-50712D01*
X66593Y-50880D01*
X66688Y-51023D01*
X66831Y-51119D01*
X67000Y-51152D01*
X67168Y-51119D01*
X67311Y-51023D01*
X67406Y-50880D01*
X67440Y-50712D01*
X67440Y-51335D01*
X66440Y-51335D01*
X66440Y-50712D01*
X66440Y-50287D01*
X66406Y-50119D01*
X66311Y-49976D01*
X66168Y-49880D01*
X66000Y-49847D01*
X65831Y-49880D01*
X65688Y-49976D01*
X65593Y-50119D01*
X65560Y-50287D01*
X65560Y-50712D01*
X65593Y-50880D01*
X65688Y-51023D01*
X65831Y-51119D01*
X66000Y-51152D01*
X66168Y-51119D01*
X66311Y-51023D01*
X66406Y-50880D01*
X66440Y-50712D01*
X66440Y-51335D01*
X57440Y-51335D01*
X57440Y-50712D01*
X57440Y-50287D01*
X57406Y-50119D01*
X57311Y-49976D01*
X57168Y-49880D01*
X57000Y-49847D01*
X56831Y-49880D01*
X56688Y-49976D01*
X56593Y-50119D01*
X56560Y-50287D01*
X56560Y-50712D01*
X56593Y-50880D01*
X56688Y-51023D01*
X56831Y-51119D01*
X57000Y-51152D01*
X57168Y-51119D01*
X57311Y-51023D01*
X57406Y-50880D01*
X57440Y-50712D01*
X57440Y-51335D01*
X56440Y-51335D01*
X56440Y-50712D01*
X56440Y-50287D01*
X56406Y-50119D01*
X56311Y-49976D01*
X56168Y-49880D01*
X56000Y-49847D01*
X55831Y-49880D01*
X55688Y-49976D01*
X55593Y-50119D01*
X55560Y-50287D01*
X55560Y-50712D01*
X55593Y-50880D01*
X55688Y-51023D01*
X55831Y-51119D01*
X56000Y-51152D01*
X56168Y-51119D01*
X56311Y-51023D01*
X56406Y-50880D01*
X56440Y-50712D01*
X56440Y-51335D01*
X53840Y-51335D01*
X53840Y-31712D01*
X53840Y-31287D01*
X53806Y-31119D01*
X53711Y-30976D01*
X53568Y-30880D01*
X53400Y-30847D01*
X53231Y-30880D01*
X53088Y-30976D01*
X52993Y-31119D01*
X52960Y-31287D01*
X52960Y-31712D01*
X52993Y-31880D01*
X53088Y-32023D01*
X53231Y-32119D01*
X53400Y-32152D01*
X53568Y-32119D01*
X53711Y-32023D01*
X53806Y-31880D01*
X53840Y-31712D01*
X53840Y-51335D01*
X52840Y-51335D01*
X52840Y-31712D01*
X52840Y-31287D01*
X52806Y-31119D01*
X52711Y-30976D01*
X52568Y-30880D01*
X52400Y-30847D01*
X52231Y-30880D01*
X52088Y-30976D01*
X51993Y-31119D01*
X51960Y-31287D01*
X51960Y-31712D01*
X51993Y-31880D01*
X52088Y-32023D01*
X52231Y-32119D01*
X52400Y-32152D01*
X52568Y-32119D01*
X52711Y-32023D01*
X52806Y-31880D01*
X52840Y-31712D01*
X52840Y-51335D01*
X50875Y-51335D01*
X51017Y-51276D01*
X51275Y-51018D01*
X51414Y-50682D01*
X51415Y-50318D01*
X51276Y-49982D01*
X51018Y-49724D01*
X50682Y-49585D01*
X50318Y-49584D01*
X49982Y-49723D01*
X49724Y-49981D01*
X49585Y-50317D01*
X49584Y-50681D01*
X49723Y-51017D01*
X49981Y-51275D01*
X50124Y-51335D01*
X43665Y-51335D01*
X43665Y-30665D01*
X50624Y-30665D01*
X50482Y-30723D01*
X50224Y-30981D01*
X50085Y-31317D01*
X50084Y-31681D01*
X50223Y-32017D01*
X50481Y-32275D01*
X50817Y-32414D01*
X51181Y-32415D01*
X51517Y-32276D01*
X51775Y-32018D01*
X51914Y-31682D01*
X51915Y-31318D01*
X51776Y-30982D01*
X51518Y-30724D01*
X51375Y-30665D01*
X80124Y-30665D01*
X79982Y-30723D01*
X79724Y-30981D01*
X79585Y-31317D01*
X79584Y-31681D01*
X79723Y-32017D01*
X79981Y-32275D01*
X80317Y-32414D01*
X80681Y-32415D01*
X81017Y-32276D01*
X81275Y-32018D01*
X81414Y-31682D01*
X81415Y-31318D01*
X81276Y-30982D01*
X81018Y-30724D01*
X80875Y-30665D01*
X89335Y-30665D01*
X89335Y-51335D01*
M02*
